<svg width="121" height="120" fill="none" xmlns="http://www.w3.org/2000/svg"><g clip-path="url(#clip0_77_270)" fill-rule="evenodd" clip-rule="evenodd"><path d="M60.374 31.33C45.412-5.128 1.132 2.552.187 44.547-.336 67.61 20.71 76.6 34.669 86.067c13.534 9.18 23.076 21.584 24.519 26.818 1.385-5.081 12.424-17.473 25.222-26.205 13.996-9.55 35.566-17.235 35.765-40.304.368-42.109-44.44-49.534-59.8-15.046z" fill="#7E8082"/><path d="M77.556 78.706c1.51 6.929-6.05 8.454-9.377 7.562-3.329-.893-7.45-2.363-7.45-2.363s-4.142 1.5-7.472 2.413c-3.33.913-10.893-.57-9.378-7.507 1.516-6.937 3.565-6.583 6.004-12.012 2.439-5.43 5.431-9.914 10.874-10.102 5.443-.187 7.84 3.678 10.843 10.046 3.002 6.368 4.454 5.037 5.956 11.963zm-9.82-26.622c4.097 1.167 8.623-2.067 10.127-7.225 1.504-5.158-.607-10.27-4.704-11.437-4.096-1.166-8.623 2.068-10.127 7.224-1.503 5.156.61 10.272 4.704 11.438zm16.981-1.924c-3.944-1.591-8.791 1.141-10.829 6.112-2.037 4.97-.493 10.287 3.454 11.874 3.946 1.586 8.791-1.141 10.827-6.112 2.035-4.97.493-10.28-3.452-11.874zm-30.983 1.965c4.098-1.181 6.21-6.323 4.726-11.465-1.483-5.143-6.015-8.35-10.108-7.16-4.093 1.19-6.21 6.324-4.726 11.465 1.483 5.141 6.01 8.35 10.108 7.16zm-9.62 16.117c3.946-1.615 5.499-6.942 3.47-11.894-2.029-4.952-6.873-7.664-10.82-6.048-3.949 1.617-5.5 6.942-3.47 11.894 2.028 4.953 6.872 7.663 10.82 6.048z" fill="#fff"/></g><defs><clipPath id="clip0_77_270"><path fill="#fff" transform="translate(.177)" d="M0 0h120v120H0z"/></clipPath></defs></svg>