<svg width="121" height="120" fill="none" xmlns="http://www.w3.org/2000/svg"><g clip-path="url(#clip0_77_305)"><path fill="#7E8082" d="M.71 0h120v120H.71z"/><path d="M120.146 92.352V59.676l-12.394-6.76v16.338l-8.45-3.38V48.408L85.78 40.52v51.831h13.521V76.578h8.451v15.774h12.394z" fill="#fff"/><path fill-rule="evenodd" clip-rule="evenodd" d="M85.217 39.54l14.648 8.545v17.407l7.324 2.93V51.966l13.521 7.375v33.573h-13.521V77.141h-7.324v15.774H85.217V39.54zm1.127 1.962v50.287h12.394V76.014h9.577V91.79h11.268V60.01l-11.268-6.145v16.22l-9.577-3.83V48.732l-12.394-7.23z" fill="#7E8082"/><path fill-rule="evenodd" clip-rule="evenodd" d="M39.02 40.521v-1.068l-.882.603L6.026 62.028l-.246.168V83.9H.71v9.578h43.38v-9.577h-5.07v-43.38zM6.907 84.465V62.79l30.986-21.2v43.438h5.071v7.324H1.837v-7.324h5.07v-.563zm19.718-27.042v-1.14l-.905.692-9.578 7.324-.22.17v20.558h10.702V57.423zM17.048 83.9V65.025l8.45-6.462V83.9h-8.45z" fill="#fff"/><path fill-rule="evenodd" clip-rule="evenodd" d="M6.907 62.79v22.238h-5.07v7.324h41.127v-7.324h-5.071V41.59L6.907 62.79zm19.718-5.367v-1.14l-.905.692-9.578 7.324-.22.17v20.558h10.702V57.423z" fill="#fff"/><path fill-rule="evenodd" clip-rule="evenodd" d="M39.02 40.521v-1.068l-.882.603L6.026 62.028l-.246.168V83.9H.71v9.578h43.38v-9.577h-5.07v-43.38zM6.907 84.465V62.79l30.986-21.2v43.438h5.071v7.324H1.837v-7.324h5.07v-.563zm19.718-27.042v-1.14l-.905.692-9.578 7.324-.22.17v20.558h10.702V57.423zM17.048 83.9V65.025l8.45-6.462V83.9h-8.45z" fill="#7E8082"/><path fill-rule="evenodd" clip-rule="evenodd" d="M39.583 50.662c0-6.85 3.28-12.478 7.758-16.407 4.488-3.939 10.135-6.128 14.777-6.128 11.525 0 23.1 9.369 23.1 22.535v19.155c0 6.288-3.087 11.92-7.544 15.992-4.462 4.077-10.247 6.543-15.556 6.543-5.04 0-10.687-2.328-15.076-6.197-4.386-3.865-7.459-9.214-7.459-15.211V50.662zM62.118 27c-4.957 0-10.86 2.318-15.52 6.407-4.672 4.1-8.142 10.02-8.142 17.255v20.282c0 6.397 3.277 12.034 7.84 16.056 4.56 4.018 10.463 6.479 15.822 6.479 5.636 0 11.682-2.605 16.315-6.838 4.638-4.237 7.91-10.154 7.91-16.824V50.662C86.344 36.786 74.175 27 62.119 27zm6.198 16.338v34.93a6.76 6.76 0 11-13.521 0v-34.93a6.76 6.76 0 0113.52 0zm-14.648 0a7.887 7.887 0 0115.774 0v34.93a7.887 7.887 0 01-15.774 0v-34.93z" fill="#fff"/><path fill-rule="evenodd" clip-rule="evenodd" d="M47.34 34.255c-4.477 3.929-7.757 9.558-7.757 16.407v20.282c0 5.997 3.073 11.346 7.459 15.21 4.39 3.87 10.036 6.198 15.076 6.198 5.31 0 11.094-2.466 15.556-6.543 4.457-4.072 7.543-9.704 7.543-15.992V50.662c0-13.166-11.574-22.535-23.099-22.535-4.642 0-10.289 2.189-14.777 6.128zm6.328 9.083a7.887 7.887 0 0115.774 0v34.93a7.887 7.887 0 01-15.774 0v-34.93z" fill="#fff"/><path fill-rule="evenodd" clip-rule="evenodd" d="M39.583 50.662c0-6.85 3.28-12.478 7.758-16.407 4.488-3.939 10.135-6.128 14.777-6.128 11.525 0 23.1 9.369 23.1 22.535v19.155c0 6.288-3.087 11.92-7.544 15.992-4.462 4.077-10.247 6.543-15.556 6.543-5.04 0-10.687-2.328-15.076-6.197-4.386-3.865-7.459-9.214-7.459-15.211V50.662zM62.118 27c-4.957 0-10.86 2.318-15.52 6.407-4.672 4.1-8.142 10.02-8.142 17.255v20.282c0 6.397 3.277 12.034 7.84 16.056 4.56 4.018 10.463 6.479 15.822 6.479 5.636 0 11.682-2.605 16.315-6.838 4.638-4.237 7.91-10.154 7.91-16.824V50.662C86.344 36.786 74.175 27 62.119 27zm6.198 16.338v34.93a6.76 6.76 0 11-13.521 0v-34.93a6.76 6.76 0 0113.52 0zm-14.648 0a7.887 7.887 0 0115.774 0v34.93a7.887 7.887 0 01-15.774 0v-34.93z" fill="#7E8082"/><path d="M61.555 46.155l-7.324 3.38 7.324 7.324 7.324-7.324-7.324-3.38z" fill="#fff"/><path fill-rule="evenodd" clip-rule="evenodd" d="M55.2 49.708l6.355 6.354 6.354-6.354-6.354-2.933-6.354 2.933zm-1.205-.684l7.324-3.38h.472l7.324 3.38.162.91-7.324 7.323h-.797l-7.323-7.323.162-.91z" fill="#7E8082"/></g><defs><clipPath id="clip0_77_305"><path fill="#fff" transform="translate(.71)" d="M0 0h120v120H0z"/></clipPath></defs></svg>