<svg width="120" height="120" fill="none" xmlns="http://www.w3.org/2000/svg"><path fill="#00468E" d="M0 0h120v120H0z"/><path d="M119.437 92.352V59.676l-12.395-6.76v16.338l-8.45-3.38V48.407L85.07 40.521v51.831h13.521V76.577h8.451v15.775h12.395z" fill="#fff"/><path fill-rule="evenodd" clip-rule="evenodd" d="M84.507 39.54l14.648 8.545v17.407l7.324 2.93V51.966L120 59.342v33.573h-13.521V77.141h-7.324v15.774H84.507V39.54zm1.127 1.962v50.287h12.394V76.014h9.578V91.79h11.267V60.01l-11.267-6.145v16.22l-9.578-3.83V48.732l-12.394-7.23z" fill="#00468E"/><path fill-rule="evenodd" clip-rule="evenodd" d="M38.31 40.521v-1.068l-.882.603L5.316 62.028l-.246.168V83.9H0v9.578h43.38V83.9h-5.07V40.52zM6.197 84.465V62.79l30.986-21.2v43.438h5.071v7.324H1.127v-7.324h5.07v-.563zm19.719-27.043v-1.14l-.906.693-9.578 7.324-.22.169v20.56h10.704V57.422zm-9.578 26.48V65.024l8.45-6.462V83.9h-8.45z" fill="#fff"/><path fill-rule="evenodd" clip-rule="evenodd" d="M6.197 62.79v22.238h-5.07v7.324h41.127v-7.324h-5.071V41.59L6.197 62.79zm19.719-5.367v-1.14l-.906.692-9.578 7.324-.22.169v20.56h10.704V57.422z" fill="#fff"/><path fill-rule="evenodd" clip-rule="evenodd" d="M38.31 40.521v-1.068l-.882.603L5.316 62.028l-.246.168V83.9H0v9.578h43.38V83.9h-5.07V40.52zM6.197 84.465V62.79l30.986-21.2v43.438h5.071v7.324H1.127v-7.324h5.07v-.563zm19.719-27.043v-1.14l-.906.693-9.578 7.324-.22.169v20.56h10.704V57.422zm-9.578 26.48V65.024l8.45-6.462V83.9h-8.45z" fill="#00468E"/><path fill-rule="evenodd" clip-rule="evenodd" d="M38.873 50.662c0-6.85 3.28-12.478 7.758-16.407 4.488-3.939 10.135-6.128 14.778-6.128 11.524 0 23.098 9.369 23.098 22.535v19.155c0 6.288-3.086 11.92-7.544 15.992-4.461 4.077-10.246 6.543-15.554 6.543-5.041 0-10.688-2.328-15.077-6.197-4.386-3.865-7.459-9.214-7.459-15.211V50.662zM61.41 27c-4.958 0-10.86 2.318-15.521 6.407-4.672 4.1-8.141 10.02-8.141 17.255v20.282c0 6.397 3.276 12.034 7.84 16.056 4.559 4.018 10.462 6.479 15.822 6.479 5.635 0 11.681-2.605 16.315-6.838 4.637-4.237 7.91-10.154 7.91-16.824V50.662C85.634 36.786 73.464 27 61.409 27zm6.197 16.338v34.93a6.76 6.76 0 11-13.521 0v-34.93a6.76 6.76 0 0113.52 0zm-14.648 0a7.887 7.887 0 1115.775 0v34.93a7.887 7.887 0 11-15.775 0v-34.93z" fill="#fff"/><path fill-rule="evenodd" clip-rule="evenodd" d="M46.63 34.255c-4.477 3.929-7.757 9.558-7.757 16.407v20.282c0 5.997 3.073 11.346 7.459 15.21 4.39 3.87 10.036 6.198 15.077 6.198 5.308 0 11.093-2.466 15.554-6.543 4.458-4.072 7.544-9.704 7.544-15.992V50.662c0-13.166-11.574-22.535-23.098-22.535-4.643 0-10.29 2.189-14.778 6.128zm6.328 9.083a7.887 7.887 0 1115.775 0v34.93a7.887 7.887 0 11-15.775 0v-34.93z" fill="#fff"/><path fill-rule="evenodd" clip-rule="evenodd" d="M38.873 50.662c0-6.85 3.28-12.478 7.758-16.407 4.488-3.939 10.135-6.128 14.778-6.128 11.524 0 23.098 9.369 23.098 22.535v19.155c0 6.288-3.086 11.92-7.544 15.992-4.461 4.077-10.246 6.543-15.554 6.543-5.041 0-10.688-2.328-15.077-6.197-4.386-3.865-7.459-9.214-7.459-15.211V50.662zM61.41 27c-4.958 0-10.86 2.318-15.521 6.407-4.672 4.1-8.141 10.02-8.141 17.255v20.282c0 6.397 3.276 12.034 7.84 16.056 4.559 4.018 10.462 6.479 15.822 6.479 5.635 0 11.681-2.605 16.315-6.838 4.637-4.237 7.91-10.154 7.91-16.824V50.662C85.634 36.786 73.464 27 61.409 27zm6.197 16.338v34.93a6.76 6.76 0 11-13.521 0v-34.93a6.76 6.76 0 0113.52 0zm-14.648 0a7.887 7.887 0 1115.775 0v34.93a7.887 7.887 0 11-15.775 0v-34.93z" fill="#00468E"/><path d="M60.845 46.155l-7.324 3.38 7.324 7.324 7.324-7.324-7.324-3.38z" fill="#fff"/><path fill-rule="evenodd" clip-rule="evenodd" d="M54.49 49.708l6.355 6.354 6.354-6.354-6.354-2.933-6.354 2.933zm-1.205-.684l7.324-3.38h.472l7.324 3.38.162.91-7.323 7.324h-.797l-7.324-7.324.162-.91z" fill="#00468E"/></svg>