<svg width="105" height="94" fill="none" xmlns="http://www.w3.org/2000/svg"><path fill-rule="evenodd" clip-rule="evenodd" d="M23.026 1.04c-3.29 3.49-4.539 12.927-2.286 17.268.396.763.59.756 1.13-.036 2.226-3.269 3.268-7.97 2.775-12.53-.24-2.217-.93-4.981-1.244-4.981-.061 0-.23.126-.375.28zM82.89.98c-.063.12-.209.61-.324 1.088-1.454 6.068-.63 12.436 2.112 16.334.477.678.651.666.975-.068 2.088-4.73 1.051-13.466-2.03-17.11-.438-.518-.567-.56-.733-.244zm-48.425.93c-4.404 2.213-7.922 6.735-9.366 12.043-.51 1.878-.415 2.11.665 1.61 4.364-2.019 8.588-7.301 9.845-12.312.523-2.083.466-2.15-1.144-1.341zm36.712-.363c-.039.099.073.801.249 1.56 1.128 4.885 4.612 9.67 8.824 12.122 1.58.92 1.768.789 1.337-.935-1.367-5.471-4.955-10.385-9.06-12.407-.991-.488-1.264-.557-1.35-.34zM16.142 10.56c-3.27 4.88-4.358 13.673-2.266 18.305.397.878.475.827 1.418-.923 3.259-6.046 3.961-12.581 1.855-17.258-.391-.868-.5-.881-1.007-.124zm73.192-.322c-1.517 2.286-1.784 7.867-.592 12.362.593 2.236 2.682 6.903 3.091 6.906.176.002.492-.752.794-1.898 1.289-4.874.555-10.955-1.913-15.847-.843-1.669-1.097-1.95-1.38-1.523zm-56.45 3.804c-4.336 1.056-7.619 2.818-10.567 5.674-2.472 2.394-4.678 5.732-3.636 5.501.158-.035.574-.122.925-.192 4.067-.82 8.841-3.534 11.668-6.633 1.289-1.412 2.943-4.027 2.745-4.339-.069-.108-.71-.114-1.135-.01zm40.128-.026c-.195.193.727 1.962 1.781 3.417 2.5 3.448 8.775 7.31 12.488 7.683.903.091.899.03-.115-1.615-2.02-3.28-5.28-6.228-8.763-7.932-1.818-.888-5.105-1.835-5.391-1.553zm-66.98 5.566c-1.39 5.452-.448 10.736 2.626 14.713 1.401 1.813 3.352 3.55 3.352 2.985 0-.037.097-.5.216-1.027.312-1.388.31-5.1-.003-6.914-.7-4.057-2.36-7.383-4.74-9.508-1.048-.935-1.266-.972-1.45-.249zm92.327.248c-3.744 3.503-5.654 10.54-4.514 16.622.227 1.21.316 1.196 1.743-.26 3.87-3.951 5.405-9.064 4.47-14.88-.419-2.603-.462-2.64-1.7-1.482zm-75.37 5.842c-6.022 3.601-9.234 8.35-9.767 14.444-.123 1.404.186 1.394 2.178-.074 3.959-2.916 7.015-7.833 8.102-13.033.351-1.678.296-1.82-.512-1.337zm59.842-.195c-.168.165.453 2.91 1.062 4.69 1.436 4.198 4.485 8.374 7.592 10.4 1.314.857 1.341.85 1.341-.31 0-3.628-1.999-8.079-5.04-11.22-1.648-1.704-4.648-3.859-4.955-3.56zM4.821 33.57c-.162.159-.091 3.044.109 4.355.732 4.806 3.567 9.35 7.745 12.414.733.537.786.416.702-1.59-.186-4.425-1.552-8.316-4.017-11.44-1.344-1.705-4.206-4.063-4.538-3.74zm95.274.313c-4.525 3.182-7.397 9.097-7.397 15.233 0 1.88-.014 1.874 1.397.607 4.607-4.135 6.762-8.603 6.818-14.134.023-2.271.013-2.291-.818-1.706zM16.38 41.797c-2.545 5.462-1.589 12.625 2.518 18.854.718 1.089.836 1.145 1.101.525.819-1.909 1.127-6.664.623-9.617-.536-3.145-1.597-6.456-3.081-9.621-.56-1.195-.664-1.207-1.16-.14zm72.134.623c-2.882 6.652-3.794 13.96-2.287 18.312.368 1.061.468 1.06 1.152-.013 3.944-6.177 4.873-13.23 2.486-18.86-.21-.496-.458-.902-.55-.902-.092 0-.45.653-.801 1.463zM.703 45.226c-.13.328 1.114 2.93 2.261 4.734 2.88 4.526 8.27 8.189 12.426 8.443.897.055.884-.133-.128-1.857-3.62-6.165-7.017-9.2-12.146-10.85-1.973-.634-2.321-.702-2.413-.47zm102.173.337c-5.161 1.671-8.76 5.004-12.061 11.166-.91 1.698-.914 1.823-.052 1.709 5.374-.713 10.591-5.095 13.355-11.216 1.074-2.378 1.055-2.404-1.242-1.66zm-95.93 11.96c.044.232.425 1.093.846 1.915 2.569 5.013 7.13 8.672 13.331 10.694 2.591.845 2.702.796 1.931-.853-1.516-3.243-4.998-6.766-9.02-9.129-2.126-1.248-5.5-2.744-6.674-2.959l-.496-.09.081.422zm90.22.095c-6.433 2.539-11.714 7.068-13.793 11.83-.632 1.448-.498 1.505 1.752.74 6.524-2.22 11.233-6.392 13.492-11.954.537-1.322.442-1.362-1.45-.616zm-74.985.97c-.18.174-.073 2.441.183 3.914.699 4.01 2.443 7.256 5.48 10.195 1.392 1.347 4.172 3.23 4.769 3.23.253 0 .253-.011.016-1.659-.948-6.58-4.04-11.64-9.247-15.128-.98-.657-1.058-.692-1.2-.553zm60.866.612c-5.036 3.511-8.26 9.272-8.814 15.746-.102 1.192-.08 1.2 1.222.417 3.442-2.068 6.359-5.567 7.725-9.267.939-2.54 1.588-7.371 1.016-7.555-.078-.024-.595.272-1.15.659zM34.42 70.693c-.109.172.42 1.417 1.073 2.53 1.903 3.244 5.053 5.92 9.407 7.996 2.417 1.152 6.173 2.469 6.403 2.245.243-.237-1.026-2.593-2.25-4.177-2.869-3.711-8.018-6.976-13.165-8.347l-1.175-.315c-.117-.033-.249-.002-.293.068zm36.844.205c-2.816.81-7.042 2.934-8.81 4.427-2.563 2.164-4.168 4.075-5.392 6.417-.584 1.12-.773 1.776-.509 1.776.564 0 3.866-1.248 5.815-2.198 4.794-2.338 7.987-5.376 9.804-9.33.666-1.45.602-1.527-.908-1.092zm-59-.055c-1.542.114-2.913.342-3.014.502-.112.176.617.887 1.78 1.736 3.444 2.514 8.414 3.871 14.257 3.894 4.62.018 4.95-.11 3.543-1.365-3.079-2.746-7.469-4.434-12.42-4.778-1.889-.131-2.224-.13-4.146.011zm77.944-.068c-3.814.367-5.672.847-8.334 2.151-1.902.932-4.752 3.104-4.752 3.621 0 .322 1.303.444 4.468.417 4.609-.039 8.679-1.027 11.889-2.887 1.716-.993 3.374-2.487 3.08-2.774-.307-.299-4.83-.675-6.351-.528zM26.9 78.184c-2.438.305-6.96 1.905-7.079 2.504-.03.154.401.339 1.932.828 7.314 2.338 13.845 2.472 17.674.362.82-.451.832-.604.09-1.101-3.165-2.123-8.166-3.15-12.617-2.593zm47.732-.013c-2.571.468-3.281.691-5.17 1.625-1.645.812-2.382 1.34-2.27 1.626.115.29 1.718 1.054 2.937 1.399 3.735 1.055 9.354.52 14.946-1.423 1.159-.402 1.498-.57 1.469-.726-.088-.464-3.473-1.827-5.784-2.329-1.061-.23-5.173-.346-6.128-.172zm-34.918 5.182c-4.243.296-7.41 1.33-9.367 3.058l-.528.465.283.235c.743.62 4.005 1.137 7.153 1.135 3.679 0 6.446-.49 10.502-1.857 2.796-.942 3.764-.978 4.502-.17.22.242.16.312-2.49 2.922-1.492 1.471-3.045 2.943-3.448 3.27-.404.328-.734.663-.734.745 0 .22.554.691.81.691.893 0 2.59-1.577 3.88-3.608 1.301-2.046 2.653-3.236 3.677-3.236.945 0 2.31 1.28 3.518 3.298 1.59 2.657 3.4 4.068 4.179 3.259.396-.412.391-.421-.84-1.518a45.244 45.244 0 01-2.344-2.302 125.061 125.061 0 00-2.139-2.218c-1.033-1.034-1.068-1.14-.504-1.531.759-.527 1.574-.472 3.551.237 4.303 1.543 6.796 2.02 10.576 2.02 2.982 0 6.66-.653 6.884-1.22.166-.423-1.784-1.806-3.547-2.516-4.647-1.872-10.866-1.546-17.866.934-1.05.371-1.635.52-1.775.45-.265-.133-2.992-1.026-4.166-1.365-2.904-.837-7.21-1.356-9.767-1.178z" fill="#fff"/><path d="M31.853 39.347h-.568c-.145-.393-.394-.792-.748-1.196-.354-.403-.706-.641-1.055-.714a3.26 3.26 0 00-.629-.058c-.264-.01-.483-.015-.658-.015h-1.541v3.996h1.092c.274 0 .524-.032.748-.095.225-.063.43-.185.614-.364.114-.112.23-.31.344-.591a3.36 3.36 0 00.232-.737h.568v4.317h-.568a3.462 3.462 0 00-.232-.765c-.12-.312-.235-.525-.344-.642a1.256 1.256 0 00-.584-.357 2.684 2.684 0 00-.778-.102h-1.092v2.982c0 .311.023.559.067.744.05.18.14.318.27.415.124.093.294.153.508.183.22.029.517.043.89.043.175 0 .385-.002.629-.007s.459-.02.643-.044c.21-.024.404-.06.584-.11.184-.048.322-.118.411-.21.24-.239.509-.6.808-1.087.3-.491.496-.858.591-1.101h.546l-.202 3.223h-9.957v-.569c.14-.01.33-.03.569-.058.24-.03.409-.063.509-.102.19-.078.316-.175.381-.292a.968.968 0 00.097-.46v-7.298a.977.977 0 00-.082-.43c-.055-.117-.187-.222-.396-.314a2.744 2.744 0 00-.546-.16 7.09 7.09 0 00-.532-.096v-.568h9.411v2.64zm7.129 7.373a9.25 9.25 0 01-1.024.364c-.365.112-.808.168-1.332.168-.778 0-1.357-.185-1.736-.554-.374-.37-.56-.897-.56-1.583v-4.477h-1.347v-.788h1.376v-2.209h2.431v2.21h2.095v.787h-2.08v3.996c0 .569.08.972.24 1.21.164.239.456.358.875.358.135 0 .322-.01.561-.03.24-.019.407-.04.501-.065v.612zm9.074.182a5.75 5.75 0 01-.777.255c-.3.078-.616.117-.95.117-.614 0-1.065-.088-1.355-.263a1.354 1.354 0 01-.59-.766h-.045a4.63 4.63 0 01-.494.423 2.71 2.71 0 01-.501.3 3.438 3.438 0 01-.681.233c-.215.053-.516.08-.905.08-.579 0-1.073-.165-1.482-.496-.408-.335-.613-.778-.613-1.327 0-.316.045-.583.135-.802.09-.224.217-.42.381-.59.15-.156.322-.285.516-.387.2-.102.417-.197.651-.285.45-.16.988-.325 1.616-.495.628-.175 1.087-.331 1.377-.467v-.7c0-.122-.01-.282-.03-.481-.02-.2-.063-.367-.127-.504a.968.968 0 00-.33-.393c-.15-.107-.346-.16-.59-.16-.22 0-.405.03-.554.094a1.76 1.76 0 00-.352.182c.015.098.057.246.127.445.07.2.105.392.105.576a.98.98 0 01-.067.314.69.69 0 01-.195.291 1.287 1.287 0 01-.389.227c-.14.053-.356.08-.65.08-.42 0-.736-.098-.95-.292a1.007 1.007 0 01-.322-.773c0-.272.11-.515.329-.73.224-.218.496-.398.815-.539a4.621 4.621 0 011.085-.335 5.762 5.762 0 011.137-.124c.484 0 .928.03 1.332.087.404.054.768.168 1.092.343.309.17.553.418.733.744.184.32.277.741.277 1.261 0 .55-.013 1.201-.038 1.955-.02.753-.03 1.249-.03 1.487 0 .219.033.392.098.518.07.126.174.221.314.284.085.04.217.063.396.073.185.005.352.007.502.007v.533zm-3.717-3.8c-.28.093-.556.2-.83.322a3.23 3.23 0 00-.674.371 1.4 1.4 0 00-.434.525c-.105.21-.157.457-.157.744 0 .38.087.654.262.824.18.17.399.255.658.255.274 0 .499-.053.673-.16a1.97 1.97 0 00.472-.408l.03-2.472zm13.966 3.8l-3.688.211-.112-.102v-.67l-.053-.015c-.244.257-.575.483-.994.678-.414.19-.833.284-1.257.284-1.008 0-1.838-.364-2.491-1.094-.654-.729-.98-1.672-.98-2.829 0-1.026.364-1.905 1.092-2.64a3.617 3.617 0 012.656-1.1c.409 0 .793.046 1.152.138.359.087.645.192.86.314v-2.385c0-.18-.038-.347-.112-.503a.912.912 0 00-.3-.372 1.498 1.498 0 00-.583-.226 5.57 5.57 0 00-.696-.102v-.532l4.04-.19.112.117v9.56c0 .184.03.34.09.466a.692.692 0 00.307.299c.104.053.256.092.456.117.204.024.371.039.501.043v.533zm-3.815-1.298v-4.12a2.847 2.847 0 00-.15-.372 1.445 1.445 0 00-.254-.387 1.34 1.34 0 00-.404-.27 1.299 1.299 0 00-.561-.116c-.499 0-.908.275-1.227.824-.32.55-.479 1.325-.479 2.326 0 .394.028.749.083 1.065.06.31.162.595.306.853.145.258.33.46.554.605.23.146.504.219.823.219.304 0 .556-.056.755-.168.2-.117.384-.27.554-.46zm11.94-4.922c.368.335.65.736.845 1.203.194.467.291.972.291 1.517 0 .54-.097 1.05-.291 1.53a3.32 3.32 0 01-.838 1.226 4.04 4.04 0 01-1.414.838c-.544.195-1.167.292-1.87.292-.609 0-1.17-.085-1.684-.255a3.981 3.981 0 01-1.354-.766 3.484 3.484 0 01-.897-1.203 3.84 3.84 0 01-.33-1.611c0-.584.095-1.101.285-1.553a3.53 3.53 0 01.868-1.218c.369-.34.823-.603 1.361-.788a5.493 5.493 0 011.818-.284c.698 0 1.312.095 1.84.284.534.185.99.448 1.37.788zm-1.916 5.053c.11-.272.19-.603.24-.992a9.82 9.82 0 00.082-1.356c0-.34-.025-.73-.075-1.167-.05-.437-.125-.782-.224-1.035a1.712 1.712 0 00-.502-.722c-.21-.175-.476-.263-.8-.263-.354 0-.638.095-.853.285a1.87 1.87 0 00-.486.736 3.961 3.961 0 00-.217.978c-.04.369-.06.755-.06 1.159 0 .53.018.97.053 1.32.034.345.12.693.254 1.043.114.3.28.54.493.714.215.175.487.263.816.263.3 0 .556-.08.77-.241.215-.165.385-.406.51-.722zm11.656-5.053c.368.335.65.736.844 1.203.195.467.292.972.292 1.517 0 .54-.097 1.05-.291 1.53a3.32 3.32 0 01-.838 1.226 4.04 4.04 0 01-1.414.838c-.544.195-1.167.292-1.87.292-.609 0-1.17-.085-1.684-.255a3.981 3.981 0 01-1.354-.766 3.487 3.487 0 01-.897-1.203 3.84 3.84 0 01-.33-1.611c0-.584.095-1.101.285-1.553a3.53 3.53 0 01.868-1.218c.369-.34.822-.603 1.361-.788a5.493 5.493 0 011.818-.284c.698 0 1.312.095 1.84.284.534.185.99.448 1.37.788zm-1.916 5.053c.11-.272.19-.603.24-.992.054-.389.082-.84.082-1.356 0-.34-.025-.73-.075-1.167-.05-.437-.125-.782-.225-1.035a1.711 1.711 0 00-.5-.722c-.21-.175-.477-.263-.801-.263-.354 0-.638.095-.853.285a1.87 1.87 0 00-.486.736 3.961 3.961 0 00-.217.978c-.04.369-.06.755-.06 1.159 0 .53.017.97.052 1.32.035.345.12.693.255 1.043.115.3.279.54.493.714.215.175.487.263.816.263.3 0 .556-.08.77-.241.215-.165.384-.406.51-.722zm11.468-4.579c0 .37-.117.695-.351.977-.235.277-.544.415-.928.415-.364 0-.673-.09-.928-.27-.25-.18-.374-.444-.374-.794 0-.17.013-.302.038-.394l.067-.27a1.61 1.61 0 00-.726.234c-.254.145-.478.34-.673.583v4.003c0 .17.028.311.082.423.055.112.147.2.277.263.11.053.287.1.531.138.25.034.43.054.539.059v.532H78.27v-.532c.125-.01.25-.022.374-.037.13-.02.24-.044.33-.073.159-.053.269-.136.329-.248a.925.925 0 00.09-.437v-4.244a.864.864 0 00-.128-.467 1.068 1.068 0 00-.306-.335 1.248 1.248 0 00-.345-.146 2.377 2.377 0 00-.448-.08v-.533l3.568-.19.112.11v1.058h.03a4.34 4.34 0 011.092-.912 2.4 2.4 0 011.212-.335c.464 0 .835.14 1.115.423.284.277.426.636.426 1.079zM52.6 58.207a10.3 10.3 0 00-.399.054 1.06 1.06 0 00-.469.19c-.12.087-.206.237-.259.451-.053.21-.08.522-.08.934v4.929h-.867l-3.92-5.333v3.238c0 .402.026.708.08.919.056.207.146.36.269.457.09.07.232.134.429.19.196.054.352.091.468.11v.38H44.81v-.38c.13-.009.278-.032.444-.067.17-.04.31-.097.424-.175a.71.71 0 00.264-.423c.05-.191.075-.51.075-.958v-3.267c0-.162-.027-.314-.08-.457a.914.914 0 00-.24-.374 1.274 1.274 0 00-.403-.258 2.387 2.387 0 00-.514-.15v-.39h2.643l3.382 4.668v-2.61c0-.416-.029-.724-.085-.924-.056-.205-.146-.355-.27-.453a1.185 1.185 0 00-.428-.194 4.881 4.881 0 00-.459-.107v-.38H52.6v.38zm4.518 2.193c0 .635-.216 1.144-.648 1.526-.432.38-1.015.569-1.75.569-.692 0-1.252-.19-1.681-.569-.429-.383-.643-.883-.643-1.502 0-.606.21-1.102.628-1.488.419-.385.996-.578 1.73-.578.729 0 1.304.186 1.726.559.426.373.639.867.639 1.483zm-.329 3.626h-4.064v-.544h4.064v.544zm-1.371-2.406a2.45 2.45 0 00.12-.52c.023-.192.035-.428.035-.71 0-.21-.01-.415-.03-.613a1.936 1.936 0 00-.115-.534.876.876 0 00-.25-.37.61.61 0 00-.418-.14.622.622 0 00-.43.145.948.948 0 00-.254.384c-.053.143-.09.311-.11.506a7.036 7.036 0 00-.024.607c0 .279.008.51.025.695.016.182.058.362.124.54.06.165.143.292.25.38a.65.65 0 00.419.13.608.608 0 00.409-.136.84.84 0 00.249-.364zm2.792 2.737c.576-.033.927-.096 1.053-.19.13-.097.195-.24.195-.428V59h-1.202v-.466h.214c.808 0 1.423-.285 1.845-.856h.878c-.033.593-.05 1.094-.05 1.502v4.512a.52.52 0 00.264.48c.177.101.471.163.883.186v.369h-4.08v-.37z" fill="#fff"/></svg>