<svg width="120" height="120" fill="none" xmlns="http://www.w3.org/2000/svg"><g clip-path="url(#clip0_77_254)"><path fill-rule="evenodd" clip-rule="evenodd" d="M19.854 1.708l-8.11 80.015 8.11 6.356 2.277-37.233 8.158 19.731 6.593-19.21 10.482 58.103 11.763 9.297L40.913 18.024 30.146 48.9 19.854 1.708z" fill="#7E8082"/><path fill-rule="evenodd" clip-rule="evenodd" d="M79.142 16.411L61.545 118.387l11.194-12.569 9.25-61.755 11.24 38.324 7.542-8.442L79.142 16.41z" fill="#EFEFEF"/><path d="M7 78.071l53.455 41.692m84.806-96.333l-84.949 96.285" stroke="#000" stroke-width=".567" stroke-miterlimit="22.926"/><path fill-rule="evenodd" clip-rule="evenodd" d="M79 16.411l-7.115 6.64L60.17 91.78l.142 27.936 1.66-1.802 17.123-101.17-.095-.332z" fill="#7E8082"/><path fill-rule="evenodd" clip-rule="evenodd" d="M47.933 23.478L60.17 92.063 60.455 120l-1.66-1.85-17.93-100.126 7.068 5.454zM19.901 1.897l7.352 5.74 7.162 28.837-4.363 12.712-10.15-47.194v-.095z" fill="#EFEFEF"/><path fill-rule="evenodd" clip-rule="evenodd" d="M84.075 81.06l9.202 1.327-11.289-38.324-2.75 18.261 4.837 18.735z" fill="#7E8082"/><path fill-rule="evenodd" clip-rule="evenodd" d="M29.055 86.751l-9.201 1.233 2.276-37.138 8.158 19.731-1.233 16.174zM39.49 69.296l-9.201 1.28 6.593-19.398 2.845 15.89-.237 2.228z" fill="#EFEFEF"/><path d="M7-8.348l53.455 41.74M110.162-12l-49.85 45.344" stroke="#000" stroke-width=".567" stroke-miterlimit="22.926"/></g><defs><clipPath id="clip0_77_254"><path fill="#fff" d="M0 0h120v120H0z"/></clipPath></defs></svg>