<svg width="121" height="120" fill="none" xmlns="http://www.w3.org/2000/svg"><g clip-path="url(#clip0_77_281)"><path d="M101.941 44.338c0 6.067-4.919 10.986-10.986 10.986-6.068 0-10.986-4.919-10.986-10.986 0-6.067 4.918-10.986 10.986-10.986 6.067 0 10.986 4.919 10.986 10.986z" fill="#EFEFEF"/><path d="M32.645 43.493a5.07 5.07 0 11-10.141 0 5.07 5.07 0 0110.14 0z" fill="#7E8082"/><path fill-rule="evenodd" clip-rule="evenodd" d="M15.665 51.285a6.762 6.762 0 11-13.294-2.45l-.846-.155a60 60 0 10119.007 10.87H90.544a30.01 30.01 0 11-60.019-.534 5.916 5.916 0 01-9.3-6.708l-5.56-1.024z" fill="#7E8082"/><path d="M7.293 50.254a3.38 3.38 0 11-6.76 0 3.38 3.38 0 016.76 0zm10.141-18.592a5.07 5.07 0 11-10.141 0 5.07 5.07 0 0110.14 0zm13.521 1.69a3.38 3.38 0 11-6.76 0 3.38 3.38 0 016.76 0zm-8.451 19.437a4.225 4.225 0 11-8.45 0 4.225 4.225 0 018.45 0zm-8.451-10.986a3.38 3.38 0 11-6.76 0 3.38 3.38 0 016.76 0z" fill="#7E8082"/><path d="M42.786 29.972a3.38 3.38 0 11-6.76 0 3.38 3.38 0 016.76 0z" fill="#EFEFEF"/><path d="M39.406 21.521a3.38 3.38 0 11-6.76 0 3.38 3.38 0 016.76 0zm-15.212-2.535a2.535 2.535 0 11-5.07 0 2.535 2.535 0 015.07 0zm3.38 6.76a2.535 2.535 0 11-5.07 0 2.535 2.535 0 015.07 0zm3.381-6.76a2.535 2.535 0 11-5.07 0 2.535 2.535 0 015.07 0zm11.831-3.381a2.535 2.535 0 11-5.07 0 2.535 2.535 0 015.07 0zm16.901 8.451a2.535 2.535 0 11-5.07 0 2.535 2.535 0 015.07 0zm-10.141 7.606a1.69 1.69 0 11-3.38 0 1.69 1.69 0 013.38 0zm-1.69-11.831a1.69 1.69 0 11-3.38 0 1.69 1.69 0 013.38 0zM41.096 9.69a1.69 1.69 0 11-3.38 0 1.69 1.69 0 013.38 0zm-6.761 3.38a1.69 1.69 0 11-3.38 0 1.69 1.69 0 013.38 0z" fill="#7E8082"/></g><defs><clipPath id="clip0_77_281"><path fill="#fff" transform="translate(.532)" d="M0 0h120v120H0z"/></clipPath></defs></svg>