<svg width="56" height="56" fill="none" xmlns="http://www.w3.org/2000/svg"><g clip-path="url(#clip0_101_319)"><path d="M22.7 55.183c-4.803-.995-9.285-3.214-12.804-6.339-9.033-8.023-11.825-20.626-7.053-31.84 1.172-2.754 3.077-5.549 5.438-7.977l2.081-2.14.147 12.528c.14 11.993.172 12.597.74 14.108 1.134 3.023 2.35 4.948 4.445 7.034 5.41 5.389 13.347 6.733 20.094 3.405 6.34-3.128 10.338-9.93 9.874-16.802-.312-4.615-1.864-8-5.215-11.372-2.534-2.55-5.516-4.215-8.761-4.894-3.303-.691-3.144-.792-3.144 2.003v2.413l1.81.334c7.011 1.292 11.649 8.177 10.187 15.125-.467 2.22-1.508 4.179-3.179 5.984-2.54 2.743-6.113 4.055-9.233 4.048-5.16-.01-9.467-2.941-11.555-7.276 0 0-.547-1.24-.723-2.005-1.034-4.504-.373-13.983-.373-13.983l-.08-13.861.818-.423c.45-.233.882-.424.96-.424.077 0 .175 6.367.218 14.148 0 0-.994 10.2.234 14.108.178.564.514 1.53.514 1.53 1.076 2.192 2.802 4.121 5.043 5.183 1.702.806 2.558 1.17 5.076 1.17 1.645 0 3.102-.519 4.778-1.29 1.977-.909 4.244-3.319 5.082-5.52 2.308-6.062-.906-12.585-7.098-14.403-2.53-.744-2.48-.785-2.48 1.967v2.404l1.215.325c4.38 1.171 5.715 7.04 2.278 10.056-1.215 1.066-2.309 1.537-4.223 1.537-2.046 0-4.01-1.239-5.019-3.138a5.792 5.792 0 01-.657-2.718c0-4.578-.1-12.81-.1-12.81l-.082-14.123.63-.156c.345-.086 1.742-.298 3.105-.472 4.62-.59 11.455.922 16.047 3.55 6.26 3.582 10.997 9.735 12.97 16.847.678 2.446.754 3.158.754 7.093 0 3.918-.078 4.653-.742 7.046-2.682 9.666-9.506 16.576-19.263 19.507-2.054.616-3.016.734-6.639.811-2.924.063-4.82-.03-6.115-.298z" fill="#C60C30"/></g><defs><clipPath id="clip0_101_319"><path fill="#fff" transform="translate(.542 .5)" d="M0 0h54.917v55H0z"/></clipPath></defs></svg>