<svg width="60" height="60" fill="none" xmlns="http://www.w3.org/2000/svg"><rect width="60" height="60" rx="30" fill="#A20000"/><path d="M30 37.237c-.944 0-1.712.768-1.712 1.712a1.713 1.713 0 003.424-.001c0-.944-.768-1.712-1.712-1.712zm0 2.731a1.02 1.02 0 111.02-1.02 1.02 1.02 0 01-1.02 1.02z" fill="#fff" stroke="#fff" stroke-width=".6"/><path d="M44.68 17.23H34.375c-.878-3.495-2.37-6.154-4.204-7.186a.346.346 0 00-.34 0c-1.833 1.032-3.326 3.691-4.203 7.186H15.32a2.398 2.398 0 00-2.395 2.395v21.09a2.398 2.398 0 002.395 2.395h10.222l-1.16 3.314h-.112a1.859 1.859 0 00-1.856 1.857v1.373c0 .19.155.346.346.346h14.48a.346.346 0 00.346-.346V48.28a1.859 1.859 0 00-1.857-1.857h-.111l-1.16-3.313H44.68a2.398 2.398 0 002.395-2.395v-21.09a2.397 2.397 0 00-2.395-2.396zm0 .693c.939 0 1.702.764 1.702 1.702v2.56h-6.145a.346.346 0 000 .692h6.145v12.457H44.88a3.39 3.39 0 00-.967-2.044 3.194 3.194 0 00-2.05-2.833 3.21 3.21 0 00-2.84-1.728c-.325 0-.643.049-.95.145a11.272 11.272 0 00-2.845-4.702c-.026-2.225-.27-4.346-.69-6.249h10.144v0zm-19.903 7.254c.033 1.834.211 3.61.532 5.292a5.705 5.705 0 00-.948 2.242H22.14a10.557 10.557 0 012.639-7.534zm10.446 0a10.557 10.557 0 012.638 7.534H35.64a5.706 5.706 0 00-.948-2.242c.321-1.682.5-3.458.532-5.292zm-.178 8.59v.068h-10.09v-.069A5.05 5.05 0 0130 28.723a5.05 5.05 0 015.045 5.044zm-13.576-.684c.013.181.164.32.345.32h2.461a5.484 5.484 0 00.006.804c.014.181.164.32.345.32h10.748a.345.345 0 00.345-.32 5.8 5.8 0 00.019-.44c0-.123-.005-.243-.013-.364h2.461a.347.347 0 00.346-.32 11.45 11.45 0 00-.277-3.541 2.515 2.515 0 013.045 1.339c.04.087.114.154.205.184a2.503 2.503 0 011.717 2.376c0 .097.041.19.112.255a2.69 2.69 0 01.847 1.638H15.647c.08-.624.378-1.208.846-1.638a.347.347 0 00.113-.255 2.503 2.503 0 011.717-2.376.347.347 0 00.206-.184 2.515 2.515 0 012.277-1.46c.32 0 .63.061.926.179-.198.845-.3 1.72-.3 2.61 0 .264.012.55.037.873zM30 10.75c1.23.783 2.349 2.488 3.166 4.834.897 2.575 1.37 5.682 1.37 8.984 0 1.8-.142 3.547-.422 5.205A5.72 5.72 0 0030 28.029a5.72 5.72 0 00-4.114 1.744 31.24 31.24 0 01-.423-5.205c0-3.302.474-6.409 1.371-8.984.817-2.346 1.936-4.051 3.166-4.834zm-14.68 7.173h10.143c-.42 1.903-.664 4.024-.69 6.249a11.271 11.271 0 00-2.861 4.755 3.173 3.173 0 00-1.106-.198 3.21 3.21 0 00-2.841 1.728 3.194 3.194 0 00-2.049 2.833 3.39 3.39 0 00-.967 2.044h-1.331V21.41h7.3a.346.346 0 000-.693h-7.3v-1.092c0-.938.763-1.702 1.702-1.702zm21.573 30.358v1.026H23.107v-1.026c0-.642.522-1.164 1.163-1.164h11.46c.641 0 1.163.522 1.163 1.164zm-2.01-1.857h-9.767l1.16-3.313h7.448l1.16 3.313zm9.797-4.007H15.32a1.704 1.704 0 01-1.702-1.701v-2.078h5.195a.346.346 0 100-.693h-5.195v-1.918h32.764v4.689c0 .938-.763 1.701-1.701 1.701z" fill="#fff" stroke="#fff" stroke-width=".6"/><path d="M30 19.189c1.082 0 1.962-.88 1.962-1.963 0-1.082-.88-1.962-1.962-1.962-1.082 0-1.962.88-1.962 1.962 0 1.082.88 1.963 1.962 1.963zm0-3.232a1.271 1.271 0 010 2.54 1.271 1.271 0 010-2.54z" fill="#fff" stroke="#fff" stroke-width=".6"/></svg>