<svg width="60" height="60" fill="none" xmlns="http://www.w3.org/2000/svg"><rect width="60" height="60" rx="30" fill="#A20000"/><path d="M45.125 19.514a.746.746 0 00.613-.215l4.043-4.043a.75.75 0 00-.463-1.277l-3.023-.274-.274-3.023a.75.75 0 00-1.277-.462L40.7 14.262a.75.75 0 00-.215.613l.358 3.22-.757.758a16.617 16.617 0 00-10.499-4.356v-1.424a.75.75 0 00-1.5 0v1.423c-8.603.383-15.532 7.312-15.915 15.916H10.75a.75.75 0 000 1.5h1.423c.383 8.603 7.312 15.532 15.916 15.915v1.423a.75.75 0 001.5 0v-1.423c8.603-.383 15.532-7.312 15.915-15.916h1.423a.75.75 0 000-1.5h-1.423a16.618 16.618 0 00-4.357-10.498l.757-.757 3.22.358zm-.453-7.102l.187 2.05a.75.75 0 00.678.68l2.051.186-2.656 2.656-2.624-.292-.292-2.624 2.656-2.656zm-.669 18h-1.056a.75.75 0 000 1.5h1.056c-.38 7.776-6.638 14.034-14.415 14.414V45.27a.75.75 0 10-1.5 0v1.056c-7.776-.38-14.034-6.638-14.414-14.415h1.056a.75.75 0 100-1.5h-1.056c.38-7.776 6.638-14.034 14.415-14.414v1.056a.75.75 0 001.5 0v-1.056a15.124 15.124 0 019.437 3.917L36.77 22.17a11.946 11.946 0 00-7.932-3.005c-6.615 0-11.996 5.382-11.996 11.997s5.381 11.996 11.996 11.996 11.997-5.381 11.997-11.996c0-3.038-1.136-5.816-3.005-7.932l2.257-2.256a15.124 15.124 0 013.916 9.438zm-15.695 1.28a.748.748 0 001.06 0l4.073-4.072a5.781 5.781 0 011.208 3.542 5.817 5.817 0 01-5.81 5.81 5.818 5.818 0 01-5.812-5.81 5.817 5.817 0 015.811-5.811 5.78 5.78 0 013.542 1.209l-4.072 4.071a.75.75 0 000 1.06zm.53-7.84c-4.03 0-7.31 3.279-7.31 7.31 0 4.03 3.28 7.31 7.31 7.31 4.032 0 7.31-3.28 7.31-7.31a7.28 7.28 0 00-1.64-4.61l2.26-2.26a10.453 10.453 0 012.568 6.87c0 5.788-4.71 10.497-10.497 10.497-5.788 0-10.497-4.71-10.497-10.497 0-5.788 4.709-10.497 10.497-10.497 2.624 0 5.027.968 6.87 2.566l-2.262 2.261a7.276 7.276 0 00-4.609-1.64z" fill="#fff"/></svg>