<svg width="60" height="60" fill="none" xmlns="http://www.w3.org/2000/svg"><rect width="60" height="60" rx="30" fill="#A20000"/><path d="M46.336 13.78H13.664c-.642 0-1.164.523-1.164 1.165v27.513c0 .642.522 1.164 1.164 1.164H26.35v2.058c0 .37.185.485.295.52.111.036.328.051.545-.248l2.769-3.837c.02-.029.038-.038.04-.038.005 0 .021.01.042.038l2.77 3.837c.154.214.31.267.425.267a.387.387 0 00.119-.019c.11-.035.295-.15.295-.52v-2.058h12.686c.642 0 1.164-.522 1.164-1.164V14.945c0-.642-.522-1.164-1.164-1.164zM27.388 37.892a.681.681 0 01-.212-.031c-.385-.125-.65-.609-.93-1.121-.247-.45-.502-.914-.881-1.19-.385-.28-.91-.38-1.418-.478-.569-.109-1.106-.212-1.34-.532-.229-.316-.162-.855-.091-1.426.064-.516.13-1.05-.019-1.508-.142-.438-.501-.819-.848-1.187-.387-.41-.786-.834-.786-1.25 0-.417.4-.841.786-1.252.347-.368.706-.749.848-1.187.149-.458.083-.992.019-1.508-.071-.57-.138-1.11.091-1.425.234-.32.771-.423 1.34-.532.508-.098 1.033-.198 1.418-.478.38-.276.634-.741.88-1.19.28-.512.546-.996.93-1.121a.678.678 0 01.213-.032c.33 0 .728.187 1.149.384.477.223.97.454 1.463.454.493 0 .986-.231 1.463-.454.421-.197.819-.384 1.15-.384a.68.68 0 01.211.032c.385.125.65.609.93 1.12.247.45.502.915.881 1.19.385.281.91.381 1.418.479.569.109 1.106.212 1.34.532.229.315.162.855.091 1.425-.064.516-.13 1.05.019 1.508.142.438.5.82.848 1.187.387.41.786.835.786 1.251 0 .417-.4.841-.786 1.251-.347.369-.706.75-.848 1.187-.15.459-.083.992-.019 1.508.071.571.138 1.11-.091 1.426-.234.32-.771.423-1.34.532-.508.097-1.033.198-1.418.478-.38.276-.634.74-.88 1.19-.281.512-.546.996-.93 1.12a.679.679 0 01-.213.032c-.33 0-.728-.186-1.149-.383-.477-.223-.97-.454-1.463-.454-.493 0-.986.23-1.463.454-.421.197-.819.383-1.15.383zm6.262.118c.253-.274.448-.629.639-.977.214-.391.435-.795.705-.99.275-.2.731-.288 1.173-.373.66-.126 1.343-.257 1.718-.772.371-.51.286-1.196.204-1.859-.056-.45-.114-.915-.007-1.244.1-.309.398-.624.712-.958.468-.496.952-1.01.952-1.669 0-.658-.484-1.172-.952-1.668-.314-.334-.612-.65-.712-.958-.107-.33-.05-.795.007-1.244.082-.664.167-1.35-.204-1.86-.375-.514-1.058-.645-1.718-.771-.442-.085-.898-.172-1.173-.372-.27-.196-.491-.6-.705-.99-.325-.595-.662-1.208-1.277-1.408a1.293 1.293 0 00-.4-.061c-.466 0-.944.224-1.407.44-.417.195-.847.397-1.205.397-.358 0-.788-.202-1.205-.397-.463-.216-.941-.44-1.407-.44-.14 0-.275.02-.4.06-.615.2-.951.814-1.277 1.408-.214.39-.435.795-.705.99-.274.2-.731.288-1.173.373-.66.126-1.343.257-1.718.772-.37.51-.286 1.195-.203 1.859.055.45.113.915.006 1.244-.1.308-.397.624-.712.958-.468.496-.952 1.01-.952 1.668 0 .659.484 1.172.952 1.669.315.334.612.65.712.958.107.33.05.794-.006 1.244-.083.664-.168 1.35.203 1.859.375.515 1.058.646 1.718.772.442.085.899.172 1.173.372.27.196.491.6.705.99.191.349.387.704.64.978v2.663H13.108V21.936h5.9a.304.304 0 100-.609h-5.9v-2.76H46.89V37.88h-7.032a.305.305 0 000 .609h7.032v2.184H33.65V38.01zM13.664 14.39h32.672c.306 0 .555.25.555.556v1.079H24.688a.305.305 0 100 .61H46.89v1.325H13.109v-3.014c0-.306.25-.555.555-.555zm0 28.624a.556.556 0 01-.555-.555V41.28H26.35v1.732H13.664zm16.87-1.255a.663.663 0 00-.534-.29.663.663 0 00-.535.29l-2.506 3.472v-6.802c.01.004.019.008.029.01.125.041.26.062.4.062.067 0 .134-.005.201-.014v2.491a.304.304 0 10.61 0v-2.655c.2-.077.4-.17.596-.262.417-.195.847-.397 1.205-.397.358 0 .788.202 1.205.397.463.216.941.44 1.407.44.14 0 .275-.02.4-.061.01-.003.02-.008.029-.01v6.801l-2.506-3.471zm15.802 1.255H33.65v-1.732h13.241v1.177c0 .306-.25.555-.555.555z" fill="#fff" stroke="#fff" stroke-width=".6"/><path d="M15.23 17.278a1.094 1.094 0 000-2.185 1.094 1.094 0 000 2.185zm0-1.576a.484.484 0 11-.002.968.484.484 0 01.002-.968zm3.045 1.576a1.094 1.094 0 000-2.185 1.094 1.094 0 000 2.185zm0-1.576a.484.484 0 11-.002.968.484.484 0 01.002-.968zm3.045 1.576a1.094 1.094 0 000-2.185 1.094 1.094 0 000 2.185zm0-1.576a.484.484 0 11-.001.968.484.484 0 010-.968zm15.362 13.465A6.69 6.69 0 0030 22.485a6.69 6.69 0 00-6.682 6.682A6.69 6.69 0 0030 35.85a6.69 6.69 0 006.682-6.683zm-12.755 0A6.08 6.08 0 0130 23.094a6.08 6.08 0 016.074 6.073A6.08 6.08 0 0130 35.241a6.08 6.08 0 01-6.073-6.074z" fill="#fff" stroke="#fff" stroke-width=".6"/><path d="M34.476 29.167A4.482 4.482 0 0030 24.691a4.481 4.481 0 00-4.477 4.476A4.482 4.482 0 0030 33.644a4.482 4.482 0 004.476-4.477zm-7.635 2.227h2.414a.305.305 0 100-.609h-2.767a3.841 3.841 0 01-.352-1.469h4.409a.304.304 0 100-.609H26.16A3.872 3.872 0 0130 25.3c1.162 0 2.205.516 2.914 1.33h-2.87a.304.304 0 100 .608h3.306a3.85 3.85 0 01.517 1.93A3.872 3.872 0 0130 33.034a3.865 3.865 0 01-3.16-1.64z" fill="#fff" stroke="#fff" stroke-width=".6"/></svg>