<svg width="60" height="60" fill="none" xmlns="http://www.w3.org/2000/svg"><rect width="60" height="60" rx="30" fill="#A20000"/><path fill-rule="evenodd" clip-rule="evenodd" d="M29.28 9.169c-.472.123-.776.273-1.122.55a2.9 2.9 0 00-1.037 1.623 2.968 2.968 0 00-.026 1.36c.09.467.328 1.119.53 1.448.259.422.62.85.907 1.071.528.407 1.048.579 1.64.54.278-.017.44-.062.729-.2.438-.211.94-.652 1.27-1.115.263-.367.557-1.022.689-1.528.12-.466.122-1.238.003-1.638-.242-.81-.833-1.54-1.522-1.88a2.966 2.966 0 00-2.06-.231zm1.542 1.019c.375.18.81.61.98.968.07.15.154.415.186.59.043.242.043.4-.002.668a3.445 3.445 0 01-.897 1.843c-.377.403-.701.572-1.097.572-.388 0-.703-.163-1.11-.576a2.685 2.685 0 01-.54-.779 4.951 4.951 0 01-.3-.752c-.095-.38-.095-.981 0-1.304.161-.54.71-1.08 1.33-1.307.2-.073.36-.092.706-.08.37.012.497.039.744.157zm-3.679 5.582a3.069 3.069 0 00-1.733.87 2.51 2.51 0 00-.555.77c-.325.667-.37.968-.352 2.376l.015 1.207.14.12.139.12H35.2l.131-.131.131-.131v-1.299c0-1.447-.028-1.64-.321-2.237a3.543 3.543 0 00-.356-.57 3.126 3.126 0 00-1.559-1.02 5.228 5.228 0 00-.817-.105c-.425-.024-.584-.014-.72.043-.14.06-.325.28-.91 1.086-.405.557-.758 1.013-.785 1.013-.028 0-.367-.434-.754-.964-.388-.53-.767-1.01-.843-1.067-.114-.084-.219-.105-.57-.112a5.051 5.051 0 00-.685.03zm9.704.126a.508.508 0 00-.19.219c-.047.113-.049.188-.005.319.05.15.13.212.662.505.76.42 1.609.98 2.22 1.467a15.655 15.655 0 015.412 8.262c.158.599.245.72.518.72.09 0 .221-.048.296-.107.229-.18.243-.298.1-.83a16.49 16.49 0 00-2.394-5.219c-.559-.81-1.047-1.386-1.92-2.263-1.107-1.11-1.936-1.766-3.18-2.51-.707-.425-1.135-.638-1.276-.635a.642.642 0 00-.243.072zm-14.835.326c-.535.294-1.684 1.071-2.234 1.51a17.087 17.087 0 00-2.81 2.88 20 20 0 00-1.253 1.896 18.014 18.014 0 00-1.415 3.29c-.163.539-.33 1.258-.33 1.421 0 .073.061.187.145.271.111.111.191.146.34.146.264 0 .383-.141.48-.571.158-.689.538-1.841.828-2.508a15.717 15.717 0 011.906-3.302 15.435 15.435 0 012.698-2.783c.555-.445 1.563-1.132 2.066-1.407.43-.234.522-.332.522-.554a.46.46 0 00-.397-.47c-.14-.02-.25.017-.546.18zm6.777 1.657c.49.667.943 1.237 1.005 1.266.173.08.33.063.472-.048.07-.055.502-.616.959-1.246.456-.63.861-1.157.899-1.172.037-.014.26-.001.496.03.54.07.973.266 1.297.59.135.135.316.393.41.586l.168.344.025 1.03.025 1.03h-9.109v-.858c0-.942.055-1.262.285-1.686.152-.28.575-.686.876-.843.256-.134.668-.227 1.026-.232l.276-.004.89 1.213zm-.347 6.895c-.067.067-.17.293-.242.533l-.231.77c-.102.34-.114.357-.346.465l-.24.112-.777-.303c-.428-.167-.834-.304-.902-.304a.539.539 0 00-.214.048c-.086.046-1.604 1.9-1.727 2.108a.628.628 0 00-.062.261c-.002.126.102.296.498.82l.5.66-.033.268a2.3 2.3 0 01-.07.367c-.022.061-.31.238-.776.476-.667.34-.747.394-.795.543-.044.139-.012.364.206 1.428.142.694.284 1.293.315 1.33.104.125.32.174 1.11.25.432.041.806.088.832.104.025.016.113.125.194.243l.148.215-.098.797c-.102.834-.089.996.087 1.102.05.03.58.29 1.181.578.762.366 1.15.526 1.285.53.185.007.218-.019.745-.57l.551-.579.38-.025.382-.026.56.573c.307.315.62.594.694.62.154.054.323-.014 1.741-.697.566-.272.855-.44.913-.528.08-.122.08-.176-.003-.96l-.088-.831.162-.23c.182-.259.113-.24 1.21-.34.325-.03.638-.073.695-.095a.567.567 0 00.186-.132c.05-.057.18-.567.335-1.3.14-.665.254-1.25.254-1.301 0-.253-.108-.342-.868-.717l-.752-.371-.055-.353-.054-.353.517-.68c.346-.456.517-.723.517-.808 0-.07-.056-.21-.124-.31-.181-.267-1.511-1.927-1.626-2.028a.447.447 0 00-.257-.087c-.087 0-.492.134-.9.298-.408.164-.767.297-.797.298-.03 0-.156-.056-.277-.124l-.222-.124-.212-.732c-.152-.526-.248-.771-.34-.87l-.128-.136h-2.865l-.117.117zm2.568 1.236c.069.225.16.533.203.685.043.151.128.322.19.379.173.158 1.001.561 1.154.561.074 0 .446-.124.826-.276.381-.153.712-.27.735-.26.054.02 1.097 1.308 1.097 1.354 0 .019-.201.301-.447.627-.376.5-.447.623-.446.778 0 .28.196 1.262.277 1.388.039.06.367.258.728.439.362.18.661.332.666.337.017.014-.31 1.566-.336 1.59-.013.014-.336.052-.717.084-.381.033-.764.088-.851.123-.107.042-.269.213-.5.526a5.71 5.71 0 00-.376.556c-.02.051-.002.342.038.645.04.304.08.626.088.715l.014.162-.753.367-.753.366-.54-.544-.539-.545-.62-.026c-.378-.016-.7-.005-.822.028-.161.043-.296.157-.68.572l-.48.517-.732-.349a13.802 13.802 0 01-.769-.383c-.02-.019-.004-.301.037-.628.04-.326.074-.668.074-.76 0-.13-.08-.281-.352-.66-.195-.27-.4-.516-.458-.547-.058-.03-.44-.086-.85-.123-.408-.037-.758-.084-.778-.104-.036-.04-.341-1.405-.341-1.53 0-.046.256-.2.673-.402.515-.252.69-.361.745-.47.092-.178.287-1.308.25-1.454-.015-.06-.229-.374-.474-.698-.272-.356-.432-.609-.407-.641.352-.466 1.065-1.32 1.102-1.32.026 0 .354.123.728.274.374.15.748.272.83.271.084 0 .373-.117.648-.26.577-.302.58-.306.829-1.19l.164-.582.9-.001h.9l.125.409zm-1.404 2.72a3.103 3.103 0 00-1.1.4c-.324.208-.728.655-.925 1.026-.09.169-.196.458-.235.643-.208.982.036 1.81.744 2.524.235.236.456.403.672.508.822.398 1.613.407 2.412.03.634-.3 1.173-.91 1.382-1.564.174-.544.2-.89.103-1.36-.262-1.268-1.205-2.12-2.457-2.223a3.077 3.077 0 00-.596.016zm.82.968a1.76 1.76 0 01.745 3.038c-.137.124-.35.273-.473.33-.178.083-.32.104-.695.104-.42 0-.503-.016-.767-.145a1.96 1.96 0 01-.855-.83c-.125-.237-.14-.317-.14-.738 0-.415.017-.508.143-.78.15-.326.48-.679.78-.836.196-.103.6-.21.816-.216.083-.002.284.03.446.073zm-15.695.118c-.405.11-.57.188-.966.456-.356.24-.69.623-.907 1.036-.257.49-.34.835-.337 1.41.003.601.12 1.091.4 1.69.23.49.408.759.751 1.135a2.82 2.82 0 001.158.766c.285.1.423.119.75.105.337-.015.46-.046.773-.196.205-.098.5-.283.655-.41.544-.446 1.021-1.2 1.26-1.993.114-.377.136-.543.14-1.067.004-.53-.012-.67-.113-.968-.14-.412-.24-.59-.565-1.005-.294-.374-.864-.765-1.328-.912-.2-.063-.511-.11-.819-.123-.387-.016-.574 0-.852.076zm29.12-.022c-.727.165-1.435.661-1.825 1.282a3.017 3.017 0 00-.455 1.234c-.1.66.063 1.47.455 2.25.453.903 1.133 1.54 1.89 1.77.266.08.429.098.736.08.344-.02.45-.05.824-.24a2.76 2.76 0 00.761-.549 4.45 4.45 0 00.942-1.447 5.54 5.54 0 00.224-.805c.15-.795.026-1.55-.36-2.203a2.997 2.997 0 00-1.603-1.297c-.418-.142-1.142-.175-1.588-.075zm-27.58 1.032c.384.177.626.375.843.692.252.367.38.774.38 1.203 0 .467-.1.847-.373 1.401a2.71 2.71 0 01-.558.797c-.184.188-.424.384-.533.435a1.692 1.692 0 01-.486.115c-.434.032-.68-.084-1.13-.535-.291-.29-.426-.475-.585-.798-.29-.593-.37-.95-.346-1.559.017-.423.04-.54.157-.772.244-.483.681-.853 1.248-1.055.184-.066.358-.085.67-.073.33.013.486.046.712.15zm29.076.023c.412.203.791.597.998 1.039.282.602.238 1.332-.128 2.117a4.428 4.428 0 01-.4.664c-.41.543-.843.807-1.32.807-.159 0-.357-.038-.473-.091-.287-.13-.779-.604-1.015-.978a4.423 4.423 0 01-.357-.778 2.427 2.427 0 01-.16-.906c-.004-.36.018-.507.114-.761.14-.367.497-.787.842-.99.41-.24.687-.311 1.15-.297.36.011.47.037.749.174zm-32.701 5.57c-.46.072-.94.245-1.246.45-.433.289-.87.778-1.074 1.203-.289.6-.325.851-.326 2.237 0 1.25.015 1.372.194 1.509.06.046 1.27.06 5.282.062l5.203.001.145-.145.145-.145v-1.237c0-1.068-.013-1.288-.098-1.62a3.354 3.354 0 00-.676-1.31c-.28-.32-.753-.662-1.113-.806-.6-.239-1.61-.322-1.935-.16-.127.064-.365.35-.895 1.077-.397.544-.744.995-.77 1.002-.026.007-.371-.433-.767-.98-.396-.545-.776-1.028-.844-1.073-.086-.057-.253-.086-.546-.094a4.714 4.714 0 00-.68.029zm29.03.006a3.364 3.364 0 00-1.002.296 3.489 3.489 0 00-.972.801c-.443.573-.662 1.222-.68 2.01-.005.268-.004.848.003 1.288.012.79.014.801.143.93l.13.131h10.406l.14-.12.139-.12.015-1.18c.018-1.38-.035-1.753-.337-2.377a3.517 3.517 0 00-.445-.68c-.312-.348-.821-.692-1.226-.828a4.05 4.05 0 00-1.388-.196c-.268.013-.398.045-.5.121-.077.057-.454.535-.839 1.064-.384.528-.72.966-.744.973-.025.008-.377-.442-.781-.998-.631-.867-.764-1.023-.932-1.09-.21-.084-.606-.093-1.13-.025zm-27.482 1.992c.436.602.863 1.17.949 1.262.122.132.193.167.34.167.144 0 .22-.036.341-.163.086-.09.514-.66.95-1.265.894-1.24.768-1.148 1.439-1.051.19.027.464.104.608.17.345.158.759.555.946.908.083.157.176.418.208.582.032.173.05.642.041 1.117l-.015.819h-4.51c-2.965 0-4.517-.017-4.526-.05-.047-.157-.062-1.38-.021-1.703a2.113 2.113 0 011.13-1.637c.346-.185.597-.246 1.028-.25l.297-.003.795 1.096zm29.073.064c.459.628.891 1.192.96 1.253.179.158.42.148.6-.024.079-.075.509-.645.957-1.266.802-1.112.816-1.13.992-1.129.349 0 .826.107 1.128.251.363.174.771.592.945.97.064.14.139.377.167.527.028.15.044.639.037 1.085l-.014.813H44.5l-4.537.002-.016-.766c-.01-.421.005-.899.03-1.061.11-.675.566-1.298 1.166-1.59.332-.163.63-.225 1.018-.214l.27.008.835 1.141zm-21.291 5.424c-.16.026-.362.288-.362.469 0 .227.235.413.998.792a16.604 16.604 0 004.662 1.525c1.602.279 3.424.306 5.012.076 1.13-.165 2.34-.477 3.454-.89.81-.302 2.024-.871 2.192-1.028.08-.075.112-.163.112-.3 0-.148-.034-.228-.145-.339-.094-.093-.196-.145-.29-.145-.079 0-.315.09-.524.2-.947.5-2.196.96-3.434 1.264-1.327.328-2.505.446-4.07.408-1.514-.037-2.49-.179-3.814-.554-1.106-.314-1.822-.595-2.912-1.144a11.25 11.25 0 00-.695-.332.544.544 0 00-.184-.002z" fill="#fff"/></svg>