<svg width="121" height="121" fill="none" xmlns="http://www.w3.org/2000/svg"><g clip-path="url(#clip0_145_1479)"><path fill="#7E8082" d="M.855.305h120v120h-120z"/><path d="M120.292 92.657V59.981l-12.395-6.76v16.338l-8.45-3.38V48.713l-13.522-7.888v51.831h13.522V76.882h8.45v15.775h12.395z" fill="#fff"/><path fill-rule="evenodd" clip-rule="evenodd" d="M85.362 39.845l14.648 8.545v17.407l7.324 2.93V52.27l13.521 7.376V93.22h-13.521V77.446h-7.324V93.22H85.362V39.845zm1.127 1.962v50.287h12.394V76.319h9.578v15.775h11.267V60.316l-11.267-6.147v16.222l-9.578-3.831V49.037l-12.394-7.23z" fill="#7E8082"/><path fill-rule="evenodd" clip-rule="evenodd" d="M39.165 40.826v-1.068l-.882.603L6.171 62.333l-.246.168v21.706H.855v9.577h43.38v-9.577h-5.07v-43.38zM7.052 84.77V63.095l30.986-21.2v43.438h5.071v7.324H1.981v-7.324h5.071v-.563zM26.77 57.728v-1.14l-.905.692-9.578 7.324-.22.17v20.558H26.77V57.728zm-9.577 26.479V65.33l8.45-6.462v25.339h-8.45z" fill="#fff"/><path fill-rule="evenodd" clip-rule="evenodd" d="M7.052 63.095v22.238h-5.07v7.324h41.127v-7.324h-5.071V41.895l-30.986 21.2zm19.718-5.367v-1.14l-.905.692-9.578 7.324-.22.17v20.558H26.77V57.728z" fill="#fff"/><path fill-rule="evenodd" clip-rule="evenodd" d="M39.165 40.826v-1.068l-.882.603L6.171 62.333l-.246.168v21.706H.855v9.577h43.38v-9.577h-5.07v-43.38zM7.052 84.77V63.095l30.986-21.2v43.438h5.071v7.324H1.981v-7.324h5.071v-.563zM26.77 57.728v-1.14l-.905.692-9.578 7.324-.22.17v20.558H26.77V57.728zm-9.577 26.479V65.33l8.45-6.462v25.339h-8.45z" fill="#7E8082"/><path fill-rule="evenodd" clip-rule="evenodd" d="M39.728 50.967c0-6.85 3.28-12.478 7.758-16.407 4.488-3.939 10.135-6.128 14.777-6.128 11.525 0 23.099 9.369 23.099 22.535v19.155c0 6.288-3.087 11.92-7.544 15.993-4.461 4.076-10.246 6.542-15.555 6.542-5.04 0-10.687-2.328-15.076-6.197-4.386-3.865-7.459-9.214-7.459-15.211V50.967zm22.535-23.662c-4.957 0-10.86 2.318-15.52 6.408C42.07 37.812 38.6 43.732 38.6 50.967V71.25c0 6.397 3.277 12.034 7.84 16.056 4.56 4.019 10.462 6.479 15.822 6.479 5.636 0 11.682-2.604 16.315-6.838 4.638-4.237 7.91-10.154 7.91-16.824V50.967c0-13.876-12.169-23.662-24.225-23.662zm6.198 16.338v34.93a6.76 6.76 0 01-13.521 0v-34.93a6.76 6.76 0 1113.52 0zm-14.648 0a7.887 7.887 0 0115.774 0v34.93a7.887 7.887 0 01-15.774 0v-34.93z" fill="#fff"/><path fill-rule="evenodd" clip-rule="evenodd" d="M47.486 34.56c-4.478 3.929-7.758 9.558-7.758 16.407V71.25c0 5.997 3.073 11.346 7.459 15.211 4.39 3.869 10.036 6.197 15.076 6.197 5.31 0 11.094-2.466 15.555-6.542 4.457-4.073 7.544-9.705 7.544-15.993V50.967c0-13.166-11.574-22.535-23.099-22.535-4.642 0-10.289 2.19-14.777 6.128zm6.327 9.083a7.887 7.887 0 0115.774 0v34.93a7.887 7.887 0 01-15.774 0v-34.93z" fill="#fff"/><path fill-rule="evenodd" clip-rule="evenodd" d="M39.728 50.967c0-6.85 3.28-12.478 7.758-16.407 4.488-3.939 10.135-6.128 14.777-6.128 11.525 0 23.099 9.369 23.099 22.535v19.155c0 6.288-3.087 11.92-7.544 15.993-4.461 4.076-10.246 6.542-15.555 6.542-5.04 0-10.687-2.328-15.076-6.197-4.386-3.865-7.459-9.214-7.459-15.211V50.967zm22.535-23.662c-4.957 0-10.86 2.318-15.52 6.408C42.07 37.812 38.6 43.732 38.6 50.967V71.25c0 6.397 3.277 12.034 7.84 16.056 4.56 4.019 10.462 6.479 15.822 6.479 5.636 0 11.682-2.604 16.315-6.838 4.638-4.237 7.91-10.154 7.91-16.824V50.967c0-13.876-12.169-23.662-24.225-23.662zm6.198 16.338v34.93a6.76 6.76 0 01-13.521 0v-34.93a6.76 6.76 0 1113.52 0zm-14.648 0a7.887 7.887 0 0115.774 0v34.93a7.887 7.887 0 01-15.774 0v-34.93z" fill="#7E8082"/><path d="M61.7 46.46l-7.324 3.38 7.324 7.324 7.324-7.324-7.324-3.38z" fill="#fff"/><path fill-rule="evenodd" clip-rule="evenodd" d="M55.346 50.014l6.354 6.354 6.354-6.355-6.354-2.932-6.354 2.932zm-1.206-.685l7.324-3.38h.472l7.324 3.38.162.91-7.324 7.324h-.796l-7.324-7.324.162-.91z" fill="#7E8082"/></g><defs><clipPath id="clip0_145_1479"><path fill="#fff" transform="translate(.855 .305)" d="M0 0h120v120H0z"/></clipPath></defs></svg>