<svg width="121" height="121" fill="none" xmlns="http://www.w3.org/2000/svg"><g clip-path="url(#clip0_145_1446)"><path fill="#fff" d="M.5.305h120v120H.5z"/><g clip-path="url(#clip1_145_1446)"><path d="M120.5 59.549c-2.233.219-3.971.383-5.214.493-.052-3.75-.142-7.026-.269-9.827-.127-2.802-.298-5.167-.515-7.097.139-.165.26-.325.373-.476.11-.155.235-.3.372-.433l-3.393-1.904c-1.105 1.731-2.299 3.841-3.583 6.331-1.284 2.49-2.67 5.374-4.158 8.655a284.64 284.64 0 00-3.332 7.572 326.857 326.857 0 00-2.956 7.231 99.59 99.59 0 011.943-3.6 607.116 607.116 0 012.358-4.137c1.186-.108 2.346 0 3.808-.06a120.12 120.12 0 013.795-.061l-2.717 15.145 8.161-1.505c.082-3.393.121-5.457.121-9.542v-4.22c.775.027 1.493.048 2.164.061a22 22 0 011.817.104l1.242-2.73h-.017zm-10.264.744c-3.146.757-3.847.8-7.82 1.57a269.124 269.124 0 015.362-8.918 159.366 159.366 0 014.903-7.356c-.866 7.17-1.359 10.113-2.445 14.713v-.01z" fill="#000"/><path d="M96.488 72.526c-4.824-4.275-8.94-7.826-12.35-10.654-3.41-2.827-6.15-4.944-8.222-6.352.264-.714.112-.532.485-1.497 9.794-3.918 16.885-7.31 21.273-10.178l-.58-3.354c-1.766 1.685-4.332 3.56-7.698 5.626-3.367 2.065-7.559 4.328-12.576 6.79 1.408-3.777 2.663-6.825 3.765-9.144L77.093 41.4a129.797 129.797 0 00-1.986 5.92 240.925 240.925 0 00-2.03 6.923l-5.452 3.103 3.964 2.315c-.623 5.072-1.411 10.818-2.06 16.063.97-3.864 2.289-8.815 4.327-14.856 8.412 6.059 14.09 12.943 19.23 18.47l3.42-6.799-.018-.013z" fill="#7E8082"/><path d="M5.64 76.153a39.237 39.237 0 007.868-5.674 27.836 27.836 0 005.232-6.715 28.525 28.525 0 002.925-8.023c.63-3.18.934-6.417.904-9.659v-1.064c0-.385 0-.766-.043-1.151l-5.054-2.484A28.417 28.417 0 004.49 54.46C2.118 59.306.788 65.32.5 72.5l5.14 3.635v.018zm13.38-19.82c-.047 3.207-1.155 5.53-2.803 8.287-1.268 2.108-3.709 4.609-5.526 5.042-3.462.307-6.058-3.986-6.058-7.149 0-5.764 2.129-10.559 6.612-14.28 4.621-.303 7.906 2.735 7.789 8.114l-.013-.013zm28.942 19.82a39.24 39.24 0 007.867-5.674 27.837 27.837 0 005.253-6.733 28.655 28.655 0 002.925-8.023 47.41 47.41 0 00.909-9.64v-1.065c0-.385 0-.766-.048-1.151l-5.084-2.484A28.426 28.426 0 0046.802 54.46c-2.363 4.846-3.691 10.86-3.986 18.04l5.146 3.653zm13.38-19.82c-.052 3.207-1.156 5.53-2.804 8.287-1.273 2.108-3.713 4.609-5.53 5.042-3.463.307-6.059-3.986-6.059-7.149 0-5.764 2.125-10.559 6.608-14.28 4.626-.303 7.906 2.735 7.789 8.114l-.004-.013z" fill="#000"/><path d="M38.905 65.096a77.375 77.375 0 01-11.476 10.918l-6.193-4.189a153.436 153.436 0 015.842-16.483c2.553-6.205 4.803-10.862 6.75-13.972l5.843 1.683-.766 7.356-6.193-2.224C31.694 49.9 30.35 53.236 28.68 58.2c-1.575 4.687-2.78 8.862-3.617 12.523 5.38-1.114 9.996-2.99 13.847-5.626h-.004z" fill="#1D1D1B"/></g></g><defs><clipPath id="clip0_145_1446"><path fill="#fff" transform="translate(.5 .305)" d="M0 0h120v120H0z"/></clipPath><clipPath id="clip1_145_1446"><path fill="#fff" transform="translate(.5 40.305)" d="M0 0h120v39.019H0z"/></clipPath></defs></svg>