<svg width="121" height="121" fill="none" xmlns="http://www.w3.org/2000/svg"><g clip-path="url(#clip0_145_1441)"><path fill="#fff" d="M.323.305h120v120h-120z"/><path fill-rule="evenodd" clip-rule="evenodd" d="M60.52 31.635C45.556-4.822 1.276 2.858.331 44.852c-.523 23.064 20.524 32.053 34.482 41.52 13.535 9.18 23.076 21.584 24.519 26.818 1.386-5.081 12.424-17.472 25.222-26.205 13.996-9.55 35.566-17.234 35.765-40.303.368-42.11-44.44-49.534-59.8-15.047z" fill="#7E8082"/><path fill-rule="evenodd" clip-rule="evenodd" d="M77.701 79.012c1.511 6.928-6.049 8.454-9.377 7.561-3.328-.893-7.45-2.363-7.45-2.363s-4.142 1.5-7.472 2.414c-3.33.913-10.893-.57-9.377-7.508 1.515-6.937 3.564-6.582 6.003-12.012 2.439-5.43 5.431-9.914 10.875-10.101 5.443-.188 7.84 3.677 10.842 10.046 3.003 6.368 4.454 5.036 5.956 11.963zm-9.82-26.622c4.097 1.166 8.624-2.068 10.128-7.226 1.503-5.158-.608-10.27-4.704-11.436-4.097-1.167-8.623 2.067-10.127 7.224-1.504 5.156.61 10.272 4.704 11.438zm16.982-1.924c-3.945-1.592-8.792 1.14-10.83 6.111-2.036 4.97-.492 10.288 3.454 11.874 3.946 1.587 8.792-1.14 10.827-6.111 2.036-4.971.493-10.281-3.451-11.874zM53.88 52.43c4.098-1.181 6.21-6.322 4.725-11.465-1.483-5.143-6.015-8.35-10.108-7.16-4.093 1.19-6.21 6.325-4.726 11.466 1.484 5.14 6.01 8.35 10.109 7.16zm-9.62 16.117c3.945-1.615 5.498-6.942 3.47-11.894-2.03-4.952-6.873-7.664-10.821-6.047-3.948 1.617-5.5 6.942-3.47 11.894 2.028 4.952 6.872 7.662 10.82 6.047z" fill="#fff"/></g><defs><clipPath id="clip0_145_1441"><path fill="#fff" transform="translate(.323 .305)" d="M0 0h120v120H0z"/></clipPath></defs></svg>