<svg width="121" height="121" fill="none" xmlns="http://www.w3.org/2000/svg"><g clip-path="url(#clip0_145_1454)"><path fill="#fff" d="M.677.305h120v120h-120z"/><path d="M102.086 44.643c0 6.068-4.919 10.986-10.986 10.986-6.067 0-10.986-4.918-10.986-10.986 0-6.067 4.919-10.986 10.986-10.986 6.067 0 10.986 4.919 10.986 10.986z" fill="#EFEFEF"/><path d="M32.79 43.798a5.07 5.07 0 11-10.14 0 5.07 5.07 0 0110.14 0z" fill="#7E8082"/><path fill-rule="evenodd" clip-rule="evenodd" d="M15.81 51.59a6.762 6.762 0 11-13.293-2.45l-.847-.155a60 60 0 10119.007 10.87H90.689a30.013 30.013 0 11-60.019-.533 5.915 5.915 0 01-9.3-6.708l-5.56-1.024z" fill="#7E8082"/><path d="M26.03 67.46a5.07 5.07 0 11-10.141 0 5.07 5.07 0 0110.14 0z" fill="#fff"/><path d="M7.438 50.559a3.38 3.38 0 11-6.76 0 3.38 3.38 0 016.76 0zm10.141-18.592a5.07 5.07 0 11-10.141 0 5.07 5.07 0 0110.141 0zm13.521 1.69a3.38 3.38 0 11-6.76 0 3.38 3.38 0 016.76 0z" fill="#7E8082"/><path d="M9.128 64.08a3.38 3.38 0 11-6.76 0 3.38 3.38 0 016.76 0z" fill="#fff"/><path d="M22.65 53.094a4.225 4.225 0 11-8.451 0 4.225 4.225 0 018.45 0zm-8.451-10.986a3.38 3.38 0 11-6.76 0 3.38 3.38 0 016.76 0z" fill="#7E8082"/><path d="M42.931 30.277a3.38 3.38 0 11-6.76 0 3.38 3.38 0 016.76 0z" fill="#EFEFEF"/><path d="M39.55 21.826a3.38 3.38 0 11-6.76 0 3.38 3.38 0 016.76 0zm-15.21-2.535a2.535 2.535 0 11-5.071 0 2.535 2.535 0 015.07 0z" fill="#7E8082"/><path d="M14.199 73.376a2.535 2.535 0 11-5.071 0 2.535 2.535 0 015.07 0z" fill="#fff"/><path d="M27.72 26.052a2.535 2.535 0 11-5.07 0 2.535 2.535 0 015.07 0zm3.38-6.761a2.535 2.535 0 11-5.07 0 2.535 2.535 0 015.07 0zm11.831-3.381a2.535 2.535 0 11-5.07 0 2.535 2.535 0 015.07 0zm16.901 8.451a2.535 2.535 0 11-5.07 0 2.535 2.535 0 015.07 0zm-10.14 7.606a1.69 1.69 0 11-3.38 0 1.69 1.69 0 013.38 0zm-1.691-11.831a1.69 1.69 0 11-3.38 0 1.69 1.69 0 013.38 0zM41.24 9.995a1.69 1.69 0 11-3.38 0 1.69 1.69 0 013.38 0zm-6.76 3.381a1.69 1.69 0 11-3.38 0 1.69 1.69 0 013.38 0z" fill="#7E8082"/></g><defs><clipPath id="clip0_145_1454"><path fill="#fff" transform="translate(.677 .305)" d="M0 0h120v120H0z"/></clipPath></defs></svg>