<svg width="121" height="121" fill="none" xmlns="http://www.w3.org/2000/svg"><g clip-path="url(#clip0_145_1424)"><path fill="#fff" d="M.145.305h120v120h-120z"/><path fill-rule="evenodd" clip-rule="evenodd" d="M19.999 2.013l-8.11 80.016 8.11 6.355 2.276-37.233 8.159 19.731 6.592-19.21 10.483 58.104 11.763 9.296L41.058 18.329 30.291 49.206 20 2.013z" fill="#7E8082"/><path fill-rule="evenodd" clip-rule="evenodd" d="M79.287 16.716L61.69 118.693l11.194-12.57 9.25-61.755 11.24 38.325 7.542-8.443-21.629-57.534z" fill="#EFEFEF"/><path d="M7.145 78.376L60.6 120.069m84.806-96.333L60.457 120.02" stroke="#000" stroke-width=".567" stroke-miterlimit="22.926"/><path fill-rule="evenodd" clip-rule="evenodd" d="M79.145 16.716l-7.115 6.64-11.715 68.728.142 27.937 1.66-1.803L79.24 17.048l-.095-.332z" fill="#7E8082"/><path fill-rule="evenodd" clip-rule="evenodd" d="M48.078 23.784l12.237 68.585.285 27.936-1.66-1.849L41.01 18.329l7.068 5.455zM20.046 2.203l7.352 5.739L34.56 36.78l-4.364 12.71L20.047 2.297v-.094z" fill="#EFEFEF"/><path fill-rule="evenodd" clip-rule="evenodd" d="M84.22 81.365l9.202 1.328-11.289-38.324-2.75 18.26 4.837 18.736z" fill="#7E8082"/><path fill-rule="evenodd" clip-rule="evenodd" d="M29.2 87.056L20 88.289l2.277-37.138 8.158 19.731L29.2 87.056z" fill="#EFEFEF"/><path fill-rule="evenodd" clip-rule="evenodd" d="M39.635 69.602l-9.201 1.28 6.592-19.4 2.846 15.89-.237 2.23z" fill="#EFEFEF"/><path d="M7.145-8.042L60.6 33.697m49.707-45.392L60.457 33.65" stroke="#000" stroke-width=".567" stroke-miterlimit="22.926"/></g><defs><clipPath id="clip0_145_1424"><path fill="#fff" transform="translate(.145 .305)" d="M0 0h120v120H0z"/></clipPath></defs></svg>