<svg width="120" height="120" fill="none" xmlns="http://www.w3.org/2000/svg"><path fill="#fff" d="M0 0h120v120H0z"/><path d="M32.884 50.41v1.17h9.438c-.039 1.248-.507 2.809-1.287 3.979-1.053 1.599-3.393 3.237-6.708 3.237-4.953 0-8.62-3.861-8.62-8.658 0-4.915 3.745-8.815 8.698-8.815 2.379 0 4.29 1.014 5.5 2.028.506.43 1.286 1.21 1.832 2.145l1.014-.819a11.504 11.504 0 00-2.3-2.418c-1.483-1.17-3.316-2.067-6.046-2.067-5.616 0-10.062 4.212-10.062 9.907 0 5.733 4.29 9.867 9.945 9.867 2.964 0 5.538-1.053 7.254-3.237 1.6-2.028 1.95-4.563 1.95-6.319H32.884zm42.043.235c.78-1.053 1.17-2.34 1.17-3.862 0-2.028-.702-3.627-2.067-4.797-1.404-1.17-3.315-1.716-5.733-1.716h-6.903v1.248h6.903c2.067 0 3.666.468 4.758 1.365s1.638 2.223 1.638 3.9-.546 2.965-1.638 3.9c-1.092.898-2.652 1.365-4.758 1.365h-6.942v7.567h1.404v-6.319h5.538c.585 0 1.209-.038 1.872-.155l4.64 6.474h1.6l-4.836-6.787c1.443-.39 2.574-1.13 3.354-2.184zm19.227 9.087h1.404V40.114h-1.404v19.618zM82.337 40.27h-3.822l-.04 1.092 3.823.04c5.11 0 8.658 3.548 8.658 8.54 0 5.032-3.51 8.503-8.658 8.503h-3.822v1.092l3.861.039c1.716 0 4.72-.273 7.176-2.691 2.067-2.067 2.808-4.837 2.808-6.981 0-2.107-.74-4.915-2.808-6.982-2.457-2.379-5.46-2.652-7.176-2.652zm-30.85.468l-7.683 19.033h1.404c2.145-5.343 4.33-10.648 6.513-15.952 2.184 5.265 4.33 10.53 6.475 15.835H59.6l-7.88-19.462-.234.546z" fill="#161616"/><path d="M53.515 55.793h-3.744v3.744h3.744v-3.744z" fill="#FFCD00"/><path fill-rule="evenodd" clip-rule="evenodd" d="M60.172 117.653l3.395-2.965c28.55-24.93 43.062-46.697 43.062-65.831C106.629 21.761 85.48 2.4 60.171 2.4c-25.308 0-46.457 19.36-46.457 46.457 0 19.134 14.512 40.902 43.062 65.831l3.395 2.965zm.262-6.503C32.804 86.385 19.226 65.4 19.226 48.72c0-24.025 18.627-40.983 41.208-40.983s41.208 16.958 41.208 40.982c0 16.682-13.579 37.666-41.208 62.431z" fill="#000"/></svg>