<svg width="120" height="120" fill="none" xmlns="http://www.w3.org/2000/svg"><g clip-path="url(#clip0_77_186)"><path fill="#fff" d="M0 0h120v120H0z"/><path fill-rule="evenodd" clip-rule="evenodd" d="M8.108 12.162a4.054 4.054 0 118.108 0 4.054 4.054 0 01-8.108 0zM12.162 0C5.445 0 0 5.445 0 12.162c0 5.296 3.384 9.8 8.108 11.47v72.736C3.384 98.038 0 102.542 0 107.838 0 114.555 5.445 120 12.162 120c5.594 0 10.306-3.776 11.725-8.919h72.226c1.42 5.143 6.131 8.919 11.725 8.919 6.717 0 12.162-5.445 12.162-12.162 0-5.296-3.384-9.8-8.108-11.47V72.28c4.724-1.67 8.108-6.175 8.108-11.47 0-6.717-5.445-12.162-12.162-12.162-4.987 0-9.274 3.002-11.15 7.297H71.96c-1.877-4.295-6.163-7.297-11.15-7.297-6.717 0-12.162 5.445-12.162 12.162 0 6.717 5.445 12.162 12.162 12.162 5.594 0 10.305-3.776 11.725-8.919h23.577a12.19 12.19 0 007.671 8.227v24.087a12.2 12.2 0 00-7.096 6.605H23.312a12.2 12.2 0 00-7.096-6.605V23.632a12.19 12.19 0 007.671-8.227h72.226c1.42 5.143 6.131 8.92 11.725 8.92 6.717 0 12.162-5.446 12.162-12.163C120 5.445 114.555 0 107.838 0c-4.987 0-9.274 3.002-11.15 7.297H23.312C21.436 3.002 17.15 0 12.162 0zm95.676 8.108a4.054 4.054 0 100 8.108 4.054 4.054 0 000-8.108zm-95.676 95.676a4.054 4.054 0 100 8.108 4.054 4.054 0 000-8.108zm91.622 4.054a4.054 4.054 0 118.108 0 4.054 4.054 0 01-8.108 0zm4.054-51.081a4.054 4.054 0 100 8.108 4.054 4.054 0 000-8.108zM56.757 60.81a4.054 4.054 0 118.108 0 4.054 4.054 0 01-8.108 0z" fill="#000"/></g><defs><clipPath id="clip0_77_186"><path fill="#fff" d="M0 0h120v120H0z"/></clipPath></defs></svg>