<svg width="47" height="53" fill="none" xmlns="http://www.w3.org/2000/svg"><path d="M4.213 47.252L0 0h46.294l-4.219 47.244L23.119 52.5 4.213 47.252z" fill="#E44F26"/><path d="M23.147 48.484l15.319-4.247 3.603-40.373H23.147v44.62z" fill="#F1662A"/><path d="M23.147 21.388h-7.669l-.528-5.934h8.197V9.658H8.616l.138 1.556 1.424 15.97h12.969v-5.796zm0 15.051l-.026.007-6.454-1.742-.413-4.622h-5.817l.811 9.098 11.873 3.296.026-.007v-6.03z" fill="#EBEBEB"/><path d="M23.127 21.388v5.796h7.136L29.59 34.7l-6.465 1.743v6.03l11.882-3.294.087-.979 1.36-15.257.143-1.556H23.126zm0-11.73v5.796h13.997l.117-1.302.264-2.938.139-1.556H23.126z" fill="#fff"/></svg>