<svg width="120" height="120" fill="none" xmlns="http://www.w3.org/2000/svg"><g clip-path="url(#clip0_77_199)"><path fill="#fff" d="M0 0h120v120H0z"/><path d="M117.922 111.683l4.509-1.208-4.936-.383c-8.474-6.163-32.897-17.738-62.794-14.73-29.897 3.007-48.51 17.357-54.08 24.156 1.03-.75 4.373-2.991 9.492-5.955 6.398-3.704 21.337-10.55 51.722-13.859 24.308-2.646 47.52 6.883 56.087 11.979z" fill="#FF0200"/><g clip-path="url(#clip1_77_199)"><path d="M61.145 41.281s-4.57-2.212-8.41-3.872c-3.655-1.659-4.752-3.871-2.01-4.793 2.56-.922 8.592-1.291 13.345-1.107 2.011.185 8.41.553 8.41.553 4.753.185 5.118 1.844.73 3.32l-12.065 5.9z" fill="#42ADE2"/><path d="M16.173 58.612s-4.753 1.844-5.118 4.057c-.549 1.844-2.194 27.103 103.654-32.45 6.216-3.503 3.108-7.375-5.484-8.297-25.96-2.95-19.56-.922-93.052 36.69z" fill="#DAE3EA"/><path d="M39.574 46.444s-23.4-7.007-31.079-9.588c-4.936-1.66-7.312 3.872-7.312 3.872s9.14 22.494 10.055 21.94L39.39 48.104c.914-.553.914-1.29.183-1.66" fill="#42ADE2"/><path d="M64.619 68.016S45.606 69.675 32.627 82.95c-.732.737-2.194 2.766.182 3.872 4.57 1.29 15.357 2.397 33.638-6.453l-1.828-12.353" fill="#C5D0D8"/><path d="M66.63 80.184c-1.646.554-3.474-1.659-4.388-4.978-.731-3.318-.183-6.453 1.463-7.006 1.645-.553 3.473 1.66 4.387 4.978.731 3.319.183 6.453-1.462 7.006z" fill="#94989B"/><path d="M61.877 49.025c-4.57 2.028-6.765 3.134-9.324 7.375L33.541 85.162c-2.56 4.241-.732 6.27 4.021 4.794 4.754-1.66 11.335-5.9 14.443-9.772l30.164-36.137c3.108-3.872 2.01-5.163-2.56-3.135l-17.732 8.113" fill="#42ADE2"/><path d="M65.167 75.575c-.548-2.397-1.645-4.24-2.925-4.794a12.315 12.315 0 00.183 4.425c.548 2.397 1.645 4.24 2.925 4.794.183-1.29.183-2.766-.183-4.425zM100.45 22.29c-.914 1.476-5.85 5.716-5.85 5.716s.914 1.66 3.839.738c2.376-.738 4.753-2.95 6.033-5.532l-4.022-.921zM39.939 54.925c1.01 0 1.828-.825 1.828-1.844a1.836 1.836 0 00-1.828-1.844c-1.01 0-1.828.826-1.828 1.844 0 1.019.818 1.844 1.828 1.844zm6.581-3.319c1.01 0 1.828-.825 1.828-1.843a1.836 1.836 0 00-1.828-1.844c-1.01 0-1.828.825-1.828 1.844 0 1.018.819 1.843 1.828 1.843zm6.582-3.503c1.01 0 1.828-.825 1.828-1.844a1.836 1.836 0 00-1.828-1.843c-1.01 0-1.829.825-1.829 1.843 0 1.019.819 1.844 1.829 1.844zm6.763-3.503c1.01 0 1.829-.825 1.829-1.844a1.836 1.836 0 00-1.829-1.843c-1.01 0-1.828.825-1.828 1.843 0 1.019.819 1.844 1.828 1.844zm6.582-3.503c1.01 0 1.828-.826 1.828-1.844a1.836 1.836 0 00-1.828-1.844c-1.01 0-1.828.826-1.828 1.844 0 1.018.818 1.844 1.828 1.844zm6.581-3.319c1.01 0 1.828-.825 1.828-1.844a1.836 1.836 0 00-1.828-1.843c-1.01 0-1.828.825-1.828 1.843 0 1.019.818 1.844 1.828 1.844zm6.582-3.503a1.836 1.836 0 001.828-1.844 1.836 1.836 0 00-1.829-1.843c-1.01 0-1.828.825-1.828 1.843 0 1.019.819 1.844 1.828 1.844z" fill="#3E4347"/></g></g><defs><clipPath id="clip0_77_199"><path fill="#fff" d="M0 0h120v120H0z"/></clipPath><clipPath id="clip1_77_199"><path fill="#fff" transform="translate(1 21)" d="M0 0h117v118H0z"/></clipPath></defs></svg>