<svg width="188" height="188" fill="none" xmlns="http://www.w3.org/2000/svg"><g clip-path="url(#clip0_101_357)"><path d="M188 0H0v188h188V0z" fill="#F7DF1E"/><path d="M126.288 146.876c3.787 6.183 8.714 10.728 17.428 10.728 7.32 0 11.996-3.659 11.996-8.714 0-6.058-4.805-8.203-12.862-11.728l-4.416-1.894c-12.749-5.432-21.217-12.235-21.217-26.619 0-13.25 10.095-23.336 25.872-23.336 11.232 0 19.307 3.91 25.126 14.145l-13.757 8.833c-3.028-5.431-6.296-7.571-11.369-7.571-5.175 0-8.454 3.283-8.454 7.571 0 5.3 3.282 7.445 10.862 10.728l4.417 1.892c15.01 6.437 23.485 12.999 23.485 27.752 0 15.906-12.495 24.619-29.275 24.619-16.406 0-27.006-7.818-32.192-18.066l14.356-8.34zm-62.407 1.531c2.775 4.923 5.3 9.086 11.37 9.086 5.804 0 9.465-2.271 9.465-11.101v-60.07h17.666v60.309c0 18.293-10.725 26.618-26.38 26.618-14.144 0-22.335-7.32-26.501-16.136l14.38-8.706z" fill="#000"/></g><defs><clipPath id="clip0_101_357"><path fill="#fff" d="M0 0h188v188H0z"/></clipPath></defs></svg>