<svg width="60" height="60" fill="none" xmlns="http://www.w3.org/2000/svg"><g clip-path="url(#clip0_101_332)" fill="#F35045"><path d="M37.604 48.75c.469.677.755.625 1.12.469.364-.157 19.115-6.485 19.687-6.693.573-.208.391-.39.209-.677-.182-.287-6.432-8.776-6.745-9.27-.313-.496-.469-.392-.964-.235l-19.876 5.172s6.1 10.557 6.57 11.234zM60 40.105v-9.937c-2.236.596-5.065 1.35-6.181 1.646 1.684 2.254 4.318 5.78 6.18 8.291zm-6.2-20.53c-.307.07-7.09 1.296-7.508 1.351-.417.056-.278.293-.11.53l5.968 8.19s7.298-1.811 7.744-1.909l.106-.025v-1.084c-1.327-1.683-4.94-6.262-5.253-6.69-.376-.516-.64-.432-.947-.363z"/><path d="M11.123 6.711c1.468-.067 1.602.268 2.248 1.224L29.582 35.04l20.385-4.883c-1.13-1.601-6.257-8.87-6.752-9.564-.557-.78.013-1.142.919-1.295.905-.154 8.705-1.463 9.373-1.56.669-.098 1.198-.334 2.284.975.556.67 2.44 3.016 4.209 5.216V11.25c0-3.099-1.1-5.749-3.3-7.95C54.498 1.1 51.848 0 48.75 0h-37.5C8.151 0 5.501 1.1 3.3 3.3 2.04 4.564 1.14 5.975.603 7.532c3.675-.301 9.493-.773 10.52-.82z"/><path d="M39.443 52.398c-1.72.52-2.49.78-3.61-.784-.838-1.17-5.373-9.338-7.597-13.364-4.208 1.102-11.91 3.112-14.13 3.645-2.168.521-3.093-.778-3.45-1.58-.248-.56-6.603-14.261-10.656-23.052V48.75c0 3.1 1.1 5.748 3.3 7.95 2.201 2.2 4.851 3.3 7.95 3.3h37.5c3.099 0 5.749-1.1 7.95-3.3 2.2-2.202 3.3-4.85 3.3-7.95v-3.699c-4.603 1.684-19.4 6.996-20.557 7.347z"/><path d="M14.159 38.74c.61-.14 12.027-2.873 12.27-2.925.244-.052.4-.191.14-.644l-15.22-26.27c-.138-.238-.098-.317-.473-.297-.335.018-8.798.773-10.758.937-.058.414-.094.831-.108 1.25C2 14.861 13.416 38.407 13.48 38.6c.07.209.07.279.679.14z"/></g><defs><clipPath id="clip0_101_332"><path fill="#fff" d="M0 0h60v60H0z"/></clipPath></defs></svg>