<svg width="147" height="43" fill="none" xmlns="http://www.w3.org/2000/svg"><path d="M51.157 35.76a.5.5 0 00.467.321h3.753a.5.5 0 00.466-.682l-8.34-21.349a.5.5 0 00-.933.001L38.26 35.4a.5.5 0 00.465.681h3.754a.5.5 0 00.468-.325l.773-2.077h6.637l.8 2.082zm18.09-12.48a.5.5 0 00-.5.5v3.291a.5.5 0 00.5.5h2.985v2.302a6.386 6.386 0 01-4.713 2.036c-1.833 0-3.433-.51-4.57-1.568-1.132-1.052-1.87-2.707-1.87-5.138 0-2.15.73-3.817 1.88-4.947 1.15-1.133 2.755-1.758 4.56-1.758a6.48 6.48 0 014.562 1.87.5.5 0 00.706 0l2.442-2.43a.5.5 0 00.003-.707 10.779 10.779 0 00-7.713-3.202c-6.028 0-10.926 4.733-10.926 11.174 0 3.506 1.132 6.308 3.033 8.235 1.9 1.926 4.529 2.94 7.446 2.94 2.223 0 3.931-.467 5.517-1.667l.092 1.005a.5.5 0 00.498.454h3.038a.5.5 0 00.5-.5V23.78a.5.5 0 00-.5-.5h-6.97zm25.422-4.485a.5.5 0 00.5-.5v-3.47a.5.5 0 00-.5-.5H80.76a.5.5 0 00-.5.5v20.756a.5.5 0 00.5.5h13.91a.5.5 0 00.5-.5v-3.469a.5.5 0 00-.5-.5h-9.926v-4.189h8.169a.5.5 0 00.5-.5v-3.44a.5.5 0 00-.5-.5h-8.169v-4.188h9.926zm14.802 12.817h-7.215V14.825a.5.5 0 00-.5-.5h-3.485a.5.5 0 00-.5.5v20.756a.5.5 0 00.5.5h11.2a.5.5 0 00.5-.5v-3.469a.5.5 0 00-.5-.5zm13.802 4.149c.074.193.259.32.466.32h3.754a.501.501 0 00.465-.682l-8.34-21.349a.5.5 0 00-.932.001L110.375 35.4a.5.5 0 00.466.681h3.753a.5.5 0 00.469-.325l.772-2.077h6.637l.801 2.082zm21.574.32a.5.5 0 00.424-.766l-5.316-8.466c.896-.32 1.852-.82 2.639-1.607.989-.989 1.681-2.399 1.681-4.368 0-1.615-.468-2.858-1.193-3.801-.719-.937-1.669-1.549-2.593-1.95a10.04 10.04 0 00-2.524-.698 10.279 10.279 0 00-1.134-.1h-.026l-.001.5v-.5h-6.94a.5.5 0 00-.5.5v3.47c0 .095.027.188.078.268l2.817 4.42h-2.395a.5.5 0 00-.5.5v12.098a.5.5 0 00.5.5h3.485a.5.5 0 00.5-.5v-8.158h1.219l5.275 8.424a.498.498 0 00.423.234h4.081zM45.21 29.685l1.826-5.197 1.827 5.197H45.21zm72.115 0l1.827-5.197 1.826 5.197h-3.653zm20.18-6.767l-2.595-4.123h1.921l.097.004a5.242 5.242 0 011.446.287c.39.144.745.35 1 .632.244.271.416.636.416 1.156 0 .808-.4 1.284-.926 1.593-.437.256-.95.387-1.359.451z" fill="url(#paint0_linear_86_663)" stroke="url(#paint1_linear_86_663)" stroke-linejoin="round"/><path d="M51.157 35.76a.5.5 0 00.467.321h3.753a.5.5 0 00.466-.682l-8.34-21.349a.5.5 0 00-.933.001L38.26 35.4a.5.5 0 00.465.681h3.754a.5.5 0 00.468-.325l.773-2.077h6.637l.8 2.082zm18.09-12.48a.5.5 0 00-.5.5v3.291a.5.5 0 00.5.5h2.985v2.302a6.386 6.386 0 01-4.713 2.036c-1.833 0-3.433-.51-4.57-1.568-1.132-1.052-1.87-2.707-1.87-5.138 0-2.15.73-3.817 1.88-4.947 1.15-1.133 2.755-1.758 4.56-1.758a6.48 6.48 0 014.562 1.87.5.5 0 00.706 0l2.442-2.43a.5.5 0 00.003-.707 10.779 10.779 0 00-7.713-3.202c-6.028 0-10.926 4.733-10.926 11.174 0 3.506 1.132 6.308 3.033 8.235 1.9 1.926 4.529 2.94 7.446 2.94 2.223 0 3.931-.467 5.517-1.667l.092 1.005a.5.5 0 00.498.454h3.038a.5.5 0 00.5-.5V23.78a.5.5 0 00-.5-.5h-6.97zm25.422-4.485a.5.5 0 00.5-.5v-3.47a.5.5 0 00-.5-.5H80.76a.5.5 0 00-.5.5v20.756a.5.5 0 00.5.5h13.91a.5.5 0 00.5-.5v-3.469a.5.5 0 00-.5-.5h-9.926v-4.189h8.169a.5.5 0 00.5-.5v-3.44a.5.5 0 00-.5-.5h-8.169v-4.188h9.926zm14.802 12.817h-7.215V14.825a.5.5 0 00-.5-.5h-3.485a.5.5 0 00-.5.5v20.756a.5.5 0 00.5.5h11.2a.5.5 0 00.5-.5v-3.469a.5.5 0 00-.5-.5zm13.802 4.149c.074.193.259.32.466.32h3.754a.501.501 0 00.465-.682l-8.34-21.349a.5.5 0 00-.932.001L110.375 35.4a.5.5 0 00.466.681h3.753a.5.5 0 00.469-.325l.772-2.077h6.637l.801 2.082zm21.574.32a.5.5 0 00.424-.766l-5.316-8.466c.896-.32 1.852-.82 2.639-1.607.989-.989 1.681-2.399 1.681-4.368 0-1.615-.468-2.858-1.193-3.801-.719-.937-1.669-1.549-2.593-1.95a10.04 10.04 0 00-2.524-.698 10.279 10.279 0 00-1.134-.1h-.026l-.001.5v-.5h-6.94a.5.5 0 00-.5.5v3.47c0 .095.027.188.078.268l2.817 4.42h-2.395a.5.5 0 00-.5.5v12.098a.5.5 0 00.5.5h3.485a.5.5 0 00.5-.5v-8.158h1.219l5.275 8.424a.498.498 0 00.423.234h4.081zM45.21 29.685l1.826-5.197 1.827 5.197H45.21zm72.115 0l1.827-5.197 1.826 5.197h-3.653zm20.18-6.767l-2.595-4.123h1.921l.097.004a5.242 5.242 0 011.446.287c.39.144.745.35 1 .632.244.271.416.636.416 1.156 0 .808-.4 1.284-.926 1.593-.437.256-.95.387-1.359.451z" fill="url(#paint2_linear_86_663)" stroke="url(#paint3_linear_86_663)" stroke-linejoin="round"/><mask id="a" maskUnits="userSpaceOnUse" x="37.427" y="12.936" width="109" height="25" fill="#000"><path fill="#fff" d="M37.427 12.936h109v25h-109z"/><path fill-rule="evenodd" clip-rule="evenodd" d="M51.624 35.878a.298.298 0 01-.278-.19l-.85-2.212H43.58l-.822 2.208a.298.298 0 01-.28.194h-3.753a.298.298 0 01-.277-.404l8.31-21.349a.298.298 0 01.556 0l8.34 21.349a.295.295 0 01-.277.404h-3.753zm-8.252-2.698H50.7l.924 2.401h3.753l-8.34-21.349-8.312 21.35h3.754l.893-2.402zm3.664-10.2l-2.532 7.205h5.064l-2.532-7.205zm0 .898l-2.112 6.01h4.225l-2.113-6.01zm21.913-.098c0-.164.133-.296.298-.296h6.97c.165 0 .298.132.298.296v11.89a.297.297 0 01-.298.297H73.18a.297.297 0 01-.297-.27l-.126-1.376c-1.628 1.339-3.362 1.853-5.684 1.853-2.87 0-5.445-.996-7.302-2.88-1.858-1.883-2.975-4.63-2.975-8.09 0-6.329 4.807-10.972 10.724-10.972 2.971 0 5.639 1.19 7.57 3.143a.296.296 0 01-.002.418l-2.442 2.431a.299.299 0 01-.422 0 6.677 6.677 0 00-4.704-1.93c-1.852 0-3.509.643-4.702 1.816-1.192 1.173-1.941 2.895-1.941 5.093 0 2.474.754 4.189 1.935 5.288 1.185 1.102 2.84 1.621 4.708 1.621a6.587 6.587 0 004.915-2.159v-2.585h-3.187a.297.297 0 01-.298-.296V23.78zm3.783 6.286a6.887 6.887 0 01-5.213 2.343c-3.843 0-6.94-2.135-6.94-7.206 0-4.536 3.097-7.205 6.94-7.205 1.906 0 3.663.77 4.914 2.015l.001.002 2.443-2.432a8.968 8.968 0 00-.212-.208 10.28 10.28 0 00-7.146-2.846c-5.75 0-10.426 4.507-10.426 10.674 0 6.79 4.379 10.675 9.98 10.675 2.338 0 4.037-.53 5.65-1.918.093-.08.185-.162.277-.247l.179 1.957h3.038V23.78h-6.97v3.291h3.485v2.995zm22.235-11.771a.297.297 0 01-.298.296H84.541v4.596h8.37c.165 0 .299.133.299.297v3.44a.297.297 0 01-.298.296h-8.37v4.596h10.127c.165 0 .298.132.298.296v3.47a.297.297 0 01-.298.296H80.76a.297.297 0 01-.299-.297V14.826c0-.164.134-.297.298-.297H94.67c.165 0 .298.133.298.297v3.469zm-.298 13.817v3.47H80.76V14.825h13.91v3.469H84.243v5.189h8.669v3.44h-8.669v5.188H94.67zm14.802 0v3.47h-11.2V14.825h3.485v17.286h7.715zm-7.417-.296h7.417c.165 0 .298.132.298.296v3.47a.297.297 0 01-.298.296h-11.2a.297.297 0 01-.298-.297V14.826c0-.164.133-.297.298-.297h3.485c.164 0 .298.133.298.297v16.99zm21.685 4.062a.298.298 0 01-.278-.19l-.85-2.212h-6.916l-.822 2.208a.297.297 0 01-.279.194h-3.753a.298.298 0 01-.278-.404l8.311-21.349a.298.298 0 01.555 0l8.341 21.349a.296.296 0 01-.277.404h-3.754zm-8.251-2.698h7.328l.923 2.401h3.754l-8.341-21.349-8.311 21.35h3.753l.894-2.402zm3.664-10.2l-2.532 7.205h5.064l-2.532-7.205zm0 .898l-2.112 6.01h4.224l-2.112-6.01zm25.956 11.847a.299.299 0 01-.261.153h-4.081a.296.296 0 01-.252-.14l-5.335-8.518h-1.532v8.361a.298.298 0 01-.298.297h-3.485a.297.297 0 01-.298-.297V23.484c0-.164.133-.297.298-.297h2.764l-3.016-4.733a.298.298 0 01-.046-.16v-3.468c0-.164.133-.297.298-.297h6.94v.297h-6.94v3.469l3.306 5.189h-3.306V35.58h3.485v-8.658h1.996l5.421 8.658h4.081l-5.659-9.014c.097-.027.196-.056.296-.087 1.97-.621 4.291-2.106 4.291-5.606 0-6.048-6.971-6.048-6.971-6.048l.001-.297h.024a6.823 6.823 0 01.293.012c.198.013.478.037.814.086.671.097 1.57.291 2.473.683.903.392 1.821.986 2.513 1.887.696.906 1.151 2.104 1.151 3.677 0 1.916-.671 3.274-1.621 4.224-.83.83-1.86 1.335-2.805 1.641l5.453 8.685c.057.092.06.207.008.301zm-8.304-17.43h-2.8l3.247 5.16c.924-.09 3.039-.535 3.039-2.58 0-2.58-3.486-2.58-3.486-2.58zm.6 4.843c.441-.058 1.047-.193 1.561-.495.575-.337 1.027-.873 1.027-1.769 0-.57-.191-.984-.469-1.293-.283-.315-.671-.535-1.08-.686a5.128 5.128 0 00-1.131-.266 5.334 5.334 0 00-.476-.037h-2.294l2.862 4.546z"/></mask><path fill-rule="evenodd" clip-rule="evenodd" d="M51.624 35.878a.298.298 0 01-.278-.19l-.85-2.212H43.58l-.822 2.208a.298.298 0 01-.28.194h-3.753a.298.298 0 01-.277-.404l8.31-21.349a.298.298 0 01.556 0l8.34 21.349a.295.295 0 01-.277.404h-3.753zm-8.252-2.698H50.7l.924 2.401h3.753l-8.34-21.349-8.312 21.35h3.754l.893-2.402zm3.664-10.2l-2.532 7.205h5.064l-2.532-7.205zm0 .898l-2.112 6.01h4.225l-2.113-6.01zm21.913-.098c0-.164.133-.296.298-.296h6.97c.165 0 .298.132.298.296v11.89a.297.297 0 01-.298.297H73.18a.297.297 0 01-.297-.27l-.126-1.376c-1.628 1.339-3.362 1.853-5.684 1.853-2.87 0-5.445-.996-7.302-2.88-1.858-1.883-2.975-4.63-2.975-8.09 0-6.329 4.807-10.972 10.724-10.972 2.971 0 5.639 1.19 7.57 3.143a.296.296 0 01-.002.418l-2.442 2.431a.299.299 0 01-.422 0 6.677 6.677 0 00-4.704-1.93c-1.852 0-3.509.643-4.702 1.816-1.192 1.173-1.941 2.895-1.941 5.093 0 2.474.754 4.189 1.935 5.288 1.185 1.102 2.84 1.621 4.708 1.621a6.587 6.587 0 004.915-2.159v-2.585h-3.187a.297.297 0 01-.298-.296V23.78zm3.783 6.286a6.887 6.887 0 01-5.213 2.343c-3.843 0-6.94-2.135-6.94-7.206 0-4.536 3.097-7.205 6.94-7.205 1.906 0 3.663.77 4.914 2.015l.001.002 2.443-2.432a8.968 8.968 0 00-.212-.208 10.28 10.28 0 00-7.146-2.846c-5.75 0-10.426 4.507-10.426 10.674 0 6.79 4.379 10.675 9.98 10.675 2.338 0 4.037-.53 5.65-1.918.093-.08.185-.162.277-.247l.179 1.957h3.038V23.78h-6.97v3.291h3.485v2.995zm22.235-11.771a.297.297 0 01-.298.296H84.541v4.596h8.37c.165 0 .299.133.299.297v3.44a.297.297 0 01-.298.296h-8.37v4.596h10.127c.165 0 .298.132.298.296v3.47a.297.297 0 01-.298.296H80.76a.297.297 0 01-.299-.297V14.826c0-.164.134-.297.298-.297H94.67c.165 0 .298.133.298.297v3.469zm-.298 13.817v3.47H80.76V14.825h13.91v3.469H84.243v5.189h8.669v3.44h-8.669v5.188H94.67zm14.802 0v3.47h-11.2V14.825h3.485v17.286h7.715zm-7.417-.296h7.417c.165 0 .298.132.298.296v3.47a.297.297 0 01-.298.296h-11.2a.297.297 0 01-.298-.297V14.826c0-.164.133-.297.298-.297h3.485c.164 0 .298.133.298.297v16.99zm21.685 4.062a.298.298 0 01-.278-.19l-.85-2.212h-6.916l-.822 2.208a.297.297 0 01-.279.194h-3.753a.298.298 0 01-.278-.404l8.311-21.349a.298.298 0 01.555 0l8.341 21.349a.296.296 0 01-.277.404h-3.754zm-8.251-2.698h7.328l.923 2.401h3.754l-8.341-21.349-8.311 21.35h3.753l.894-2.402zm3.664-10.2l-2.532 7.205h5.064l-2.532-7.205zm0 .898l-2.112 6.01h4.224l-2.112-6.01zm25.956 11.847a.299.299 0 01-.261.153h-4.081a.296.296 0 01-.252-.14l-5.335-8.518h-1.532v8.361a.298.298 0 01-.298.297h-3.485a.297.297 0 01-.298-.297V23.484c0-.164.133-.297.298-.297h2.764l-3.016-4.733a.298.298 0 01-.046-.16v-3.468c0-.164.133-.297.298-.297h6.94v.297h-6.94v3.469l3.306 5.189h-3.306V35.58h3.485v-8.658h1.996l5.421 8.658h4.081l-5.659-9.014c.097-.027.196-.056.296-.087 1.97-.621 4.291-2.106 4.291-5.606 0-6.048-6.971-6.048-6.971-6.048l.001-.297h.024a6.823 6.823 0 01.293.012c.198.013.478.037.814.086.671.097 1.57.291 2.473.683.903.392 1.821.986 2.513 1.887.696.906 1.151 2.104 1.151 3.677 0 1.916-.671 3.274-1.621 4.224-.83.83-1.86 1.335-2.805 1.641l5.453 8.685c.057.092.06.207.008.301zm-8.304-17.43h-2.8l3.247 5.16c.924-.09 3.039-.535 3.039-2.58 0-2.58-3.486-2.58-3.486-2.58zm.6 4.843c.441-.058 1.047-.193 1.561-.495.575-.337 1.027-.873 1.027-1.769 0-.57-.191-.984-.469-1.293-.283-.315-.671-.535-1.08-.686a5.128 5.128 0 00-1.131-.266 5.334 5.334 0 00-.476-.037h-2.294l2.862 4.546z" fill="url(#paint4_linear_86_663)"/><path d="M51.346 35.687l.933-.358-.933.358zm-.85-2.21l.933-.36a1 1 0 00-.934-.64v1zm-6.916 0v-1a1 1 0 00-.938.65l.938.35zm-.822 2.207l-.937-.348.937.348zm-4.31-.21l.931.363-.931-.363zm8.31-21.349l-.931-.362.932.362zm.278-.189v1-1zm.278.19l-.931.363.931-.364zm8.34 21.348l.932-.364-.931.364zm-.03.275l.823.566-.824-.566zm-12.252-2.57v-1a1 1 0 00-.937.652l.937.349zm7.328 0l.934-.358a1 1 0 00-.934-.641v1zm.924 2.402l-.934.36a1 1 0 00.934.64v-1zm3.753 0v1a1 1 0 00.932-1.364l-.932.364zm-8.34-21.349l.93-.363a1 1 0 00-1.862 0l.931.364zm-8.312 21.35l-.932-.363a1 1 0 00.932 1.362v-1zm3.754 0v1a1 1 0 00.937-.652l-.937-.349zm4.557-12.602l.944-.332a1 1 0 00-1.887 0l.943.332zm-2.532 7.205l-.943-.332a1 1 0 00.943 1.332v-1zm5.064 0v1a1 1 0 00.944-1.332l-.944.332zm-4.644-.297l-.943-.331a1 1 0 00.943 1.331v-1zm2.112-6.01l.944-.332a1 1 0 00-1.887 0l.943.332zm2.113 6.01v1a1 1 0 00.943-1.331l-.943.331zm23.733 5.81l.996-.092-.996.091zm-.126-1.377l.996-.091a1 1 0 00-1.63-.682l.634.773zM59.77 33.295l.712-.703-.712.703zm15.319-15.92l-.711.703.711-.703zm-.002.418l-.705-.709.705.709zm-2.442 2.431l.705.709-.705-.709zm-.422 0l-.705.709.705-.709zm-9.406-.114l.701.713-.701-.713zm-.006 10.38l.681-.731-.681.732zm9.623-.537l.74.674a1 1 0 00.26-.674h-1zm0-2.585h1a1 1 0 00-1-1v1zm.298 2.698l.75.662a1 1 0 00.25-.662h-1zm-.3-10.053l-.704.71.705-.71zm.002.002l-.705.709a1 1 0 001.41 0l-.705-.71zm2.327-2.547l-.7.714.7-.714zm-.096-.093l-.69.723.69-.723zM72.723 33.96l-.651-.758.651.758zm.277-.247l.996-.09a1 1 0 00-1.675-.643l.679.733zm.179 1.957l-.996.091a1 1 0 00.996.91v-1zm3.038 0v1a1 1 0 001-1h-1zm0-11.89h1a1 1 0 00-1-1v1zm-6.97 0v-1a1 1 0 00-1 1h1zm0 3.291h-1a1 1 0 001 1v-1zm3.485 0h1a1 1 0 00-1-1v1zm11.81-8.48v-1a1 1 0 00-1 1h1zm0 4.596h-1a1 1 0 001 1v-1zm0 4.033v-1a1 1 0 00-1 1h1zm0 4.596h-1a1 1 0 001 1v-1zm10.127.296h1a1 1 0 00-1-1v1zm0 3.47v1a1 1 0 001-1h-1zm-13.91 0h-1a1 1 0 001 1v-1zm0-20.756v-1a1 1 0 00-1 1h1zm13.91 0h1a1 1 0 00-1-1v1zm0 3.469v1a1 1 0 001-1h-1zm-10.426 0v-1a1 1 0 00-1 1h1zm0 5.189h-1a1 1 0 001 1v-1zm8.669 0h1a1 1 0 00-1-1v1zm0 3.44v1a1 1 0 001-1h-1zm-8.669 0v-1a1 1 0 00-1 1h1zm0 5.188h-1a1 1 0 001 1v-1zm25.228 0h1a1 1 0 00-1-1v1zm0 3.47v1a1 1 0 001-1h-1zm-11.2 0h-1a1 1 0 001 1v-1zm0-20.756v-1a1 1 0 00-1 1h1zm3.485 0h1a1 1 0 00-1-1v1zm0 17.286h-1a1 1 0 001 1v-1zm.298-.296h-1a1 1 0 001 1v-1zm21.407 3.871l-.933.36.933-.36zm-.85-2.21l.933-.36a.999.999 0 00-.933-.64v1zm-6.916 0v-1a1 1 0 00-.937.65l.937.35zm-.822 2.207l-.937-.348.937.348zm-4.31-.21l.932.363-.932-.363zm8.311-21.349l.932.363-.932-.363zm.278-.189v1-1zm.277.19l.932-.365-.932.364zm8.341 21.348l-.931.364.931-.364zm-.031.275l.824.566-.824-.566zm-12.251-2.57v-1a.999.999 0 00-.937.652l.937.349zm7.328 0l.933-.358a.999.999 0 00-.933-.641v1zm.923 2.402l-.933.36a.999.999 0 00.933.64v-1zm3.754 0v1a.999.999 0 00.931-1.364l-.931.364zm-8.341-21.349l.931-.363a1 1 0 00-1.863 0l.932.364zm-8.311 21.35l-.932-.363a1 1 0 00.932 1.362v-1zm3.753 0v1c.418 0 .792-.26.937-.652l-.937-.349zm4.558-12.602l.943-.332a1 1 0 00-1.887 0l.944.332zm-2.532 7.205l-.944-.332a1 1 0 00.944 1.332v-1zm5.064 0v1a1.001 1.001 0 00.943-1.332l-.943.332zm-4.644-.297l-.944-.331a1 1 0 00.944 1.331v-1zm2.112-6.01l.943-.332a1 1 0 00-1.887 0l.944.332zm2.112 6.01v1a1 1 0 00.944-1.331l-.944.331zm23.844 5.837l.874.487-.874-.487zm-4.594.013l-.848.53v.001l.848-.53zm-5.335-8.518l.848-.531a1 1 0 00-.848-.47v1zm-1.532 0v-1a1 1 0 00-1 1h1zm-1.019-4.033v1a.999.999 0 00.844-1.537l-.844.537zm-3.016-4.733l-.843.537.843-.537zm7.192-3.925h1a1 1 0 00-1-1v1zm-6.94.297v-1a1 1 0 00-1 1h1zm0 3.469h-1a1 1 0 00.156.537l.844-.537zm3.306 5.189v1a1.001 1.001 0 00.844-1.538l-.844.538zm-3.306 0v-1a1 1 0 00-1 1h1zm0 12.097h-1a1 1 0 001 1v-1zm3.485 0v1a1 1 0 001-1h-1zm0-8.658v-1a1 1 0 00-1 1h1zm1.996 0l.847-.53a1 1 0 00-.847-.47v1zm5.421 8.658l-.847.531a1 1 0 00.847.47v-1zm4.081 0v1a.999.999 0 00.847-1.532l-.847.532zm-5.659-9.014l-.268-.963a.999.999 0 00-.579 1.495l.847-.532zm.296-.087l-.301-.954.301.954zm-2.679-11.95l.001-1-.001 1zm0 0l.003-1h-.001l-.002 1zm.002 0l.005-1h-.003l-.002 1zm.005 0l.01-1h-.005l-.005 1zm.017 0l.014-1h-.004l-.01 1zm.062 0l-.029 1 .029-1zm.231.011l-.061.998.061-.998zm.814.086l-.143.99.143-.99zm2.473.683l-.398.917.398-.917zm2.513 1.887l-.793.61.793-.61zm-.47 7.9l-.707-.707.707.708zm-2.805 1.642l-.309-.951a1 1 0 00-.538 1.483l.847-.532zm5.453 8.685l.847-.532-.847.532zm-8.296-17.13v1-1zm-2.8 0v-1a1 1 0 00-.846 1.533l.846-.532zm3.247 5.16l-.846.533a1 1 0 00.942.463l-.096-.996zm1.714-.811l-.506-.863.506.863zm-1.561.495l-.846.533a1 1 0 00.976.459l-.13-.992zm2.119-3.557l.743-.67-.743.67zm-1.08-.686l.347-.938-.347.938zm-1.131-.266l-.122.993.122-.993zm-.374-.033l-.052.998.052-.998zm-.102-.004l-.025 1h.001l.024-1zm-.025 0l.012-1h-.003l-.009 1zm-.006 0l.009-1h-.002l-.007 1zm-.001 0l.007-1h-.007v1zm-2.262 0v-1a1 1 0 00-.846 1.532l.846-.533zm-84.13 17.454a1.3 1.3 0 001.212.832v-2c.288 0 .55.177.655.45l-1.867.718zm-.85-2.211l.85 2.211 1.867-.718-.85-2.21-1.867.717zm-5.982.641h6.915v-2H43.58v2zm.115 1.557l.822-2.208-1.875-.698-.821 2.209 1.874.697zm-1.216.845c.54 0 1.026-.335 1.216-.845l-1.874-.697a.702.702 0 01.658-.458v2zm-3.754 0h3.754v-2h-3.754v2zm-1.07-.562a1.3 1.3 0 001.07.562v-2c.23 0 .447.113.578.304l-1.647 1.134zm-.14-1.205c-.155.4-.102.852.14 1.205l1.648-1.134a.704.704 0 01.076.655l-1.863-.726zm8.312-21.348l-8.311 21.349 1.863.725 8.312-21.349-1.864-.725zm1.209-.827c-.533 0-1.015.326-1.21.827l1.864.725a.702.702 0 01-.653.448l-.001-2zm1.21.825a1.298 1.298 0 00-1.21-.825v2a.702.702 0 01-.653-.447l1.862-.728zm8.34 21.349l-8.34-21.349-1.863.728 8.34 21.349 1.863-.728zm-.139 1.205c.243-.353.296-.805.14-1.205l-1.864.728a.705.705 0 01.076-.656l1.648 1.133zm-1.07.563c.427 0 .827-.21 1.07-.563L54.8 35.182a.702.702 0 01.578-.304v2zm-3.753 0h3.753v-2h-3.753v2zm-8.252-2.698H50.7v-2h-7.328v2zm6.395-.642l.923 2.402 1.867-.718-.923-2.401-1.867.718zm-6.351 2.392l.894-2.402-1.875-.697-.894 2.402 1.875.697zm2.452-5.71l2.112-6.01-1.887-.664-2.112 6.01 1.887.664zm3.28-1.332h-4.224v2h4.225v-2zm-3.055-4.679l2.112 6.01 1.887-.662-2.112-6.01-1.887.662zm23.154-1.725c-.713 0-1.298.576-1.298 1.296h2a.703.703 0 01-.702.704v-2zm6.97 0h-6.97v2h6.97v-2zm1.298 1.296c0-.72-.585-1.296-1.298-1.296v2a.703.703 0 01-.702-.704h2zm0 11.89V23.78h-2v11.89h2zm-1.298 1.297c.713 0 1.298-.576 1.298-1.297h-2c0-.392.319-.703.702-.703v2zm-3.038 0h3.038v-2H73.18v2zm-1.293-1.179a1.298 1.298 0 001.293 1.179v-2c.359 0 .665.273.699.64l-1.992.181zm-.126-1.376l.126 1.376 1.992-.182-.126-1.376-1.992.182zm-4.688 2.762c2.501 0 4.475-.565 6.32-2.081l-1.27-1.545c-1.414 1.162-2.908 1.626-5.05 1.626v2zm-8.014-3.177c2.067 2.096 4.909 3.177 8.014 3.177v-2c-2.636 0-4.943-.911-6.59-2.581l-1.424 1.404zm-3.263-8.794c0 3.681 1.193 6.695 3.263 8.794l1.424-1.404c-1.646-1.67-2.687-4.15-2.687-7.39h-2zm11.724-11.97c-6.474 0-11.724 5.095-11.724 11.97h2c0-5.78 4.365-9.97 9.724-9.97v-2zm8.281 3.439a11.577 11.577 0 00-8.281-3.44v2a9.578 9.578 0 016.859 2.846l1.422-1.406zm-.007 1.83c.506-.504.51-1.322.007-1.83l-1.422 1.406a.704.704 0 01.004-.994l1.41 1.418zm-2.443 2.43l2.443-2.43-1.411-1.418-2.443 2.431 1.411 1.418zm-1.832 0a1.299 1.299 0 001.832 0l-1.41-1.417a.701.701 0 01.989 0l-1.411 1.418zm-4-1.637c1.556 0 2.986.63 4 1.638l1.41-1.418a7.678 7.678 0 00-5.41-2.22v2zm-4 1.528c.987-.97 2.383-1.528 4-1.528v-2c-2.084 0-4.002.725-5.402 2.103l1.402 1.425zm-1.642 4.38c0-1.96.662-3.416 1.642-4.38l-1.402-1.425c-1.404 1.38-2.24 3.37-2.24 5.805h2zm1.616 4.556c-.933-.869-1.616-2.293-1.616-4.556h-2c0 2.684.825 4.69 2.254 6.02l1.362-1.464zm4.027 1.353c-1.692 0-3.076-.469-4.027-1.353l-1.362 1.464c1.42 1.32 3.344 1.89 5.389 1.89v-2zm4.176-1.832a5.588 5.588 0 01-4.176 1.832v2a7.588 7.588 0 005.654-2.485l-1.478-1.347zm-.261-1.912v2.585h2v-2.585h-2zm-2.187 1h3.187v-2h-3.187v2zm-1.298-1.296c0 .72.585 1.296 1.298 1.296v-2c.383 0 .702.31.702.704h-2zm0-3.292v3.291h2v-3.29h-2zm4.033 5.625a5.887 5.887 0 01-4.463 2.004v2a7.887 7.887 0 005.963-2.681l-1.5-1.323zm-4.463 2.004c-1.745 0-3.21-.484-4.23-1.434-1.007-.936-1.71-2.447-1.71-4.772h-2c0 2.746.844 4.838 2.347 6.237 1.49 1.385 3.495 1.969 5.593 1.969v-2zm-5.94-6.206c0-2.03.687-3.565 1.73-4.59 1.048-1.031 2.522-1.615 4.21-1.615v-2c-2.155 0-4.151.751-5.613 2.189-1.467 1.443-2.328 3.511-2.328 6.016h2zm5.94-6.205c1.635 0 3.14.662 4.209 1.724l1.41-1.418a7.976 7.976 0 00-5.62-2.306v2zm4.209 1.725h.001l1.41-1.418h-.001l-1.41 1.418zm3.871-3.831c-.031 1.414-1.445 1.383-1.445 1.383s1.414.03 1.445-1.383l-1.445 1.383c.031-1.414 1.445-1.383 1.445-1.383s-1.414-.031-1.445 1.383l1.445-1.383zm-.011-.012l-.127-.126-1.4 1.428.105.104 1.422-1.406zm-.127-.126a3.38 3.38 0 00-.106-.102l-1.38 1.446.086.084 1.4-1.428zm-.106-.102a11.28 11.28 0 00-7.836-3.123v2a9.28 9.28 0 016.455 2.57l1.381-1.447zm-7.836-3.123c-6.307 0-11.426 4.96-11.426 11.674h2c0-5.62 4.234-9.674 9.426-9.674v-2zM56.093 25.203c0 3.616 1.17 6.551 3.177 8.586 2.005 2.033 4.767 3.089 7.802 3.089v-2c-2.565 0-4.793-.886-6.378-2.493-1.582-1.605-2.601-4.007-2.601-7.181h-2zm10.98 11.675c2.527 0 4.473-.587 6.302-2.16l-1.303-1.516c-1.398 1.202-2.85 1.676-5 1.676v2zm6.302-2.16c.102-.087.204-.178.304-.27l-1.358-1.468a8.986 8.986 0 01-.25.222l1.304 1.517zM94.67 19.592c.713 0 1.298-.576 1.298-1.296h-2c0-.393.32-.704.702-.704v2zm-10.128 0H94.67v-2H84.541v2zm1 3.596v-4.596h-2v4.596h2zm7.37-1h-8.37v2h8.37v-2zm1.299 1.297c0-.72-.586-1.297-1.298-1.297v2a.703.703 0 01-.702-.703h2zm0 3.44v-3.44h-2v3.44h2zm-1.298 1.296c.712 0 1.298-.576 1.298-1.297h-2c0-.393.319-.703.702-.703v2zm-8.37 0h8.37v-2h-8.37v2zm1 3.596V27.22h-2v4.596h2zm9.127-1H84.541v2H94.67v-2zm1.298 1.296c0-.72-.585-1.296-1.298-1.296v2a.703.703 0 01-.702-.704h2zm0 3.47v-3.47h-2v3.47h2zm-1.298 1.296c.713 0 1.298-.576 1.298-1.297h-2c0-.393.32-.703.702-.703v2zm-13.91 0h13.91v-2H80.76v2zm-1.3-1.299c0 .72.586 1.297 1.298 1.297v-2c.383 0 .702.31.702.703h-2zm0-20.755V35.58h2V14.826h-2zm1.298-1.297c-.712 0-1.298.576-1.298 1.297h2a.703.703 0 01-.702.703v-2zm13.911 0H80.76v2h13.91v-2zm1.298 1.297c0-.72-.585-1.297-1.298-1.297v2a.703.703 0 01-.702-.703h2zm0 3.469v-3.47h-2v3.47h2zm13.504 12.52h-7.417v2h7.417v-2zm1.298 1.297c0-.72-.585-1.296-1.298-1.296v2a.703.703 0 01-.702-.704h2zm0 3.47v-3.47h-2v3.47h2zm-1.298 1.296c.713 0 1.298-.576 1.298-1.297h-2c0-.393.319-.703.702-.703v2zm-11.2 0h11.2v-2h-11.2v2zm-1.298-1.297c0 .72.585 1.297 1.298 1.297v-2c.383 0 .702.31.702.703h-2zm0-20.755V35.58h2V14.826h-2zm1.298-1.297c-.713 0-1.298.576-1.298 1.297h2a.703.703 0 01-.702.703v-2zm3.485 0h-3.485v2h3.485v-2zm1.298 1.297c0-.72-.586-1.297-1.298-1.297v2a.703.703 0 01-.702-.703h2zm0 16.99v-16.99h-2v16.99h2zm19.474 4.23c.193.503.676.832 1.211.832v-2c.288 0 .55.177.655.45l-1.866.718zm-.851-2.211l.851 2.211 1.866-.718-.85-2.21-1.867.717zm-5.982.641h6.916v-2h-6.916v2zm.116 1.557l.821-2.208-1.874-.698-.822 2.209 1.875.697zm-1.217.845c.54 0 1.027-.335 1.217-.845l-1.875-.697a.702.702 0 01.658-.458v2zm-3.753 0h3.753v-2h-3.753v2zm-1.07-.562a1.3 1.3 0 001.07.562v-2c.229 0 .446.113.578.304l-1.648 1.134zm-.14-1.205c-.156.4-.103.852.14 1.205l1.648-1.134a.704.704 0 01.076.655l-1.864-.726zm8.311-21.348l-8.311 21.349 1.864.725 8.311-21.349-1.864-.725zm1.209-.827c-.533 0-1.014.326-1.209.827l1.864.725a.702.702 0 01-.654.448l-.001-2zm1.21.825a1.298 1.298 0 00-1.21-.825l.001 2a.702.702 0 01-.654-.447l1.863-.728zm8.341 21.349l-8.341-21.349-1.863.728 8.341 21.349 1.863-.728zm-.139 1.205c.243-.353.295-.805.139-1.205l-1.863.728a.705.705 0 01.075-.656l1.649 1.133zm-1.07.563a1.3 1.3 0 001.07-.563l-1.649-1.133a.703.703 0 01.579-.304v2zm-3.754 0h3.754v-2h-3.754v2zm-8.251-2.698h7.328v-2h-7.328v2zm6.394-.642l.924 2.402 1.867-.718-.924-2.401-1.867.718zm-6.351 2.392l.894-2.402-1.874-.697-.894 2.402 1.874.697zm2.452-5.71l2.112-6.01-1.887-.664-2.112 6.01 1.887.664zm3.281-1.332h-4.224v2h4.224v-2zm-3.056-4.679l2.113 6.01 1.887-.662-2.113-6.01-1.887.662zm26.639 12.669a1.3 1.3 0 001.135-.666l-1.748-.973a.702.702 0 01.613-.361v2zm-4.081 0h4.081v-2h-4.081v2zm-1.1-.609c.238.38.654.609 1.1.609v-2a.7.7 0 01.595.33l-1.695 1.061zm-5.334-8.518l5.334 8.518 1.695-1.061-5.334-8.519-1.695 1.061zm-.685.469h1.532v-2h-1.532v2zm1 7.361v-8.36h-2v8.361h2zm-1.298 1.297c.712 0 1.298-.576 1.298-1.297h-2c0-.393.319-.703.702-.703v2zm-3.485 0h3.485v-2h-3.485v2zm-1.298-1.297c0 .72.585 1.297 1.298 1.297v-2c.383 0 .702.31.702.703h-2zm0-12.097V35.58h2V23.484h-2zm1.298-1.297c-.713 0-1.298.576-1.298 1.297h2a.703.703 0 01-.702.703v-2zm2.764 0h-2.764v2h2.764v-2zm-3.859-3.196l3.016 4.734 1.687-1.075-3.017-4.734-1.686 1.075zm-.203-.696c0 .247.07.488.203.696l1.686-1.075a.704.704 0 01.111.379h-2zm0-3.47v3.47h2v-3.47h-2zm1.298-1.296c-.713 0-1.298.576-1.298 1.297h2a.703.703 0 01-.702.703v-2zm6.94 0h-6.94v2h6.94v-2zm1 1.297v-.297h-2v.297h2zm-3.307 12.628l5.422 8.658 1.695-1.061-5.422-8.659-1.695 1.062zm4.958.077c.109-.03.218-.063.329-.098l-.601-1.907a7.691 7.691 0 01-.263.078l.535 1.927zm.329-.098c1.085-.341 2.332-.94 3.316-1.994 1.004-1.078 1.675-2.57 1.675-4.565h-2c0 1.505-.49 2.505-1.138 3.2-.67.718-1.568 1.173-2.454 1.452l.601 1.907zm4.991-6.559c0-1.719-.5-3.07-1.296-4.106-.785-1.022-1.814-1.68-2.791-2.104a10.534 10.534 0 00-2.651-.734 10.843 10.843 0 00-1.125-.102l-.074-.002h-.033l-.001 1v1h-.002.052c.041.002.104.004.188.01.168.01.412.031.708.074a8.54 8.54 0 012.142.589c.765.332 1.479.809 2.001 1.488.511.665.882 1.582.882 2.887h2zm-7.969-7.345h-.007a1.595 1.595 0 00-.093.005.998.998 0 00-.866.73c-.013.05-.02.092-.024.113-.006.042-.008.076-.009.085l-.002.03v.074l-.001.26h2l.001-.257v-.026.005l-.001.02-.002.03a.926.926 0 01-.033.197 1 1 0 01-.959.735h-.006l.002-2zm.001 0h-.001l-.003 2h.001l.003-2zm.002 0h-.001l-.005 2h.001l.005-2zm.008 0h-.005l-.011 2h.005l.011-2zm.022 0h-.017l-.021 2h.017l.021-2zm.081.002a3.794 3.794 0 00-.077-.002l-.028 2 .047.001.058-1.999zm.264.012a7.633 7.633 0 00-.264-.012l-.058 2c.044 0 .111.003.199.008l.123-1.996zm.896.094c-.367-.053-.675-.08-.896-.094l-.123 1.997c.174.01.427.032.732.076l.287-1.979zm2.727.755a10.839 10.839 0 00-2.727-.755l-.287 1.98a8.843 8.843 0 012.218.61l.796-1.835zm2.908 2.196c-.824-1.073-1.899-1.758-2.908-2.196l-.796 1.835c.796.346 1.558.85 2.118 1.58l1.586-1.219zm1.358 4.286c0-1.78-.52-3.195-1.358-4.286l-1.586 1.218c.554.72.944 1.702.944 3.068h2zm-1.914 4.93c1.141-1.14 1.914-2.754 1.914-4.93h-2c0 1.655-.569 2.757-1.328 3.516l1.414 1.415zm-3.204 1.886c1.04-.337 2.227-.909 3.204-1.885l-1.414-1.415c-.684.684-1.557 1.122-2.407 1.398l.617 1.902zm5.992 7.202l-5.454-8.685-1.693 1.064 5.453 8.685 1.694-1.064zm.035 1.32c.23-.414.216-.92-.035-1.32l-1.694 1.064a.704.704 0 01-.019-.717l1.748.973zm-6.692-15.338c0 .593-.27.921-.679 1.162-.461.27-1.052.384-1.456.423l.192 1.99c.52-.05 1.448-.203 2.276-.689.879-.515 1.667-1.433 1.667-2.886h-2zm-2.486-2.58v1h-.003.001a4.714 4.714 0 011.398.26c.345.129.62.296.802.498.163.181.288.427.288.822h2c0-.894-.311-1.616-.802-2.16-.471-.523-1.067-.84-1.594-1.035a6.417 6.417 0 00-1.423-.336 6.691 6.691 0 00-.645-.048h-.021l-.001 1zm1.655 3.486c-.35.206-.805.317-1.185.367l.26 1.983c.503-.066 1.259-.226 1.938-.625l-1.013-1.725zm.533-.906c0 .468-.195.708-.533.906l1.013 1.725c.81-.475 1.52-1.305 1.52-2.63h-2zm-.212-.624c.065.072.114.15.149.24.035.09.063.212.063.384h2c0-.82-.284-1.472-.726-1.962l-1.486 1.338zm-.684-.417c.317.117.545.263.684.417l1.486-1.338c-.428-.476-.976-.77-1.476-.955l-.694 1.876zm-.906-.211a4.1 4.1 0 01.906.211l.694-1.876a6.122 6.122 0 00-1.355-.32l-.245 1.985zm-.304-.027c.069.003.175.01.304.027l.245-1.985a6.48 6.48 0 00-.444-.04l-.105 1.997zm-.074-.003c.014 0 .039 0 .074.003l.105-1.998a4.701 4.701 0 00-.13-.005l-.049 2zm-.013 0h.012l.05-2h-.038l-.024 2zm-.003 0h.006l.018-2h-.006l-.018 2zm.002 0h.001l.013-2h-.001l-.013 2zm1.452 3.014l-2.861-4.547-1.693 1.065 2.862 4.547 1.692-1.065zM51.624 36.58h3.753v-2h-3.753v2zm4.685-1.364L47.968 13.87l-1.863.728 8.34 21.348 1.864-.727zM46.105 13.87l-8.312 21.349 1.864.725 8.311-21.349-1.864-.725zm-7.38 22.711h3.754v-2h-3.754v2zm6.723-6.065l2.532-7.205-1.887-.663-2.532 7.205 1.887.663zm4.12-1.331h-5.064v2h5.064v-2zm-3.475-5.874l2.532 7.205 1.887-.663-2.532-7.205-1.887.663zm27.046-2.588l2.443-2.431-1.41-1.418-2.443 2.432 1.41 1.417zm-1.135 13.081l.179 1.957 1.992-.182-.18-1.957-1.99.182zm1.175 2.866h3.038v-2H73.18v2zm4.038-1V23.78h-2v11.89h2zm-1-12.89h-6.97v2h6.97v-2zm-7.97 1v3.291h2v-3.29h-2zm1 4.291h3.485v-2h-3.485v2zm2.485-1v2.995h2v-2.994h-2zm22.937 4.041H84.243v2H94.67v-2zm1 4.47v-3.47h-2v3.47h2zm-14.91 1h13.91v-2H80.76v2zm-1-21.756V35.58h2V14.826h-2zm14.91-1H80.76v2h13.91v-2zm1 4.469v-3.47h-2v3.47h2zm-11.426 1H94.67v-2H84.243v2zm1 4.189v-5.19h-2v5.19h2zm7.669-1h-8.669v2h8.669v-2zm1 4.44v-3.44h-2v3.44h2zm-9.669 1h8.669v-2h-8.669v2zm1 4.188v-5.189h-2v5.19h2zm24.228-1h-7.715v2h7.715v-2zm1 4.47v-3.47h-2v3.47h2zm-12.2 1h11.2v-2h-11.2v2zm-1-21.756V35.58h2V14.826h-2zm4.485-1h-3.485v2h3.485v-2zm1 18.286V14.826h-2v17.286h2zm20.983 4.47h3.754v-2h-3.754v2zm4.685-1.364l-8.341-21.35-1.863.729 8.341 21.348 1.863-.727zM118.22 13.87l-8.311 21.349 1.864.725 8.311-21.349-1.864-.725zm-7.379 22.711h3.753v-2h-3.753v2zm6.722-6.065l2.532-7.205-1.887-.663-2.532 7.205 1.887.663zm4.121-1.331h-5.064v2h5.064v-2zm-3.476-5.874l2.532 7.205 1.887-.663-2.532-7.205-1.887.663zm18.596-9.485h-6.94v2h6.94v-2zm-7.94 1v3.469h2v-3.47h-2zm.156 4.006l3.307 5.19 1.687-1.076-3.307-5.189-1.687 1.075zm4.15 3.652h-3.306v2h3.306v-2zm-4.306 1V35.58h2V23.484h-2zm1 13.097h3.485v-2h-3.485v2zm4.485-1v-8.658h-2v8.658h2zm-1-7.658h1.996v-2h-1.996v2zm7.417 8.658h4.081v-2h-4.081v2zm4.928-1.531l-5.66-9.014-1.693 1.063L144 36.113l1.694-1.063zm-11.69-15.755h2.8v-2h-2.8v2zm4.094 3.626l-3.247-5.159-1.693 1.065 3.247 5.16 1.693-1.066zm-3.556-3.33h2.262v-2h-2.262v2z" fill="url(#paint5_linear_86_663)" mask="url(#a)"/><path d="M51.157 35.168a.5.5 0 00.467.32h3.753a.5.5 0 00.466-.682l-8.34-21.348a.5.5 0 00-.933 0l-8.31 21.349a.5.5 0 00.465.681h3.754a.5.5 0 00.468-.325l.773-2.076h6.637l.8 2.08zm18.09-12.48a.5.5 0 00-.5.5v3.29a.5.5 0 00.5.5h2.985v2.302a6.386 6.386 0 01-4.713 2.036c-1.833 0-3.433-.51-4.57-1.568-1.132-1.052-1.87-2.708-1.87-5.138 0-2.15.73-3.817 1.88-4.947 1.15-1.133 2.755-1.758 4.56-1.758a6.48 6.48 0 014.562 1.87.5.5 0 00.706 0l2.442-2.43a.5.5 0 00.003-.707 10.779 10.779 0 00-7.713-3.202c-6.028 0-10.926 4.733-10.926 11.174 0 3.506 1.132 6.308 3.033 8.235 1.9 1.926 4.529 2.94 7.446 2.94 2.223 0 3.931-.467 5.517-1.667l.092 1.005a.5.5 0 00.498.454h3.038a.5.5 0 00.5-.5v-11.89a.5.5 0 00-.5-.5h-6.97zm25.422-4.486a.5.5 0 00.5-.5v-3.47a.5.5 0 00-.5-.5H80.76a.5.5 0 00-.5.5v20.756a.5.5 0 00.5.5h13.91a.5.5 0 00.5-.5V31.52a.5.5 0 00-.5-.5h-9.926v-4.19h8.169a.5.5 0 00.5-.5v-3.44a.5.5 0 00-.5-.5h-8.169v-4.188h9.926zm14.802 12.817h-7.215V14.232a.5.5 0 00-.5-.5h-3.485a.5.5 0 00-.5.5v20.756a.5.5 0 00.5.5h11.2a.5.5 0 00.5-.5V31.52a.5.5 0 00-.5-.5zm13.802 4.149c.074.193.259.32.466.32h3.754a.502.502 0 00.465-.682l-8.34-21.348a.5.5 0 00-.932 0l-8.311 21.349a.5.5 0 00.466.681h3.753a.5.5 0 00.469-.325l.772-2.076h6.637l.801 2.08zm21.574.32a.5.5 0 00.424-.766l-5.316-8.466c.896-.32 1.852-.82 2.639-1.607.989-.989 1.681-2.4 1.681-4.368 0-1.615-.468-2.858-1.193-3.801-.719-.937-1.669-1.549-2.593-1.95a10.02 10.02 0 00-2.524-.698 10.279 10.279 0 00-1.134-.1h-.026l-.001.5v-.5h-6.94a.5.5 0 00-.5.5v3.47c0 .095.027.188.078.268l2.817 4.42h-2.395a.5.5 0 00-.5.5v12.098a.5.5 0 00.5.5h3.485a.5.5 0 00.5-.5V26.83h1.219l5.275 8.424a.498.498 0 00.423.234h4.081zM45.21 29.092l1.826-5.197 1.827 5.197H45.21zm72.115 0l1.827-5.197 1.826 5.197h-3.653zm20.18-6.767l-2.595-4.123h1.921l.097.004c.085.005.21.014.36.032a4.93 4.93 0 011.086.255c.39.144.745.35 1 .632.244.271.416.636.416 1.156 0 .808-.4 1.284-.926 1.593-.437.256-.95.387-1.359.451z" fill="url(#paint6_linear_86_663)" stroke="url(#paint7_linear_86_663)" stroke-linejoin="round"/><path d="M51.624 34.395h3.753l-8.34-21.349-8.312 21.35h3.754l.893-2.402H50.7l.924 2.401zm-4.588-12.602L49.568 29h-5.064l2.532-7.205z" fill="url(#paint8_linear_86_663)"/><path d="M69.247 22.594v3.291h3.485v2.995a6.887 6.887 0 01-5.213 2.343c-3.843 0-6.94-2.135-6.94-7.206 0-4.536 3.097-7.205 6.94-7.205 1.906 0 3.664.771 4.915 2.016l2.443-2.431a10.279 10.279 0 00-7.358-3.054c-5.75 0-10.426 4.507-10.426 10.674 0 6.79 4.379 10.675 9.98 10.675 2.472 0 4.23-.593 5.927-2.165l.179 1.957h3.038v-11.89h-6.97z" fill="url(#paint9_linear_86_663)"/><path d="M94.67 17.109v-3.47H80.757v20.756H94.67v-3.469H84.243v-5.189h8.669v-3.44h-8.669V17.11H94.67z" fill="url(#paint10_linear_86_663)"/><path d="M101.756 30.926V13.639h-3.485v20.756h11.2v-3.469h-7.715z" fill="url(#paint11_linear_86_663)"/><path d="M123.739 34.395h3.754l-8.341-21.349-8.311 21.35h3.753l.894-2.402h7.328l.923 2.401zm-4.587-12.602L121.684 29h-5.064l2.532-7.205z" fill="url(#paint12_linear_86_663)"/><path d="M144.847 34.395l-5.659-9.014c2.025-.563 4.587-2.016 4.587-5.693 0-6.049-6.971-6.049-6.971-6.049h-6.94v3.47l3.306 5.188h-3.306v12.098h3.485v-8.658h1.996l5.421 8.658h4.081zM134.004 17.11h2.8s3.486 0 3.486 2.58c0 2.045-2.115 2.49-3.039 2.579l-3.247-5.16z" fill="url(#paint13_linear_86_663)"/><path d="M51.624 34.395h3.753l-8.34-21.349-8.312 21.35h3.754l.893-2.402H50.7l.924 2.401zm-4.588-12.602L49.568 29h-5.064l2.532-7.205z" stroke="url(#paint14_linear_86_663)" stroke-linejoin="round"/><path d="M69.247 22.594v3.291h3.485v2.995a6.887 6.887 0 01-5.213 2.343c-3.843 0-6.94-2.135-6.94-7.206 0-4.536 3.097-7.205 6.94-7.205 1.906 0 3.664.771 4.915 2.016l2.443-2.431a10.279 10.279 0 00-7.358-3.054c-5.75 0-10.426 4.507-10.426 10.674 0 6.79 4.379 10.675 9.98 10.675 2.472 0 4.23-.593 5.927-2.165l.179 1.957h3.038v-11.89h-6.97z" stroke="url(#paint15_linear_86_663)" stroke-linejoin="round"/><path d="M94.67 17.109v-3.47H80.757v20.756H94.67v-3.469H84.243v-5.189h8.669v-3.44h-8.669V17.11H94.67z" stroke="url(#paint16_linear_86_663)" stroke-linejoin="round"/><path d="M101.756 30.926V13.639h-3.485v20.756h11.2v-3.469h-7.715z" stroke="url(#paint17_linear_86_663)" stroke-linejoin="round"/><path d="M123.739 34.395h3.754l-8.341-21.349-8.311 21.35h3.753l.894-2.402h7.328l.923 2.401zm-4.587-12.602L121.684 29h-5.064l2.532-7.205z" stroke="url(#paint18_linear_86_663)" stroke-linejoin="round"/><path d="M144.847 34.395l-5.659-9.014c2.025-.563 4.587-2.016 4.587-5.693 0-6.049-6.971-6.049-6.971-6.049h-6.94v3.47l3.306 5.188h-3.306v12.098h3.485v-8.658h1.996l5.421 8.658h4.081zM134.004 17.11h2.8s3.486 0 3.486 2.58c0 2.045-2.115 2.49-3.039 2.579l-3.247-5.16z" stroke="url(#paint19_linear_86_663)" stroke-linejoin="round"/><path d="M4.223 26.048l.812-.505-.125-1.857-.687 2.362zm1.768 5.098l.795-.555-.796-1.58.001 2.135zm-.804-1.596l.803-.539-.59-1.688-.213 2.227zm-1.09-5.377l.813-.486.125-1.857-.939 2.343zm.495 3.673l.809-.523-.366-1.78-.443 2.303zm30.34-1.361l.51-.51.155-2.289-.665 2.799zM4.223 22.299l.812-.469.366-1.78-1.178 2.248zm30.866 1.874l.508-.486-.154-2.29-.354 2.776zm-.157-2.311l.51-.464-.45-2.195-.06 2.659zM4.592 20.5l.809-.451.589-1.688L4.592 20.5zm29.886-.856l.514-.442-.726-2.082.212 2.524zm-.734-2.102l.522-.422-.982-1.948.46 2.37zM5.187 18.796l.803-.434.796-1.58-1.599 2.014zm27.565-3.22l.532-.403-1.217-1.793.685 2.196zm-1.229-1.812l.544-.384-1.433-1.62.889 2.004zM5.991 17.201l.795-.419.987-1.454L5.991 17.2zm24.085-5.073l.558-.368-1.627-1.426 1.07 1.794zm-1.643-1.44l.574-.354-1.802-1.212 1.228 1.566zM6.988 15.731l.785-.403 1.162-1.314-1.947 1.717zm19.625-6.267l.592-.342-1.957-.977 1.365 1.32zm-1.976-.987l.611-.332-2.09-.723 1.479 1.055zM8.162 14.405l.773-.391 1.32-1.156-2.093 1.546zm14.363-6.658l.632-.325-2.205-.448 1.573.773zm-2.227-.453l.654-.32-2.3-.154 1.646.474zM9.494 13.237l.76-.38 1.462-.982-2.222 1.362zm8.481-6.098l.677-.32-2.299.155 1.622.165zm-2.322.155l.7-.32-2.205.448 1.505-.128zm-4.683 4.95l.746-.369 1.587-.793-2.333 1.162zm2.456-4.497l.722-.325-2.091.723 1.369-.398zm16.65 28.471l.558-.605 1.433-1.62-1.99 2.225zm-2.287-2.276l.58-.583-1.319 1.156.74-.573zm3.734.64l.544-.589 1.217-1.794-1.761 2.383zm1.23-1.811l.531-.572.982-1.947-1.514 2.519zm.99-1.967l.523-.552.726-2.082-1.248 2.634zm-7.287 4.305l.594-.594-1.462.983.868-.389zm8.021-6.408l.515-.53.45-2.196-.965 2.726zM6.988 32.615l.785-.57-.987-1.454.202 2.024zm1.174 1.327l.773-.583-1.162-1.314.389 1.897zm16.818 2.16l.608-.604-1.586.793.978-.19zM9.494 35.11l.76-.595-1.32-1.156.56 1.75zm1.476.992l.746-.604-1.461-.983.715 1.587zm1.603.8l.73-.611-1.587-.793.857 1.404zm10.805 0l.624-.611-1.696.586 1.072.025zm-9.092.593l.713-.618-1.696-.586.983 1.204zm1.806.367l.696-.621-1.789-.364 1.093.985zm1.883.126l.677-.622-1.864-.125 1.187.747zm3.69-.493l.64-.618-1.788.364 1.148.254zm-1.806.367l.658-.621-1.865.125 1.207.496zM9.494 35.109l1.476.993-.715-1.587-.76.594zm-3.503-3.963l.997 1.469-.202-2.024-.795.555zm11.984 6.842l1.884-.126-1.207-.496-.677.622zM5.187 29.55l.804 1.596-.001-2.135-.803.54zm-.595-1.704l.595 1.704.214-2.227-.809.523zm11.5 10.016l1.883.126-1.187-.747-.696.62zM4.223 26.048l.37 1.798.442-2.303-.812.505zm10.063 11.447l1.806.367L15 36.877l-.713.617zm7.379 0l1.713-.593-1.072-.025-.641.617zm-9.092-.593l1.713.593-.983-1.204-.73.611zm-1.603-.8l1.603.8-.857-1.404-.745.604zm8.889 1.76l1.806-.367-1.148-.254-.658.62zm3.519-.96l1.602-.8-.978.189-.624.611zm-15.216-2.96l1.332 1.167-.56-1.75-.772.583zm-1.174-1.327l1.174 1.327-.389-1.897-.785.57zm27.944-6.13l-.455 2.216.966-2.726-.51.51zm-9.952 9.617l1.476-.992-.867.388-.609.604zm9.497-7.4l-.733 2.102 1.248-2.634-.514.531zm-2.954 5.88l-1.447 1.636 1.99-2.225-.543.59zm-5.067.527l1.333-1.167-.739.573-.594.594zm6.296-2.338l-1.229 1.811 1.761-2.383-.532.572zm.992-1.967l-.992 1.967 1.514-2.52-.522.553zm-3.668-18.676l1.447 1.636-.889-2.004-.558.368zm-17.503-.684l-1.603.8 2.333-1.162-.73.362zM6.988 15.73l-.997 1.47 1.782-1.873-.785.403zm21.445-5.043l1.643 1.44-1.069-1.794-.574.354zm6.5 11.174l.156 2.311.354-2.775-.51.464zm-.456-2.217l.456 2.217.06-2.66-.516.443zm-7.864-10.18l1.82 1.223-1.228-1.566-.592.342zm-18.451 4.94L6.988 15.73l1.947-1.717-.773.39zm16.475-5.928l1.976.987-1.365-1.319-.611.332zM4.223 22.3l-.127 1.874.94-2.343-.813.469zM22.525 7.747l2.112.73-1.48-1.055-.632.325zm-13.03 5.49l-1.333 1.168 2.093-1.547-.76.379zm10.803-5.943l2.227.453-1.573-.773-.654.32zM4.096 24.174l.127 1.874.687-2.361-.814.486zm13.88-17.035l2.322.155-1.646-.474-.677.319zm-7.005 5.105l-1.477.993 2.222-1.362-.745.37zm4.682-4.95l2.322-.155-1.622-.165-.7.32zm19.436 16.88l-.157 2.31.665-2.798-.508.487zM5.187 18.795L4.592 20.5l1.398-2.139-.803.434zm8.239-11.049l2.227-.453-1.505.128-.722.325zm-2.112.73l2.112-.73-1.37.398-.742.332zm22.43 9.066l.733 2.102-.211-2.524-.522.422zm-.992-1.967l.992 1.967-.46-2.37-.532.403zM4.592 20.5l-.369 1.797 1.178-2.248-.809.45zm1.4-3.3l-.805 1.595 1.6-2.014-.796.419zm25.531-3.437l1.23 1.812-.686-2.196-.544.384zm-4.326 20.772l.592-.594-1.333 1.167.741-.573zm-6.185 3.588l.653-.63-1.806.368 1.152.262zm9.956-2.94l.555-.602 1.23-1.811-1.785 2.412zm1.242-1.83l.542-.583.992-1.967-1.534 2.55zm-13.023 5.142l.672-.634-1.884.126 1.212.508zM5.181 31.712l.81-.566-.804-1.596-.006 2.162zm24.326 5.123l.57-.617 1.446-1.636-2.016 2.253zM4.368 30.101l.82-.55-.596-1.705-.224 2.255zm12.917 8.522l.69-.635-1.883-.126 1.193.76zM3.768 28.379l.824-.533-.369-1.798-.455 2.33zm29.444 2.987l.532-.562.733-2.102-1.265 2.664zm-10.47 6.16l.636-.624-1.713.593 1.076.031zm-7.36.97l.71-.634-1.806-.367 1.097 1zm-1.824-.372l.728-.63-1.713-.592.985 1.222zm-1.73-.598l.745-.624-1.603-.8.858 1.424zm12.532-.808l.62-.616-1.602.8.982-.184zm9.592-7.475l.526-.541.454-2.217-.98 2.758zM10.21 36.718l.76-.616-1.476-.992.716 1.608zm-1.491-1.003l.775-.606-1.332-1.167.557 1.773zm-2.531-2.519l.8-.581-.997-1.47.197 2.051zm1.185 1.34l.789-.594-1.174-1.327.385 1.921zm18.478 1.18l.605-.607-1.476.993.871-.386zm8.101-15.62l.526-.451-.734-2.102.208 2.553zM21.88 8.079l.645-.332-2.227-.453 1.582.785zm2.133.737l.624-.339-2.112-.73 1.488 1.07zm-16.64 5.987l.789-.399 1.332-1.167-2.121 1.566zm-1.185 1.34l.8-.412 1.174-1.326-1.974 1.738zm19.82-6.33l.605-.349-1.976-.987 1.372 1.336zM3.396 26.563l.828-.515-.127-1.875-.701 2.39zM10.21 12.62l.76-.377 1.603-.8-2.363 1.177zm2.48-4.542l.736-.332-2.112.73 1.376-.398zm15.157 2.97l.586-.36-1.82-1.225 1.234 1.585zM19.63 7.622l.668-.328-2.323-.155 1.655.482zM5.18 17.627l.811-.426.997-1.47-1.807 1.896zm24.327-5.123l.57-.376-1.644-1.44 1.074 1.816zM3.267 24.669l.83-.496.126-1.874-.956 2.37zm31.145 2.335l.52-.52.157-2.31-.677 2.83zm-3.444-12.848l.555-.392-1.447-1.636.892 2.028zM17.285 7.464l.69-.325-2.322.155 1.632.17zM4.368 19.238l.82-.442.803-1.595-1.623 2.037zm27.842-3.252l.542-.41-1.229-1.812.687 2.222zM14.94 7.62l.713-.327-2.227.453 1.514-.125zm-6.221 6.002l.775-.386 1.476-.993-2.251 1.38zm24.492 4.35l.533-.43-.992-1.967.46 2.396zm1.359 6.697l.519-.497-.157-2.311-.362 2.808zM3.768 20.96l.824-.46.595-1.704-1.42 2.164zm-.373 1.816l.828-.477.37-1.798-1.198 2.275zm31.017-.441l.52-.473-.455-2.217-.065 2.69zM5.181 31.712l1.007 1.484-.197-2.05-.81.566zm28.771-2.469l-.74 2.123 1.265-2.665-.525.542zm-20.394 8.881l1.825.371-1.097-1-.728.63zm-7.37-4.928l1.185 1.34-.385-1.921-.8.581zm16.553 4.33l1.62-.808-.983.184-.637.624zm-12.531-.808l1.618.808-.857-1.424-.761.616zm8.977 1.777l1.825-.37-1.153-.263-.672.633zm15.225-11.49l-.46 2.238.98-2.758-.52.52zm-19.03 11.49l1.903.128-1.193-.761-.71.633zm16.828-5.142l-1.242 1.83 1.784-2.412-.542.582zm-28.815-6.79l.373 1.816.455-2.331-.828.515zm8.433 10.963l1.73.598-.985-1.222-.745.624zm-4.455-2.99l1.346 1.18-.557-1.774-.79.594zm13.639 3.588l1.73-.598-1.077-.032-.653.63zM3.768 28.38l.6 1.722.224-2.255-.824.533zm22.083 7.336l1.346-1.179-.74.573-.606.606zm-8.566 2.908l1.902-.127-1.212-.508-.69.635zm7.075-1.905l1.491-1.003-.87.387-.62.616zM4.368 30.1l.813 1.611.006-2.162-.819.55zm26.6 5.082l-1.46 1.652 2.015-2.253-.555.601zm2.244-3.817l-1.002 1.987 1.534-2.55-.532.563zm-24.493 4.35l1.49 1.002-.715-1.609-.775.606zM3.267 24.668l.128 1.894.701-2.39-.83.497zM26.009 9.813l1.838 1.236-1.234-1.585-.604.35zm7.943 10.283l.46 2.239.066-2.69-.526.45zM10.21 12.62l-1.491 1.002 2.252-1.379-.761.377zm7.075-5.157l2.345.157-1.655-.482-.69.325zM5.18 17.627l-.813 1.611 1.623-2.037-.81.426zm29.231 4.708l.158 2.334.362-2.807-.52.473zm-6.565-11.286l1.66 1.455-1.074-1.816-.586.361zM7.373 14.803l-1.185 1.34 1.974-1.739-.79.399zm3.184-5.987l2.133-.737-1.376.398-.757.34zM34.57 24.67l-.158 2.335.677-2.83-.52.495zM19.63 7.622l2.25.457-1.582-.785-.668.328zm9.877 4.882l1.461 1.652-.892-2.028-.569.376zM3.395 22.776l-.128 1.893.956-2.37-.828.477zm8.433-10.963l-1.618.808 2.363-1.177-.745.369zm-7.46 7.425l-.6 1.722 1.42-2.164-.82.442zm26.6-5.082l1.242 1.83-.687-2.222-.555.392zM21.88 8.079l2.133.737-1.488-1.069-.645.332zm-9.19 0l2.25-.458-1.514.126-.736.332zM3.768 20.96l-.373 1.816 1.197-2.275-.824.46zm28.442-4.974l1.002 1.986-.46-2.396-.542.41zM8.719 13.623l-1.346 1.18 2.121-1.566-.775.386zm15.294-4.806l1.996.996-1.372-1.336-.624.34zM6.188 16.142L5.18 17.627l1.807-1.896-.8.412zm27.024 1.83l.74 2.123-.208-2.553-.532.43zM14.939 7.621l2.346-.158-1.632-.17-.713.328z" fill="url(#paint20_linear_86_663)"/><path d="M4.368 30.1L0 24.67l8.56 14.855-4.192-9.424zm27.842 3.253l1.002-1.987.74-2.123-1.742 4.11zm-.907-8.684l-.128 1.894 3.395-1.893h-3.267zm3.267 0l-3.768-3.709.373 1.816 3.395 1.893zm-3.395 1.894l-.373 1.816 3.768-3.71-3.395 1.894zm3.395-1.893l-4.37-5.433.601 1.722 3.768 3.71zm-3.768 3.709l-.6 1.722 4.368-5.431-3.768 3.709zm3.768-3.71L26.009 9.813l4.192 9.425 4.369 5.431zm-4.37 5.433l-.812 1.611 5.18-7.043-4.368 5.432zM26.01 9.813l3.38 7.814.812 1.611-4.192-9.425zm3.38 21.899l-1.007 1.484 6.188-8.526-5.18 7.042zM26.01 9.813l2.373 6.33 1.007 1.484-3.38-7.814zm2.373 23.383l-2.373 6.33 8.56-14.857-6.187 8.527zM26.01 9.813l1.188 4.99 1.185 1.34-2.373-6.33zm2.373 23.383l-1.185 1.34-1.188 4.99 2.373-6.33zM26.01 9.813l-.158 3.81 1.346 1.18-1.188-4.99zm1.188 24.723l-1.346 1.18.158 3.81 1.188-4.99zM26.01 9.813l-1.649 2.808 1.491 1.002.158-3.81zm-.158 25.902l-1.49 1.003 1.648 2.807-.158-3.81zm.158-25.902l-3.268 2 1.62.808 1.648-2.808zm-1.65 26.905l-1.619.808 3.268 2-1.649-2.808zm1.65-26.905l-4.997 1.401 1.73.599 3.267-2zm-3.27 27.713l-1.73.598 4.998 1.401-3.268-1.999zm3.27-27.713l-6.822 1.03 1.825.371 4.997-1.4zm-4.997 28.311l-1.825.371 6.822 1.03-4.997-1.4zm4.997-28.31H8.56l10.626 1.03 6.822-1.03zm-6.822 28.681l-1.902.128 8.724.903-6.822-1.03zM8.561 9.814l8.724.903 1.902.128-10.626-1.03zm8.724 28.81l-1.902-.127 10.626 1.03-8.724-.903zM8.56 9.813l6.822 1.03 1.902-.127-8.724-.903zm6.822 28.682l-6.822 1.03h17.448l-10.626-1.03zM8.56 9.814l4.997 1.401 1.825-.37-6.822-1.03zm6.822 28.682l-1.825-.37-4.997 1.4 6.822-1.03zM8.56 9.814l3.267 2 1.73-.599-4.997-1.4zm4.997 28.311l-1.73-.598-3.267 2 4.997-1.402zM8.561 9.814l1.649 2.807 1.618-.808-3.267-2zm3.267 27.712l-1.618-.808-1.65 2.807 3.268-1.999zM8.561 9.813l.158 3.81 1.49-1.002-1.648-2.808zm1.649 26.905l-1.491-1.003-.158 3.81 1.649-2.807zM8.56 9.813l-1.187 4.99 1.346-1.18-.158-3.81zm.159 25.902l-1.346-1.179 1.188 4.99.158-3.81zM8.56 9.813l-2.373 6.33 1.185-1.34 1.188-4.99zM7.373 34.536l-1.185-1.34 2.373 6.33-1.188-4.99zM8.56 9.813L0 24.67l6.188-8.526 2.373-6.33zM6.188 33.196L5.18 31.712l3.38 7.814-2.373-6.33zM0 24.67l5.18-7.043 1.008-1.484L0 24.669zm5.18 7.042l-.812-1.611 4.193 9.425-3.38-7.814zM0 24.669l4.368-5.43.813-1.612L0 24.67zm34.57 0l-3.395-1.893.128 1.893h3.267zm0 0l-2.36-8.683-6.201-6.173 8.56 14.856zM26.009 9.813l-8.724-2.349-8.724 2.35h17.448zm-17.448 0L2.36 15.986 0 24.669 8.56 9.813zM0 24.67l3.768-3.709.6-1.722L0 24.67zm4.368 5.432l-.6-1.722L0 24.669l4.368 5.432zM0 24.67l2.36 8.683 6.2 6.172L0 24.67zm8.56 14.855l8.725 2.35 8.724-2.35H8.56zm17.449 0l6.2-6.172 2.36-8.684-8.56 14.857zm8.56-14.855l-.617-4.574-1.742-4.11 2.36 8.683zm-2.36-8.684l-2.702-3.482-3.498-2.69 6.2 6.172zm-6.2-6.173l-4.13-1.734-4.594-.615 8.724 2.35zm-8.724-2.349l-4.595.615-4.13 1.734 8.725-2.349zM8.56 9.814l-3.498 2.69-2.703 3.482 6.2-6.173zm-6.2 6.171l-1.743 4.11L0 24.669l2.36-8.683zM0 24.669l3.395-1.893.373-1.816L0 24.67zm3.768 3.71l-.373-1.816L0 24.67l3.768 3.709zM0 24.669l.617 4.574 1.743 4.11L0 24.67zm2.36 8.684l2.703 3.482 3.498 2.69-6.201-6.172zm6.2 6.172l4.13 1.735 4.595.614-8.724-2.349zm8.725 2.35l4.595-.615 4.129-1.734-8.724 2.348zm8.724-2.35l3.498-2.69 2.703-3.482-6.201 6.172zm6.2-6.172l1.743-4.11.618-4.573-2.36 8.683zm2.36-8.684l-.157-2.334-.46-2.24.618 4.575zm-.617-4.573l-.74-2.123-1.002-1.987 1.742 4.11zm-1.742-4.11l-1.242-1.83-1.46-1.652 2.702 3.482zm-2.703-3.482l-1.66-1.455-1.838-1.236 3.498 2.69zm-3.498-2.69l-1.996-.998-2.133-.737 4.129 1.734zm-4.13-1.735L19.63 7.62l-2.345-.157 4.595.615zm-4.594-.615l-2.345.157-2.25.458 4.595-.615zm-4.595.615l-2.133.737-1.996.997L12.69 8.08zM8.56 9.813L6.724 11.05l-1.66 1.455 3.498-2.69zm-3.497 2.69l-1.461 1.653-1.242 1.83 2.703-3.482zM2.36 15.987l-1.002 1.986-.74 2.124 1.742-4.11zm-1.743 4.11l-.46 2.239L0 24.669l.617-4.573zM0 24.669h3.267l.128-1.893L0 24.67zm3.395 1.894l-.128-1.893H0l3.395 1.893zM0 24.67l.158 2.334.46 2.24L0 24.668zm.617 4.573l.741 2.123 1.002 1.987-1.743-4.11zm1.743 4.11l1.242 1.83 1.46 1.652-2.702-3.482zm2.703 3.482l1.66 1.455 1.838 1.236-3.498-2.69zm3.498 2.69l1.996.998 2.133.737-4.13-1.734zm4.129 1.735l2.25.458 2.345.156-4.595-.614zm4.595.614l2.345-.157 2.25-.457-4.595.614zm4.595-.614l2.133-.737 1.996-.998-4.13 1.735zm4.129-1.734l1.838-1.236 1.66-1.455-3.498 2.69zm3.498-2.69l1.461-1.653 1.242-1.83-2.703 3.482zm4.445-7.593l.46-2.239.158-2.335-.618 4.574z" fill="url(#paint21_linear_86_663)"/><path fill-rule="evenodd" clip-rule="evenodd" d="M28.273 31.039L26.872 2.225l-2.99 3.698 1.213 28.59c.805-.616 2.47-2.358 3.178-3.474z" fill="url(#paint22_linear_86_663)"/><path fill-rule="evenodd" clip-rule="evenodd" d="M20.62 31.358a.374.374 0 01-.225.078h-6.383c-.235 0-.429-.232-.429-.516v-3.084c0-.284.193-.517.429-.517h6.383c.108 0 .206.049.282.129a.515.515 0 01.037.023l2.3 1.639c.21.15.21.398 0 .549l-2.337 1.664a.54.54 0 01-.057.035z" fill="#B2230C"/><path fill-rule="evenodd" clip-rule="evenodd" d="M14.834 31.421h-1.876c-.233 0-.429-.232-.429-.516v-2.998c0-.284.193-.513.429-.516l3.596-.057c.606-.01-.798 4.087-1.72 4.087zm9.398-18.708h-1.876c-.231 0-.476-.197-.429-.427l.929-4.466c.047-.23.193-.423.428-.426l3.596-.047c.607-.008-1.726 5.365-2.648 5.365z" fill="#962212"/><path fill-rule="evenodd" clip-rule="evenodd" d="M20.37 4.366l5.335-4.12c.54-.533 1.3-.133 1.309.569l.075 6.566-17.67 34.484c-.1.194-.344.355-.54.355H3.833c-.195 0-.275-.16-.175-.355l18.48-35.902-1.709-.549c-.54-.173-.437-.756-.059-1.048z" fill="#FC3110"/><path fill-rule="evenodd" clip-rule="evenodd" d="M20.33 4.389l5.335-4.12c.54-.533 1.3-.133 1.309.569l.075 6.566-17.67 34.484c-.1.194-.344.355-.54.355H3.793c-.195 0-.275-.16-.175-.355l18.48-35.902-1.709-.549c-.54-.173-.437-.756-.059-1.048z" fill="#FC3110"/><mask id="b" style="mask-type:alpha" maskUnits="userSpaceOnUse" x="3" y="0" width="25" height="43"><path fill-rule="evenodd" clip-rule="evenodd" d="M20.33 4.389l5.335-4.12c.54-.533 1.3-.133 1.309.569l.075 6.566-17.67 34.484c-.1.194-.344.355-.54.355H3.793c-.195 0-.275-.16-.175-.355l18.48-35.902-1.709-.549c-.54-.173-.437-.756-.059-1.048z" fill="#FC3110"/></mask><g mask="url(#b)"><path d="M28.41 3.774L6.945 45.448l-.072-.037L28.34 3.737l.071.037z" fill="#F8B670"/><path d="M29.672.177L4.754 48.553l-.072-.036L29.6.14l.072.037z" fill="#E5097F"/><path d="M30.933-3.42L2.563 51.658l-.072-.036 28.37-55.079.072.037z" fill="#009846"/><path d="M32.194-7.017L.372 54.763.3 54.728l31.822-61.78.072.036z" fill="#9089B0"/><path d="M33.455-10.614L-1.819 57.869l-.071-.037L33.383-10.65l.072.037z" fill="#CB5499"/><path d="M34.717-14.211L-4.01 60.974l-.071-.036 38.726-75.186.072.037z" fill="#F08683"/><path d="M35.978-17.808L-6.201 64.079l-.071-.036 42.178-81.888.072.037z" fill="#A8D4AF"/><path d="M37.239-21.405l-45.63 88.59-.072-.037 45.63-88.59.072.037z" fill="#F08143"/><path d="M38.5-25.002L-10.583 70.29l-.071-.036L38.429-25.04l.071.037z" fill="#A79ECD"/><path d="M39.761-28.6L-12.774 73.396l-.071-.036L39.69-28.635l.071.036z" fill="#57A7B3"/><path d="M41.023-32.196L-14.964 76.5l-.072-.036L40.95-32.233l.072.037z" fill="#CE82B5"/><path d="M42.284-35.793l-59.44 115.399-.071-.037L42.213-35.83l.07.037z" fill="#A79ECD"/><path d="M43.545-39.39l-62.891 122.1-.072-.036L43.473-39.427l.072.037z" fill="#F8B670"/><path d="M44.806-42.987L-21.537 85.817l-.072-.037L44.735-43.023l.071.036z" fill="#A79ECD"/></g><defs><linearGradient id="paint0_linear_86_663" x1="133.669" y1="35.878" x2="132.769" y2="11.42" gradientUnits="userSpaceOnUse"><stop stop-color="#6B4500"/><stop offset=".323" stop-color="#D5B26B"/><stop offset=".547" stop-color="#F8F9D0"/><stop offset="1" stop-color="#997A3D"/></linearGradient><linearGradient id="paint1_linear_86_663" x1="157.582" y1="44.773" x2="157.251" y2="13.451" gradientUnits="userSpaceOnUse"><stop stop-color="#6B4500"/><stop offset=".323" stop-color="#D5B26B"/><stop offset=".547" stop-color="#F8F9D0"/><stop offset="1" stop-color="#997A3D"/></linearGradient><linearGradient id="paint2_linear_86_663" x1="104.409" y1="15.27" x2="99.987" y2="33.401" gradientUnits="userSpaceOnUse"><stop stop-color="#202020"/><stop offset="1" stop-color="#616161"/></linearGradient><linearGradient id="paint3_linear_86_663" x1="133.712" y1="30.082" x2="125.245" y2="-1.355" gradientUnits="userSpaceOnUse"><stop stop-color="#202020"/><stop offset="1" stop-color="#616161"/></linearGradient><linearGradient id="paint4_linear_86_663" x1="153.643" y1="39.397" x2="135.756" y2="-9.483" gradientUnits="userSpaceOnUse"><stop stop-color="#202020"/><stop offset="1" stop-color="#616161"/></linearGradient><linearGradient id="paint5_linear_86_663" x1="133.947" y1="30.22" x2="125.086" y2="-1.983" gradientUnits="userSpaceOnUse"><stop stop-color="#202020"/><stop offset="1" stop-color="#616161"/></linearGradient><linearGradient id="paint6_linear_86_663" x1="113.823" y1="46.378" x2="56.916" y2="-2.071" gradientUnits="userSpaceOnUse"><stop stop-color="red"/><stop offset="1"/></linearGradient><linearGradient id="paint7_linear_86_663" x1="113.823" y1="46.378" x2="56.916" y2="-2.071" gradientUnits="userSpaceOnUse"><stop stop-color="red"/><stop offset="1"/></linearGradient><linearGradient id="paint8_linear_86_663" x1="97.707" y1="9.785" x2="103.02" y2="54.267" gradientUnits="userSpaceOnUse"><stop stop-color="#FC3110"/><stop offset=".979"/></linearGradient><linearGradient id="paint9_linear_86_663" x1="97.707" y1="9.785" x2="103.02" y2="54.267" gradientUnits="userSpaceOnUse"><stop stop-color="#FC3110"/><stop offset=".979"/></linearGradient><linearGradient id="paint10_linear_86_663" x1="97.707" y1="9.785" x2="103.02" y2="54.267" gradientUnits="userSpaceOnUse"><stop stop-color="#FC3110"/><stop offset=".979"/></linearGradient><linearGradient id="paint11_linear_86_663" x1="97.707" y1="9.785" x2="103.02" y2="54.267" gradientUnits="userSpaceOnUse"><stop stop-color="#FC3110"/><stop offset=".979"/></linearGradient><linearGradient id="paint12_linear_86_663" x1="97.707" y1="9.785" x2="103.02" y2="54.267" gradientUnits="userSpaceOnUse"><stop stop-color="#FC3110"/><stop offset=".979"/></linearGradient><linearGradient id="paint13_linear_86_663" x1="97.707" y1="9.785" x2="103.02" y2="54.267" gradientUnits="userSpaceOnUse"><stop stop-color="#FC3110"/><stop offset=".979"/></linearGradient><linearGradient id="paint14_linear_86_663" x1="97.707" y1="9.785" x2="103.02" y2="54.267" gradientUnits="userSpaceOnUse"><stop stop-color="#FC3110"/><stop offset=".979"/></linearGradient><linearGradient id="paint15_linear_86_663" x1="97.707" y1="9.785" x2="103.02" y2="54.267" gradientUnits="userSpaceOnUse"><stop stop-color="#FC3110"/><stop offset=".979"/></linearGradient><linearGradient id="paint16_linear_86_663" x1="97.707" y1="9.785" x2="103.02" y2="54.267" gradientUnits="userSpaceOnUse"><stop stop-color="#FC3110"/><stop offset=".979"/></linearGradient><linearGradient id="paint17_linear_86_663" x1="97.707" y1="9.785" x2="103.02" y2="54.267" gradientUnits="userSpaceOnUse"><stop stop-color="#FC3110"/><stop offset=".979"/></linearGradient><linearGradient id="paint18_linear_86_663" x1="97.707" y1="9.785" x2="103.02" y2="54.267" gradientUnits="userSpaceOnUse"><stop stop-color="#FC3110"/><stop offset=".979"/></linearGradient><linearGradient id="paint19_linear_86_663" x1="97.707" y1="9.785" x2="103.02" y2="54.267" gradientUnits="userSpaceOnUse"><stop stop-color="#FC3110"/><stop offset=".979"/></linearGradient><linearGradient id="paint20_linear_86_663" x1="32.192" y1="38.623" x2="25.998" y2="3.738" gradientUnits="userSpaceOnUse"><stop stop-color="#6B4500"/><stop offset=".323" stop-color="#D5B26B"/><stop offset=".547" stop-color="#F8F9D0"/><stop offset="1" stop-color="#997A3D"/></linearGradient><linearGradient id="paint21_linear_86_663" x1="30.942" y1="32.661" x2="5.112" y2="13.008" gradientUnits="userSpaceOnUse"><stop stop-color="#110303"/><stop offset="1" stop-color="#616161"/></linearGradient><linearGradient id="paint22_linear_86_663" x1="26.072" y1="2.225" x2="26.072" y2="34.514" gradientUnits="userSpaceOnUse"><stop stop-color="red"/><stop offset="1"/></linearGradient></defs></svg>