<svg width="120" height="120" fill="none" xmlns="http://www.w3.org/2000/svg"><g clip-path="url(#clip0_77_66)"><path fill="#fff" d="M0 0h120v120H0z"/><path fill-rule="evenodd" clip-rule="evenodd" d="M19.854 1.708l-8.11 80.015 8.11 6.356 2.277-37.233 8.158 19.731 6.593-19.21 10.482 58.103 11.763 9.297L40.913 18.024 30.146 48.9 19.854 1.708z" fill="url(#paint0_linear_77_66)"/><path fill-rule="evenodd" clip-rule="evenodd" d="M79.142 16.411L61.545 118.387l11.194-12.569 9.25-61.755 11.24 38.324 7.542-8.442L79.142 16.41z" fill="url(#paint1_linear_77_66)"/><path d="M7 78.071l53.455 41.692m84.806-96.333l-84.949 96.285" stroke="#000" stroke-width=".567" stroke-miterlimit="22.926"/><path fill-rule="evenodd" clip-rule="evenodd" d="M79 16.411l-7.115 6.64L60.17 91.78l.142 27.936 1.66-1.802 17.123-101.17-.095-.332z" fill="url(#paint2_linear_77_66)"/><path fill-rule="evenodd" clip-rule="evenodd" d="M47.933 23.478L60.17 92.063 60.455 120l-1.66-1.85-17.93-100.126 7.068 5.454z" fill="url(#paint3_linear_77_66)"/><path fill-rule="evenodd" clip-rule="evenodd" d="M19.901 1.897l7.352 5.74 7.162 28.837-4.363 12.712-10.15-47.194v-.095z" fill="url(#paint4_linear_77_66)"/><path fill-rule="evenodd" clip-rule="evenodd" d="M84.075 81.06l9.202 1.327-11.289-38.324-2.75 18.261 4.837 18.735z" fill="url(#paint5_linear_77_66)"/><path fill-rule="evenodd" clip-rule="evenodd" d="M29.055 86.751l-9.201 1.233 2.276-37.138 8.158 19.731-1.233 16.174z" fill="url(#paint6_linear_77_66)"/><path fill-rule="evenodd" clip-rule="evenodd" d="M39.49 69.296l-9.201 1.28 6.593-19.398 2.845 15.89-.237 2.228z" fill="url(#paint7_linear_77_66)"/><path d="M7-8.348l53.455 41.74M110.162-12l-49.85 45.344" stroke="#000" stroke-width=".567" stroke-miterlimit="22.926"/></g><defs><linearGradient id="paint0_linear_77_66" x1="34.424" y1="115.421" x2="39.365" y2="40.989" gradientUnits="userSpaceOnUse"><stop stop-color="#2B3089"/><stop offset="1" stop-color="#5F5DA6"/></linearGradient><linearGradient id="paint1_linear_77_66" x1="81.528" y1="111.935" x2="79.457" y2="25.153" gradientUnits="userSpaceOnUse"><stop stop-color="#EB5B1F"/><stop offset="1" stop-color="#F39322"/></linearGradient><linearGradient id="paint2_linear_77_66" x1="103.291" y1="14.993" x2="54.678" y2="89.144" gradientUnits="userSpaceOnUse"><stop stop-color="#E95314"/><stop offset="1" stop-color="#F39322"/></linearGradient><linearGradient id="paint3_linear_77_66" x1="59.44" y1="118.586" x2="50.035" y2="51.507" gradientUnits="userSpaceOnUse"><stop stop-color="#2B3089"/><stop offset="1" stop-color="#33368C"/></linearGradient><linearGradient id="paint4_linear_77_66" x1="29.731" y1="48.508" x2="26.998" y2="17.283" gradientUnits="userSpaceOnUse"><stop stop-color="#2B3089"/><stop offset="1" stop-color="#33368C"/></linearGradient><linearGradient id="paint5_linear_77_66" x1="94.35" y1="42.665" x2="84.496" y2="72.749" gradientUnits="userSpaceOnUse"><stop stop-color="#E95314"/><stop offset="1" stop-color="#F39322"/></linearGradient><linearGradient id="paint6_linear_77_66" x1="25.795" y1="86.858" x2="23.516" y2="62.966" gradientUnits="userSpaceOnUse"><stop stop-color="#2B3089"/><stop offset="1" stop-color="#29338A"/></linearGradient><linearGradient id="paint7_linear_77_66" x1="35.067" y1="70.041" x2="34.383" y2="57.647" gradientUnits="userSpaceOnUse"><stop stop-color="#2B3089"/><stop offset="1" stop-color="#29338A"/></linearGradient><clipPath id="clip0_77_66"><path fill="#fff" d="M0 0h120v120H0z"/></clipPath></defs></svg>