<svg width="120" height="120" fill="none" xmlns="http://www.w3.org/2000/svg"><path fill="#fff" d="M0 0h120v120H0z"/><path d="M59.868 14.736L31.01 86.22h5.273c8.057-20.068 16.26-39.99 24.463-59.912 8.203 19.776 16.26 39.55 24.316 59.473h5.273l-29.59-73.096-.878 2.051z" fill="#161616"/><path d="M67.485 71.279H53.423V85.34h14.062V71.28z" fill="#FFCD00"/><path fill-rule="evenodd" clip-rule="evenodd" d="M60.172 117.653l3.395-2.965c28.55-24.93 43.062-46.697 43.062-65.831C106.629 21.761 85.48 2.4 60.171 2.4c-25.308 0-46.457 19.36-46.457 46.457 0 19.134 14.512 40.902 43.062 65.831l3.395 2.965zm.262-6.503C32.804 86.385 19.226 65.4 19.226 48.72c0-24.025 18.627-40.983 41.208-40.983s41.208 16.958 41.208 40.982c0 16.682-13.579 37.666-41.208 62.431z" fill="#000"/></svg>