<svg width="120" height="120" fill="none" xmlns="http://www.w3.org/2000/svg"><path fill="#fff" d="M0 0h120v120H0z"/><path d="M101.408 44.338c0 6.067-4.918 10.986-10.986 10.986-6.067 0-10.986-4.919-10.986-10.986 0-6.067 4.92-10.986 10.986-10.986 6.068 0 10.986 4.919 10.986 10.986z" fill="#EF7F1B"/><path d="M32.112 43.493a5.07 5.07 0 11-10.14 0 5.07 5.07 0 0110.14 0z" fill="#E4097F"/><path fill-rule="evenodd" clip-rule="evenodd" d="M15.133 51.284A6.762 6.762 0 111.84 48.836l-.846-.156A60 60 0 10120 59.55H90.012a30.013 30.013 0 11-60.02-.534 5.915 5.915 0 01-9.3-6.708l-5.559-1.024z" fill="#E4097F"/><path d="M25.352 67.155a5.07 5.07 0 11-10.14 0 5.07 5.07 0 0110.14 0z" fill="#fff"/><path d="M6.76 50.254a3.38 3.38 0 11-6.76 0 3.38 3.38 0 016.76 0zm10.142-18.592a5.07 5.07 0 11-10.141 0 5.07 5.07 0 0110.14 0zm13.521 1.69a3.38 3.38 0 11-6.76 0 3.38 3.38 0 016.76 0z" fill="#E4097F"/><path d="M8.45 63.775a3.38 3.38 0 11-6.76 0 3.38 3.38 0 016.76 0z" fill="#fff"/><path d="M21.972 52.789a4.225 4.225 0 11-8.451 0 4.225 4.225 0 018.45 0zm-8.451-10.986a3.38 3.38 0 11-6.76 0 3.38 3.38 0 016.76 0z" fill="#E4097F"/><path d="M42.254 29.972a3.38 3.38 0 11-6.76 0 3.38 3.38 0 016.76 0z" fill="#EF7F1B"/><path d="M38.873 21.521a3.38 3.38 0 11-6.76 0 3.38 3.38 0 016.76 0zm-15.211-2.535a2.535 2.535 0 11-5.07 0 2.535 2.535 0 015.07 0z" fill="#E4097F"/><path d="M13.521 73.07a2.535 2.535 0 11-5.07 0 2.535 2.535 0 015.07 0z" fill="#fff"/><path d="M27.042 25.747a2.535 2.535 0 11-5.07 0 2.535 2.535 0 015.07 0zm3.38-6.761a2.535 2.535 0 11-5.07 0 2.535 2.535 0 015.07 0zm11.832-3.38a2.535 2.535 0 11-5.07 0 2.535 2.535 0 015.07 0zm16.901 8.45a2.535 2.535 0 11-5.07 0 2.535 2.535 0 015.07 0zm-10.141 7.606a1.69 1.69 0 11-3.38 0 1.69 1.69 0 013.38 0zm-1.69-11.831a1.69 1.69 0 11-3.38 0 1.69 1.69 0 013.38 0zM40.563 9.69a1.69 1.69 0 11-3.38 0 1.69 1.69 0 013.38 0zm-6.76 3.38a1.69 1.69 0 11-3.38 0 1.69 1.69 0 013.38 0z" fill="#E4097F"/></svg>