<svg width="120" height="120" fill="none" xmlns="http://www.w3.org/2000/svg"><path fill="#fff" d="M0 0h120v120H0z"/><g clip-path="url(#clip0_77_86)"><path d="M120 59.243c-2.233.22-3.971.384-5.214.494a317.66 317.66 0 00-.269-9.828c-.127-2.8-.298-5.166-.515-7.096.139-.165.26-.325.372-.476.111-.155.236-.3.373-.433L111.354 40c-1.105 1.73-2.299 3.841-3.583 6.33-1.284 2.49-2.67 5.375-4.159 8.655a291.443 291.443 0 00-3.332 7.573 331.106 331.106 0 00-2.955 7.231 99.759 99.759 0 011.943-3.6 622.904 622.904 0 012.358-4.137c1.186-.108 2.346 0 3.808-.06a123.2 123.2 0 013.795-.061l-2.717 15.145 8.161-1.506c.082-3.392.121-5.456.121-9.541v-4.22c.775.027 1.493.048 2.164.061.671.013 1.268.048 1.817.104l1.242-2.73H120zm-10.264.745c-3.146.757-3.847.8-7.82 1.57a267.516 267.516 0 015.362-8.918 159.366 159.366 0 014.903-7.356c-.866 7.17-1.359 10.113-2.445 14.712v-.008z" fill="#000"/><path d="M95.988 72.22c-4.823-4.274-8.94-7.826-12.35-10.653-3.41-2.827-6.15-4.944-8.222-6.352.264-.714.113-.533.485-1.498 9.794-3.917 16.885-7.31 21.273-10.177l-.58-3.354c-1.766 1.685-4.332 3.56-7.698 5.626-3.367 2.065-7.559 4.328-12.576 6.789 1.408-3.776 2.663-6.824 3.765-9.143l-3.492-2.363a129.792 129.792 0 00-1.986 5.92 240.842 240.842 0 00-2.03 6.923l-5.452 3.103 3.964 2.315c-.623 5.071-1.41 10.818-2.06 16.063.97-3.864 2.29-8.815 4.327-14.856 8.413 6.058 14.09 12.943 19.23 18.47l3.42-6.8-.018-.012z" fill="#0D7F39"/><path d="M5.14 75.847a39.233 39.233 0 007.868-5.673 27.836 27.836 0 005.232-6.716 28.525 28.525 0 002.925-8.023c.63-3.18.934-6.416.904-9.658v-1.065c0-.385 0-.766-.043-1.15l-5.054-2.485A28.417 28.417 0 003.99 54.155C1.618 59 .288 65.014 0 72.195l5.14 3.635v.017zm13.38-19.819c-.047 3.207-1.155 5.53-2.803 8.287-1.268 2.107-3.709 4.609-5.526 5.041-3.462.308-6.058-3.985-6.058-7.148 0-5.764 2.129-10.559 6.612-14.28 4.621-.303 7.906 2.734 7.789 8.113l-.013-.013zm28.942 19.819a39.232 39.232 0 007.867-5.673 27.837 27.837 0 005.253-6.733 28.66 28.66 0 002.925-8.023 47.42 47.42 0 00.91-9.641v-1.065c0-.385 0-.766-.049-1.15l-5.084-2.485a28.426 28.426 0 00-12.982 13.078c-2.363 4.846-3.691 10.86-3.985 18.04l5.145 3.652zm13.38-19.819c-.052 3.207-1.156 5.53-2.804 8.287-1.272 2.107-3.713 4.609-5.53 5.041-3.462.308-6.059-3.985-6.059-7.148 0-5.764 2.125-10.559 6.608-14.28 4.626-.303 7.906 2.734 7.79 8.113l-.005-.013z" fill="#000"/><path d="M38.405 64.791a77.365 77.365 0 01-11.476 10.918l-6.193-4.19a153.435 153.435 0 015.842-16.482c2.553-6.205 4.803-10.863 6.75-13.972l5.843 1.683-.766 7.356-6.193-2.224c-1.018 1.713-2.362 5.051-4.033 10.013-1.575 4.688-2.78 8.863-3.617 12.523 5.38-1.113 9.996-2.988 13.847-5.625h-.004z" fill="#1D1D1B"/></g><defs><clipPath id="clip0_77_86"><path fill="#fff" transform="translate(0 40)" d="M0 0h120v39.019H0z"/></clipPath></defs></svg>