<svg viewBox="0 0 66 46" xmlns="http://www.w3.org/2000/svg" xmlns:xlink="http://www.w3.org/1999/xlink"><style>:root&gt;svg{display:none}:root&gt;svg:target{display:block}</style><svg fill="none" viewBox="0 0 18 19" id="Group" xmlns="http://www.w3.org/2000/svg"><path d="M8.709 16.189c-3.525 0-6.394-2.871-6.394-6.4 0-3.528 2.867-6.399 6.394-6.399 3.526 0 6.393 2.871 6.393 6.4 0 3.528-2.867 6.399-6.393 6.399zm0-12.523a6.127 6.127 0 00-6.118 6.123c0 3.378 2.744 6.124 6.118 6.124 3.373 0 6.118-2.746 6.118-6.124 0-3.377-2.745-6.123-6.118-6.123z" fill="#fff" stroke="#fff" stroke-width=".224"/><path d="M8.709 12.145a2.355 2.355 0 010-4.707A2.356 2.356 0 0111.06 9.79a2.356 2.356 0 01-2.351 2.354zm0-4.433a2.08 2.08 0 000 4.16 2.08 2.08 0 000-4.16z" fill="#fff" stroke="#fff" stroke-width=".224"/><path d="M8.709 14.712a4.925 4.925 0 01-4.917-4.92 4.927 4.927 0 014.917-4.923 4.925 4.925 0 014.916 4.922 4.924 4.924 0 01-4.916 4.92zm0-9.567A4.65 4.65 0 004.068 9.79a4.648 4.648 0 004.64 4.645A4.649 4.649 0 0013.35 9.79a4.65 4.65 0 00-4.641-4.646z" fill="#fff" stroke="#fff" stroke-width=".224"/><path d="M8.709 9.073a.139.139 0 01-.138-.137V1.818a.138.138 0 01.276 0v7.118a.139.139 0 01-.138.137zm7.965.857H9.562a.139.139 0 01-.137-.139c0-.075.062-.138.137-.138h7.11c.076 0 .138.063.138.138a.139.139 0 01-.138.138h.002zM8.709 17.9a.139.139 0 01-.138-.138v-7.117a.138.138 0 01.276 0v7.117a.139.139 0 01-.138.138zm-.856-7.97H.743a.139.139 0 01-.137-.139c0-.075.062-.138.137-.138h7.11c.076 0 .138.063.138.138a.139.139 0 01-.138.138zm.856 0a.142.142 0 01-.099-.04.14.14 0 010-.195l6.821-6.828a.137.137 0 11.195.194L8.805 9.89a.139.139 0 01-.098.04h.002z" fill="#fff" stroke="#fff" stroke-width=".224"/><path d="M15.53 3.101h-.018a.145.145 0 01-.102-.066l-.381-.65a.138.138 0 01.005-.147l.748-1.079a.145.145 0 01.097-.058c.04-.004.08.007.107.034l.72.642a.13.13 0 01.045.098.144.144 0 01-.04.102l-1.085 1.086a.135.135 0 01-.099.04l.002-.002zm-.218-.782l.246.42.857-.858-.495-.442-.608.878v.002z" fill="#fff" stroke="#fff" stroke-width=".224"/><path d="M16.177 3.48a.13.13 0 01-.07-.018l-.648-.38a.133.133 0 01-.066-.102.139.139 0 01.04-.115l1.086-1.086a.137.137 0 01.102-.04.13.13 0 01.098.045l.64.72a.14.14 0 01.034.108.14.14 0 01-.058.096l-1.079.748a.13.13 0 01-.077.025h-.002zm-.425-.547l.42.245.878-.608-.44-.495-.858.858z" fill="#fff" stroke="#fff" stroke-width=".224"/></svg><svg fill="none" viewBox="0 0 18 15" id="Group-1" xmlns="http://www.w3.org/2000/svg"><path d="M17.595 14.272H1.071a.139.139 0 01-.138-.138V.866a.14.14 0 01.138-.138h16.524c.076 0 .138.063.138.138v13.268a.139.139 0 01-.138.138zM1.21 13.996h16.248V1.004H1.21v12.992z" fill="#fff" stroke="#fff" stroke-width=".224"/><path d="M17.595 4.214H1.071a.139.139 0 01-.138-.138V.866a.14.14 0 01.138-.138h16.524c.076 0 .138.063.138.138v3.21a.139.139 0 01-.138.138zM1.21 3.938h16.248V1.004H1.21v2.934z" fill="#fff" stroke="#fff" stroke-width=".224"/><path d="M10.787 3.23H9.515a.139.139 0 01-.138-.139V1.85c0-.075.062-.138.138-.138h1.272a.14.14 0 01.138.138v1.242a.139.139 0 01-.138.138zm-1.134-.277h.996v-.966h-.996v.966zm3.674.277h-1.27a.139.139 0 01-.138-.139V1.85a.14.14 0 01.138-.138h1.27c.076 0 .138.063.138.138v1.242a.139.139 0 01-.138.138zm-1.132-.277h.996v-.966h-.996v.966zm3.675.277h-1.272a.139.139 0 01-.138-.139V1.85c0-.075.062-.138.138-.138h1.272a.14.14 0 01.138.138v1.242a.139.139 0 01-.138.138zm-1.134-.277h.996v-.966h-.996v.966zM5.4 9.302a.139.139 0 01-.115-.062.137.137 0 01.04-.191L7.26 7.777a.137.137 0 01.19.04.137.137 0 01-.039.19L5.476 9.28a.136.136 0 01-.076.022z" fill="#fff" stroke="#fff" stroke-width=".224"/><path d="M7.335 10.574a.136.136 0 01-.075-.022L5.324 9.28a.137.137 0 01-.04-.191.137.137 0 01.192-.04l1.935 1.272a.137.137 0 01.04.191.139.139 0 01-.116.062zm5.932-1.272a.136.136 0 01-.076-.022l-1.937-1.272a.137.137 0 01-.04-.191.137.137 0 01.191-.04l1.937 1.272a.137.137 0 01.04.191.139.139 0 01-.115.062z" fill="#fff" stroke="#fff" stroke-width=".224"/><path d="M11.331 10.574a.139.139 0 01-.115-.062.137.137 0 01.04-.19l1.937-1.273a.137.137 0 01.191.04.137.137 0 01-.04.19l-1.937 1.273a.135.135 0 01-.076.022zm-3.117 1.41a.134.134 0 01-.053-.01.137.137 0 01-.073-.18l2.238-5.361a.137.137 0 11.253.106l-2.24 5.36a.139.139 0 01-.127.085h.002z" fill="#fff" stroke="#fff" stroke-width=".224"/></svg><svg fill="none" viewBox="0 0 18 15" id="Group-2" xmlns="http://www.w3.org/2000/svg"><path d="M13.317 13.162H3.197a.139.139 0 01-.139-.138V.36c0-.076.063-.138.138-.138h7.546c.036 0 .072.015.098.04l2.575 2.576a.13.13 0 01.04.096v3.728a.124.124 0 01-.02.068l-.882 1.531-.21 1.955.893-.652a.136.136 0 01.143-.012.14.14 0 01.076.123v3.346a.139.139 0 01-.138.138v.002zm-9.983-.276h9.845V9.948l-.926.677a.134.134 0 01-.15.008.137.137 0 01-.068-.135l.15-1.376.098-.917a.144.144 0 01.017-.054l.879-1.524V2.994L10.685.497h-7.35v12.389z" fill="#fff" stroke="#fff" stroke-width=".224"/><path d="M11.285 4.786H4.669a.139.139 0 01-.138-.138c0-.076.062-.138.138-.138h6.616c.075 0 .138.062.138.138a.139.139 0 01-.138.138zm0 2.044H4.669a.139.139 0 01-.138-.139c0-.075.062-.138.138-.138h6.616a.14.14 0 01.138.138.139.139 0 01-.138.138zm0 2.043H4.669a.139.139 0 01-.138-.138c0-.076.062-.138.138-.138h6.616c.075 0 .138.062.138.138a.139.139 0 01-.138.138zm0 2.045H4.669a.139.139 0 01-.138-.138c0-.075.062-.138.138-.138h6.616a.14.14 0 01.138.138.139.139 0 01-.138.138zm2.032-7.799h-2.575a.139.139 0 01-.138-.138V.359a.137.137 0 01.234-.096l2.575 2.576c.027.027.04.06.04.096v.046a.139.139 0 01-.138.138h.002zm-2.437-.276h2.15L10.88.692v2.15z" fill="#fff" stroke="#fff" stroke-width=".224"/><path d="M11.194 14.778H1.072a.139.139 0 01-.138-.138V1.977c0-.076.062-.138.138-.138h2.122c.076 0 .138.062.138.138v10.907h7.86c.076 0 .138.062.138.138v1.618a.139.139 0 01-.138.138h.002zm-9.984-.276h9.846V13.16h-7.86a.139.139 0 01-.138-.138V2.115H1.21v12.387zM8.42 3.2H4.67a.139.139 0 01-.137-.138c0-.076.062-.138.138-.138h3.748c.076 0 .138.062.138.138a.139.139 0 01-.138.138zm0-1.584H4.67a.139.139 0 01-.137-.138c0-.076.062-.138.138-.138h3.748c.076 0 .138.062.138.138a.139.139 0 01-.138.138zm3.751 9.036a.128.128 0 01-.068-.02.137.137 0 01-.068-.134l.248-2.294a.144.144 0 01.017-.055l3.563-6.178a.14.14 0 01.083-.064.142.142 0 01.104.013l1.614.934a.137.137 0 01.051.187l-3.563 6.176a.116.116 0 01-.037.041l-1.862 1.361a.143.143 0 01-.082.027v.005zm.38-2.39l-.21 1.955 1.586-1.159 3.48-6.032-1.376-.796-3.48 6.032z" fill="#fff" stroke="#fff" stroke-width=".224"/><path d="M17.109 3.96a.124.124 0 01-.069-.019l-1.614-.932a.139.139 0 01-.05-.189l.487-.847a.14.14 0 01.083-.064.142.142 0 01.104.013l1.614.934a.139.139 0 01.051.19l-.487.844a.14.14 0 01-.084.064c-.01.004-.022.004-.035.004v.002zM15.68 2.84l1.377.795.35-.607-1.377-.796-.35.607zm-3.509 7.812a.128.128 0 01-.068-.02.137.137 0 01-.068-.134l.248-2.294a.139.139 0 01.074-.108.131.131 0 01.13.004l1.614.933a.137.137 0 01.012.231l-1.862 1.361a.144.144 0 01-.082.027h.002zm.361-2.206l-.19 1.773 1.44-1.053-1.25-.722v.002z" fill="#fff" stroke="#fff" stroke-width=".224"/><path d="M12.171 10.652a.128.128 0 01-.068-.02.137.137 0 01-.068-.134l.15-1.376a.138.138 0 01.192-.111 5.162 5.162 0 01.996.577.137.137 0 01.055.11c0 .044-.02.086-.056.112l-1.117.817a.144.144 0 01-.082.026l-.002-.002zm.265-1.31l-.095.877.711-.52a4.803 4.803 0 00-.618-.357h.002z" fill="#fff" stroke="#fff" stroke-width=".224"/></svg><svg fill="none" viewBox="0 0 18 17" id="Group-3" xmlns="http://www.w3.org/2000/svg"><path d="M3.705 15.982H1.54a.139.139 0 01-.138-.138V12.01c0-.075.062-.138.138-.138h2.166c.076 0 .138.063.138.138v3.834a.139.139 0 01-.138.138zm-2.028-.276h1.89v-3.558h-1.89v3.558zm6.058.275H5.57a.139.139 0 01-.138-.138V6.565c0-.076.062-.138.138-.138h2.166c.076 0 .138.062.138.138v9.278a.139.139 0 01-.138.138zm-2.028-.275h1.89V6.702h-1.89v9.004zm6.06.275H9.6a.139.139 0 01-.138-.138V7.674c0-.076.062-.138.138-.138h2.166c.075 0 .138.062.138.138v8.17a.139.139 0 01-.138.137zm-2.028-.276h1.89V7.812h-1.89v7.893zm6.058.276H13.63a.139.139 0 01-.137-.138V5.101c0-.075.062-.138.137-.138h2.167a.14.14 0 01.138.138v10.742a.139.139 0 01-.138.138zm-2.029-.276h1.89V5.24h-1.89v10.466zM11.434 5.107a.139.139 0 01-.113-.058.14.14 0 01.034-.193l3.918-2.762a.14.14 0 01.193.032.14.14 0 01-.034.193l-3.918 2.762a.136.136 0 01-.08.024v.002zm-1.145.095a.14.14 0 01-.06-.014L6.927 3.601a.137.137 0 01-.064-.184.137.137 0 01.183-.064l3.298 1.588a.137.137 0 01-.06.26h.004zM1.96 6.842a.133.133 0 01-.107-.053.139.139 0 01.022-.194l3.907-3.102a.136.136 0 01.193.023.139.139 0 01-.022.194L2.046 6.812a.134.134 0 01-.086.03z" fill="#fff" stroke="#fff" stroke-width=".224"/><path d="M1.439 7.924a.806.806 0 010-1.61.804.804 0 010 1.61zm0-1.335a.53.53 0 00-.53.53.53.53 0 10.53-.53zM6.39 3.99a.804.804 0 11.001-1.608.804.804 0 01-.002 1.608zm0-1.334a.53.53 0 100 1.059.53.53 0 000-1.06zm4.5 3.504a.804.804 0 11.002-1.609.804.804 0 01-.002 1.609zm0-1.335a.53.53 0 100 1.059.53.53 0 000-1.059zm5.007-2.195a.806.806 0 010-1.611.804.804 0 010 1.61zm0-1.335a.53.53 0 00-.53.529.53.53 0 001.058 0 .53.53 0 00-.528-.53zm1.032 14.686H.405a.139.139 0 01-.138-.138c0-.075.062-.138.138-.138h16.524c.076 0 .138.063.138.138a.139.139 0 01-.138.138z" fill="#fff" stroke="#fff" stroke-width=".224"/></svg><svg fill="none" viewBox="0 0 16 19" id="Group-4" xmlns="http://www.w3.org/2000/svg"><path d="M6.41 13.912H4.792a.139.139 0 01-.138-.138v-.88a3.728 3.728 0 01-.95-.394l-.62.62a.134.134 0 01-.097.04.147.147 0 01-.098-.04l-1.145-1.143a.136.136 0 010-.195l.622-.623a3.632 3.632 0 01-.393-.95h-.88a.139.139 0 01-.138-.138v-1.62c0-.075.062-.138.138-.138h.88c.087-.334.219-.653.393-.951l-.622-.622a.136.136 0 010-.194L2.89 5.402a.139.139 0 01.194 0l.621.62a3.73 3.73 0 01.95-.394v-.88a.14.14 0 01.138-.138H6.41c.076 0 .138.063.138.138v.88c.332.087.652.22.95.395l.621-.621a.135.135 0 01.098-.04c.038 0 .072.015.099.04L9.46 6.546a.136.136 0 010 .194l-.621.622c.175.298.307.617.394.951h.878c.076 0 .138.063.138.138v1.62a.139.139 0 01-.138.138h-.878a3.675 3.675 0 01-.394.95l.623.623a.14.14 0 010 .194l-1.145 1.145a.135.135 0 01-.098.04.147.147 0 01-.098-.04l-.621-.623a3.7 3.7 0 01-.95.394v.88a.139.139 0 01-.138.138l-.002.002zm-1.48-.276h1.344v-.85c0-.064.044-.118.108-.133a3.486 3.486 0 001.065-.442.137.137 0 01.17.018l.6.601.95-.95-.6-.602a.137.137 0 01-.02-.17c.207-.329.356-.687.443-1.067a.14.14 0 01.134-.108h.85V8.59h-.85a.137.137 0 01-.134-.108 3.45 3.45 0 00-.442-1.067.137.137 0 01.019-.17l.6-.6-.95-.95-.6.6a.137.137 0 01-.17.02 3.487 3.487 0 00-1.065-.442.14.14 0 01-.108-.134v-.85H4.932v.85a.137.137 0 01-.108.134 3.487 3.487 0 00-1.065.442.137.137 0 01-.17-.02l-.6-.6-.95.95.6.6a.137.137 0 01.02.17 3.459 3.459 0 00-.443 1.067.14.14 0 01-.134.108h-.85v1.344h.85a.14.14 0 01.134.108c.087.378.235.736.442 1.065a.137.137 0 01-.019.17l-.602.602.95.95.6-.6a.137.137 0 01.17-.02c.33.208.69.358 1.065.443a.14.14 0 01.108.134v.851z" fill="#fff" stroke="#fff" stroke-width=".224"/><path d="M5.6 11.946a2.683 2.683 0 010-5.366 2.684 2.684 0 010 5.366zm0-5.09a2.409 2.409 0 000 4.815 2.407 2.407 0 000-4.815zm7.123.388h-.954a.139.139 0 01-.137-.137V6.63a2.355 2.355 0 01-.495-.204l-.336.336a.14.14 0 01-.194 0l-.675-.676a.14.14 0 010-.195l.336-.336a2.187 2.187 0 01-.204-.494H9.59a.139.139 0 01-.138-.138v-.956a.14.14 0 01.138-.138h.474c.05-.173.117-.338.204-.494L9.932 3a.14.14 0 010-.195l.674-.676a.136.136 0 01.098-.04c.038 0 .072.016.098.04l.337.336c.156-.088.32-.156.494-.206v-.475c0-.076.063-.138.138-.138h.954c.075 0 .138.062.138.138v.475c.171.05.338.118.494.206l.337-.336a.14.14 0 01.194 0l.676.676a.14.14 0 010 .195l-.336.336c.087.156.157.323.206.494h.474a.14.14 0 01.138.138v.956a.139.139 0 01-.138.138h-.474c-.05.173-.117.34-.206.494l.336.336a.14.14 0 010 .195l-.676.676a.134.134 0 01-.096.04.147.147 0 01-.098-.04l-.337-.336a2.256 2.256 0 01-.494.204v.476a.139.139 0 01-.138.137h-.002zm-.816-.275h.678v-.446c0-.064.043-.12.108-.134a1.99 1.99 0 00.612-.253.137.137 0 01.17.019l.313.313.48-.48-.316-.315a.137.137 0 01-.019-.17c.117-.186.204-.392.253-.611a.137.137 0 01.134-.106h.444v-.68h-.444A.137.137 0 0114.186 4a2.004 2.004 0 00-.255-.611.137.137 0 01.02-.17l.313-.314-.48-.481-.313.315a.14.14 0 01-.172.019 1.952 1.952 0 00-.612-.253.14.14 0 01-.108-.134v-.444h-.678v.444a.14.14 0 01-.107.134 2.002 2.002 0 00-.612.253.137.137 0 01-.17-.019l-.313-.315-.48.481.314.314a.137.137 0 01.018.17 2.046 2.046 0 00-.253.611.137.137 0 01-.134.106h-.443v.68h.443c.065 0 .12.043.134.106.051.219.136.425.253.611a.137.137 0 01-.018.17l-.314.316.48.48.315-.314a.137.137 0 01.17-.019c.189.119.395.204.612.253a.14.14 0 01.107.134v.446h.004z" fill="#fff" stroke="#fff" stroke-width=".224"/><path d="M12.245 5.715a1.27 1.27 0 110-2.537 1.27 1.27 0 010 2.537zm0-2.264a.995.995 0 000 1.988.995.995 0 000-1.988zm.478 13.427h-.954a.139.139 0 01-.137-.137v-.476a2.353 2.353 0 01-.495-.204l-.336.336a.139.139 0 01-.194 0l-.675-.676a.139.139 0 010-.194l.336-.338a2.189 2.189 0 01-.204-.495H9.59a.139.139 0 01-.138-.138V13.6c0-.075.063-.137.138-.137h.474c.05-.174.117-.338.204-.495l-.336-.336a.14.14 0 010-.195l.674-.676a.135.135 0 01.096-.04c.036 0 .072.016.099.04l.336.336a2.23 2.23 0 01.495-.205v-.476c0-.076.062-.138.137-.138h.954c.075 0 .138.062.138.138v.476c.172.049.338.117.494.205l.337-.336a.14.14 0 01.195 0l.675.676a.14.14 0 010 .195l-.336.336c.089.157.157.323.206.495h.474c.075 0 .138.062.138.137v.956a.139.139 0 01-.138.138h-.474c-.05.173-.117.34-.206.494l.336.337a.14.14 0 010 .194l-.676.676a.135.135 0 01-.096.04.147.147 0 01-.098-.04l-.337-.336a2.261 2.261 0 01-.494.204v.476a.139.139 0 01-.138.138v.002zm-.816-.275h.678v-.444c0-.064.043-.12.108-.134.217-.05.423-.134.612-.253a.137.137 0 01.17.019l.313.313.48-.48-.316-.315a.14.14 0 01-.019-.171 1.94 1.94 0 00.253-.61.14.14 0 01.134-.108h.444v-.68h-.444a.14.14 0 01-.134-.107 2 2 0 00-.253-.612.137.137 0 01.02-.17l.315-.316-.48-.48-.314.316a.137.137 0 01-.17.019 2.005 2.005 0 00-.611-.255.14.14 0 01-.108-.134v-.444h-.678v.444a.14.14 0 01-.107.134 2 2 0 00-.612.253.137.137 0 01-.17-.019l-.314-.315-.48.48.314.315a.137.137 0 01.019.17 2.001 2.001 0 00-.253.612.14.14 0 01-.134.107h-.444v.68h.444c.064 0 .119.043.134.108.051.219.136.425.253.611a.137.137 0 01-.019.17l-.313.316.48.48.313-.316a.137.137 0 01.17-.019c.188.12.394.204.611.253.063.013.108.07.108.134v.448z" fill="#fff" stroke="#fff" stroke-width=".224"/><path d="M12.245 15.349c-.698 0-1.269-.57-1.269-1.269a1.27 1.27 0 011.27-1.269 1.27 1.27 0 01-.001 2.538zm0-2.264a.995.995 0 000 1.988.994.994 0 000-1.988zM7.103 3.947a.14.14 0 01-.132-.096l-.28-.914-.911-.281a.136.136 0 01-.097-.132c0-.06.04-.114.097-.132l.912-.28.28-.914a.138.138 0 01.131-.098c.06 0 .114.04.133.096l.28.914.913.28a.136.136 0 01.096.132.14.14 0 01-.096.132l-.912.281-.281.914a.136.136 0 01-.133.097v.001zm-.815-1.423l.553.17a.136.136 0 01.09.09l.17.555.17-.555a.136.136 0 01.091-.09l.553-.17-.553-.17a.136.136 0 01-.09-.09l-.17-.556-.17.555a.136.136 0 01-.091.09l-.553.17zM7.385 17.9a.14.14 0 01-.133-.096l-.28-.914-.913-.28a.136.136 0 01-.096-.132c0-.06.04-.113.096-.132l.912-.281.281-.914a.136.136 0 01.133-.097c.06 0 .113.04.132.097l.28.914.911.28a.136.136 0 01.097.133.14.14 0 01-.099.132l-.912.28-.28.914a.136.136 0 01-.131.096h.002zm-.816-1.422l.553.17a.136.136 0 01.09.09l.17.556.17-.555a.136.136 0 01.091-.091l.554-.17-.556-.17a.136.136 0 01-.09-.09l-.17-.556-.17.556a.136.136 0 01-.09.09l-.554.17h.002zm6.42-5.588a.14.14 0 01-.132-.096l-.281-.914-.913-.28a.136.136 0 01-.096-.133c0-.06.04-.113.096-.132l.912-.282.282-.914a.138.138 0 01.264 0l.28.914.912.282a.14.14 0 01.098.132.14.14 0 01-.096.132l-.912.281-.28.914a.138.138 0 01-.132.099l-.002-.002zm-.816-1.423l.555.172a.136.136 0 01.091.09l.17.554.17-.554a.136.136 0 01.09-.09l.556-.172-.555-.17a.136.136 0 01-.091-.09l-.17-.556-.17.555a.136.136 0 01-.09.091l-.556.17z" fill="#fff" stroke="#fff" stroke-width=".224"/></svg><svg fill="none" viewBox="0 0 66 43" id="Grouppromotion-stages" xmlns="http://www.w3.org/2000/svg"><path d="M65.626.364l-10.571 42H.626l11.181-42h53.819z" fill="#A20000"/><path fill-rule="evenodd" clip-rule="evenodd" d="M40.733 7.59a1 1 0 01.617.924V10.1l1.293-1.293a1 1 0 111.414 1.414l-1.293 1.293h1.586a1 1 0 01.707 1.707l-4 4a1 1 0 01-.707.293h-3.586l-3.482 3.482a2.003 2.003 0 01-1.932 2.518 2 2 0 11.518-3.932L35.35 16.1v-3.586a1 1 0 01.293-.707l4-4a1 1 0 011.09-.217zM37.35 14.1l2-2v-1.172l-2 2V14.1zm1.414 1.414h1.172l2-2h-1.172l-2 2z" fill="#fff"/><path d="M26.655 12.685a10 10 0 016.087-1.074 1 1 0 10.278-1.98 12 12 0 1010.148 9.8 1 1 0 00-1.97.347 9.999 9.999 0 11-14.543-7.093z" fill="#fff"/><path d="M29.003 17.1a5 5 0 013.043-.537 1 1 0 10.278-1.98 7 7 0 105.92 5.716 1 1 0 10-1.97.347 5 5 0 11-7.271-3.547z" fill="#fff"/></svg><svg fill="none" viewBox="0 0 66 43" id="Grouppromotion-stages-1" xmlns="http://www.w3.org/2000/svg"><path d="M65.752.364l-10.571 42H.752l11.181-42h53.82z" fill="#A20000"/><path d="M33.082 22.996a2 2 0 11-1.414-1.414l1.775-1.775a1 1 0 111.414 1.414l-1.775 1.775zm-1.932-9.482a1 1 0 011 1v1a1 1 0 01-2 0v-1a1 1 0 011-1zm9 11a1 1 0 000-2h-1a1 1 0 100 2h1zm-19-1a1 1 0 011-1h1a1 1 0 110 2h-1a1 1 0 01-1-1zm16.207-4.793l.707-.707A1 1 0 0036.65 16.6l-.707.707a1 1 0 001.414 1.414zm-11.293 0a1 1 0 000-1.414l-.707-.707a1 1 0 00-1.414 1.414l.707.707a1 1 0 001.414 0z" fill="#fff"/><path fill-rule="evenodd" clip-rule="evenodd" d="M31.15 10.514c-7.18 0-13 5.82-13 13 0 1.685.321 3.298.906 4.778a1.951 1.951 0 001.823 1.222H41.42a1.95 1.95 0 001.823-1.222c.586-1.48.907-3.093.907-4.778 0-7.18-5.82-13-13-13zm-11 13c0-6.075 4.925-11 11-11s11 4.925 11 11a10.97 10.97 0 01-.75 4H20.9a10.97 10.97 0 01-.75-4z" fill="#fff"/></svg><svg fill="none" viewBox="0 0 66 43" id="Grouppromotion-stages-2" xmlns="http://www.w3.org/2000/svg"><path d="M65.878.364l-10.571 42H.878l11.182-42h53.818z" fill="#A20000"/><path fill-rule="evenodd" clip-rule="evenodd" d="M29.95 9.514a2 2 0 113 1.733v2.338a6.966 6.966 0 013.192 1.323l1.876-1.876a2.004 2.004 0 011.932-2.518 2 2 0 11-.518 3.932l-1.876 1.876a6.966 6.966 0 011.323 3.192h2.339a2 2 0 110 2h-2.339a6.965 6.965 0 01-1.323 3.192l1.876 1.876a2 2 0 11-1.414 1.415l-1.876-1.876a6.965 6.965 0 01-3.192 1.322v2.339a2 2 0 11-2 0v-2.339a6.965 6.965 0 01-3.192-1.323l-1.876 1.876a2 2 0 11-1.414-1.414l1.875-1.876a6.966 6.966 0 01-1.322-3.192h-2.339a2 2 0 110-2h2.339a6.965 6.965 0 011.322-3.192l-1.875-1.875a2.003 2.003 0 01-2.518-1.933 2 2 0 113.932.519l1.876 1.875a6.966 6.966 0 013.192-1.323v-2.338a2 2 0 01-1-1.733zm2 6a5 5 0 100 10 5 5 0 000-10z" fill="#fff"/></svg><svg fill="none" viewBox="0 0 66 43" id="Grouppromotion-stages-3" xmlns="http://www.w3.org/2000/svg"><path d="M65.004.364l-10.571 42H.004l11.182-42h53.818z" fill="#A20000"/><path d="M23.75 11.514a1 1 0 01-1 1h-1a1 1 0 010-2h1a1 1 0 011 1zm3 1a1 1 0 000-2h-1a1 1 0 100 2h1z" fill="#fff"/><path fill-rule="evenodd" clip-rule="evenodd" d="M22.75 21.514a1 1 0 011-1h2a4 4 0 018 0h2a1 1 0 011 1v7a1 1 0 01-1 1h-12a1 1 0 01-1-1v-7zm9 1a1 1 0 002 0h1v5h-10v-5h1a1 1 0 002 0h4zm0-2a2 2 0 00-4 0h4z" fill="#fff"/><path fill-rule="evenodd" clip-rule="evenodd" d="M20.75 7.514a4 4 0 00-4 4v21a1 1 0 001 1h24a1 1 0 001-1v-21a4 4 0 00-4-4h-18zm-2 8h19a1 1 0 000-2h-19v-2a2 2 0 012-2h18a2 2 0 012 2v20h-22v-16z" fill="#fff"/></svg><svg fill="none" viewBox="0 0 66 43" id="Grouppromotion-stages-4" xmlns="http://www.w3.org/2000/svg"><path d="M65.13.364l-10.571 42H.13l11.181-42h53.82z" fill="#A20000"/><path fill-rule="evenodd" clip-rule="evenodd" d="M41.55 7.514a3 3 0 00-2.735 4.235l-5.308 4.491a2.988 2.988 0 00-1.957-.726c-.998 0-1.883.488-2.428 1.238l-4.59-1.912a3 3 0 10-.87 1.804l4.893 2.039a3 3 0 105.953-.67l5.694-4.818a3 3 0 101.348-5.681zm-1 3a1 1 0 112 0 1 1 0 01-2 0zm-20 4a1 1 0 112 0 1 1 0 01-2 0zm11 3a1 1 0 100 2 1 1 0 000-2zm-13 5a3 3 0 016 0v10a1 1 0 01-1 1h-4a1 1 0 01-1-1v-10zm3-1a1 1 0 00-1 1v9h2v-9a1 1 0 00-1-1zm10 2a3 3 0 00-3 3v6a1 1 0 001 1h4a1 1 0 001-1v-6a3 3 0 00-3-3zm-1 3a1 1 0 012 0v5h-2v-5z" fill="#fff"/><path fill-rule="evenodd" clip-rule="evenodd" d="M38.55 18.514a3 3 0 016 0v14a1 1 0 01-1 1h-4a1 1 0 01-1-1v-14zm3-1a1 1 0 00-1 1v13h2v-13a1 1 0 00-1-1z" fill="#fff"/></svg><svg fill="none" viewBox="0 0 66 43" id="Layer_1promotion-stages" xmlns="http://www.w3.org/2000/svg"><path d="M65.5.364l-10.571 42H.5l11.181-42H65.5z" fill="#A20000"/><path fill-rule="evenodd" clip-rule="evenodd" d="M29.55 8.514c-5.523 0-10 4.477-10 10s4.477 10 10 10a9.959 9.959 0 006.329-2.257l5.964 5.964a1 1 0 001.414-1.414l-5.964-5.964a9.959 9.959 0 002.257-6.329c0-5.523-4.477-10-10-10zm-8 10a8 8 0 1116 0 8 8 0 01-16 0z" fill="#fff"/></svg><svg fill="none" viewBox="0 0 29 28" id="PaperPlane" xmlns="http://www.w3.org/2000/svg"><rect x=".5" width="28" height="28" rx="14" fill="#fff"/><path d="M18.126 18.921v-9.8c-.182 0-.588 0-1.204-.014-.602-.014-1.022-.028-1.232-.028-1.344 0-2.352.322-3.024.966-.672.63-1.008 1.442-1.008 2.422 0 1.274.714 2.212 1.722 2.716l-2.506 3.738h1.932l2.198-3.388h1.414v3.388h1.708zm-3.276-4.998c-.77-.154-1.372-.728-1.372-1.568 0-.994.742-1.666 1.862-1.666.238 0 .602.014 1.078.042v3.192H14.85z" fill="#A20000"/></svg><svg fill="none" viewBox="0 0 29 28" id="PaperPlane-1" xmlns="http://www.w3.org/2000/svg"><rect x=".5" width="28" height="28" rx="14" fill="#fff"/><path d="M17.279 15.232v1.54c-.182.182-.476.336-.882.476-.392.126-.77.196-1.148.196-.994 0-1.806-.308-2.408-.938-.602-.63-.91-1.47-.91-2.506 0-1.078.308-1.918.91-2.52.602-.616 1.4-.924 2.366-.924.854 0 1.722.294 2.212.756l.728-1.372c-.84-.658-1.89-.994-3.15-.994-1.47 0-2.646.49-3.542 1.456-.896.966-1.344 2.156-1.344 3.598 0 1.54.448 2.772 1.358 3.682.91.91 2.17 1.372 3.752 1.372.63 0 1.302-.126 1.988-.364.7-.252 1.26-.588 1.68-1.008v-4.06h-3.976v1.61h2.366z" fill="#A20000"/></svg><svg fill="none" viewBox="0 0 29 28" id="PaperPlane-2" xmlns="http://www.w3.org/2000/svg"><rect x=".5" width="28" height="28" rx="14" fill="#fff"/><path opacity=".35" d="M20.732 15.46l-10.657 5.329A1.78 1.78 0 017.5 19.198V8.78a1.779 1.779 0 012.574-1.59l10.657 5.328c1.212.606 1.212 2.335 0 2.941z" fill="#A20000"/><path d="M16.747 14.488L7.5 16.222v-4.465l9.247 1.734c.552.103.552.894 0 .997z" fill="#A20000"/></svg><svg fill="none" viewBox="0 0 14 15" id="arrow-more" xmlns="http://www.w3.org/2000/svg"><path d="M12.64 7.86L7 13.5 1.36 7.86M7 13.5v-12" stroke="#A20000" stroke-width="2" stroke-linecap="round" stroke-linejoin="round"/></svg><svg fill="none" viewBox="0 0 24 25" id="arrow-next" xmlns="http://www.w3.org/2000/svg"><path d="M21 13.5H6.83l3.58 3.59L9 18.5l-6-6 6-6 1.41 1.41-3.58 3.59H21v2z" fill="currentColor"/></svg><svg fill="none" viewBox="0 0 24 25" id="arrow-prev" xmlns="http://www.w3.org/2000/svg"><path d="M3 11.5h14.17l-3.58-3.59L15 6.5l6 6-6 6-1.41-1.41 3.58-3.59H3v-2z" fill="currentColor"/></svg><svg fill="none" viewBox="0 0 7 12" id="arrow-qa" xmlns="http://www.w3.org/2000/svg"><path d="M4.741 6.082L1.084 2.425A.739.739 0 112.11 1.362l.018.018 4.18 4.18a.739.739 0 010 1.044l-4.179 4.18a.74.74 0 01-1.063-1.028l.018-.018 3.657-3.656z" fill="currentColor" stroke="currentColor" stroke-width=".5"/></svg><svg fill="none" viewBox="0 0 19 13" id="arrow-strategy" xmlns="http://www.w3.org/2000/svg"><path d="M.311 3.008L2.467.852l6.987 6.986L16.44.852l2.157 2.156-9.143 9.143L.31 3.008z" fill="currentColor"/></svg><svg fill="none" viewBox="0 0 46 46" id="bisness-build" xmlns="http://www.w3.org/2000/svg"><path fill-rule="evenodd" clip-rule="evenodd" d="M7.11 4.47C3.887 6.65 1.175 8.523 1.084 8.634c-.15.182-.166.493-.166 3.398v3.198l.26.204c.239.187.336.2 1.159.15.494-.029 1.819-.08 2.945-.112l2.047-.06.068.318c.038.174.147.472.243.662.096.189.348.493.561.675.213.182.574.378.802.436.228.057.566.104.75.104h.337l.002.922c.002.507-.05 5.017-.112 10.023l-.116 9.1H8.11c-.965.001-1.917.046-2.116.102-.199.055-.529.251-.734.436a1.66 1.66 0 00-.517.836c-.12.41-.14 1.006-.117 3.352.026 2.699.037 2.861.21 2.988.158.115 3.07.134 20.206.134h20.021l.148-.21c.127-.182.147-.72.147-3.971 0-3.635-.007-3.768-.19-3.95-.184-.185-.314-.19-5.436-.19h-5.248v-8.342l.26.171c.143.094.376.23.517.3.204.102.3.105.473.015a.953.953 0 00.286-.218c.038-.058.07-.215.07-.35a.585.585 0 00-.164-.39c-.09-.08-2.12-1.363-4.51-2.852-2.763-1.72-4.434-2.706-4.589-2.706-.166 0-1.599.943-4.495 2.958-3.966 2.758-4.254 2.977-4.282 3.256a.57.57 0 00.166.494c.107.107.27.195.361.195.092 0 .39-.15.662-.334l.495-.333v8.609h-3.008l-.052-.78c-.029-.429-.097-4.567-.153-9.195-.055-4.628-.099-8.787-.098-9.242l.002-.828.827-.004c.455-.002.987-.061 1.182-.13.196-.07.504-.241.687-.38.182-.14.426-.431.541-.65.133-.252.228-.637.26-1.058l.049-.662L29 14.29c4.966-.239 9.058-.409 9.094-.379.035.031.237.943.449 2.027.211 1.085.384 2.034.384 2.11 0 .077-.1.275-.223.44-.123.166-.49.76-.816 1.323-.325.562-.592 1.119-.592 1.237 0 .118.33.776.733 1.463.402.686.809 1.289.903 1.34.095.05.35.091.569.091h.396l-.06.459c-.05.38-.028.5.136.709.11.14.292.25.414.25.12 0 .329.089.466.197.166.13.249.286.249.469a.69.69 0 01-.207.465.826.826 0 01-.513.193.973.973 0 01-.587-.236c-.154-.13-.37-.237-.48-.237-.109 0-.284.086-.388.19a.7.7 0 00-.189.422c0 .14.127.359.315.544l.315.31-1.78 1.83-1.78 1.83v2.543c0 2.417.008 2.552.188 2.732.184.184.315.19 4.526.19 4.244 0 4.342-.005 4.586-.197l.249-.196v-5.012l-1.848-1.926-1.848-1.927.283-.39c.161-.222.311-.576.347-.818a2.06 2.06 0 00-.046-.797 2.285 2.285 0 00-.405-.705c-.161-.184-.413-.396-.56-.472-.172-.089-.247-.188-.212-.279.038-.098.193-.14.51-.14.25 0 .523-.027.607-.06.085-.032.493-.63.907-1.33.413-.7.752-1.377.752-1.505 0-.13-.324-.787-.72-1.462-.396-.675-.798-1.281-.892-1.347-.164-.116-.158-.188.152-1.676.179-.856.39-1.86.471-2.233l.147-.678.786-.065c.433-.036.829-.093.88-.127a.885.885 0 00.202-.267c.06-.115.108-.615.107-1.134 0-.55-.05-1.025-.119-1.165-.085-.17-.288-.293-.731-.44-.338-.113-3.04-.993-6.003-1.956L23.107 3.62C17.814 1.9 13.368.496 13.228.5c-.172.005-2.154 1.291-6.116 3.97zm16.768.664L36.301 9.17c1.858.604 3.369 1.108 3.356 1.12-.012.012-2.404-.1-5.316-.25s-7.081-.359-9.265-.466c-2.185-.107-4.238-.219-4.563-.249-.588-.053-.59-.055-.593-.353 0-.165-.08-.47-.175-.678a2.636 2.636 0 00-.446-.648 3 3 0 00-.622-.448c-.192-.098-.643-.205-1.002-.239l-.653-.06-1.244-2.353c-.685-1.294-1.245-2.378-1.245-2.41 0-.03.068-.03.15.002.083.032 4.22 1.38 9.195 2.996zm-9.39-.461l1.161 2.203-1.225.026c-.674.014-1.75.014-2.39 0l-1.162-.026 1.186-2.244c.653-1.234 1.205-2.225 1.228-2.203.022.023.563 1.033 1.202 2.244zm-3.96.278l-1.054 2-.442.111a2.564 2.564 0 00-.778.368 2.76 2.76 0 00-.583.678l-.247.422-1.15-.01a38.295 38.295 0 01-1.983-.07l-.835-.062L7.501 5.67a633.901 633.901 0 014.062-2.718c.01 0-.457.9-1.036 2zm7.647 3.35a1.1 1.1 0 01.464.464c.126.266.149.794.149 3.494 0 2.534-.027 3.245-.135 3.501a1.064 1.064 0 01-.42.47c-.248.128-.874.148-4.65.148H9.219l-.321-.322-.322-.32v-3.42c0-2.236.035-3.485.1-3.608.056-.103.237-.27.403-.372.286-.174.51-.183 4.541-.184 3.667 0 4.284.02 4.555.15zM10.05 9.53a.908.908 0 00-.201.356c-.029.114-.04 1.28-.024 2.59.026 2.138.046 2.4.197 2.551.155.155.45.171 3.458.196 3.223.027 3.294.023 3.543-.172l.253-.2v-2.578c0-2.378-.013-2.591-.173-2.735-.154-.14-.54-.157-3.539-.157-2.933 0-3.385.02-3.514.149zm-4.235.195l.575.06-.49.447c-.27.246-.62.555-.777.687l-.286.24-.827-.747-.827-.747h1.029c.565 0 1.287.027 1.603.06zm-2.592 1.6l.729.666-.784.71c-.431.39-.837.742-.902.781-.093.055-.118-.269-.118-1.5 0-1.507.007-1.566.173-1.448.096.068.502.424.902.79zm12.824.94v1.75h-5.012v-1.687c0-.927.028-1.714.063-1.75.034-.034 1.162-.062 2.505-.062h2.443v1.749zm5.235-.324c.565.781 1.012 1.436.992 1.454-.018.018-.545.047-1.169.066l-1.134.033-.026-1.489c-.024-1.374-.013-1.489.142-1.487.106.001.542.52 1.195 1.423zm-13.934.04c0 .754-.032 1.37-.07 1.367-.04-.003-.401-.312-.804-.688l-.732-.684.77-.683c.424-.375.785-.683.803-.683.018 0 .033.617.033 1.371zm17.478-1.193l.318.062-.824 1.023c-.453.564-.855.988-.893.945a26.78 26.78 0 01-.49-.647c-.233-.313-.584-.792-.782-1.066l-.36-.498 1.357.06c.747.033 1.5.088 1.674.121zm5.297.257c.02.017-.264.37-.63.785l-.666.754-.776-.848-.776-.85 1.407.065c.773.035 1.422.077 1.441.094zm7.813.37c2.652.13 5.045.262 5.318.29.492.053.496.056.496.378 0 .302-.02.324-.307.325-.169.001-1.988.086-4.042.189-2.054.102-3.975.187-4.27.187-.522.001-.555-.016-1.465-.72a50.067 50.067 0 01-1.02-.804c-.053-.048.025-.083.188-.083.154 0 2.45.107 5.102.238zm-10.512 1.427l.246.293-.919.061c-.505.033-1.142.061-1.415.061-.273 0-.496-.025-.496-.057s.301-.435.669-.896l.669-.839.5.542c.275.298.61.674.746.835zm4.562-.556c.565.435.67.554.535.604-.093.034-.668.078-1.278.098-.61.019-1.108.013-1.108-.013 0-.027.238-.314.528-.64.29-.324.548-.59.574-.59.025 0 .363.244.75.541zm-26.08 1.486c.282.264.366.396.283.448-.065.041-.756.074-1.536.072l-1.418-.002.804-.747.803-.747.331.3c.182.166.512.47.732.676zm35.82.124a76.553 76.553 0 00-.436 2.056 86.179 86.179 0 01-.437 2.062c-.037.128-.126.164-.349.142l-.3-.029-.392-1.938c-.216-1.066-.397-2.031-.402-2.145-.006-.142.057-.218.204-.247.117-.022.652-.046 1.188-.054.889-.011.971.002.925.153zM14.25 17.632c0 .014-.66.683-1.465 1.488l-1.466 1.463v-2.976h1.466c.806 0 1.465.011 1.465.025zm1.016 5.734l-.023 1.174-1.28-1.126a550.34 550.34 0 00-1.645-1.443l-.364-.316 1.597-1.6 1.598-1.6.07 1.87a66.31 66.31 0 01.047 3.041zm26.808-3.191l.51.865-.48.835-.48.834-1.042.002-1.04.002-.487-.827-.487-.828.292-.52c.16-.286.391-.68.512-.874l.22-.355h1.972l.51.866zm-29.256 3.83c.814.71 1.538 1.344 1.61 1.41.109.099-.147.431-1.513 1.97-.904 1.018-1.68 1.852-1.727 1.852-.046 0-.057-.197-.023-.439.033-.24.06-1.709.06-3.262s.025-2.823.057-2.823c.031 0 .723.581 1.536 1.291zm16.545 1.64c1.304.805 2.373 1.497 2.375 1.536.003.039-2.109.07-4.692.07s-4.67-.026-4.637-.059c.033-.032 1.03-.734 2.214-1.56 1.186-.825 2.203-1.49 2.262-1.477.058.013 1.174.683 2.478 1.49zM15.374 30.64c.005 1.317-.023 2.38-.063 2.363a81.58 81.58 0 01-1.793-1.213c-.946-.65-1.722-1.217-1.724-1.26-.002-.042.774-.95 1.723-2.02l1.725-1.942.061.838c.033.461.065 1.916.07 3.234zM33.3 36.376v7.942l-1.11.027-1.112.026v-9.753l-.232-.232-.232-.232h-3.348c-3.244 0-3.356.006-3.597.196l-.25.196v9.827l-.732-.027-.733-.028-.047-2.695c-.046-2.627-.053-2.703-.27-3.054-.124-.198-.326-.426-.45-.507l-.226-.148v-9.431l3.428-.027c1.885-.014 4.661-.026 6.17-.024l2.741.001v7.943zm-9.013-7.298c-.196.208-.205.302-.205 1.985 0 1.641.013 1.78.189 1.956.18.18.315.19 2.79.19 2.473 0 2.608-.01 2.788-.19.176-.175.19-.315.19-1.969 0-1.738-.006-1.785-.22-1.986-.213-.2-.28-.205-2.772-.205-2.548 0-2.555 0-2.76.219zm15.68.82v1.041h-2.125l1.037-1.04c.57-.572 1.048-1.04 1.062-1.04.014 0 .025.468.025 1.04zm2.852.592l.38.449h-2.003v-2.121l.621.61c.342.337.793.815 1.002 1.062zm-14.01.544v.945H25.31v-1.891h3.5v.946zm-14.797 2.552c.416.291.737.57.713.62-.024.049-.846.743-1.826 1.541-.98.799-1.8 1.436-1.819 1.416-.02-.02-.01-1.277.021-2.796l.057-2.76 1.048.725c.577.4 1.39.963 1.806 1.254zm30.115.284v1.702h-7.092v-3.404h7.092v1.702zm-28.65 2.6v1.182h-1.484c-1.01 0-1.454-.03-1.388-.096.053-.053.69-.583 1.414-1.177.724-.593 1.349-1.082 1.388-1.085.039-.003.07.526.07 1.176zm11.347 3.404v4.491H24.65v-8.982h2.175v4.491zm3.025 0v4.491h-1.796v-8.982h1.796v4.491zm14.278 1.467v3.026l-4.799-.024-4.798-.025-.025-2.883c-.014-1.585-.005-2.936.02-3.002.036-.093 1.068-.119 4.824-.119h4.778v3.027zm-23.625-2.279l.223.18v5.076l-7.446.024-7.446.025v-2.494c0-2.38.01-2.505.196-2.742l.196-.25h7.027c6.776 0 7.035.007 7.25.181zm-13.116.857c-.109.043-.31.214-.45.379-.249.296-.252.316-.252 1.756 0 1.448.001 1.457.236 1.61a.616.616 0 00.47.096.567.567 0 00.325-.228c.05-.093.12-.684.157-1.314l.067-1.144 1.32-.033c1.265-.03 1.326-.042 1.505-.263.128-.158.168-.306.128-.472a.74.74 0 00-.213-.36c-.109-.084-.586-.117-1.625-.113-.81.003-1.56.042-1.668.086z" fill="currentColor"/></svg><svg fill="none" viewBox="0 0 50 46" id="bisness-loyer" xmlns="http://www.w3.org/2000/svg"><path fill-rule="evenodd" clip-rule="evenodd" d="M40.103.676a3.28 3.28 0 00-.75.506 3.299 3.299 0 00-.525.689c-.159.297-.205.554-.207 1.149-.002.567.045.863.182 1.137.1.203.327.51.502.68.176.17.32.332.32.36 0 .027-.395.734-.878 1.57a99.637 99.637 0 00-2.042 3.82c-.64 1.264-1.348 2.77-1.572 3.346a21.57 21.57 0 00-.604 1.784l-.197.736-.532.055c-.42.044-.59.115-.819.343-.27.27-.286.327-.269.973.01.377.086 1.015.167 1.418.082.402.294 1.069.47 1.48.177.412.465.988.64 1.28.176.291.573.807.882 1.146a10.5 10.5 0 001.101 1.03c.297.227.785.552 1.085.72.3.17.911.433 1.36.585.448.152 1.194.328 1.657.39a9.312 9.312 0 001.615.052 10.874 10.874 0 001.532-.253 9.726 9.726 0 001.458-.524c.383-.181.932-.486 1.22-.677.287-.19.822-.647 1.188-1.013a9.924 9.924 0 001.085-1.309c.23-.354.54-.922.692-1.263.15-.341.353-.923.45-1.293.096-.37.2-1.04.23-1.487.049-.71.031-.853-.138-1.12a.936.936 0 00-.557-.406 2.947 2.947 0 00-.624-.102c-.24 0-.275-.054-.46-.695a25.53 25.53 0 00-.591-1.7 42.262 42.262 0 00-.978-2.25c-.323-.686-.994-2-1.49-2.922-.497-.922-1.17-2.135-1.498-2.696l-.596-1.02.323-.313a3.15 3.15 0 00.534-.752c.15-.312.211-.62.212-1.062.001-.424-.061-.763-.194-1.06a3.048 3.048 0 00-.552-.783 3.359 3.359 0 00-.707-.516c-.205-.1-.634-.184-1.023-.202-.525-.024-.764.012-1.102.169zm1.437 1.913a.733.733 0 01.192.447.742.742 0 01-.159.431.62.62 0 01-.407.174c-.137 0-.296-.033-.354-.072a.923.923 0 01-.215-.28.948.948 0 01-.11-.315c0-.058.105-.212.235-.341.129-.13.323-.236.43-.236.108 0 .283.087.388.192zm-16.994.307c-.312.04-.786.186-1.054.324a4.648 4.648 0 00-.902.648 4.78 4.78 0 00-.693.876 4.03 4.03 0 00-.387 1.03c-.06.303-.12.55-.132.55-.012 0-2.319.494-5.125 1.097l-5.102 1.096-.442-.37a3.426 3.426 0 00-.95-.534C9.412 7.5 9.086 7.465 8.74 7.5c-.28.029-.678.139-.885.244-.206.106-.551.382-.766.615-.214.233-.447.592-.518.798-.07.207-.123.634-.117.95.006.316.082.74.167.94.086.201.323.546.526.767l.37.401-.665 1.145c-.367.63-1.035 1.83-1.487 2.667a74.805 74.805 0 00-1.42 2.781c-.33.693-.75 1.648-.937 2.122a26.352 26.352 0 00-.487 1.341c-.083.264-.196.663-.253.887l-.103.407h-.51c-.404 0-.56.047-.756.229a1.235 1.235 0 00-.313.58c-.036.194-.015.744.046 1.224.062.479.2 1.134.306 1.454.106.321.342.887.524 1.26.183.371.61 1.027.95 1.457.34.43.935 1.034 1.322 1.341.386.308 1.066.738 1.51.957.444.218 1.152.494 1.574.613.624.176 1.014.217 2.107.22 1.001.002 1.523-.042 2.06-.176a10.36 10.36 0 001.5-.541c.431-.199.991-.503 1.246-.677.254-.173.758-.598 1.12-.943a9.96 9.96 0 001.135-1.333c.263-.388.586-.948.718-1.246.132-.297.343-.944.469-1.438.145-.57.229-1.172.229-1.647 0-.652-.03-.784-.23-1.016-.187-.218-.33-.276-.782-.317-.515-.046-.56-.07-.64-.337a86.793 86.793 0 00-.38-1.197c-.162-.5-.526-1.449-.81-2.107-.283-.659-1.026-2.167-1.651-3.353a100.537 100.537 0 00-1.77-3.226c-.349-.59-.634-1.117-.634-1.173 0-.056.041-.102.092-.102.05 0 .244-.2.43-.445.188-.245.384-.609.438-.809.054-.2.172-.386.264-.413.09-.027 1.48-.33 3.087-.672 1.606-.343 3.816-.818 4.91-1.058 1.095-.239 2.007-.435 2.028-.435.02 0 .192.21.38.468l.344.468v27.28l-1.352.01c-.88.007-1.431.052-1.576.13-.123.066-.29.26-.372.432-.11.233-.148.638-.148 1.614v1.303l-1.46.002c-1.24.002-1.492.027-1.666.167a1.42 1.42 0 00-.311.375c-.068.134-.107.915-.107 2.173 0 1.08.04 2.07.09 2.2.05.13.187.327.305.437l.216.201 9.01-.002c8.391-.002 9.023-.014 9.213-.168a1.41 1.41 0 00.312-.374c.068-.135.106-.932.106-2.234s-.038-2.098-.106-2.233a1.41 1.41 0 00-.312-.375c-.173-.14-.426-.165-1.665-.167l-1.46-.002v-1.28c0-.703-.047-1.41-.103-1.573a.995.995 0 00-.322-.439c-.163-.106-.579-.151-1.621-.174l-1.402-.03V9.196l.381-.56c.24-.35.445-.808.549-1.22l.17-.679c.004-.01.931-.22 2.063-.465 1.131-.246 2.174-.507 2.317-.581.143-.074.305-.218.36-.319.054-.101.098-.341.098-.533 0-.258-.073-.422-.28-.629-.205-.204-.372-.28-.62-.28-.188 0-1.229.194-2.314.431s-2.01.431-2.055.431c-.045 0-.107-.08-.138-.176-.03-.097-.282-.4-.557-.675-.276-.275-.717-.604-.98-.733a4.11 4.11 0 00-1.054-.309 5.331 5.331 0 00-1.142-.003zm11.295.357c-.158.038-.382.12-.498.182a1.25 1.25 0 00-.36.325 1.08 1.08 0 00-.148.52c0 .186.093.416.24.59.131.156.351.313.49.347.137.035.486.014.774-.046.323-.067.629-.206.798-.363.151-.14.282-.32.291-.4.009-.078.011-.265.005-.414-.007-.16-.126-.384-.291-.55-.218-.218-.362-.278-.647-.27a3.84 3.84 0 00-.654.079zm-9.743 1.85c.206.135.456.412.556.614.108.22.179.56.176.847-.003.263-.078.617-.167.785-.088.169-.319.427-.512.575-.31.236-.435.268-1.038.268s-.727-.032-1.037-.268c-.193-.148-.422-.405-.509-.572-.086-.167-.16-.523-.164-.79-.005-.363.058-.597.25-.925.173-.294.393-.508.668-.647.308-.157.532-.2.906-.172.328.024.625.121.871.284zm15.858 2.875c.394.698.981 1.764 1.305 2.37.324.605.909 1.78 1.3 2.608.391.83.863 1.943 1.048 2.476.185.533.337.986.337 1.007 0 .021-2.155.039-4.789.039-2.662 0-4.79-.038-4.79-.084 0-.046.105-.401.232-.79s.408-1.111.626-1.606c.218-.495.743-1.594 1.167-2.442a90.43 90.43 0 011.73-3.244c.527-.935.994-1.678 1.038-1.65.044.027.402.62.796 1.316zM9.442 9.616c.05.06.119.22.153.355.042.168.005.315-.118.466a.6.6 0 01-.44.222.775.775 0 01-.45-.17.643.643 0 01-.186-.42c0-.136.034-.3.074-.363.04-.063.178-.154.306-.202a.813.813 0 01.402-.042.586.586 0 01.259.154zm16.294 13.712v13.125l-.623-.002-.622-.002V10.204h1.245v13.124zM9.84 15.041c.434.764 1.17 2.122 1.633 3.017a61.464 61.464 0 011.275 2.605c.238.537.584 1.41.768 1.94l.335.963h-9.67l.063-.264c.034-.145.212-.673.395-1.173.182-.5.75-1.772 1.263-2.826a90.729 90.729 0 011.918-3.687c.542-.975 1.03-1.827 1.084-1.894.053-.068.108-.11.122-.096.014.014.38.651.815 1.415zm37.676 3.712c-.034.144-.146.521-.248.838a7.464 7.464 0 01-.564 1.215c-.208.353-.65.918-.982 1.255-.332.337-.86.762-1.172.944a9.817 9.817 0 01-1.095.54c-.29.114-.721.25-.958.303-.237.053-.863.097-1.39.098-.683.002-1.167-.055-1.675-.195a8.328 8.328 0 01-1.366-.54c-.358-.188-.945-.615-1.305-.948-.36-.333-.838-.887-1.062-1.231a7.86 7.86 0 01-.683-1.417c-.151-.435-.276-.866-.276-.958-.001-.158.368-.168 6.418-.168h6.42l-.062.264zM15.39 25.614c0 .073-.09.429-.202.79-.112.361-.305.86-.43 1.107a7 7 0 01-.676 1c-.247.303-.56.652-.695.777-.136.125-.553.431-.925.681-.373.25-.965.548-1.316.664a10.2 10.2 0 01-1.328.316c-.507.079-.91.079-1.52 0-.457-.058-1.075-.19-1.373-.293a9.543 9.543 0 01-1.135-.502c-.332-.176-.916-.633-1.325-1.034-.438-.43-.872-.972-1.082-1.35a8.79 8.79 0 01-.525-1.15 8.155 8.155 0 01-.237-.828l-.06-.312h6.414c5.423 0 6.415.02 6.415.134zm13.793 13.563v.767h-8.142v-1.533h8.142v.766zm3.64 3.544v.862H17.45l-.032-.862-.032-.862h15.438v.862z" fill="currentColor"/></svg><svg fill="none" viewBox="0 0 46 46" id="bisness-restaurant" xmlns="http://www.w3.org/2000/svg"><path d="M.645.563C.575.598.452.69.373.768.08 1.08.097.663.097 6.834c0 5.991 0 5.987.224 6.797.35 1.29 1.378 2.564 2.6 3.216.17.092.332.197.362.232.04.057.053 2.722.053 13.011 0 11.27.009 12.985.066 13.287.175.919.888 1.72 1.794 2.008.42.136 1.068.154 1.484.04.41-.11.849-.363 1.168-.678.315-.311.477-.56.648-1.003l.114-.288.013-13.182.008-13.186.276-.136a5.496 5.496 0 002.963-4.328c.03-.306.044-2.31.035-5.952l-.013-5.492-.105-.21c-.315-.64-1.287-.622-1.585.035-.078.166-.083.411-.083 4.998v4.827H8.588l-.01-4.827-.012-4.823-.097-.175C8.3.68 8.01.502 7.67.502c-.342 0-.63.179-.801.503l-.097.175-.013 4.823-.008 4.827H5.218l-.009-4.876-.013-4.875-.131-.188C4.81.532 4.325.396 3.953.585c-.219.113-.424.354-.481.56-.031.114-.048 1.737-.048 4.923v4.762H1.892V1.21L1.769.98a.669.669 0 00-.354-.355C1.157.488.863.466.645.563zm9.387 12.197c0 .149-.215.744-.377 1.041a3.695 3.695 0 01-1.982 1.703c-.398.14-.595.289-.713.53l-.101.2-.022 13.436c-.022 12.394-.026 13.444-.096 13.567a.834.834 0 01-1.493-.018l-.096-.201-.022-13.436c-.022-12.709-.026-13.444-.1-13.575-.114-.21-.315-.35-.766-.538-.595-.245-.858-.416-1.282-.832-.508-.503-.91-1.225-.985-1.772l-.03-.197h8.064v.092zM43.704.659c-.985.59-2.469 1.952-3.41 3.124-1.558 1.948-2.573 4.053-3.076 6.39-.412 1.9-.412 1.882-.394 9.322.018 6.14.018 6.197.11 6.569.27 1.09.542 1.51 1.86 2.857l.975 1.003.022 6.678c.022 6.206.03 6.696.1 6.94.259.89.894 1.55 1.769 1.843.276.092.416.114.775.114.792-.004 1.365-.24 1.908-.792a2.44 2.44 0 00.687-1.19c.074-.267.078-1.305.078-21.287 0-11.554-.013-21.06-.035-21.13-.043-.161-.328-.468-.498-.542a1.263 1.263 0 00-.377-.057c-.188 0-.28.03-.494.158zM43.327 23.2c-.013 18.924-.017 19.782-.092 19.948a.845.845 0 01-.446.464.723.723 0 01-.657 0 .845.845 0 01-.446-.464c-.074-.166-.079-.552-.1-7.024-.022-6.6-.027-6.854-.106-7.002-.043-.084-.577-.657-1.181-1.27-1.138-1.155-1.3-1.36-1.492-1.895-.206-.56-.206-.612-.184-7.08.013-3.357.043-6.329.065-6.604.118-1.374.67-3.318 1.344-4.705.665-1.37 1.715-2.827 2.761-3.825.368-.35.477-.433.508-.385.017.04.03 8.967.026 19.842zM21.63 6.217c-1.887.132-3.546.495-5.187 1.143-.936.372-1.562.682-1.72.862-.498.569-.105 1.47.644 1.47.245 0 .512-.092 1.295-.446 2.91-1.326 6.468-1.61 9.628-.775 1.033.271 1.265.35 1.926.617 1.811.744 3.168 1.637 4.88 3.208.301.276.608.534.687.569.21.1.529.083.792-.048.284-.14.402-.328.433-.674.044-.455-.026-.56-.832-1.309-.971-.897-1.36-1.216-2.008-1.65-2.534-1.689-4.928-2.586-7.703-2.884-.608-.065-2.354-.118-2.836-.083z" fill="currentColor"/><path d="M21.564 10.55l-.547.065c-2.162.24-4.464 1.216-6.259 2.648-.503.402-1.488 1.391-1.89 1.899-1.348 1.707-2.206 3.61-2.57 5.702a12.962 12.962 0 00.171 5.094 12.488 12.488 0 008.508 9.007c1.886.569 4.18.674 6.123.284a12.424 12.424 0 009.807-10.105c.346-2.039.184-4.218-.455-6.13a12.533 12.533 0 00-3.654-5.463 12.475 12.475 0 00-6.976-2.984c-.416-.04-1.948-.053-2.258-.018zm2.582 1.877c3.072.486 5.671 2.144 7.383 4.704.647.976 1.269 2.447 1.518 3.593.24 1.13.302 2.543.158 3.65a10.69 10.69 0 01-5.908 8.21c-1.033.503-1.935.788-3.116.99-.591.096-2.447.113-3.033.021-1.983-.306-3.76-1.08-5.274-2.306-.494-.403-1.365-1.291-1.715-1.75-.985-1.3-1.694-2.828-1.996-4.29-.188-.888-.227-1.304-.227-2.297.004-1.06.07-1.615.306-2.56a10.753 10.753 0 015.645-6.959c1.291-.634 2.245-.901 3.873-1.09.342-.039 1.97.018 2.386.084z" fill="currentColor"/><path d="M22.264 14.965a1.012 1.012 0 00-.552.595.816.816 0 00-.004.425c.088.416.346.652.766.696.875.091 1.37-.91.748-1.506a.873.873 0 00-.958-.21zm-2.709.552c-.22.053-.858.372-1.265.634-1.856 1.2-3.142 3.033-3.575 5.103-.123.587-.232 1.554-.206 1.795.052.416.306.717.704.827.377.1.867-.162 1.007-.543.035-.1.088-.407.118-.678.14-1.449.56-2.534 1.37-3.571a6.336 6.336 0 012.061-1.68c.692-.346.897-.583.897-1.016 0-.39-.284-.775-.643-.871-.192-.053-.232-.053-.468 0zM34.732 32.05c-.122.058-.402.325-.923.89-.862.927-1.309 1.356-1.895 1.824-2.294 1.83-5.287 2.998-8.197 3.203-3.033.215-6.258-.55-8.788-2.087-.495-.298-.678-.368-.976-.368-.499 0-.919.508-.836 1.007.057.328.237.534.727.831 4.42 2.679 9.803 3.2 14.59 1.414 1.992-.74 3.585-1.672 5.134-3.002.958-.823 2.197-2.184 2.35-2.582.166-.442-.004-.889-.42-1.099-.276-.135-.512-.144-.766-.03zm-23.759 1.397c-.705.337-.657 1.343.074 1.645a.902.902 0 001.007-.223c.157-.166.21-.32.21-.612a.86.86 0 00-.394-.736.987.987 0 00-.897-.074z" fill="currentColor"/></svg><svg fill="none" viewBox="0 0 32 32" id="downliad" xmlns="http://www.w3.org/2000/svg"><path d="M14.179 8.848A5.058 5.058 0 0118.75 6c2.803 0 5.05 2.234 5.05 4.958 0 .201-.012.399-.035.592a1 1 0 00.676 1.07A2.256 2.256 0 0126 14.75c0 1.228-1.015 2.25-2.3 2.25h-2.2a1 1 0 100 2h2.2c2.36 0 4.3-1.889 4.3-4.25a4.24 4.24 0 00-2.2-3.71v-.082C25.8 7.101 22.63 4 18.75 4a7.066 7.066 0 00-5.99 3.288 4.947 4.947 0 00-.61-.038 4.847 4.847 0 00-4.616 3.317C5.534 10.924 4 12.65 4 14.75 4 17.111 5.94 19 8.3 19h2.2a1 1 0 100-2H8.3C7.015 17 6 15.978 6 14.75s1.015-2.25 2.3-2.25h.039a1 1 0 00.99-.856c.194-1.342 1.374-2.394 2.821-2.394.294 0 .575.043.839.123a1 1 0 001.19-.525z" fill="#fff"/><path d="M16 14.95a1 1 0 011 1v8.586l1.593-1.593a1 1 0 011.414 1.414l-3.3 3.3a1 1 0 01-1.414 0l-3.3-3.3a1 1 0 011.414-1.414L15 24.536V15.95a1 1 0 011-1z" fill="#fff"/></svg><svg fill="none" viewBox="0 0 15 14" id="plane-case" xmlns="http://www.w3.org/2000/svg"><path opacity=".35" d="M13.172 8.69L3.156 13.622c-1.112.548-2.42-.248-2.42-1.473V2.505c0-1.224 1.308-2.02 2.42-1.473l10.016 4.934a1.512 1.512 0 010 2.723z" fill="#fff"/><path d="M9.427 7.79L.736 9.394V5.261l8.691 1.605c.52.096.52.828 0 .923z" fill="#fff"/></svg><svg fill="none" viewBox="0 0 20 19" id="star" xmlns="http://www.w3.org/2000/svg"><path fill-rule="evenodd" clip-rule="evenodd" d="M10.102 15.23l-5.809 3.075 1.11-6.512-4.7-4.612 6.494-.95L10.102.304l2.904 5.925 6.494.95-4.7 4.613 1.11 6.512-5.808-3.075z" fill="currentColor"/></svg><svg fill="none" viewBox="0 0 13 13" id="tooltip" xmlns="http://www.w3.org/2000/svg"><path fill-rule="evenodd" clip-rule="evenodd" d="M.13 6.437c0 3.544 2.853 6.416 6.372 6.416 3.52 0 6.373-2.872 6.373-6.416 0-3.544-2.853-6.417-6.373-6.417S.13 2.893.13 6.437zm11.586 0c0 2.9-2.334 5.25-5.214 5.25-2.88 0-5.214-2.35-5.214-5.25s2.335-5.25 5.214-5.25c2.88 0 5.214 2.35 5.214 5.25zM6.502 9.936c.32 0 .58-.261.58-.584a.581.581 0 00-.58-.583c-.32 0-.58.261-.58.583 0 .323.26.584.58.584zm.582-7h-1.16v4.666h1.16V2.936z" fill="#000"/></svg></svg>