<svg width="73" height="73" fill="none" xmlns="http://www.w3.org/2000/svg"><rect x=".667" y=".5" width="72" height="72" rx="5" fill="#EFEFEF"/><path d="M57.83 47.646l.01-.005h-.018l-10.627-5.758-10.643-5.768-10.645 5.768-10.626 5.758h-.018l.01.005-.01.005h.018l10.626 5.758 10.645 5.769 10.644-5.769 10.626-5.758h.018l-.01-.005z" fill="#E12C0F"/><path d="M57.83 25.531l.01-.005h-.018l-10.627-5.758L36.553 14l-10.645 5.768-10.626 5.758h-.018l.01.005-.01.005h.018l10.626 5.759 10.645 5.768 10.644-5.768 10.626-5.759h.018l-.01-.005z" fill="#A20000"/><path d="M15.28 25.063v23.052L36.553 36.59 15.28 25.063z" fill="#6A1507"/><path d="M57.822 25.063v23.052L36.552 36.59l21.27-11.526z" fill="#6A1507"/></svg>