<svg width="60" height="60" fill="none" xmlns="http://www.w3.org/2000/svg"><g clip-path="url(#clip0_101_322)"><path d="M.003 30c0 11.87 6.9 22.14 16.909 26.992L2.602 17.79A29.856 29.856 0 00.002 30zm50.252-1.515c0-3.708-1.335-6.279-2.475-8.274-1.519-2.471-2.942-4.562-2.942-7.036 0-2.758 2.085-5.323 5.04-5.323l.385.026C44.926 2.989 37.815 0 30.006 0 19.704 0 10.62 5.196 5.221 13.106c2.254.043 9.647.07 9.647.07 1.612-.09 1.804 2.28.187 2.475 0 0-1.622.19-3.432.285L22.55 48.428l6.566-19.688-4.677-12.804a58.858 58.858 0 01-3.145-.285c-1.619-.098-1.427-2.566.193-2.476h15.898c1.611-.09 1.804 2.28.188 2.476 0 0-1.623.19-3.432.285l10.843 32.243 2.994-9.992c1.514-3.902 2.277-7.133 2.277-9.702zm-19.724 4.14l-9.004 26.156A29.936 29.936 0 0030.004 60c3.49 0 6.843-.604 9.962-1.703l-.212-.41-9.223-25.262zm25.794-17.021c.132.96.207 1.984.207 3.09 0 3.042-.572 6.462-2.286 10.744l-9.16 26.489c8.915-5.196 14.91-14.86 14.91-25.927a29.847 29.847 0 00-3.672-14.396z" fill="#007AFF"/></g><defs><clipPath id="clip0_101_322"><path fill="#fff" d="M0 0h60v60H0z"/></clipPath></defs></svg>