<svg width="56" height="56" viewBox="0 0 56 56" fill="none" xmlns="http://www.w3.org/2000/svg">
<g clip-path="url(#clip0_101_319)">
<path d="M22.7004 55.1829C17.897 54.1883 13.4148 51.9694 9.89614 48.8443C0.86282 40.8215 -1.92897 28.218 2.84314 17.0037C4.01504 14.2498 5.92024 11.455 8.28084 9.02691L10.362 6.88627L10.5088 19.4153C10.6493 31.4079 10.6809 32.012 11.2482 33.5232C12.3831 36.5465 13.5998 38.4715 15.6943 40.5574C21.1048 45.9457 29.041 47.2905 35.7875 43.9621C42.1287 40.8337 46.1264 34.0313 45.6618 27.1602C45.3498 22.5449 43.7976 19.1605 40.4465 15.7884C37.9126 13.2386 34.9313 11.5731 31.6856 10.894C28.3832 10.203 28.5417 10.1021 28.5417 12.8973V15.3104L30.3521 15.644C37.3634 16.9359 42.0005 23.8208 40.5391 30.769C40.0723 32.9882 39.0312 34.9479 37.36 36.753C34.8202 39.4963 31.2469 40.8076 28.1268 40.8015C22.9677 40.7916 18.6598 37.8599 16.5718 33.5246C16.5718 33.5246 16.0249 32.2854 15.8491 31.5196C14.8154 27.0164 15.4761 17.5367 15.4761 17.5367L15.3961 3.67576L16.2144 3.25262C16.6644 3.01989 17.096 2.82948 17.1735 2.82948C17.251 2.82948 17.3494 9.1958 17.3921 16.9769C17.3921 16.9769 16.3985 27.1768 17.6264 31.0855C17.8036 31.6495 18.1399 32.6141 18.1399 32.6141C19.2164 34.8071 20.9416 36.7361 23.1832 37.7979C24.8848 38.6039 25.7415 38.9687 28.2589 38.9687C29.9037 38.9687 31.3608 38.4495 33.0374 37.6784C35.0139 36.7694 37.2811 34.3593 38.119 32.1588C40.4274 26.0962 37.2131 19.5735 31.0208 17.7547C28.4901 17.0114 28.5417 16.9704 28.5417 19.7223V22.126L29.7565 22.4509C34.1353 23.6221 35.4714 29.4912 32.0339 32.507C30.8194 33.5725 29.7251 34.0435 27.8107 34.0435C25.7651 34.0435 23.8016 32.8053 22.7921 30.9063C22.1857 29.7656 22.1346 28.6835 22.1346 28.1879C22.1346 23.6103 22.0354 15.3775 22.0354 15.3775L21.9535 1.25528L22.5822 1.09914C22.9279 1.01326 24.3254 0.800759 25.6877 0.626917C30.3077 0.0373444 37.1428 1.5493 41.7348 4.1766C47.9952 7.75853 52.7321 13.9118 54.7044 21.0239C55.3829 23.4703 55.4585 24.1816 55.4585 28.1171C55.4585 32.0349 55.3812 32.7698 54.7171 35.1627C52.0346 44.829 45.2109 51.739 35.4539 54.6697C33.4004 55.2864 32.4385 55.4041 28.8151 55.4813C25.891 55.5437 23.9958 55.4512 22.7004 55.1829V55.1829Z" fill="#C60C30"/>
</g>
<defs>
<clipPath id="clip0_101_319">
<rect width="54.9167" height="55" fill="white" transform="translate(0.541748 0.5)"/>
</clipPath>
</defs>
</svg>
