<svg width="120" height="120" viewBox="0 0 120 120" fill="none" xmlns="http://www.w3.org/2000/svg">
<g clip-path="url(#clip0_77_82)">
<rect width="120" height="120" fill="white"/>
<path fill-rule="evenodd" clip-rule="evenodd" d="M60.1969 31.3295C45.2345 -5.12719 0.954745 2.55234 0.00957046 44.5468C-0.513651 67.6107 20.5333 76.6 34.4915 86.0669C48.0261 95.2469 57.5673 107.651 59.0104 112.885C60.3961 107.804 71.4344 95.4123 84.233 86.6796C98.2284 77.13 119.799 69.4454 119.998 46.3764C120.366 4.26715 75.5577 -3.15752 60.1969 31.3295Z" fill="#AE242A"/>
<path fill-rule="evenodd" clip-rule="evenodd" d="M77.3788 78.7063C78.8894 85.6347 71.3296 87.1605 68.0013 86.2677C64.6729 85.3748 60.5513 83.9047 60.5513 83.9047C60.5513 83.9047 56.4094 85.4052 53.0793 86.3183C49.7493 87.2314 42.1862 85.7478 43.7019 78.8109C45.2175 71.874 47.2665 72.2284 49.7054 66.7988C52.1443 61.3691 55.1368 56.8846 60.58 56.6972C66.0232 56.5099 68.4199 60.3749 71.4225 66.7431C74.4251 73.1112 75.8766 71.7795 77.3788 78.7063ZM67.5591 52.0844C71.6554 53.2507 76.1821 50.0169 77.686 44.8589C79.1898 39.701 77.0783 34.5886 72.982 33.4223C68.8857 32.256 64.359 35.4899 62.8551 40.6461C61.3513 45.8024 63.4645 50.9181 67.5591 52.0844ZM84.5402 50.1603C80.5958 48.5687 75.7483 51.3013 73.7111 56.2719C71.674 61.2425 73.2183 66.5591 77.1644 68.1456C81.1105 69.7322 85.9562 67.0047 87.9917 62.0341C90.0272 57.0635 88.4846 51.7536 84.5402 50.1603ZM53.557 52.1249C57.655 50.9435 59.7665 45.8024 58.2829 40.6596C56.7993 35.5169 52.2675 32.31 48.1746 33.4999C44.0816 34.6898 41.9651 39.8242 43.4487 44.9652C44.9323 50.1063 49.459 53.3148 53.557 52.1249ZM43.9365 68.2418C47.8826 66.6266 49.4354 61.2999 47.4066 56.3478C45.3779 51.3958 40.5338 48.6835 36.586 50.3004C32.6383 51.9173 31.0872 57.2424 33.1159 62.1944C35.1447 67.1465 39.9887 69.8571 43.9365 68.2418V68.2418Z" fill="white"/>
</g>
<defs>
<clipPath id="clip0_77_82">
<rect width="120" height="120" fill="white"/>
</clipPath>
</defs>
</svg>
