<svg width="60" height="60" viewBox="0 0 60 60" fill="none" xmlns="http://www.w3.org/2000/svg">
<rect width="60" height="60" rx="30" fill="#A20000"/>
<path fill-rule="evenodd" clip-rule="evenodd" d="M29.2801 9.16865C28.8083 9.2924 28.504 9.4417 28.1581 9.71937C27.6236 10.1483 27.2945 10.6632 27.1208 11.3424C27.007 11.7876 26.999 12.2045 27.0948 12.7028C27.1846 13.1695 27.423 13.8206 27.6246 14.1498C27.8835 14.5724 28.2459 15.0003 28.532 15.221C29.0597 15.6281 29.5802 15.7997 30.1724 15.7616C30.4501 15.7438 30.6127 15.6989 30.9009 15.5603C31.3387 15.3497 31.8415 14.9089 32.1716 14.4464C32.434 14.0787 32.7285 13.4244 32.8597 12.9181C32.9805 12.4516 32.9819 11.6802 32.8626 11.2801C32.621 10.4697 32.0303 9.74017 31.3409 9.4009C30.6792 9.07528 29.9497 8.99303 29.2801 9.16865ZM30.822 10.1879C31.1968 10.3671 31.6322 10.7974 31.8013 11.156C31.8721 11.3061 31.9558 11.5715 31.9875 11.7458C32.0313 11.9878 32.0309 12.1454 31.9857 12.4138C31.8629 13.1414 31.5708 13.7419 31.0886 14.2572C30.7117 14.6602 30.3876 14.8291 29.9916 14.8291C29.6039 14.8291 29.2894 14.6657 28.8827 14.2529C28.6503 14.017 28.5058 13.8091 28.3415 13.4742C28.2182 13.223 28.0838 12.8842 28.0427 12.7215C27.9469 12.3423 27.947 11.7409 28.0429 11.418C28.2031 10.8785 28.7529 10.3376 29.3713 10.111C29.5715 10.0376 29.7328 10.0193 30.0775 10.0308C30.4478 10.0431 30.5752 10.07 30.822 10.1879ZM27.1433 15.7699C26.467 15.875 25.8851 16.1673 25.4101 16.6406C25.1466 16.9031 25.0106 17.0918 24.8554 17.4102C24.5303 18.0772 24.4857 18.3785 24.5031 19.7864L24.5181 20.9929L24.6574 21.1126L24.7967 21.2323H29.999H35.2014L35.3323 21.1015L35.4631 20.9706V19.6724C35.4631 18.2254 35.4353 18.0317 35.1418 17.4351C35.0477 17.244 34.8875 16.9871 34.7858 16.8642C34.3763 16.37 33.8169 16.0039 33.2272 15.8442C33.0783 15.8038 32.7107 15.7571 32.4104 15.7403C31.9853 15.7165 31.8257 15.7261 31.6894 15.7834C31.5501 15.8421 31.3648 16.0633 30.7796 16.8694C30.3755 17.4262 30.0223 17.8818 29.9949 17.8818C29.9674 17.8818 29.6281 17.4483 29.2407 16.9184C28.8534 16.3886 28.474 15.9083 28.3976 15.8512C28.2843 15.7666 28.179 15.7458 27.8278 15.7389C27.5909 15.7343 27.2829 15.7482 27.1433 15.7699ZM36.8474 15.8963C36.7761 15.935 36.6901 16.0334 36.6564 16.1148C36.6096 16.2279 36.6084 16.303 36.6516 16.4337C36.7011 16.5837 36.7824 16.6458 37.3141 16.9393C38.0749 17.3593 38.9228 17.9199 39.5333 18.4064C42.1993 20.5308 44.087 23.4118 44.9462 26.6676C45.1044 27.267 45.1909 27.3873 45.4638 27.3873C45.5535 27.3873 45.6851 27.3402 45.7598 27.2815C45.9888 27.1014 46.0031 26.9829 45.8604 26.4504C45.3423 24.5165 44.5726 22.8392 43.4658 21.2323C42.9072 20.4212 42.4195 19.8465 41.5453 18.9689C40.439 17.8584 39.6096 17.2033 38.3669 16.4584C37.6589 16.034 37.2311 15.8214 37.0902 15.8238C37.0279 15.8249 36.9187 15.8575 36.8474 15.8963ZM22.0115 16.2217C21.4769 16.5158 20.3276 17.2933 19.7778 17.7327C18.7722 18.5364 17.7367 19.5976 16.9683 20.6118C16.5628 21.1469 16.0301 21.9524 15.7146 22.5076C15.1829 23.4429 14.6054 24.786 14.2995 25.7989C14.1371 26.3366 13.9702 27.0564 13.9702 27.2193C13.9702 27.2924 14.0312 27.4063 14.1153 27.4904C14.2261 27.6012 14.3062 27.6355 14.4542 27.6355C14.7188 27.6355 14.8376 27.4948 14.9359 27.0647C15.0933 26.3761 15.4733 25.2237 15.763 24.5566C16.305 23.3083 16.8976 22.2817 17.6692 21.2545C18.4487 20.2166 19.3432 19.2941 20.3675 18.4717C20.9217 18.0268 21.9298 17.3405 22.4334 17.0654C22.8629 16.8307 22.9546 16.7332 22.9546 16.5109C22.9546 16.2685 22.791 16.0753 22.5575 16.0417C22.4188 16.0218 22.3085 16.0582 22.0115 16.2217ZM28.7895 17.879C29.2795 18.5463 29.7317 19.1159 29.7944 19.1447C29.9669 19.2241 30.1247 19.2081 30.2661 19.0969C30.3362 19.0417 30.7675 18.4811 31.2245 17.8511C31.6815 17.2211 32.0861 16.6938 32.1237 16.6793C32.1613 16.6649 32.3847 16.6779 32.62 16.7083C33.1607 16.7781 33.5931 16.975 33.9169 17.2988C34.052 17.4339 34.2327 17.6922 34.3268 17.8848L34.495 18.2293L34.5199 19.2593L34.5448 20.2893L29.9906 20.2893L25.4364 20.2892V19.431C25.4364 18.4892 25.4906 18.1686 25.7213 17.7446C25.873 17.4659 26.2962 17.0588 26.597 16.902C26.8534 16.7683 27.2649 16.6753 27.6231 16.6699L27.8988 16.6657L28.7895 17.879ZM28.4425 24.7738C28.3753 24.841 28.2728 25.0667 28.2003 25.3074C28.1312 25.5368 28.027 25.8831 27.9689 26.0771C27.8671 26.4172 27.8549 26.4337 27.6234 26.5421L27.3834 26.6545L26.6059 26.3508C26.1782 26.1837 25.7722 26.0471 25.7036 26.0471C25.635 26.0471 25.5388 26.0685 25.49 26.0947C25.4042 26.1405 23.8855 27.9947 23.7629 28.2031C23.7297 28.2595 23.7018 28.3771 23.7009 28.4644C23.6995 28.5904 23.8029 28.7602 24.1995 29.2834L24.6999 29.9436L24.6665 30.2122C24.6481 30.36 24.6168 30.525 24.5969 30.5788C24.5741 30.6404 24.2856 30.817 23.8196 31.0547C23.1529 31.3948 23.0733 31.4493 23.0253 31.5977C22.9805 31.7366 23.0129 31.9621 23.2308 33.0255C23.3731 33.72 23.5152 34.3191 23.5464 34.3567C23.65 34.4815 23.8656 34.5299 24.6568 34.6057C25.088 34.647 25.4619 34.6938 25.4876 34.7097C25.5134 34.7256 25.6009 34.8353 25.6822 34.9534L25.8299 35.1682L25.7324 35.965C25.6303 36.7987 25.6432 36.9615 25.8193 37.0669C25.8681 37.0961 26.3994 37.3561 27 37.6448C27.7625 38.0113 28.1503 38.1715 28.2853 38.1758C28.4699 38.1818 28.5033 38.1561 29.0298 37.6041L29.5811 37.026L29.9618 37.0008L30.3425 36.9755L30.9021 37.5481C31.2098 37.8631 31.5226 38.142 31.5972 38.168C31.7512 38.2217 31.9203 38.154 33.338 37.4714C33.9045 37.1986 34.1931 37.0316 34.2512 36.943C34.3314 36.8206 34.3312 36.7671 34.2478 35.9827L34.1596 35.1519L34.322 34.9216C34.504 34.6633 34.4352 34.6826 35.5325 34.5815C35.8573 34.5515 36.17 34.509 36.2274 34.4871C36.2848 34.4651 36.3683 34.4055 36.413 34.3546C36.4623 34.2984 36.5937 33.7882 36.748 33.0544C36.8876 32.3902 37.0019 31.8049 37.0019 31.7538C37.0019 31.5006 36.8942 31.4117 36.1342 31.0369L35.3818 30.6659L35.3272 30.3129L35.2726 29.9598L35.7898 29.2797C36.136 28.8244 36.3069 28.5574 36.3069 28.472C36.3069 28.4017 36.2513 28.2624 36.1834 28.1622C36.0018 27.8947 34.6715 26.2354 34.5572 26.134C34.5034 26.0862 34.3878 26.0471 34.3003 26.0471C34.2128 26.0471 33.8077 26.181 33.3999 26.3448C32.9922 26.5085 32.6335 26.6425 32.6028 26.6426C32.5721 26.6426 32.4474 26.587 32.3256 26.519L32.1042 26.3953L31.8923 25.6628C31.7402 25.1372 31.6441 24.8917 31.5521 24.7938L31.4239 24.6573H29.9915H28.559L28.4425 24.7738ZM31.01 26.0099C31.0789 26.2351 31.1702 26.5433 31.2129 26.6947C31.2556 26.8461 31.3414 27.0168 31.4037 27.074C31.5759 27.2321 32.4043 27.6355 32.5569 27.6355C32.631 27.6355 33.0029 27.5109 33.3835 27.3587C33.764 27.2065 34.0947 27.0892 34.1183 27.0981C34.1719 27.1183 35.2149 28.4073 35.2149 28.4534C35.2149 28.4718 35.0139 28.754 34.7682 29.0803C34.392 29.5801 34.3215 29.7029 34.3216 29.8583C34.3217 30.1387 34.5176 31.1202 34.5986 31.2456C34.6378 31.3066 34.9657 31.5043 35.3271 31.685C35.6886 31.8657 35.9883 32.0171 35.9931 32.0215C36.0096 32.0363 35.6824 33.5878 35.6575 33.6126C35.644 33.6261 35.321 33.6638 34.9399 33.6963C34.5588 33.7287 34.1759 33.7838 34.089 33.8186C33.9823 33.8614 33.8201 34.0324 33.5897 34.345C33.402 34.5997 33.2326 34.8499 33.2133 34.9012C33.1939 34.9524 33.2111 35.2428 33.2515 35.5464C33.2919 35.8501 33.3313 36.1717 33.3392 36.261L33.3535 36.4234L32.6001 36.7899L31.8467 37.1563L31.3075 36.6117L30.7684 36.0671L30.1475 36.041C29.7696 36.0251 29.4481 36.0361 29.3259 36.069C29.165 36.1124 29.03 36.2257 28.6453 36.6406L28.1654 37.1581L27.4338 36.809C27.0314 36.617 26.6854 36.4445 26.665 36.4257C26.6446 36.407 26.6611 36.1247 26.7018 35.7984C26.7425 35.4721 26.776 35.1296 26.7762 35.0373C26.7765 34.908 26.6955 34.7566 26.4235 34.3783C26.2294 34.1083 26.0233 33.862 25.9656 33.8311C25.908 33.8003 25.526 33.7447 25.1169 33.7077C24.7077 33.6707 24.3575 33.6239 24.3384 33.6037C24.3018 33.5648 23.9969 32.1992 23.9969 32.0737C23.9969 32.0279 24.253 31.8747 24.6696 31.6716C25.185 31.4202 25.3593 31.3105 25.4151 31.2026C25.5074 31.024 25.7016 29.8939 25.6649 29.748C25.6499 29.6878 25.4363 29.3739 25.1905 29.0504C24.9193 28.6936 24.7594 28.4412 24.784 28.4087C25.136 27.9434 25.8491 27.0895 25.8856 27.0895C25.9121 27.0895 26.2398 27.2123 26.614 27.3625C26.9882 27.5126 27.3621 27.6349 27.4449 27.6343C27.5283 27.6336 27.8173 27.5172 28.092 27.3735C28.6691 27.0718 28.6717 27.068 28.9206 26.1842L29.0847 25.6016L29.9848 25.601L30.8848 25.6004L31.01 26.0099ZM29.6059 28.7298C29.2278 28.7884 28.7897 28.9476 28.5069 29.1291C28.1817 29.3378 27.7782 29.785 27.5808 30.1555C27.4908 30.3245 27.3851 30.6141 27.3459 30.7989C27.1379 31.7807 27.3824 32.6096 28.0905 33.3231C28.3247 33.5591 28.5455 33.726 28.7621 33.8307C29.5842 34.2286 30.3754 34.2385 31.1736 33.8608C31.8082 33.5606 32.3468 32.9514 32.5562 32.2971C32.7304 31.7525 32.7565 31.4079 32.659 30.9364C32.397 29.6692 31.4537 28.8161 30.2016 28.7138C30.0241 28.6993 29.7561 28.7065 29.6059 28.7298ZM30.4264 29.6979C31.8244 30.062 32.2426 31.7675 31.1714 32.7357C31.0338 32.86 30.8208 33.0085 30.6979 33.0658C30.5204 33.1486 30.3778 33.17 30.003 33.17C29.5824 33.17 29.4996 33.1544 29.2363 33.0251C28.8765 32.8484 28.5664 32.5473 28.3807 32.1941C28.2565 31.9578 28.2414 31.878 28.2412 31.4575C28.241 31.0424 28.258 30.949 28.3839 30.6766C28.5342 30.351 28.8634 29.9982 29.1638 29.8408C29.3605 29.7376 29.7633 29.6312 29.9802 29.6252C30.0632 29.6229 30.264 29.6556 30.4264 29.6979ZM14.7309 29.8157C14.3256 29.9257 14.1605 30.0037 13.7648 30.2716C13.4087 30.5126 13.0741 30.8949 12.8581 31.3075C12.6009 31.7989 12.5187 32.1433 12.5215 32.7189C12.5244 33.3193 12.6403 33.8092 12.9213 34.4088C13.1505 34.8979 13.3286 35.167 13.6724 35.5431C13.9931 35.8941 14.3887 36.1559 14.8301 36.3094C15.1148 36.4084 15.2526 36.4276 15.5797 36.4135C15.9169 36.399 16.0397 36.3679 16.3528 36.2177C16.5576 36.1196 16.8526 35.9349 17.0084 35.8073C17.5524 35.362 18.0295 34.608 18.2687 33.8153C18.3825 33.4383 18.4043 33.2718 18.4082 32.7481C18.4121 32.218 18.3956 32.0771 18.2949 31.7802C18.1551 31.3677 18.0546 31.1893 17.7296 30.7751C17.4356 30.4007 16.8665 30.0096 16.4025 29.8633C16.2027 29.8003 15.8909 29.7535 15.5835 29.7402C15.1959 29.7237 15.009 29.7402 14.7309 29.8157ZM43.8518 29.7944C43.1235 29.9588 42.4162 30.4551 42.0255 31.0758C41.777 31.4705 41.643 31.8344 41.5708 32.3105C41.4708 32.9706 41.6344 33.7798 42.0257 34.5597C42.4786 35.4626 43.1593 36.1 43.916 36.3298C44.1819 36.4106 44.3448 36.4284 44.6523 36.4106C44.9961 36.3908 45.1027 36.3596 45.4762 36.1702C45.7833 36.0146 45.9997 35.8583 46.237 35.621C46.6222 35.2358 46.981 34.6849 47.1791 34.1744C47.2558 33.9769 47.3565 33.6143 47.4029 33.3686C47.5528 32.5736 47.4295 31.8198 47.0422 31.1656C46.6861 30.5637 46.1033 30.0919 45.4402 29.8685C45.0216 29.7274 44.2976 29.6937 43.8518 29.7944ZM16.2702 30.8265C16.6555 31.0035 16.8968 31.2012 17.1142 31.5182C17.366 31.8854 17.4945 32.2916 17.4945 32.7206C17.4945 33.1877 17.3933 33.5679 17.1214 34.1222C16.955 34.4614 16.8123 34.6653 16.5633 34.9195C16.3793 35.1074 16.1394 35.3029 16.0302 35.3541C15.921 35.4052 15.7024 35.4568 15.5445 35.4687C15.1103 35.5014 14.8639 35.385 14.4132 34.9344C14.1228 34.644 13.9876 34.4591 13.8293 34.1363C13.5385 33.5431 13.459 33.1853 13.483 32.5774C13.4997 32.1539 13.5237 32.0365 13.6405 31.805C13.8842 31.322 14.3213 30.9522 14.8879 30.7498C15.0724 30.6838 15.2457 30.665 15.5586 30.6771C15.8874 30.6899 16.0445 30.7229 16.2702 30.8265ZM45.3466 30.8487C45.7593 31.052 46.1383 31.4464 46.3447 31.8876C46.6266 32.49 46.5825 33.2205 46.217 34.0049C46.1256 34.2009 45.9457 34.5 45.8173 34.6695C45.4062 35.212 44.974 35.476 44.4971 35.476C44.3382 35.476 44.1402 35.4379 44.0237 35.3849C43.7369 35.2547 43.2452 34.7808 43.0094 34.4074C42.8981 34.2312 42.7374 33.8808 42.6521 33.6286C42.5273 33.2591 42.4962 33.0832 42.492 32.7233C42.4877 32.3631 42.5099 32.2156 42.6061 31.9619C42.7452 31.5953 43.1032 31.1748 43.4482 30.9726C43.8584 30.7322 44.1348 30.6607 44.5976 30.675C44.9588 30.6862 45.0685 30.7117 45.3466 30.8487ZM12.6457 36.4189C12.1858 36.491 11.7062 36.6641 11.4005 36.8683C10.9671 37.1577 10.5307 37.6466 10.3261 38.0721C10.0375 38.6721 10.0008 38.9235 10 40.3086C9.99928 41.5589 10.0149 41.6805 10.1935 41.8177C10.2543 41.8643 11.4636 41.8786 15.4756 41.8797L20.6789 41.8813L20.824 41.7362L20.9691 41.5912V40.3543C20.9691 39.2859 20.9558 39.0655 20.8712 38.7348C20.7504 38.2624 20.495 37.7675 20.1951 37.4247C19.9143 37.1037 19.4425 36.7619 19.0818 36.6183C18.4821 36.3794 17.4722 36.296 17.1472 36.4586C17.0196 36.5224 16.7823 36.8075 16.2516 37.5347C15.8545 38.0788 15.5082 38.5298 15.482 38.537C15.4559 38.5442 15.1107 38.1036 14.7148 37.5578C14.3189 37.0121 13.9392 36.5288 13.871 36.4837C13.7848 36.4267 13.6181 36.3982 13.325 36.3901C13.0929 36.3837 12.7872 36.3967 12.6457 36.4189ZM41.6757 36.425C41.3336 36.4694 40.9491 36.5831 40.6737 36.7212C40.3664 36.8754 39.912 37.2498 39.7016 37.5222C39.2592 38.0951 39.0399 38.744 39.0228 39.5315C39.0169 39.8001 39.0177 40.3799 39.0246 40.8198C39.0368 41.6104 39.0385 41.6211 39.1678 41.7505L39.2987 41.8813H44.5011H49.7034L49.8427 41.7616L49.982 41.6419L49.997 40.4618C50.0146 39.0814 49.9617 38.7083 49.66 38.0841C49.5544 37.8657 49.3541 37.5599 49.2148 37.4045C48.9026 37.0562 48.3937 36.7121 47.9894 36.576C47.5676 36.4341 47.0305 36.3582 46.6014 36.3798C46.3332 36.3934 46.2034 36.4248 46.1004 36.5011C46.0239 36.5578 45.6468 37.0364 45.2624 37.5647C44.8779 38.093 44.5429 38.5312 44.5178 38.5384C44.4927 38.5456 44.1412 38.0963 43.7367 37.54C43.1058 36.6725 42.9732 36.5174 42.805 36.4501C42.5948 36.366 42.1985 36.3572 41.6757 36.425ZM14.1936 38.4165C14.6304 39.0195 15.0574 39.5878 15.1426 39.6795C15.2649 39.8113 15.3362 39.8462 15.4826 39.8462C15.6272 39.8462 15.7021 39.8104 15.8242 39.6831C15.9102 39.5934 16.3379 39.0239 16.7747 38.4176C17.6677 37.178 17.5421 37.2697 18.2127 37.3667C18.4029 37.3942 18.6766 37.4707 18.8209 37.5367C19.1661 37.6948 19.5797 38.0919 19.7672 38.4453C19.8501 38.6016 19.9434 38.8634 19.9746 39.0272C20.0074 39.1999 20.0249 39.6692 20.0162 40.144L20.0012 40.963H15.4903C12.5259 40.963 10.9744 40.946 10.9648 40.9134C10.9184 40.756 10.9035 39.5322 10.9439 39.2099C11.0335 38.496 11.4363 37.9122 12.0734 37.5726C12.4203 37.3877 12.6709 37.3268 13.1016 37.3229L13.3994 37.3201L14.1936 38.4165ZM43.267 38.4812C43.7258 39.1091 44.1581 39.6731 44.2275 39.7345C44.4057 39.8923 44.6476 39.8822 44.8273 39.7097C44.9056 39.6346 45.3359 39.0651 45.7836 38.444C46.5855 37.3316 46.6003 37.3147 46.7759 37.3151C47.1248 37.3158 47.602 37.422 47.9039 37.5661C48.2674 37.7396 48.6755 38.1585 48.8488 38.5361C48.9128 38.6755 48.9879 38.9125 49.0157 39.0629C49.0435 39.2132 49.06 39.7018 49.0525 40.1485L49.0389 40.9607L44.5015 40.9619L39.9642 40.963L39.9477 40.197C39.9386 39.7757 39.9526 39.2983 39.9787 39.136C40.0874 38.4612 40.5439 37.838 41.144 37.5453C41.4761 37.3833 41.7736 37.321 42.1619 37.3319L42.4326 37.3395L43.267 38.4812ZM21.9759 43.9051C21.8169 43.9308 21.6144 44.1933 21.6144 44.3736C21.6144 44.6006 21.8495 44.7873 22.6121 45.1656C24.1256 45.9164 25.6057 46.4007 27.2738 46.6911C28.8757 46.9699 30.6983 46.9973 32.2863 46.7666C33.4156 46.6025 34.6264 46.2904 35.7404 45.8763C36.5507 45.5751 37.7642 45.006 37.9317 44.8487C38.0114 44.7738 38.0442 44.6864 38.0442 44.5493C38.0442 44.4014 38.0099 44.3212 37.8991 44.2104C37.8052 44.1166 37.7031 44.0654 37.6096 44.0654C37.5301 44.0654 37.2942 44.1554 37.0852 44.2655C36.1385 44.7643 34.8886 45.2244 33.6514 45.5294C32.3239 45.8567 31.1457 45.9746 29.5811 45.9367C28.0675 45.9 27.0904 45.7581 25.7666 45.3828C24.661 45.0693 23.9449 44.788 22.8553 44.2393C22.514 44.0674 22.2013 43.9179 22.1604 43.907C22.1194 43.8961 22.0364 43.8953 21.9759 43.9051Z" fill="white"/>
</svg>
