<svg width="60" height="60" viewBox="0 0 60 60" fill="none" xmlns="http://www.w3.org/2000/svg">
<rect width="60" height="60" rx="30" fill="#A20000"/>
<path d="M45.1249 19.5139C45.1526 19.517 45.1803 19.5185 45.2079 19.5185C45.4055 19.5185 45.5966 19.4402 45.738 19.2989L49.7806 15.2563C49.9863 15.0506 50.0545 14.7445 49.9554 14.4709C49.8563 14.1973 49.608 14.0057 49.3183 13.9794L46.2955 13.7046L46.0206 10.6819C45.9944 10.3922 45.8027 10.1438 45.5292 10.0448C45.2556 9.94576 44.9495 10.0139 44.7437 10.2196L40.7011 14.2623C40.54 14.4233 40.4608 14.6489 40.4861 14.8753L40.8439 18.0959L40.0868 18.8529C37.2909 16.2953 33.6237 14.676 29.5882 14.4966V13.073C29.5882 12.6589 29.2525 12.3232 28.8384 12.3232C28.4243 12.3232 28.0886 12.6589 28.0886 13.073V14.4964C19.4851 14.8789 12.5558 21.8082 12.1732 30.4118H10.7498C10.3357 30.4118 10 30.7475 10 31.1616C10 31.5757 10.3357 31.9114 10.7498 31.9114H12.1732C12.5558 40.515 19.4851 47.4442 28.0886 47.8268V49.2502C28.0886 49.6643 28.4243 50 28.8384 50C29.2525 50 29.5882 49.6643 29.5882 49.2502V47.8268C38.1917 47.4443 45.121 40.515 45.5036 31.9114H46.927C47.3411 31.9114 47.6768 31.5757 47.6768 31.1616C47.6768 30.7475 47.3411 30.4118 46.927 30.4118H45.5036C45.3242 26.3763 43.7049 22.7091 41.1474 19.913L41.9044 19.156L45.1249 19.5139ZM44.6722 12.4119L44.8587 14.4627C44.8915 14.8231 45.177 15.1087 45.5375 15.1415L47.5883 15.3279L44.9323 17.9838L42.3079 17.6922L42.0164 15.0678L44.6722 12.4119ZM44.003 30.4118H42.9467C42.5326 30.4118 42.1969 30.7475 42.1969 31.1616C42.1969 31.5757 42.5326 31.9114 42.9467 31.9114H44.003C43.6229 39.6881 37.3649 45.9461 29.5882 46.3261V45.2699C29.5882 44.8558 29.2525 44.5201 28.8385 44.5201C28.4244 44.5201 28.0887 44.8558 28.0887 45.2699V46.3261C20.3119 45.9462 14.0539 39.6881 13.6739 31.9114H14.7302C15.1443 31.9114 15.48 31.5757 15.48 31.1617C15.48 30.7476 15.1443 30.4119 14.7302 30.4119H13.6739C14.0539 22.6353 20.3119 16.3771 28.0886 15.9971V17.0534C28.0886 17.4675 28.4243 17.8032 28.8384 17.8032C29.2525 17.8032 29.5882 17.4675 29.5882 17.0534V15.9971C33.2105 16.1742 36.5033 17.6264 39.0261 19.9136L36.77 22.1697C34.6541 20.301 31.8766 19.165 28.8383 19.165C22.2234 19.165 16.8417 24.5466 16.8417 31.1617C16.8417 37.7767 22.2234 43.1583 28.8383 43.1583C35.4533 43.1583 40.835 37.7767 40.835 31.1617C40.835 28.1235 39.699 25.3459 37.8305 23.2299L40.0866 20.9738C42.3738 23.4967 43.826 26.7895 44.003 30.4118ZM28.3082 31.6918C28.4547 31.8382 28.6465 31.9114 28.8384 31.9114C29.0303 31.9114 29.2222 31.8382 29.3686 31.6918L33.4405 27.6199C34.1973 28.6012 34.6492 29.8294 34.6492 31.1617C34.6492 34.3658 32.0425 36.9726 28.8383 36.9726C25.6342 36.9726 23.0274 34.3658 23.0274 31.1617C23.0274 27.9575 25.6342 25.3508 28.8383 25.3508C30.1706 25.3508 31.3987 25.8027 32.3801 26.5595L28.3082 30.6314C28.0155 30.9243 28.0155 31.399 28.3082 31.6918ZM28.8385 23.8513C24.8074 23.8513 21.528 27.1308 21.528 31.1618C21.528 35.1927 24.8074 38.4722 28.8385 38.4722C32.8695 38.4722 36.1489 35.1927 36.1489 31.1618C36.1489 29.4158 35.5329 27.8114 34.5078 26.5528L36.7689 24.2917C38.3671 26.1341 39.3356 28.5369 39.3356 31.1617C39.3356 36.9498 34.6266 41.6587 28.8386 41.6587C23.0505 41.6587 18.3415 36.9498 18.3415 31.1617C18.3415 25.3736 23.0505 20.6646 28.8386 20.6646C31.4633 20.6646 33.8662 21.633 35.7086 23.2312L33.4475 25.4924C32.1888 24.4673 30.5845 23.8513 28.8385 23.8513Z" fill="white"/>
</svg>
