<svg width="60" height="60" viewBox="0 0 60 60" fill="none" xmlns="http://www.w3.org/2000/svg">
<rect width="60" height="60" rx="30" fill="#A20000"/>
<path d="M46.3357 13.7808H13.6643C13.0223 13.7808 12.5 14.3032 12.5 14.9451V42.4579C12.5 43.0999 13.0223 43.6222 13.6643 43.6222H26.35V45.6804C26.35 46.0498 26.5351 46.1649 26.6455 46.2005C26.756 46.2361 26.9733 46.2513 27.1897 45.9517L29.9589 42.115C29.9797 42.0862 29.9966 42.0774 29.9992 42.0766C30.0035 42.0774 30.0204 42.0862 30.0412 42.115L32.8105 45.9518C32.9651 46.1658 33.1202 46.2192 33.2365 46.2192C33.2828 46.2192 33.323 46.2106 33.3545 46.2005C33.4649 46.1648 33.65 46.0498 33.65 45.6803V43.6222H46.3357C46.9777 43.6222 47.5 43.0998 47.5 42.4578V14.9451C47.5 14.3032 46.9777 13.7808 46.3357 13.7808ZM27.3877 37.8911C27.3102 37.8911 27.2408 37.8808 27.1757 37.8598C26.791 37.7348 26.5259 37.2511 26.2452 36.7388C25.9989 36.2895 25.7442 35.8249 25.3646 35.5487C24.9797 35.2686 24.4549 35.1682 23.9473 35.071C23.3782 34.9621 22.8406 34.8592 22.6073 34.5386C22.378 34.2234 22.4449 33.6841 22.5158 33.1132C22.5798 32.5972 22.646 32.0638 22.4971 31.6053C22.3549 31.1672 21.9959 30.7863 21.6489 30.4181C21.2623 30.008 20.8627 29.584 20.8627 29.1673C20.8627 28.7506 21.2624 28.3265 21.6489 27.9164C21.996 27.5481 22.3549 27.1674 22.4971 26.7293C22.646 26.2709 22.5798 25.7374 22.5158 25.2214C22.4449 24.6505 22.3781 24.1112 22.6073 23.7961C22.8406 23.4755 23.3782 23.3726 23.9473 23.2636C24.4549 23.1664 24.9797 23.066 25.3647 22.7858C25.7442 22.5096 25.9988 22.045 26.2451 21.5958C26.5257 21.0837 26.7909 20.5999 27.1757 20.4749C27.2408 20.4538 27.3102 20.4435 27.3877 20.4435C27.7184 20.4435 28.1159 20.6296 28.5366 20.8266C29.0136 21.0499 29.5069 21.2807 29.9999 21.2807C30.4929 21.2807 30.9862 21.0499 31.4632 20.8266C31.884 20.6296 32.2815 20.4435 32.6122 20.4435C32.6897 20.4435 32.759 20.4539 32.8241 20.4749C33.2089 20.5999 33.474 21.0836 33.7547 21.5958C34.001 22.0451 34.2556 22.5097 34.6352 22.7859C35.0201 23.066 35.545 23.1665 36.0526 23.2637C36.6216 23.3726 37.1591 23.4755 37.3925 23.7962C37.6218 24.1112 37.5549 24.6505 37.4841 25.2215C37.4201 25.7374 37.3539 26.2709 37.5027 26.7293C37.6449 27.1674 38.0039 27.5482 38.351 27.9164C38.7376 28.3265 39.1372 28.7507 39.1372 29.1673C39.1372 29.5841 38.7375 30.0082 38.3509 30.4183C38.0039 30.7865 37.645 31.1673 37.5027 31.6053C37.3539 32.0637 37.4201 32.5973 37.4842 33.1131C37.555 33.6841 37.6219 34.2234 37.3926 34.5386C37.1593 34.8592 36.6218 34.9621 36.0527 35.071C35.5451 35.1682 35.0201 35.2687 34.6352 35.5488C34.2557 35.825 34.001 36.2896 33.7548 36.7388C33.474 37.251 33.2089 37.7347 32.8242 37.8598C32.759 37.8809 32.6897 37.8911 32.6122 37.8911C32.2815 37.8911 31.884 37.7051 31.4632 37.5081C30.9862 37.2848 30.493 37.054 29.9999 37.054C29.5069 37.054 29.0137 37.2848 28.5367 37.5081C28.1159 37.7051 27.7184 37.8911 27.3877 37.8911ZM33.65 38.0094C33.9026 37.7349 34.0979 37.3801 34.2889 37.0315C34.503 36.641 34.7244 36.2371 34.9937 36.0412C35.2686 35.8412 35.7254 35.7537 36.1673 35.6692C36.8275 35.5428 37.5102 35.4121 37.8851 34.897C38.256 34.3873 38.1709 33.7014 38.0886 33.0382C38.0328 32.5884 37.9751 32.1231 38.0821 31.7935C38.1821 31.4855 38.4795 31.1701 38.7942 30.8361C39.2623 30.3395 39.7463 29.826 39.7463 29.1674C39.7463 28.509 39.2623 27.9954 38.7943 27.4988C38.4795 27.1648 38.1821 26.8493 38.0821 26.5413C37.975 26.2115 38.0328 25.7464 38.0886 25.2966C38.1709 24.6334 38.256 23.9476 37.8851 23.4379C37.5102 22.9227 36.8274 22.792 36.1672 22.6657C35.7253 22.581 35.2685 22.4936 34.9937 22.2937C34.7243 22.0976 34.503 21.6938 34.2889 21.3032C33.9635 20.7095 33.627 20.0955 33.0123 19.8959C32.8873 19.8553 32.7527 19.8347 32.6123 19.8347C32.1461 19.8347 31.6677 20.0586 31.2051 20.2752C30.7884 20.4702 30.3576 20.6718 30 20.6718C29.6425 20.6718 29.2117 20.4702 28.795 20.2752C28.3324 20.0586 27.854 19.8347 27.3878 19.8347C27.2474 19.8347 27.1128 19.8553 26.9877 19.8959C26.3731 20.0954 26.0366 20.7094 25.7111 21.3033C25.4971 21.6938 25.2758 22.0976 25.0064 22.2937C24.7317 22.4936 24.2747 22.581 23.8329 22.6656C23.1727 22.792 22.49 22.9227 22.115 23.4379C21.7442 23.9475 21.8292 24.6334 21.9115 25.2965C21.9674 25.7464 22.0251 26.2115 21.918 26.5413C21.818 26.8493 21.5207 27.1648 21.2058 27.4988C20.7378 27.9954 20.2538 28.5089 20.2538 29.1674C20.2538 29.8258 20.7377 30.3393 21.2058 30.8359C21.5206 31.1699 21.818 31.4854 21.918 31.7935C22.025 32.1232 21.9673 32.5884 21.9115 33.0383C21.8293 33.7015 21.7442 34.3872 22.115 34.8969C22.4899 35.4121 23.1727 35.5428 23.8329 35.6692C24.2748 35.7538 24.7317 35.8411 25.0064 36.0411C25.2758 36.2371 25.4972 36.641 25.7112 37.0315C25.9022 37.38 26.0975 37.7349 26.3501 38.0094V40.6721H13.109V21.9362H19.009C19.1772 21.9362 19.3135 21.7999 19.3135 21.6317C19.3135 21.4634 19.1772 21.3271 19.009 21.3271H13.109V18.5676H46.891V37.8786H39.8595C39.6914 37.8786 39.555 38.0149 39.555 38.1831C39.555 38.3514 39.6914 38.4876 39.8595 38.4876H46.891V40.6721H33.65V38.0094ZM13.6643 14.3898H46.3357C46.6418 14.3898 46.891 14.6389 46.891 14.9451V16.024H24.6875C24.5193 16.024 24.3829 16.1603 24.3829 16.3285C24.3829 16.4968 24.5193 16.6331 24.6875 16.6331H46.891V17.9586H13.109V14.9451C13.109 14.6389 13.3582 14.3898 13.6643 14.3898ZM13.6643 43.0132C13.3582 43.0132 13.109 42.7641 13.109 42.4579V41.2811H26.35V43.0132H13.6643ZM30.5349 41.7585C30.4015 41.5737 30.2065 41.4676 30 41.4676C29.7935 41.4676 29.5984 41.5737 29.465 41.7585L26.9591 45.2304V38.4281C26.9688 38.4315 26.9779 38.4356 26.9877 38.4388C27.1127 38.4795 27.2473 38.5 27.3878 38.5C27.4547 38.5 27.5219 38.4949 27.5893 38.4864V40.9774C27.5893 41.1457 27.7256 41.282 27.8938 41.282C28.0619 41.282 28.1983 41.1457 28.1983 40.9774V38.322C28.3986 38.245 28.5982 38.1517 28.7949 38.0597C29.2116 37.8646 29.6424 37.663 30 37.663C30.3576 37.663 30.7884 37.8647 31.2051 38.0597C31.6677 38.2762 32.1461 38.5001 32.6122 38.5001C32.7527 38.5001 32.8872 38.4795 33.0123 38.4389C33.0221 38.4357 33.0312 38.4315 33.0408 38.4282V45.2304L30.5349 41.7585ZM46.3357 43.0132H33.65V41.2811H46.891V42.4579C46.891 42.7641 46.6418 43.0132 46.3357 43.0132Z" fill="white" stroke="white" stroke-width="0.6"/>
<path d="M15.2296 17.2781C15.8322 17.2781 16.3223 16.788 16.3223 16.1855C16.3223 15.5829 15.8322 15.0928 15.2296 15.0928C14.6271 15.0928 14.137 15.5829 14.137 16.1855C14.137 16.788 14.6271 17.2781 15.2296 17.2781ZM15.2296 15.7018C15.4963 15.7018 15.7133 15.9188 15.7133 16.1855C15.7133 16.4521 15.4963 16.6691 15.2296 16.6691C14.963 16.6691 14.746 16.4521 14.746 16.1855C14.746 15.9188 14.963 15.7018 15.2296 15.7018Z" fill="white" stroke="white" stroke-width="0.6"/>
<path d="M18.2746 17.2781C18.8771 17.2781 19.3672 16.788 19.3672 16.1855C19.3672 15.5829 18.8771 15.0928 18.2746 15.0928C17.6721 15.0928 17.1819 15.5829 17.1819 16.1855C17.1819 16.788 17.6721 17.2781 18.2746 17.2781ZM18.2746 15.7018C18.5413 15.7018 18.7582 15.9188 18.7582 16.1855C18.7582 16.4521 18.5413 16.6691 18.2746 16.6691C18.0079 16.6691 17.7909 16.4521 17.7909 16.1855C17.7909 15.9188 18.0079 15.7018 18.2746 15.7018Z" fill="white" stroke="white" stroke-width="0.6"/>
<path d="M21.3197 17.2781C21.9222 17.2781 22.4124 16.788 22.4124 16.1855C22.4124 15.5829 21.9222 15.0928 21.3197 15.0928C20.7172 15.0928 20.2271 15.5829 20.2271 16.1855C20.2271 16.788 20.7172 17.2781 21.3197 17.2781ZM21.3197 15.7018C21.5864 15.7018 21.8034 15.9188 21.8034 16.1855C21.8034 16.4521 21.5864 16.6691 21.3197 16.6691C21.053 16.6691 20.8361 16.4521 20.8361 16.1855C20.8361 15.9188 21.053 15.7018 21.3197 15.7018Z" fill="white" stroke="white" stroke-width="0.6"/>
<path d="M36.6825 29.1672C36.6825 25.4825 33.6848 22.4849 30 22.4849C26.3153 22.4849 23.3176 25.4825 23.3176 29.1672C23.3176 32.8519 26.3153 35.8497 30 35.8497C33.6848 35.8497 36.6825 32.8519 36.6825 29.1672ZM23.9267 29.1672C23.9267 25.8184 26.6512 23.0939 30.0001 23.0939C33.349 23.0939 36.0735 25.8184 36.0735 29.1672C36.0735 32.5161 33.349 35.2407 30.0001 35.2407C26.6512 35.2407 23.9267 32.5161 23.9267 29.1672Z" fill="white" stroke="white" stroke-width="0.6"/>
<path d="M34.4764 29.1673C34.4764 26.6991 32.4683 24.6909 29.9999 24.6909C27.5315 24.6909 25.5234 26.699 25.5234 29.1673C25.5234 31.6356 27.5315 33.6438 29.9999 33.6439C32.4683 33.6438 34.4764 31.6356 34.4764 29.1673ZM26.8409 31.3942H29.255C29.4232 31.3942 29.5596 31.2579 29.5596 31.0897C29.5596 30.9214 29.4232 30.7851 29.255 30.7851H26.4884C26.2803 30.3352 26.1562 29.839 26.1362 29.3163H30.5447C30.7129 29.3163 30.8492 29.18 30.8492 29.0118C30.8492 28.8435 30.7129 28.7073 30.5447 28.7073H26.1607C26.3891 26.791 28.0231 25.3 29.9999 25.3C31.1617 25.3 32.2047 25.8156 32.9143 26.6294H30.0432C29.875 26.6294 29.7387 26.7657 29.7387 26.9339C29.7387 27.1021 29.875 27.2384 30.0432 27.2384H33.3498C33.6783 27.8067 33.8673 28.4651 33.8673 29.1673C33.8673 31.2999 32.1324 33.0349 29.9999 33.0349C28.6962 33.0347 27.5419 32.3856 26.8409 31.3942Z" fill="white" stroke="white" stroke-width="0.6"/>
</svg>
