<svg width="60" height="60" viewBox="0 0 60 60" fill="none" xmlns="http://www.w3.org/2000/svg">
<rect width="60" height="60" rx="30" fill="#A20000"/>
<path d="M29.9999 37.2368C29.0559 37.2368 28.2878 38.0048 28.2878 38.9488C28.2878 39.8929 29.0559 40.6609 29.9999 40.6609C30.944 40.6609 31.712 39.8929 31.712 38.9488C31.712 38.0048 30.944 37.2368 29.9999 37.2368ZM29.9999 39.968C29.438 39.968 28.9807 39.5108 28.9807 38.9488C28.9807 38.3869 29.438 37.9297 29.9999 37.9297C30.5619 37.9297 31.0191 38.3869 31.0191 38.9488C31.0191 39.5108 30.562 39.968 29.9999 39.968Z" fill="white" stroke="white" stroke-width="0.6"/>
<path d="M44.6805 17.2304H34.3735C33.4962 13.7351 32.0034 11.0759 30.1699 10.0445C30.0645 9.98516 29.9357 9.98516 29.8303 10.0445C27.9968 11.0759 26.5039 13.735 25.6267 17.2304H15.3196C13.9991 17.2304 12.9248 18.3048 12.9248 19.6253V40.7156C12.9248 42.0362 13.9991 43.1105 15.3196 43.1105H25.5416L24.3822 46.4244H24.2704C23.2468 46.4244 22.414 47.2573 22.414 48.2811V49.6536C22.414 49.8449 22.5691 50 22.7605 50H37.2395C37.4308 50 37.5859 49.8449 37.5859 49.6536V48.2811C37.5859 47.2573 36.7531 46.4244 35.7293 46.4244H35.6176L34.4583 43.1105H44.6804C46.0009 43.1105 47.0752 42.0362 47.0752 40.7156V19.6253C47.0753 18.3047 46.001 17.2304 44.6805 17.2304ZM44.6805 17.9233C45.6189 17.9233 46.3824 18.6868 46.3824 19.6253V22.1844H40.2371C40.0458 22.1844 39.8907 22.3395 39.8907 22.5309C39.8907 22.7222 40.0458 22.8773 40.2371 22.8773H46.3824V35.3341H44.8787C44.8007 34.5654 44.4592 33.8403 43.9116 33.2898C43.8512 32.0215 43.0485 30.9115 41.8629 30.4571C41.3157 29.4025 40.2166 28.729 39.0221 28.7289C38.6969 28.7289 38.3791 28.778 38.0728 28.8735C37.5349 27.1148 36.5688 25.5069 35.227 24.1715C35.2011 21.9474 34.9577 19.8257 34.5372 17.9232H44.6805V17.9233ZM24.7774 25.1767C24.8097 27.0109 24.9881 28.7874 25.3092 30.4686C24.8444 31.1277 24.5151 31.8883 24.3615 32.7105H22.1387C22.1294 32.5327 22.125 32.3694 22.125 32.2107C22.1249 29.5885 23.0613 27.1214 24.7774 25.1767ZM35.2227 25.1767C36.9387 27.1214 37.8752 29.5884 37.8752 32.2107C37.8752 32.3694 37.8707 32.5328 37.8614 32.7106H35.6387C35.4851 31.8884 35.1558 31.1278 34.691 30.4686C35.012 28.7874 35.1904 27.0109 35.2227 25.1767ZM35.0449 33.7665C35.0449 33.789 35.0447 33.8117 35.0443 33.8347H24.9559C24.9555 33.8117 24.9553 33.7889 24.9553 33.7665C24.9553 30.9847 27.2184 28.7217 30.0001 28.7217C32.7819 28.7217 35.0449 30.9848 35.0449 33.7665ZM21.4686 33.0834C21.4824 33.264 21.6329 33.4035 21.8141 33.4035H24.275C24.2675 33.5236 24.2623 33.6445 24.2623 33.7665C24.2623 33.9003 24.2684 34.0445 24.2808 34.2075C24.2945 34.3881 24.4451 34.5276 24.6262 34.5276H35.3739C35.555 34.5276 35.7056 34.3881 35.7194 34.2075C35.7318 34.0445 35.7378 33.9003 35.7378 33.7665C35.7378 33.6445 35.7327 33.5236 35.7251 33.4035H38.1861C38.3672 33.4035 38.5178 33.264 38.5315 33.0834C38.5561 32.7598 38.5681 32.4744 38.5681 32.2107C38.5681 31.2991 38.4611 30.4051 38.2545 29.5423C38.5017 29.4624 38.7588 29.4218 39.0221 29.4218C39.9968 29.4219 40.8906 29.9945 41.2991 30.881C41.3393 30.9681 41.4137 31.0346 41.5048 31.0648C42.5309 31.4049 43.2211 32.3597 43.2223 33.441C43.2224 33.5378 43.2631 33.6301 43.3343 33.6956C43.8026 34.1261 44.1006 34.7098 44.1806 35.3341H15.6472C15.7272 34.7099 16.0252 34.1261 16.4934 33.6956C16.5647 33.6301 16.6053 33.5377 16.6055 33.441C16.6067 32.3597 17.2969 31.4049 18.3229 31.0648C18.414 31.0346 18.4884 30.9681 18.5286 30.881C18.9371 29.9945 19.8309 29.4219 20.8056 29.4218C21.1256 29.4218 21.4366 29.482 21.7317 29.5999C21.534 30.4449 21.4319 31.3194 21.4319 32.2108C21.432 32.4744 21.444 32.7598 21.4686 33.0834ZM30.0001 10.7501C31.2299 11.5326 32.3487 13.238 33.1658 15.5841C34.0627 18.1591 34.5366 21.2658 34.5366 24.5684C34.5366 26.3682 34.3945 28.1152 34.1137 29.7726C33.0704 28.6982 31.6123 28.0288 30 28.0288C28.3877 28.0288 26.9295 28.6982 25.8862 29.7726C25.6055 28.1152 25.4633 26.3682 25.4633 24.5684C25.4633 21.2657 25.9373 18.1591 26.8341 15.5841C27.6514 13.238 28.7702 11.5327 30.0001 10.7501ZM15.3196 17.9233H25.4629C25.0424 19.8258 24.7991 21.9474 24.7731 24.1715C23.4178 25.5205 22.4461 27.1475 21.9115 28.927C21.5576 28.7961 21.1867 28.7289 20.8057 28.7289C19.6111 28.729 18.5121 29.4025 17.9649 30.4571C16.7793 30.9115 15.9767 32.0215 15.9163 33.2898C15.3688 33.8403 15.0273 34.5654 14.9492 35.3341H13.6177V21.41H20.9186C21.1099 21.41 21.265 21.2549 21.265 21.0635C21.265 20.8722 21.1099 20.7171 20.9186 20.7171H13.6177V19.6252C13.6177 18.6868 14.3812 17.9233 15.3196 17.9233ZM36.8931 48.2811V49.3071H23.107V48.2811C23.107 47.6394 23.6289 47.1173 24.2705 47.1173H35.7293C36.3711 47.1173 36.8931 47.6394 36.8931 48.2811ZM34.8836 46.4244H25.1164L26.2757 43.1105H33.7242L34.8836 46.4244ZM44.6805 42.4175H15.3196C14.3812 42.4175 13.6177 41.6541 13.6177 40.7156V38.638H18.8133C19.0047 38.638 19.1598 38.4829 19.1598 38.2916C19.1598 38.1002 19.0047 37.9451 18.8133 37.9451H13.6177V36.0269H46.3824V40.7156C46.3824 41.6541 45.6189 42.4175 44.6805 42.4175Z" fill="white" stroke="white" stroke-width="0.6"/>
<path d="M30 19.1885C31.0821 19.1885 31.9625 18.3082 31.9625 17.2261C31.9625 16.1441 31.0821 15.2637 30 15.2637C28.918 15.2637 28.0376 16.144 28.0376 17.2261C28.0376 18.3082 28.918 19.1885 30 19.1885ZM30 15.9566C30.7 15.9566 31.2696 16.5261 31.2696 17.2262C31.2696 17.9263 30.7 18.4957 30 18.4957C29.3 18.4957 28.7305 17.9262 28.7305 17.2262C28.7305 16.5262 29.3 15.9566 30 15.9566Z" fill="white" stroke="white" stroke-width="0.6"/>
</svg>
