<svg width="120" height="120" viewBox="0 0 120 120" fill="none" xmlns="http://www.w3.org/2000/svg">
<rect width="120" height="120" fill="#00468E"/>
<path d="M119.437 92.3521V59.676L107.042 52.9155V69.2535L98.5914 65.8732V48.4084L85.0703 40.5211V92.3521H98.5914V76.5775H107.042V92.3521H119.437Z" fill="white"/>
<path fill-rule="evenodd" clip-rule="evenodd" d="M84.5071 39.5403L99.155 48.0849V65.4918L106.479 68.4214V51.9665L120 59.3416V92.9155H106.479V77.1409H99.155V92.9155H84.5071V39.5403ZM85.6338 41.502V91.7888H98.0282V76.0141H107.606V91.7888H118.873V60.0105L107.606 53.8646V70.0857L98.0282 66.2547V48.7321L85.6338 41.502Z" fill="#00468E"/>
<path fill-rule="evenodd" clip-rule="evenodd" d="M38.3099 40.5211V39.453L37.4283 40.0561L5.31567 62.028L5.07042 62.1958V62.4929V83.9014H0.56338H0V84.4648V92.9155V93.4789H0.56338H42.8169H43.3803V92.9155V84.4648V83.9014H42.8169H38.3099V40.5211ZM6.19718 84.4648V62.7901L37.1831 41.5892V84.4648V85.0281H37.7465H42.2535V92.3521H1.12676V85.0281H5.6338H6.19718V84.4648ZM25.9155 57.4225V56.2825L25.0099 56.975L15.4324 64.2989L15.2113 64.468V64.7465V84.4648V85.0281H15.7746H25.3521H25.9155V84.4648V57.4225ZM16.338 83.9014V65.0249L24.7887 58.5626V83.9014H16.338Z" fill="white"/>
<path fill-rule="evenodd" clip-rule="evenodd" d="M6.19718 62.7901V84.4648V85.0281H5.6338H1.12676V92.3521H42.2535V85.0281H37.7465H37.1831V84.4648V41.5892L6.19718 62.7901ZM25.9155 57.4225V56.2825L25.0099 56.975L15.4324 64.2989L15.2113 64.468V64.7465V84.4648V85.0281H15.7746H25.3521H25.9155V84.4648V57.4225Z" fill="white"/>
<path fill-rule="evenodd" clip-rule="evenodd" d="M38.3099 40.5211V39.453L37.4283 40.0561L5.31567 62.028L5.07042 62.1958V62.4929V83.9014H0.56338H0V84.4648V92.9155V93.4789H0.56338H42.8169H43.3803V92.9155V84.4648V83.9014H42.8169H38.3099V40.5211ZM6.19718 84.4648V62.7901L37.1831 41.5892V84.4648V85.0281H37.7465H42.2535V92.3521H1.12676V85.0281H5.6338H6.19718V84.4648ZM25.9155 57.4225V56.2825L25.0099 56.975L15.4324 64.2989L15.2113 64.468V64.7465V84.4648V85.0281H15.7746H25.3521H25.9155V84.4648V57.4225ZM16.338 83.9014V65.0249L24.7887 58.5626V83.9014H16.338Z" fill="#00468E"/>
<path fill-rule="evenodd" clip-rule="evenodd" d="M38.8733 50.662C38.8733 43.8128 42.1528 38.1838 46.6309 34.2545C51.1194 30.316 56.7659 28.1268 61.4086 28.1268C72.933 28.1268 84.5071 37.4955 84.5071 50.662V69.8169C84.5071 76.1049 81.4207 81.7371 76.9635 85.8094C72.5018 89.886 66.7172 92.3521 61.4086 92.3521C56.368 92.3521 50.7215 90.0238 46.3316 86.1548C41.9462 82.2898 38.8733 76.9407 38.8733 70.9437V50.662ZM61.4086 27C56.4512 27 50.5485 29.3178 45.8877 33.4075C41.2164 37.5064 37.7466 43.4267 37.7466 50.662V70.9437C37.7466 77.341 41.0228 82.9778 45.5866 87.0001C50.1459 91.0184 56.0487 93.4789 61.4086 93.4789C67.044 93.4789 73.0904 90.8745 77.7236 86.6413C82.3614 82.4038 85.6339 76.4866 85.6339 69.8169V50.662C85.6339 36.7862 73.4645 27 61.4086 27ZM67.6057 43.338V78.2676C67.6057 82.0014 64.5789 85.0282 60.8452 85.0282C57.1114 85.0282 54.0846 82.0014 54.0846 78.2676V43.338C54.0846 39.6043 57.1114 36.5775 60.8452 36.5775C64.5789 36.5775 67.6057 39.6043 67.6057 43.338ZM52.9579 43.338C52.9579 38.982 56.4891 35.4507 60.8452 35.4507C65.2012 35.4507 68.7325 38.982 68.7325 43.338V78.2676C68.7325 82.6237 65.2012 86.1549 60.8452 86.1549C56.4891 86.1549 52.9579 82.6237 52.9579 78.2676V43.338Z" fill="white"/>
<path fill-rule="evenodd" clip-rule="evenodd" d="M46.6309 34.2545C42.1528 38.1838 38.8733 43.8128 38.8733 50.662V70.9437C38.8733 76.9407 41.9462 82.2898 46.3316 86.1548C50.7215 90.0238 56.368 92.3521 61.4086 92.3521C66.7172 92.3521 72.5018 89.886 76.9635 85.8094C81.4207 81.7371 84.5071 76.1049 84.5071 69.8169V50.662C84.5071 37.4955 72.933 28.1268 61.4086 28.1268C56.7659 28.1268 51.1194 30.316 46.6309 34.2545ZM52.9579 43.338C52.9579 38.982 56.4891 35.4507 60.8452 35.4507C65.2012 35.4507 68.7325 38.982 68.7325 43.338V78.2676C68.7325 82.6237 65.2012 86.1549 60.8452 86.1549C56.4891 86.1549 52.9579 82.6237 52.9579 78.2676V43.338Z" fill="white"/>
<path fill-rule="evenodd" clip-rule="evenodd" d="M38.8733 50.662C38.8733 43.8128 42.1528 38.1838 46.6309 34.2545C51.1194 30.316 56.7659 28.1268 61.4086 28.1268C72.933 28.1268 84.5071 37.4955 84.5071 50.662V69.8169C84.5071 76.1049 81.4207 81.7371 76.9635 85.8094C72.5018 89.886 66.7172 92.3521 61.4086 92.3521C56.368 92.3521 50.7215 90.0238 46.3316 86.1548C41.9462 82.2898 38.8733 76.9407 38.8733 70.9437V50.662ZM61.4086 27C56.4512 27 50.5485 29.3178 45.8877 33.4075C41.2164 37.5064 37.7466 43.4267 37.7466 50.662V70.9437C37.7466 77.341 41.0228 82.9778 45.5866 87.0001C50.1459 91.0184 56.0487 93.4789 61.4086 93.4789C67.044 93.4789 73.0904 90.8745 77.7236 86.6413C82.3614 82.4038 85.6339 76.4866 85.6339 69.8169V50.662C85.6339 36.7862 73.4645 27 61.4086 27ZM67.6057 43.338V78.2676C67.6057 82.0014 64.5789 85.0282 60.8452 85.0282C57.1114 85.0282 54.0846 82.0014 54.0846 78.2676V43.338C54.0846 39.6043 57.1114 36.5775 60.8452 36.5775C64.5789 36.5775 67.6057 39.6043 67.6057 43.338ZM52.9579 43.338C52.9579 38.982 56.4891 35.4507 60.8452 35.4507C65.2012 35.4507 68.7325 38.982 68.7325 43.338V78.2676C68.7325 82.6237 65.2012 86.1549 60.8452 86.1549C56.4891 86.1549 52.9579 82.6237 52.9579 78.2676V43.338Z" fill="#00468E"/>
<path d="M60.8452 46.1549L53.5212 49.5352L60.8452 56.8591L68.1691 49.5352L60.8452 46.1549Z" fill="white"/>
<path fill-rule="evenodd" clip-rule="evenodd" d="M54.4909 49.7082L60.8451 56.0624L67.1994 49.7082L60.8451 46.7754L54.4909 49.7082ZM53.2851 49.0237L60.609 45.6434H61.0812L68.4051 49.0237L68.5674 49.9336L61.2435 57.2576H60.4467L53.1228 49.9336L53.2851 49.0237Z" fill="#00468E"/>
</svg>
