<svg width="105" height="94" viewBox="0 0 105 94" fill="none" xmlns="http://www.w3.org/2000/svg">
<path fill-rule="evenodd" clip-rule="evenodd" d="M23.0256 1.04075C19.7362 4.53014 18.4871 13.9671 20.7403 18.3079C21.1362 19.0706 21.33 19.0645 21.8697 18.2721C24.0963 15.0033 25.1379 10.3013 24.6454 5.74213C24.4057 3.5246 23.7157 0.760742 23.4015 0.760742C23.3399 0.760742 23.1708 0.886808 23.0256 1.04075ZM82.8897 0.978525C82.8266 1.09837 82.681 1.58832 82.5663 2.06744C81.112 8.13538 81.9353 14.5031 84.6782 18.4012C85.1553 19.0792 85.3292 19.0671 85.6531 18.3334C87.7407 13.603 86.7041 4.86652 83.623 1.22294C83.1855 0.705487 83.0561 0.662429 82.8897 0.978525ZM34.4652 1.90877C30.0606 4.12157 26.5432 8.64425 25.0994 13.9522C24.5886 15.83 24.6842 16.0613 25.764 15.5618C30.1275 13.543 34.3515 8.26058 35.6093 3.24969C36.1321 1.16669 36.0753 1.09999 34.4652 1.90877ZM71.1775 1.54588C71.1384 1.64494 71.2502 2.34745 71.4257 3.10695C72.5544 7.99115 76.0382 12.7762 80.2504 15.2284C81.8301 16.1481 82.0177 16.0169 81.587 14.2934C80.2202 8.82184 76.6316 3.90765 72.5263 1.88575C71.5358 1.39791 71.2627 1.32909 71.1775 1.54588ZM16.1421 10.561C12.8722 15.4402 11.7836 24.2339 13.8762 28.8659C14.2727 29.7435 14.3507 29.6926 15.2938 27.9431C18.5529 21.897 19.2553 15.3617 17.149 10.6854C16.7578 9.81704 16.6496 9.80373 16.1421 10.561ZM89.3338 10.2394C87.8171 12.5248 87.5501 18.1065 88.7421 22.6013C89.3352 24.8371 91.424 29.5039 91.8333 29.5074C92.009 29.5089 92.3245 28.7547 92.6274 27.6089C93.916 22.7351 93.1815 16.6541 90.7135 11.7623C89.8714 10.0933 89.6171 9.81256 89.3338 10.2394ZM32.8843 14.0432C28.548 15.0987 25.2652 16.8613 22.3169 19.7168C19.8449 22.1112 17.6388 25.4489 18.6808 25.2181C18.8389 25.183 19.2553 25.0965 19.6064 25.0258C23.6729 24.2063 28.4473 21.4923 31.2743 18.3932C32.5628 16.9807 34.2168 14.366 34.019 14.054C33.9503 13.9458 33.3096 13.9397 32.8843 14.0432ZM73.0118 14.0171C72.8165 14.2098 73.7388 15.9788 74.7931 17.4337C77.2924 20.8825 83.5682 24.744 87.2814 25.1175C88.1841 25.2083 88.1797 25.1475 87.1658 23.5019C85.1452 20.2226 81.8869 17.2736 78.4028 15.5704C76.5855 14.6821 73.2981 13.7349 73.0118 14.0171ZM6.0324 19.5834C4.64117 25.0354 5.58402 30.3189 8.65758 34.2956C10.059 36.1088 12.01 37.8461 12.01 37.2809C12.01 37.2438 12.1071 36.7817 12.2257 36.2542C12.5382 34.8657 12.5369 31.1536 12.2235 29.3398C11.5227 25.2834 9.8637 21.9567 7.48262 19.8323C6.43457 18.8972 6.21702 18.8599 6.0324 19.5834ZM98.3586 19.8305C94.6154 23.3342 92.7049 30.3704 93.8453 36.4533C94.072 37.6626 94.1609 37.6493 95.5879 36.1923C99.4572 32.2416 100.993 27.1289 100.058 21.313C99.6395 18.7104 99.5959 18.6724 98.3586 19.8305ZM22.9897 25.6728C16.9668 29.2742 13.7549 34.0237 13.2217 40.1172C13.0988 41.5214 13.4075 41.5109 15.4003 40.0427C19.3586 37.1266 22.4152 32.2098 23.5023 27.0098C23.8531 25.3323 23.7983 25.1893 22.9897 25.6728ZM82.8313 25.4783C82.6627 25.6428 83.2842 28.3881 83.8933 30.1687C85.329 34.3658 88.3776 38.5418 91.4849 40.5675C92.7995 41.4247 92.8261 41.4185 92.8261 40.2574C92.8261 36.6301 90.8271 32.1794 87.7869 29.0371C86.1385 27.3335 83.1384 25.179 82.8313 25.4783ZM4.82182 33.5696C4.65853 33.7288 4.73002 36.6143 4.9297 37.9255C5.66177 42.7309 8.49659 47.2743 12.6748 50.3385C13.4076 50.8759 13.4611 50.7549 13.3768 48.7482C13.1911 44.3244 11.825 40.4333 9.36042 37.3083C8.01616 35.6036 5.15389 33.2458 4.82182 33.5696ZM100.095 33.8827C95.5701 37.0655 92.6984 42.9801 92.6984 49.1162C92.6984 50.996 92.6837 50.9897 94.0946 49.7233C98.7018 45.588 100.857 41.1203 100.913 35.5891C100.936 33.3175 100.926 33.2977 100.095 33.8827ZM16.3802 41.7973C13.8347 47.2592 14.7913 54.4224 18.898 60.6511C19.6156 61.7398 19.7336 61.7961 19.9993 61.1763C20.8177 59.2672 21.1255 54.5117 20.6219 51.5586C20.0857 48.4141 19.0253 45.1027 17.541 41.9375C16.9809 40.7431 16.8772 40.7307 16.3802 41.7973ZM88.514 42.4202C85.6322 49.0717 84.7196 56.3792 86.2273 60.7324C86.5947 61.7932 86.6947 61.7921 87.3794 60.7195C91.3226 54.542 92.2523 47.4893 89.8654 41.8596C89.655 41.3633 89.4074 40.9573 89.3154 40.9573C89.2226 40.9573 88.8651 41.6102 88.514 42.4202ZM0.703009 45.2262C0.573805 45.5544 1.81682 48.156 2.96446 49.9597C5.8446 54.486 11.2348 58.149 15.3897 58.4034C16.287 58.4583 16.274 58.2695 15.2617 56.5457C11.6417 50.3812 8.24482 47.3468 3.11626 45.6965C1.14284 45.0616 0.794549 44.9938 0.703009 45.2262ZM102.876 45.5625C97.7149 47.2345 94.1157 50.5667 90.8146 56.7287C89.9047 58.4274 89.9009 58.5517 90.7628 58.4375C96.1374 57.7246 101.354 53.3435 104.118 47.2218C105.192 44.8442 105.173 44.8184 102.876 45.5625ZM6.94525 57.5225C6.98994 57.7546 7.37091 58.6164 7.79184 59.4378C10.3606 64.4508 14.9222 68.1102 21.1231 70.1323C23.7141 70.9774 23.8252 70.9283 23.0541 69.279C21.538 66.036 18.0563 62.5125 14.0336 60.1501C11.9078 58.9018 8.53413 57.406 7.35993 57.1914L6.86406 57.1007L6.94525 57.5225ZM97.1669 57.6185C90.7333 60.157 85.4519 64.6862 83.3732 69.4478C82.7409 70.8962 82.875 70.9527 85.1255 70.1872C91.6486 67.9682 96.3577 63.7961 98.6171 58.2342C99.1541 56.9125 99.0588 56.8719 97.1669 57.6185ZM22.1812 58.5874C22.0017 58.7623 22.1078 61.0295 22.3643 62.5023C23.0629 66.5129 24.8073 69.758 27.8442 72.6972C29.2356 74.0437 32.016 75.9271 32.6126 75.9271C32.8663 75.9271 32.8664 75.916 32.6291 74.2683C31.6814 67.6877 28.5885 62.6275 23.3819 59.1397C22.4023 58.4834 22.3244 58.4477 22.1812 58.5874ZM83.0466 59.1997C78.0111 62.7115 74.7872 68.4716 74.2333 74.9464C74.1313 76.1385 74.1528 76.1459 75.4553 75.3631C78.8969 73.2949 81.8139 69.7956 83.1804 66.0957C84.1186 63.5554 84.7678 58.7247 84.1956 58.5413C84.1185 58.5165 83.6014 58.8128 83.0466 59.1997ZM34.4211 70.6928C34.3122 70.8647 34.8401 72.1103 35.4936 73.2237C37.3973 76.4669 40.547 79.1439 44.9006 81.219C47.3181 82.3711 51.0738 83.688 51.3036 83.4639C51.5471 83.2266 50.2785 80.8709 49.0541 79.2872C46.185 75.5759 41.0361 72.3111 35.8894 70.9398C35.3601 70.7989 34.8313 70.657 34.7143 70.6246C34.5974 70.5921 34.4654 70.6229 34.4211 70.6928ZM71.265 70.8977C68.4494 71.7079 64.2234 73.8316 62.4544 75.3254C59.8921 77.489 58.2868 79.3996 57.0634 81.742C56.4786 82.8616 56.2902 83.5184 56.554 83.5184C57.1181 83.5184 60.42 82.2699 62.3691 81.3195C67.1627 78.9824 70.3558 75.9435 72.1732 71.9892C72.8388 70.5406 72.7745 70.4633 71.265 70.8977ZM12.2653 70.8432C10.7231 70.9568 9.35237 71.1848 9.25113 71.3446C9.13916 71.521 9.86817 72.2321 11.0313 73.081C14.4752 75.5947 19.4454 76.9522 25.2878 76.9748C29.9084 76.9926 30.2388 76.8653 28.8307 75.6097C25.752 72.8643 21.3623 71.1756 16.4108 70.8318C14.5221 70.7007 14.1874 70.7015 12.2653 70.8432ZM90.2088 70.7748C86.3946 71.1422 84.5366 71.6218 81.8753 72.9262C79.9733 73.8584 77.1225 76.0304 77.1225 76.5475C77.1225 76.869 78.4264 76.9906 81.591 76.9639C86.1997 76.9252 90.27 75.9369 93.4798 74.0774C95.1957 73.0835 96.8536 71.5896 96.5595 71.3029C96.2532 71.0043 91.7304 70.6284 90.2088 70.7748ZM26.901 78.1839C24.4629 78.4891 19.9418 80.0886 19.8223 80.6882C19.7918 80.8418 20.2231 81.0267 21.7543 81.516C29.0679 83.8539 35.5988 83.9877 39.4275 81.8783C40.2471 81.4267 40.2595 81.2744 39.5177 80.7769C36.3529 78.6544 31.3524 77.6267 26.901 78.1839ZM74.6329 78.1709C72.062 78.6391 71.3517 78.8622 69.4622 79.7959C67.8183 80.6083 67.081 81.1365 67.1932 81.4216C67.3077 81.7125 68.911 82.4764 70.1304 82.8209C73.8648 83.8757 79.4843 83.3408 85.0764 81.398C86.2348 80.9956 86.574 80.8278 86.5446 80.672C86.4571 80.2083 83.0718 78.8453 80.7611 78.3434C79.6998 78.1128 75.5875 77.997 74.6329 78.1709ZM39.7147 83.3532C35.4721 83.6486 32.3057 84.6821 30.3476 86.4107L29.8202 86.8762L30.1027 87.1113C30.8461 87.7301 34.108 88.2478 37.2561 88.2465C40.935 88.2453 43.7024 87.7558 47.758 86.3891C50.5543 85.447 51.5215 85.4106 52.2605 86.2199C52.4805 86.461 52.4203 86.5314 49.7709 89.1413C48.2776 90.6123 46.7255 92.0837 46.3217 92.4113C45.9179 92.7387 45.5876 93.0741 45.5876 93.1565C45.5876 93.3751 46.1422 93.8475 46.3988 93.8475C47.2914 93.8475 48.9872 92.27 50.2785 90.2386C51.5791 88.1928 52.931 87.0029 53.9551 87.0029C54.9003 87.0029 56.265 88.2824 57.4733 90.3014C59.0632 92.9581 60.8722 94.3686 61.652 93.5596C62.0485 93.148 62.0434 93.1388 60.8124 92.0419C60.1981 91.4945 59.1429 90.4588 58.4678 89.7404C57.7926 89.0218 56.8302 88.0236 56.3293 87.5221C55.296 86.4878 55.2613 86.3822 55.8249 85.991C56.5836 85.4644 57.399 85.5189 59.3761 86.228C63.6788 87.7713 66.1722 88.2474 69.9517 88.2474C72.9341 88.2474 76.6122 87.5955 76.8359 87.0274C77.0021 86.6051 75.0515 85.2217 73.2888 84.5117C68.6423 82.6404 62.4234 82.9656 55.4227 85.4458C54.3734 85.8174 53.7877 85.966 53.648 85.896C53.3827 85.7627 50.6558 84.8695 49.4816 84.5311C46.5776 83.6944 42.2725 83.1752 39.7147 83.3532Z" fill="white"/>
<path d="M31.8532 39.3474H31.2846C31.14 38.9536 30.8906 38.555 30.5366 38.1515C30.1825 37.748 29.8309 37.5098 29.4818 37.4369C29.3322 37.4029 29.1227 37.3835 28.8534 37.3786C28.5891 37.3689 28.3696 37.364 28.1951 37.364H26.654V41.3599H27.7462C28.0205 41.3599 28.2699 41.3283 28.4943 41.2651C28.7187 41.2019 28.9232 41.0804 29.1077 40.9006C29.2224 40.7887 29.3371 40.5919 29.4519 40.3099C29.5715 40.028 29.6488 39.7825 29.6838 39.5734H30.2523V43.8902H29.6838C29.6538 43.686 29.5765 43.4308 29.4519 43.1246C29.3322 42.8134 29.2175 42.5996 29.1077 42.4829C28.9432 42.3079 28.7487 42.1888 28.5242 42.1256C28.2998 42.0575 28.0405 42.0235 27.7462 42.0235H26.654V45.0059C26.654 45.317 26.6765 45.5649 26.7214 45.7496C26.7712 45.9295 26.861 46.068 26.9907 46.1653C27.1154 46.2576 27.2849 46.3184 27.4994 46.3476C27.7188 46.3767 28.0155 46.3913 28.3896 46.3913C28.5641 46.3913 28.7736 46.3889 29.018 46.384C29.2623 46.3792 29.4768 46.3646 29.6613 46.3403C29.8708 46.316 30.0653 46.2795 30.2448 46.2309C30.4293 46.1823 30.5665 46.1118 30.6563 46.0194C30.8956 45.7812 31.1649 45.4191 31.4642 44.9329C31.7634 44.442 31.9604 44.0749 32.0552 43.8319H32.6012L32.3993 47.0549H22.4424V46.4861C22.582 46.4764 22.7715 46.4569 23.0109 46.4278C23.2503 46.3986 23.4199 46.3646 23.5196 46.3257C23.7091 46.2479 23.8363 46.1507 23.9011 46.034C23.966 45.9125 23.9984 45.7594 23.9984 45.5746V38.2755C23.9984 38.1005 23.971 37.9571 23.9161 37.8453C23.8612 37.7286 23.7291 37.6241 23.5196 37.5317C23.3899 37.4734 23.2079 37.4199 22.9735 37.3713C22.7391 37.3227 22.5621 37.2911 22.4424 37.2765V36.7077H31.8532V39.3474Z" fill="white"/>
<path d="M38.9823 46.7194C38.6632 46.8556 38.3215 46.9771 37.9575 47.084C37.5934 47.1959 37.1495 47.2518 36.6259 47.2518C35.8479 47.2518 35.2694 47.067 34.8904 46.6976C34.5163 46.3281 34.3293 45.8007 34.3293 45.1152V40.638H32.9828V39.8505H34.3592V37.6411H36.7905V39.8505H38.8851V40.638H36.8054V44.634C36.8054 45.2027 36.8852 45.6062 37.0448 45.8444C37.2094 46.0826 37.5011 46.2017 37.9201 46.2017C38.0547 46.2017 38.2417 46.192 38.4811 46.1726C38.7205 46.1531 38.8876 46.1312 38.9823 46.1069V46.7194Z" fill="white"/>
<path d="M48.0565 46.9017C47.8371 46.9941 47.5777 47.0792 47.2785 47.157C46.9793 47.2347 46.6626 47.2736 46.3284 47.2736C45.715 47.2736 45.2637 47.1861 44.9744 47.0111C44.6852 46.8313 44.4882 46.576 44.3834 46.2455H44.3386C44.169 46.4108 44.0044 46.5517 43.8448 46.6684C43.6902 46.7851 43.5232 46.8847 43.3436 46.9674C43.1092 47.0743 42.8823 47.1521 42.6629 47.2007C42.4484 47.2542 42.1467 47.2809 41.7577 47.2809C41.1792 47.2809 40.6855 47.1156 40.2765 46.7851C39.8676 46.4497 39.6631 46.0073 39.6631 45.458C39.6631 45.142 39.708 44.8746 39.7977 44.6559C39.8875 44.4322 40.0147 44.2354 40.1793 44.0652C40.3289 43.9097 40.5009 43.7808 40.6954 43.6787C40.8949 43.5767 41.1119 43.4819 41.3463 43.3944C41.7951 43.2339 42.3337 43.0687 42.9621 42.8985C43.5905 42.7235 44.0493 42.568 44.3386 42.4318V41.7318C44.3386 41.6103 44.3286 41.4499 44.3086 41.2506C44.2887 41.0513 44.2463 40.8835 44.1815 40.7474C44.1116 40.5919 44.0019 40.4606 43.8523 40.3537C43.7027 40.2467 43.5057 40.1932 43.2613 40.1932C43.0419 40.1932 42.8574 40.2248 42.7078 40.288C42.5631 40.3464 42.4459 40.4071 42.3562 40.4703C42.3711 40.5676 42.4135 40.7158 42.4833 40.9151C42.5531 41.1144 42.5881 41.3065 42.5881 41.4912C42.5881 41.5738 42.5656 41.6783 42.5207 41.8047C42.4758 41.9263 42.411 42.0235 42.3262 42.0964C42.2115 42.1936 42.0819 42.269 41.9372 42.3225C41.7976 42.3759 41.5807 42.4027 41.2864 42.4027C40.8675 42.4027 40.5508 42.3054 40.3364 42.111C40.1219 41.9117 40.0147 41.654 40.0147 41.3381C40.0147 41.0658 40.1244 40.8228 40.3438 40.6089C40.5683 40.3901 40.8401 40.2103 41.1592 40.0693C41.4734 39.9234 41.835 39.8116 42.2439 39.7339C42.6529 39.6512 43.0319 39.6099 43.381 39.6099C43.8648 39.6099 44.3086 39.6391 44.7126 39.6974C45.1166 39.7509 45.4806 39.8651 45.8048 40.0401C46.114 40.2103 46.3584 40.4582 46.5379 40.7839C46.7224 41.1047 46.8147 41.5252 46.8147 42.0454C46.8147 42.5947 46.8022 43.2461 46.7773 43.9996C46.7573 44.7531 46.7474 45.2489 46.7474 45.4871C46.7474 45.7059 46.7798 45.8785 46.8446 46.0048C46.9144 46.1312 47.0192 46.226 47.1588 46.2892C47.2436 46.3281 47.3757 46.3524 47.5553 46.3621C47.7398 46.367 47.9069 46.3694 48.0565 46.3694V46.9017ZM44.3386 43.1027C44.0593 43.1951 43.7825 43.302 43.5082 43.4235C43.2339 43.5402 43.0095 43.6642 42.8349 43.7954C42.6504 43.9315 42.5058 44.1065 42.401 44.3204C42.2963 44.5295 42.2439 44.7774 42.2439 45.0642C42.2439 45.4434 42.3312 45.718 42.5058 45.8882C42.6853 46.0583 42.9047 46.1434 43.1641 46.1434C43.4384 46.1434 43.6628 46.0899 43.8373 45.983C44.0169 45.8712 44.174 45.735 44.3086 45.5746L44.3386 43.1027Z" fill="white"/>
<path d="M58.3051 46.9017L54.6171 47.1132L54.5049 47.0111V46.3403L54.4525 46.3257C54.2082 46.5833 53.8765 46.8094 53.4576 47.0038C53.0437 47.1934 52.6247 47.2882 52.2008 47.2882C51.1934 47.2882 50.3631 46.9236 49.7097 46.1944C49.0564 45.4653 48.7298 44.5222 48.7298 43.3652C48.7298 42.3395 49.0938 41.4596 49.8219 40.7255C50.5551 39.9915 51.4403 39.6245 52.4776 39.6245C52.8866 39.6245 53.2706 39.6707 53.6297 39.763C53.9887 39.8505 54.2755 39.955 54.4899 40.0766V37.6921C54.4899 37.5123 54.4525 37.3446 54.3777 37.189C54.3029 37.0286 54.2032 36.9046 54.0785 36.8171C53.9239 36.7102 53.7294 36.6348 53.495 36.5911C53.2656 36.5425 53.0337 36.5084 52.7993 36.489V35.9567L56.8389 35.7671L56.9511 35.8838V45.4434C56.9511 45.6281 56.981 45.7837 57.0409 45.9101C57.1057 46.0364 57.208 46.1361 57.3476 46.209C57.4523 46.2625 57.6044 46.3014 57.8039 46.3257C58.0084 46.35 58.1755 46.3646 58.3051 46.3694V46.9017ZM54.4899 45.6038V41.4839C54.455 41.3721 54.4052 41.2481 54.3403 41.112C54.2805 40.9759 54.1957 40.8471 54.086 40.7255C53.9862 40.6235 53.8516 40.5335 53.682 40.4557C53.5174 40.378 53.3304 40.3391 53.121 40.3391C52.6222 40.3391 52.2133 40.6137 51.8941 41.1631C51.5749 41.7124 51.4154 42.4877 51.4154 43.4892C51.4154 43.8829 51.4428 44.2378 51.4976 44.5538C51.5575 44.8649 51.6597 45.1493 51.8043 45.4069C51.949 45.6646 52.1335 45.8663 52.3579 46.0121C52.5873 46.158 52.8616 46.2309 53.1808 46.2309C53.485 46.2309 53.7369 46.175 53.9364 46.0632C54.1359 45.9465 54.3204 45.7934 54.4899 45.6038Z" fill="white"/>
<path d="M66.4292 40.6818C66.7983 41.0172 67.0801 41.4183 67.2746 41.885C67.4691 42.3516 67.5663 42.8572 67.5663 43.4017C67.5663 43.9413 67.4691 44.4517 67.2746 44.9329C67.085 45.4093 66.8058 45.8177 66.4367 46.158C66.0427 46.5226 65.5714 46.8021 65.0228 46.9965C64.4792 47.191 63.8558 47.2882 63.1527 47.2882C62.5442 47.2882 61.9832 47.2031 61.4695 47.033C60.9608 46.8629 60.5095 46.6076 60.1155 46.2674C59.7364 45.9417 59.4372 45.5406 59.2178 45.0642C58.9983 44.5829 58.8886 44.0458 58.8886 43.4527C58.8886 42.8694 58.9834 42.3516 59.1729 41.8995C59.3674 41.4426 59.6567 41.0367 60.0407 40.6818C60.4097 40.3415 60.8635 40.079 61.4022 39.8943C61.9458 39.7047 62.5517 39.6099 63.22 39.6099C63.9182 39.6099 64.5316 39.7047 65.0602 39.8943C65.5939 40.079 66.0502 40.3415 66.4292 40.6818ZM64.5142 45.735C64.6239 45.4628 64.7037 45.1323 64.7535 44.7434C64.8084 44.3545 64.8358 43.9024 64.8358 43.3871C64.8358 43.0468 64.8109 42.6579 64.761 42.2204C64.7111 41.7829 64.6363 41.4377 64.5366 41.1849C64.4169 40.8787 64.2498 40.638 64.0354 40.463C63.8259 40.288 63.5591 40.2005 63.2349 40.2005C62.8809 40.2005 62.5966 40.2953 62.3821 40.4849C62.1727 40.6745 62.0106 40.92 61.8959 41.2214C61.7912 41.4985 61.7188 41.8242 61.6789 42.1985C61.639 42.568 61.6191 42.9544 61.6191 43.3579C61.6191 43.8878 61.6366 44.3277 61.6715 44.6777C61.7064 45.0229 61.7912 45.3705 61.9258 45.7205C62.0405 46.0219 62.2051 46.2601 62.4195 46.4351C62.634 46.6101 62.9058 46.6976 63.2349 46.6976C63.5342 46.6976 63.791 46.6174 64.0055 46.4569C64.2199 46.2917 64.3895 46.051 64.5142 45.735Z" fill="white"/>
<path d="M76.1692 40.6818C76.5382 41.0172 76.82 41.4183 77.0145 41.885C77.209 42.3516 77.3062 42.8572 77.3062 43.4017C77.3062 43.9413 77.209 44.4517 77.0145 44.9329C76.825 45.4093 76.5457 45.8177 76.1767 46.158C75.7827 46.5226 75.3114 46.8021 74.7628 46.9965C74.2192 47.191 73.5958 47.2882 72.8926 47.2882C72.2842 47.2882 71.7231 47.2031 71.2094 47.033C70.7007 46.8629 70.2494 46.6076 69.8554 46.2674C69.4764 45.9417 69.1772 45.5406 68.9577 45.0642C68.7383 44.5829 68.6286 44.0458 68.6286 43.4527C68.6286 42.8694 68.7233 42.3516 68.9128 41.8995C69.1073 41.4426 69.3966 41.0367 69.7806 40.6818C70.1497 40.3415 70.6035 40.079 71.1421 39.8943C71.6857 39.7047 72.2916 39.6099 72.9599 39.6099C73.6581 39.6099 74.2716 39.7047 74.8002 39.8943C75.3338 40.079 75.7901 40.3415 76.1692 40.6818ZM74.2541 45.735C74.3638 45.4628 74.4436 45.1323 74.4935 44.7434C74.5483 44.3545 74.5758 43.9024 74.5758 43.3871C74.5758 43.0468 74.5508 42.6579 74.501 42.2204C74.4511 41.7829 74.3763 41.4377 74.2765 41.1849C74.1568 40.8787 73.9898 40.638 73.7753 40.463C73.5659 40.288 73.2991 40.2005 72.9749 40.2005C72.6208 40.2005 72.3365 40.2953 72.1221 40.4849C71.9126 40.6745 71.7505 40.92 71.6358 41.2214C71.5311 41.4985 71.4588 41.8242 71.4189 42.1985C71.379 42.568 71.359 42.9544 71.359 43.3579C71.359 43.8878 71.3765 44.3277 71.4114 44.6777C71.4463 45.0229 71.5311 45.3705 71.6658 45.7205C71.7805 46.0219 71.945 46.2601 72.1595 46.4351C72.3739 46.6101 72.6457 46.6976 72.9749 46.6976C73.2741 46.6976 73.531 46.6174 73.7454 46.4569C73.9599 46.2917 74.1294 46.051 74.2541 45.735Z" fill="white"/>
<path d="M85.7221 41.1558C85.7221 41.5252 85.6049 41.8509 85.3705 42.1329C85.1361 42.41 84.8269 42.5485 84.4429 42.5485C84.0788 42.5485 83.7696 42.4586 83.5153 42.2787C83.2659 42.0988 83.1412 41.8339 83.1412 41.4839C83.1412 41.3138 83.1537 41.1825 83.1786 41.0901C83.2036 40.9929 83.226 40.903 83.246 40.8203C83.0166 40.8301 82.7747 40.9078 82.5203 41.0537C82.266 41.1995 82.0416 41.394 81.8471 41.637V45.6403C81.8471 45.8104 81.8745 45.9514 81.9294 46.0632C81.9842 46.175 82.0765 46.2625 82.2061 46.3257C82.3159 46.3792 82.4929 46.4253 82.7373 46.4642C82.9866 46.4983 83.1662 46.5177 83.2759 46.5226V47.0549H78.2713V46.5226C78.3959 46.5128 78.5206 46.5007 78.6453 46.4861C78.775 46.4667 78.8847 46.4424 78.9745 46.4132C79.134 46.3597 79.2438 46.2771 79.3036 46.1653C79.3635 46.0535 79.3934 45.9076 79.3934 45.7278V41.4839C79.3934 41.3089 79.351 41.1533 79.2662 41.0172C79.1814 40.8762 79.0792 40.7644 78.9595 40.6818C78.8697 40.6235 78.755 40.5749 78.6154 40.536C78.4807 40.4971 78.3311 40.4703 78.1665 40.4557V39.9234L81.7349 39.7339L81.8471 39.8432V40.9006H81.877C82.2211 40.5117 82.5852 40.2078 82.9692 39.9891C83.3582 39.7655 83.7621 39.6536 84.1811 39.6536C84.6449 39.6536 85.0164 39.7946 85.2957 40.0766C85.58 40.3537 85.7221 40.7134 85.7221 41.1558Z" fill="white"/>
<path d="M52.6002 58.2071C52.5071 58.2168 52.3741 58.2347 52.2012 58.2606C52.0283 58.2865 51.872 58.3497 51.7324 58.4502C51.6127 58.5377 51.5263 58.6884 51.4731 58.9023C51.4199 59.1129 51.3933 59.424 51.3933 59.8356V64.7649H50.5255L46.6056 59.4322V62.6697C46.6056 63.0716 46.6322 63.3779 46.6854 63.5885C46.7419 63.7959 46.8317 63.9482 46.9547 64.0455C47.0444 64.1168 47.1874 64.18 47.3836 64.2351C47.5797 64.2901 47.736 64.3274 47.8524 64.3469V64.726H44.8102V64.3469C44.9399 64.3371 45.0878 64.3145 45.2541 64.2788C45.4236 64.2399 45.5649 64.1816 45.678 64.1038C45.8076 64.0098 45.8957 63.8688 45.9423 63.6809C45.9922 63.4897 46.0171 63.1704 46.0171 62.7232V59.4565C46.0171 59.2944 45.9905 59.1421 45.9373 58.9995C45.8874 58.8537 45.8076 58.7289 45.6979 58.6252C45.5815 58.515 45.4469 58.4291 45.294 58.3675C45.1443 58.3027 44.9731 58.2525 44.7803 58.2168V57.8279H47.4235L50.8048 62.4947V59.8842C50.8048 59.4694 50.7765 59.1615 50.72 58.9606C50.6635 58.7564 50.5737 58.6057 50.4507 58.5085C50.3543 58.4307 50.2113 58.3659 50.0218 58.3141C49.8323 58.2622 49.6793 58.2266 49.563 58.2071V57.8279H52.6002V58.2071ZM57.1185 60.3995C57.1185 61.0347 56.9024 61.5435 56.4702 61.926C56.038 62.3051 55.4545 62.4947 54.7197 62.4947C54.0282 62.4947 53.4679 62.3051 53.039 61.926C52.6101 61.5435 52.3957 61.0428 52.3957 60.4238C52.3957 59.8178 52.6051 59.322 53.0241 58.9363C53.443 58.5506 54.0198 58.3578 54.7546 58.3578C55.4827 58.3578 56.0579 58.5442 56.4802 58.9169C56.9057 59.2896 57.1185 59.7838 57.1185 60.3995ZM56.7894 64.026H52.7248V63.4816H56.7894V64.026ZM55.4179 61.6197C55.4744 61.4641 55.5143 61.2908 55.5376 61.0996C55.5609 60.9083 55.5725 60.6718 55.5725 60.3898C55.5725 60.1792 55.5625 59.975 55.5426 59.7773C55.526 59.5764 55.4877 59.3981 55.4279 59.2426C55.3714 59.0902 55.2882 58.9671 55.1785 58.8731C55.0721 58.7791 54.9325 58.7321 54.7596 58.7321C54.5834 58.7321 54.4404 58.7807 54.3307 58.878C54.221 58.9752 54.1362 59.1032 54.0764 59.262C54.0232 59.4046 53.9866 59.5731 53.9666 59.7676C53.95 59.9588 53.9417 60.1613 53.9417 60.3752C53.9417 60.6539 53.95 60.8857 53.9666 61.0704C53.9833 61.2519 54.0248 61.4317 54.0913 61.61C54.1512 61.7753 54.2343 61.9017 54.3407 61.9892C54.4504 62.0767 54.59 62.1204 54.7596 62.1204C54.9258 62.1204 55.0622 62.075 55.1685 61.9843C55.2783 61.8936 55.3614 61.772 55.4179 61.6197Z" fill="white"/>
<path d="M58.2107 64.3566C58.7859 64.3242 59.1367 64.261 59.263 64.167C59.3927 64.0698 59.4575 63.9272 59.4575 63.7392V58.9995H58.2556V58.5328H58.4701C59.278 58.5328 59.8931 58.2476 60.3153 57.6772H61.1931C61.1598 58.2703 61.1432 58.771 61.1432 59.1794V63.6906C61.1432 63.9077 61.2313 64.0681 61.4075 64.1719C61.5837 64.2723 61.878 64.3339 62.2902 64.3566V64.726H58.2107V64.3566Z" fill="white"/>
</svg>
