<svg width="121" height="121" viewBox="0 0 121 121" fill="none" xmlns="http://www.w3.org/2000/svg">
<g clip-path="url(#clip0_145_1454)">
<rect width="120" height="120" transform="translate(0.67749 0.305176)" fill="white"/>
<path d="M102.086 44.6431C102.086 50.7105 97.1674 55.6291 91.1001 55.6291C85.0327 55.6291 80.1141 50.7105 80.1141 44.6431C80.1141 38.5758 85.0327 33.6572 91.1001 33.6572C97.1674 33.6572 102.086 38.5758 102.086 44.6431Z" fill="#EFEFEF"/>
<path d="M32.7901 43.798C32.7901 46.5983 30.52 48.8684 27.7197 48.8684C24.9194 48.8684 22.6493 46.5983 22.6493 43.798C22.6493 40.9976 24.9194 38.7275 27.7197 38.7275C30.52 38.7275 32.7901 40.9976 32.7901 43.798Z" fill="#7E8082"/>
<path fill-rule="evenodd" clip-rule="evenodd" d="M15.8107 51.5897C15.3143 54.8341 12.5115 57.3194 9.12819 57.3194C5.39444 57.3194 2.36763 54.2926 2.36763 50.5588C2.36763 50.0724 2.419 49.598 2.51659 49.1408L1.67029 48.9849C0.15951 57.1863 0.374994 65.6126 2.303 73.7261C2.84198 75.9943 3.5115 78.2241 4.30652 80.4049C6.35538 86.025 9.23779 91.3197 12.8679 96.1071C17.9067 102.752 24.2753 108.274 31.5675 112.32C38.8596 116.366 46.9152 118.847 55.22 119.606C63.5249 120.364 71.8966 119.383 79.8011 116.725C87.7056 114.067 94.9692 109.791 101.128 104.169C105.566 100.118 109.36 95.4331 112.393 90.2771C113.57 88.2764 114.632 86.2048 115.573 84.0718C118.939 76.4418 120.677 68.194 120.677 59.8546H90.6894C90.6894 64.0259 89.8198 68.1515 88.1362 71.968C86.4525 75.7845 83.9918 79.2081 80.911 82.0203C77.8301 84.8326 74.1969 86.9717 70.2431 88.3013C66.2893 89.6308 62.1017 90.1215 57.9477 89.7421C53.7936 89.3627 49.7642 88.1214 46.1167 86.0976C42.4692 84.0738 39.2836 81.3119 36.7632 77.988C34.2429 74.6642 32.443 70.8514 31.4787 66.7931C30.8957 64.3399 30.6258 61.8296 30.6703 59.3215C29.6431 60.1818 28.3194 60.6996 26.8747 60.6996C23.6076 60.6996 20.9592 58.0512 20.9592 54.7842C20.9592 54.0179 21.1049 53.2857 21.37 52.6138L15.8107 51.5897Z" fill="#7E8082"/>
<path d="M26.0296 67.4601C26.0296 70.2604 23.7595 72.5305 20.9592 72.5305C18.1589 72.5305 15.8888 70.2604 15.8888 67.4601C15.8888 64.6598 18.1589 62.3896 20.9592 62.3896C23.7595 62.3896 26.0296 64.6598 26.0296 67.4601Z" fill="white"/>
<path d="M7.43805 50.5585C7.43805 52.4254 5.92465 53.9388 4.05777 53.9388C2.19089 53.9388 0.67749 52.4254 0.67749 50.5585C0.67749 48.6916 2.19089 47.1782 4.05777 47.1782C5.92465 47.1782 7.43805 48.6916 7.43805 50.5585Z" fill="#7E8082"/>
<path d="M17.579 31.9669C17.579 34.7672 15.3088 37.0373 12.5085 37.0373C9.70822 37.0373 7.43811 34.7672 7.43811 31.9669C7.43811 29.1666 9.70822 26.8965 12.5085 26.8965C15.3088 26.8965 17.579 29.1666 17.579 31.9669Z" fill="#7E8082"/>
<path d="M31.1 33.6571C31.1 35.524 29.5866 37.0374 27.7198 37.0374C25.8529 37.0374 24.3395 35.524 24.3395 33.6571C24.3395 31.7903 25.8529 30.2769 27.7198 30.2769C29.5866 30.2769 31.1 31.7903 31.1 33.6571Z" fill="#7E8082"/>
<path d="M9.12824 64.08C9.12824 65.9469 7.61484 67.4603 5.74796 67.4603C3.88108 67.4603 2.36768 65.9469 2.36768 64.08C2.36768 62.2131 3.88108 60.6997 5.74796 60.6997C7.61484 60.6997 9.12824 62.2131 9.12824 64.08Z" fill="white"/>
<path d="M22.6493 53.094C22.6493 55.4276 20.7576 57.3194 18.424 57.3194C16.0904 57.3194 14.1986 55.4276 14.1986 53.094C14.1986 50.7604 16.0904 48.8687 18.424 48.8687C20.7576 48.8687 22.6493 50.7604 22.6493 53.094Z" fill="#7E8082"/>
<path d="M14.1987 42.1078C14.1987 43.9747 12.6853 45.4881 10.8184 45.4881C8.95151 45.4881 7.43811 43.9747 7.43811 42.1078C7.43811 40.2409 8.95151 38.7275 10.8184 38.7275C12.6853 38.7275 14.1987 40.2409 14.1987 42.1078Z" fill="#7E8082"/>
<path d="M42.931 30.2768C42.931 32.1436 41.4176 33.657 39.5507 33.657C37.6838 33.657 36.1704 32.1436 36.1704 30.2768C36.1704 28.4099 37.6838 26.8965 39.5507 26.8965C41.4176 26.8965 42.931 28.4099 42.931 30.2768Z" fill="#EFEFEF"/>
<path d="M39.5507 21.8261C39.5507 23.693 38.0373 25.2064 36.1704 25.2064C34.3036 25.2064 32.7902 23.693 32.7902 21.8261C32.7902 19.9592 34.3036 18.4458 36.1704 18.4458C38.0373 18.4458 39.5507 19.9592 39.5507 21.8261Z" fill="#7E8082"/>
<path d="M24.3395 19.2911C24.3395 20.6912 23.2044 21.8263 21.8043 21.8263C20.4041 21.8263 19.269 20.6912 19.269 19.2911C19.269 17.8909 20.4041 16.7559 21.8043 16.7559C23.2044 16.7559 24.3395 17.8909 24.3395 19.2911Z" fill="#7E8082"/>
<path d="M14.1986 73.3755C14.1986 74.7757 13.0635 75.9108 11.6634 75.9108C10.2632 75.9108 9.12817 74.7757 9.12817 73.3755C9.12817 71.9754 10.2632 70.8403 11.6634 70.8403C13.0635 70.8403 14.1986 71.9754 14.1986 73.3755Z" fill="white"/>
<path d="M27.7197 26.0518C27.7197 27.452 26.5847 28.587 25.1845 28.587C23.7843 28.587 22.6493 27.452 22.6493 26.0518C22.6493 24.6517 23.7843 23.5166 25.1845 23.5166C26.5847 23.5166 27.7197 24.6517 27.7197 26.0518Z" fill="#7E8082"/>
<path d="M31.1 19.2911C31.1 20.6912 29.9649 21.8263 28.5648 21.8263C27.1646 21.8263 26.0295 20.6912 26.0295 19.2911C26.0295 17.8909 27.1646 16.7559 28.5648 16.7559C29.9649 16.7559 31.1 17.8909 31.1 19.2911Z" fill="#7E8082"/>
<path d="M42.931 15.9107C42.931 17.3109 41.796 18.4459 40.3958 18.4459C38.9956 18.4459 37.8606 17.3109 37.8606 15.9107C37.8606 14.5105 38.9956 13.3755 40.3958 13.3755C41.796 13.3755 42.931 14.5105 42.931 15.9107Z" fill="#7E8082"/>
<path d="M59.8324 24.3614C59.8324 25.7615 58.6973 26.8966 57.2972 26.8966C55.897 26.8966 54.762 25.7615 54.762 24.3614C54.762 22.9612 55.897 21.8262 57.2972 21.8262C58.6973 21.8262 59.8324 22.9612 59.8324 24.3614Z" fill="#7E8082"/>
<path d="M49.6916 31.967C49.6916 32.9004 48.9349 33.6571 48.0014 33.6571C47.068 33.6571 46.3113 32.9004 46.3113 31.967C46.3113 31.0336 47.068 30.2769 48.0014 30.2769C48.9349 30.2769 49.6916 31.0336 49.6916 31.967Z" fill="#7E8082"/>
<path d="M48.0014 20.1359C48.0014 21.0694 47.2447 21.8261 46.3112 21.8261C45.3778 21.8261 44.6211 21.0694 44.6211 20.1359C44.6211 19.2025 45.3778 18.4458 46.3112 18.4458C47.2447 18.4458 48.0014 19.2025 48.0014 20.1359Z" fill="#7E8082"/>
<path d="M41.2409 9.99532C41.2409 10.9288 40.4842 11.6855 39.5507 11.6855C38.6173 11.6855 37.8606 10.9288 37.8606 9.99532C37.8606 9.06188 38.6173 8.30518 39.5507 8.30518C40.4842 8.30518 41.2409 9.06188 41.2409 9.99532Z" fill="#7E8082"/>
<path d="M34.4803 13.3757C34.4803 14.3091 33.7236 15.0658 32.7901 15.0658C31.8567 15.0658 31.1 14.3091 31.1 13.3757C31.1 12.4422 31.8567 11.6855 32.7901 11.6855C33.7236 11.6855 34.4803 12.4422 34.4803 13.3757Z" fill="#7E8082"/>
</g>
<defs>
<clipPath id="clip0_145_1454">
<rect width="120" height="120" fill="white" transform="translate(0.67749 0.305176)"/>
</clipPath>
</defs>
</svg>
