<svg width="121" height="121" viewBox="0 0 121 121" fill="none" xmlns="http://www.w3.org/2000/svg">
<g clip-path="url(#clip0_145_1479)">
<rect width="120" height="120" transform="translate(0.85498 0.305176)" fill="#7E8082"/>
<path d="M120.292 92.6572V59.9811L107.897 53.2205V69.5586L99.4465 66.1783V48.7135L85.9254 40.8262V92.6572H99.4465V76.8825H107.897V92.6572H120.292Z" fill="white"/>
<path fill-rule="evenodd" clip-rule="evenodd" d="M85.362 39.8452L100.01 48.3898V65.7968L107.334 68.7263V52.2714L120.855 59.6466V93.2204H107.334V77.4458H100.01V93.2204H85.362V39.8452ZM86.4888 41.8069V92.0937H98.8831V76.319H108.461V92.0937H119.728V60.3155L108.461 54.1695V70.3906L98.8831 66.5596V49.037L86.4888 41.8069Z" fill="#7E8082"/>
<path fill-rule="evenodd" clip-rule="evenodd" d="M39.1648 40.8264V39.7583L38.2833 40.3614L6.17065 62.3333L5.9254 62.5011V62.7982V84.2067H1.41836H0.85498V84.7701V93.2208V93.7842H1.41836H43.6719H44.2353V93.2208V84.7701V84.2067H43.6719H39.1648V40.8264ZM7.05216 84.7701V63.0954L38.0381 41.8945V84.7701V85.3334H38.6015H43.1085V92.6574H1.98174V85.3334H6.48878H7.05216V84.7701ZM26.7705 57.7278V56.5878L25.8649 57.2803L16.2874 64.6042L16.0662 64.7733V65.0518V84.7701V85.3334H16.6296H26.2071H26.7705V84.7701V57.7278ZM17.193 84.2067V65.3302L25.6437 58.8679V84.2067H17.193Z" fill="white"/>
<path fill-rule="evenodd" clip-rule="evenodd" d="M7.05216 63.0954V84.7701V85.3334H6.48878H1.98174V92.6574H43.1085V85.3334H38.6015H38.0381V84.7701V41.8945L7.05216 63.0954ZM26.7705 57.7278V56.5878L25.8649 57.2803L16.2874 64.6042L16.0662 64.7733V65.0518V84.7701V85.3334H16.6296H26.2071H26.7705V84.7701V57.7278Z" fill="white"/>
<path fill-rule="evenodd" clip-rule="evenodd" d="M39.1648 40.8264V39.7583L38.2833 40.3614L6.17065 62.3333L5.9254 62.5011V62.7982V84.2067H1.41836H0.85498V84.7701V93.2208V93.7842H1.41836H43.6719H44.2353V93.2208V84.7701V84.2067H43.6719H39.1648V40.8264ZM7.05216 84.7701V63.0954L38.0381 41.8945V84.7701V85.3334H38.6015H43.1085V92.6574H1.98174V85.3334H6.48878H7.05216V84.7701ZM26.7705 57.7278V56.5878L25.8649 57.2803L16.2874 64.6042L16.0662 64.7733V65.0518V84.7701V85.3334H16.6296H26.2071H26.7705V84.7701V57.7278ZM17.193 84.2067V65.3302L25.6437 58.8679V84.2067H17.193Z" fill="#7E8082"/>
<path fill-rule="evenodd" clip-rule="evenodd" d="M39.7282 50.9671C39.7282 44.1179 43.0077 38.4889 47.4857 34.5596C51.9742 30.6211 57.6208 28.4319 62.2634 28.4319C73.7879 28.4319 85.362 37.8007 85.362 50.9671V70.1221C85.362 76.4101 82.2755 82.0422 77.8184 86.1146C73.3566 90.1912 67.5721 92.6573 62.2634 92.6573C57.2228 92.6573 51.5764 90.329 47.1865 86.46C42.8011 82.595 39.7282 77.2459 39.7282 71.2488V50.9671ZM62.2634 27.3052C57.3061 27.3052 51.4034 29.623 46.7426 33.7127C42.0713 37.8116 38.6014 43.7319 38.6014 50.9671V71.2488C38.6014 77.6461 41.8776 83.283 46.4414 87.3053C51.0007 91.3236 56.9035 93.784 62.2634 93.784C67.8988 93.784 73.9452 91.1797 78.5784 86.9464C83.2163 82.709 86.4888 76.7918 86.4888 70.1221V50.9671C86.4888 37.0913 74.3194 27.3052 62.2634 27.3052ZM68.4606 43.6432V78.5728C68.4606 82.3065 65.4338 85.3333 61.7 85.3333C57.9663 85.3333 54.9395 82.3065 54.9395 78.5728V43.6432C54.9395 39.9094 57.9663 36.8826 61.7 36.8826C65.4338 36.8826 68.4606 39.9094 68.4606 43.6432ZM53.8127 43.6432C53.8127 39.2872 57.344 35.7559 61.7 35.7559C66.0561 35.7559 69.5874 39.2872 69.5874 43.6432V78.5728C69.5874 82.9288 66.0561 86.4601 61.7 86.4601C57.344 86.4601 53.8127 82.9288 53.8127 78.5728V43.6432Z" fill="white"/>
<path fill-rule="evenodd" clip-rule="evenodd" d="M47.4857 34.5596C43.0077 38.4889 39.7282 44.1179 39.7282 50.9671V71.2488C39.7282 77.2459 42.8011 82.595 47.1865 86.46C51.5764 90.329 57.2228 92.6573 62.2634 92.6573C67.5721 92.6573 73.3566 90.1912 77.8184 86.1146C82.2755 82.0422 85.362 76.4101 85.362 70.1221V50.9671C85.362 37.8007 73.7879 28.4319 62.2634 28.4319C57.6208 28.4319 51.9742 30.6211 47.4857 34.5596ZM53.8127 43.6432C53.8127 39.2872 57.344 35.7559 61.7 35.7559C66.0561 35.7559 69.5874 39.2872 69.5874 43.6432V78.5728C69.5874 82.9288 66.0561 86.4601 61.7 86.4601C57.344 86.4601 53.8127 82.9288 53.8127 78.5728V43.6432Z" fill="white"/>
<path fill-rule="evenodd" clip-rule="evenodd" d="M39.7282 50.9671C39.7282 44.1179 43.0077 38.4889 47.4857 34.5596C51.9742 30.6211 57.6208 28.4319 62.2634 28.4319C73.7879 28.4319 85.362 37.8007 85.362 50.9671V70.1221C85.362 76.4101 82.2755 82.0422 77.8184 86.1146C73.3566 90.1912 67.5721 92.6573 62.2634 92.6573C57.2228 92.6573 51.5764 90.329 47.1865 86.46C42.8011 82.595 39.7282 77.2459 39.7282 71.2488V50.9671ZM62.2634 27.3052C57.3061 27.3052 51.4034 29.623 46.7426 33.7127C42.0713 37.8116 38.6014 43.7319 38.6014 50.9671V71.2488C38.6014 77.6461 41.8776 83.283 46.4414 87.3053C51.0007 91.3236 56.9035 93.784 62.2634 93.784C67.8988 93.784 73.9452 91.1797 78.5784 86.9464C83.2163 82.709 86.4888 76.7918 86.4888 70.1221V50.9671C86.4888 37.0913 74.3194 27.3052 62.2634 27.3052ZM68.4606 43.6432V78.5728C68.4606 82.3065 65.4338 85.3333 61.7 85.3333C57.9663 85.3333 54.9395 82.3065 54.9395 78.5728V43.6432C54.9395 39.9094 57.9663 36.8826 61.7 36.8826C65.4338 36.8826 68.4606 39.9094 68.4606 43.6432ZM53.8127 43.6432C53.8127 39.2872 57.344 35.7559 61.7 35.7559C66.0561 35.7559 69.5874 39.2872 69.5874 43.6432V78.5728C69.5874 82.9288 66.0561 86.4601 61.7 86.4601C57.344 86.4601 53.8127 82.9288 53.8127 78.5728V43.6432Z" fill="#7E8082"/>
<path d="M61.7 46.46L54.3761 49.8402L61.7 57.1642L69.024 49.8402L61.7 46.46Z" fill="white"/>
<path fill-rule="evenodd" clip-rule="evenodd" d="M55.3458 50.0135L61.7 56.3677L68.0543 50.0135L61.7 47.0807L55.3458 50.0135ZM54.14 49.329L61.4639 45.9487H61.9361L69.2601 49.329L69.4223 50.2389L62.0984 57.5629H61.3017L53.9777 50.2389L54.14 49.329Z" fill="#7E8082"/>
</g>
<defs>
<clipPath id="clip0_145_1479">
<rect width="120" height="120" fill="white" transform="translate(0.85498 0.305176)"/>
</clipPath>
</defs>
</svg>
