<svg width="121" height="121" viewBox="0 0 121 121" fill="none" xmlns="http://www.w3.org/2000/svg">
<g clip-path="url(#clip0_145_1441)">
<rect width="120" height="120" transform="translate(0.32251 0.305176)" fill="white"/>
<path fill-rule="evenodd" clip-rule="evenodd" d="M60.5194 31.6347C45.557 -4.82201 1.27725 2.85751 0.33208 44.8519C-0.191141 67.9159 20.8559 76.9052 34.814 86.3721C48.3486 95.5521 57.8898 107.956 59.3329 113.19C60.7186 108.109 71.7569 95.7175 84.5555 86.9848C98.5509 77.4352 120.121 69.7505 120.32 46.6815C120.688 4.57233 75.8802 -2.85234 60.5194 31.6347Z" fill="#7E8082"/>
<path fill-rule="evenodd" clip-rule="evenodd" d="M77.7014 79.0117C79.212 85.9402 71.6523 87.4659 68.3239 86.5731C64.9956 85.6802 60.8739 84.2101 60.8739 84.2101C60.8739 84.2101 56.732 85.7106 53.402 86.6237C50.0719 87.5368 42.5088 86.0532 44.0245 79.1163C45.5401 72.1794 47.5892 72.5339 50.028 67.1042C52.4669 61.6745 55.4594 57.19 60.9026 57.0026C66.3458 56.8153 68.7425 60.6804 71.7451 67.0485C74.7477 73.4166 76.1992 72.0849 77.7014 79.0117ZM67.8817 52.3898C71.978 53.5561 76.5047 50.3223 78.0086 45.1643C79.5124 40.0064 77.4009 34.894 73.3046 33.7277C69.2083 32.5614 64.6816 35.7953 63.1778 40.9516C61.6739 46.1078 63.7871 51.2236 67.8817 52.3898ZM84.8628 50.4657C80.9184 48.8741 76.071 51.6067 74.0338 56.5773C71.9966 61.5479 73.5409 66.8645 77.487 68.4511C81.4331 70.0376 86.2788 67.3101 88.3143 62.3395C90.3498 57.3689 88.8072 52.059 84.8628 50.4657ZM53.8796 52.4303C57.9776 51.2489 60.0891 46.1078 58.6055 40.965C57.1219 35.8223 52.5901 32.6154 48.4972 33.8054C44.4042 34.9953 42.2877 40.1296 43.7713 45.2706C45.2549 50.4117 49.7816 53.6203 53.8796 52.4303ZM44.2591 68.5472C48.2052 66.932 49.758 61.6053 47.7293 56.6532C45.7005 51.7012 40.8565 48.9889 36.9087 50.6058C32.9609 52.2228 31.4098 57.5478 33.4385 62.4998C35.4673 67.4519 40.3113 70.1625 44.2591 68.5472Z" fill="white"/>
</g>
<defs>
<clipPath id="clip0_145_1441">
<rect width="120" height="120" fill="white" transform="translate(0.32251 0.305176)"/>
</clipPath>
</defs>
</svg>
