<svg width="121" height="121" viewBox="0 0 121 121" fill="none" xmlns="http://www.w3.org/2000/svg">
<g clip-path="url(#clip0_145_1446)">
<rect width="120" height="120" transform="translate(0.5 0.305176)" fill="white"/>
<g clip-path="url(#clip1_145_1446)">
<path d="M120.5 59.5486C118.267 59.7679 116.529 59.9323 115.286 60.0419C115.234 56.2916 115.144 53.0159 115.017 50.2147C114.89 47.4135 114.719 45.0479 114.502 43.1179C114.641 42.9535 114.762 42.7934 114.875 42.6419C114.985 42.4868 115.11 42.342 115.247 42.2092L111.854 40.3052C110.749 42.0361 109.555 44.1464 108.271 46.636C106.987 49.1256 105.601 52.0105 104.113 55.2906C102.927 57.8869 101.816 60.4112 100.781 62.8633C99.7449 65.3154 98.7598 67.7257 97.8251 70.0942C98.402 68.9662 99.0497 67.7661 99.768 66.4939C100.486 65.2217 101.272 63.8427 102.126 62.357C103.312 62.2488 104.472 62.357 105.934 62.2964C107.207 62.2618 108.457 62.2315 109.729 62.2359L107.012 77.3814L115.173 75.8755C115.255 72.4829 115.294 70.4188 115.294 66.3338V62.1147C116.069 62.1407 116.787 62.1623 117.458 62.1753C118.129 62.1883 118.726 62.2229 119.275 62.2791L120.517 59.5486H120.5ZM110.236 60.2929C107.09 61.0502 106.389 61.0935 102.416 61.8637C104.294 58.6096 106.082 55.6367 107.778 52.9452C109.474 50.2536 111.108 47.8015 112.681 45.5888C111.815 52.7591 111.322 55.7017 110.236 60.3016V60.2929Z" fill="black"/>
<path d="M96.4879 72.5261C91.6644 68.2508 87.5477 64.6995 84.1378 61.8723C80.7279 59.0452 77.9873 56.9277 75.916 55.5199C76.1799 54.8059 76.0285 54.9876 76.4006 54.0226C86.1947 50.105 93.2857 46.7124 97.6736 43.8449L97.0937 40.4912C95.3282 42.176 92.7621 44.0511 89.3955 46.1167C86.0288 48.1822 81.8371 50.4454 76.8204 52.9062C78.2282 49.1299 79.4831 46.0821 80.5851 43.7626L77.093 41.3999C76.4295 43.2203 75.7674 45.1935 75.1068 47.3197C74.4461 49.4458 73.7696 51.7537 73.0773 54.2433L67.6249 57.346L71.5887 59.6611C70.9655 64.7327 70.178 70.4793 69.5289 75.724C70.4982 71.8597 71.818 66.9093 73.8562 60.8684C82.2684 66.9266 87.9458 73.8113 93.0866 79.3373L96.5052 72.5391L96.4879 72.5261Z" fill="#7E8082"/>
<path d="M5.64082 76.1526C8.48769 74.5942 11.1302 72.6886 13.5078 70.4795C15.5857 68.5223 17.3503 66.2572 18.7395 63.7635C20.1116 61.2512 21.0978 58.5466 21.6648 55.7407C22.2957 52.5606 22.5988 49.3242 22.5692 46.0823V45.0177C22.5692 44.6326 22.5692 44.2518 22.5259 43.8667L17.4716 41.3828C11.812 44.1789 7.24445 48.7799 4.48976 54.4599C2.11841 59.3064 0.788486 65.3199 0.5 72.5003L5.64082 76.1353V76.1526ZM19.0208 56.3336C18.9732 59.5401 17.8654 61.8639 16.2167 64.6203C14.9488 66.7277 12.5082 69.2289 10.6908 69.6616C7.22893 69.9689 4.63256 65.6762 4.63256 62.513C4.63256 56.749 6.76159 51.9544 11.2447 48.2329C15.8662 47.93 19.1506 50.9678 19.0338 56.3466L19.0208 56.3336Z" fill="black"/>
<path d="M47.9617 76.1526C50.8085 74.5942 53.4511 72.6886 55.8287 70.4795C57.9157 68.5187 59.6876 66.2475 61.082 63.7462C62.4523 61.2331 63.4383 58.5288 64.0072 55.7234C64.6385 52.5492 64.943 49.3186 64.916 46.0823V45.0177C64.916 44.6326 64.916 44.2518 64.8684 43.8667L59.7838 41.3828C54.1246 44.1795 49.5572 48.7803 46.802 54.4599C44.4393 59.3064 43.1108 65.3199 42.8165 72.5003L47.9617 76.1526ZM61.3416 56.3336C61.2897 59.5401 60.1863 61.8639 58.5376 64.6203C57.2653 66.7277 54.8247 69.2289 53.0073 69.6616C49.5455 69.9689 46.9491 65.6762 46.9491 62.513C46.9491 56.749 49.0738 51.9544 53.5569 48.2329C58.1827 47.93 61.4628 50.9678 61.346 56.3466L61.3416 56.3336Z" fill="black"/>
<path d="M38.9046 65.0962C35.4629 69.1184 31.6174 72.7768 27.4287 76.0139L21.2363 71.8251C22.8687 66.2243 24.8191 60.7211 27.0782 55.3424C29.6313 49.1371 31.8815 44.4795 33.8287 41.3696L39.6706 43.0529L38.9046 50.4093L32.7123 48.1851C31.6939 49.8987 30.3496 53.2365 28.6793 58.1985C27.1041 62.8863 25.8983 67.0607 25.0616 70.7216C30.4419 69.6081 35.0577 67.7329 38.909 65.0962H38.9046Z" fill="#1D1D1B"/>
</g>
</g>
<defs>
<clipPath id="clip0_145_1446">
<rect width="120" height="120" fill="white" transform="translate(0.5 0.305176)"/>
</clipPath>
<clipPath id="clip1_145_1446">
<rect width="120" height="39.0191" fill="white" transform="translate(0.5 40.3052)"/>
</clipPath>
</defs>
</svg>
