<svg width="121" height="121" viewBox="0 0 121 121" fill="none" xmlns="http://www.w3.org/2000/svg">
<g clip-path="url(#clip0_145_1424)">
<rect width="120" height="120" transform="translate(0.14502 0.305176)" fill="white"/>
<path fill-rule="evenodd" clip-rule="evenodd" d="M19.9987 2.0127L11.8881 82.0285L19.9987 88.3842L22.2754 51.151L30.4335 70.8823L37.0264 51.6728L47.5086 109.776L59.2715 119.072L41.058 18.3289L30.2912 49.2064L19.9987 2.0127Z" fill="#7E8082"/>
<path fill-rule="evenodd" clip-rule="evenodd" d="M79.2873 16.7163L61.6904 118.693L72.8841 106.123L82.1331 44.3685L93.3742 82.6926L100.916 74.2499L79.2873 16.7163Z" fill="#EFEFEF"/>
<path d="M7.14502 78.3765L60.5996 120.068" stroke="black" stroke-width="0.5669" stroke-miterlimit="22.9256"/>
<path d="M145.406 23.7358L60.4573 120.02" stroke="black" stroke-width="0.5669" stroke-miterlimit="22.9256"/>
<path fill-rule="evenodd" clip-rule="evenodd" d="M79.145 16.7163L72.0304 23.3566L60.3149 92.0839L60.4572 120.021L62.1173 118.218L79.2398 17.0483L79.145 16.7163Z" fill="#7E8082"/>
<path fill-rule="evenodd" clip-rule="evenodd" d="M48.0778 23.7836L60.315 92.3686L60.5996 120.305L58.9395 118.456L41.0106 18.3291L48.0778 23.7836Z" fill="#EFEFEF"/>
<path fill-rule="evenodd" clip-rule="evenodd" d="M20.0463 2.20264L27.398 7.94177L34.5601 36.7797L30.1965 49.4912L20.0463 2.2975V2.20264Z" fill="#EFEFEF"/>
<path fill-rule="evenodd" clip-rule="evenodd" d="M84.2201 81.3647L93.4217 82.6928L82.1332 44.3687L79.3822 62.6295L84.2201 81.3647Z" fill="#7E8082"/>
<path fill-rule="evenodd" clip-rule="evenodd" d="M29.2004 87.056L19.9988 88.2892L22.2755 51.1509L30.4336 70.8821L29.2004 87.056Z" fill="#EFEFEF"/>
<path fill-rule="evenodd" clip-rule="evenodd" d="M39.6352 69.6015L30.4336 70.8821L37.0265 51.4829L39.8723 67.3722L39.6352 69.6015Z" fill="#EFEFEF"/>
<path d="M7.14502 -8.04248L60.5996 33.6967" stroke="black" stroke-width="0.5669" stroke-miterlimit="22.9256"/>
<path d="M110.307 -11.6948L60.4573 33.649" stroke="black" stroke-width="0.5669" stroke-miterlimit="22.9256"/>
</g>
<defs>
<clipPath id="clip0_145_1424">
<rect width="120" height="120" fill="white" transform="translate(0.14502 0.305176)"/>
</clipPath>
</defs>
</svg>
