<svg width="120" height="120" viewBox="0 0 120 120" fill="none" xmlns="http://www.w3.org/2000/svg">
<rect width="120" height="120" fill="white"/>
<path d="M32.884 50.4105V51.5805H42.3222C42.2832 52.8285 41.8151 54.3886 41.0351 55.5586C39.9821 57.1576 37.6421 58.7957 34.327 58.7957C29.3739 58.7957 25.7078 54.9346 25.7078 50.1375C25.7078 45.2234 29.4519 41.3233 34.405 41.3233C36.784 41.3233 38.6951 42.3373 39.9041 43.3513C40.4111 43.7803 41.1911 44.5604 41.7372 45.4964L42.7512 44.6774C41.9712 43.5853 41.2301 42.8833 40.4501 42.2593C38.9681 41.0893 37.135 40.1923 34.405 40.1923C28.7889 40.1923 24.3428 44.4043 24.3428 50.0985C24.3428 55.8316 28.6329 59.9657 34.288 59.9657C37.2521 59.9657 39.8261 58.9127 41.5421 56.7286C43.1412 54.7006 43.4922 52.1655 43.4922 50.4105H32.884ZM74.9269 50.6445C75.7069 49.5915 76.0969 48.3044 76.0969 46.7834C76.0969 44.7554 75.3949 43.1563 74.0298 41.9863C72.6258 40.8163 70.7148 40.2703 68.2967 40.2703H61.3936V41.5183H63.5386H68.2967C70.3638 41.5183 71.9628 41.9863 73.0548 42.8833C74.1468 43.7803 74.6929 45.1064 74.6929 46.7834C74.6929 48.4604 74.1468 49.7475 73.0548 50.6835C71.9628 51.5805 70.4028 52.0485 68.2967 52.0485H61.3546V59.6147H62.7586V53.2965H68.2967C68.8817 53.2965 69.5057 53.2575 70.1688 53.1405L74.8099 59.6147H76.4089L71.5728 52.8285C73.0158 52.4385 74.1469 51.6975 74.9269 50.6445ZM94.1543 59.7317H95.5583V40.1143H94.1543V59.7317ZM82.337 40.2703H78.5149L78.4759 41.3623L82.298 41.4013C87.4071 41.4013 90.9562 44.9504 90.9562 49.9425C90.9562 54.9736 87.4461 58.4447 82.298 58.4447H78.4759V59.5367L82.337 59.5757C84.0531 59.5757 87.0561 59.3027 89.5132 56.8846C91.5802 54.8176 92.3212 52.0485 92.3212 49.9035C92.3212 47.7974 91.5802 44.9894 89.5132 42.9223C87.0561 40.5433 84.0531 40.2703 82.337 40.2703ZM51.4874 40.7383L43.8042 59.7707H45.2082C47.3533 54.4276 49.5373 49.1235 51.7214 43.8193C53.9054 49.0845 56.0505 54.3496 58.1955 59.6537H59.5995L51.7214 40.1923L51.4874 40.7383Z" fill="#161616"/>
<path d="M53.5153 55.7927H49.7712V59.5368H53.5153V55.7927Z" fill="#FFCD00"/>
<path fill-rule="evenodd" clip-rule="evenodd" d="M60.1715 117.653L63.5666 114.688C92.1169 89.7586 106.629 67.991 106.629 48.857C106.629 21.7605 85.48 2.3999 60.1715 2.3999C34.863 2.3999 13.7144 21.7605 13.7144 48.857C13.7144 67.991 28.2261 89.7586 56.7764 114.688L60.1715 117.653ZM60.4339 111.15C32.8048 86.3855 19.2262 65.4006 19.2262 48.7193C19.2262 24.6954 37.8528 7.73676 60.4339 7.73676C83.0151 7.73676 101.642 24.6954 101.642 48.7193C101.642 65.4006 88.0631 86.3855 60.4339 111.15Z" fill="black"/>
</svg>
