<svg width="120" height="120" viewBox="0 0 120 120" fill="none" xmlns="http://www.w3.org/2000/svg">
<g clip-path="url(#clip0_77_186)">
<rect width="120" height="120" fill="white"/>
<path fill-rule="evenodd" clip-rule="evenodd" d="M8.10811 12.1622C8.10811 9.92317 9.92317 8.10811 12.1622 8.10811C14.4012 8.10811 16.2162 9.92317 16.2162 12.1622C16.2162 14.4012 14.4012 16.2162 12.1622 16.2162C9.92317 16.2162 8.10811 14.4012 8.10811 12.1622ZM12.1622 0C5.44519 0 0 5.44519 0 12.1622C0 17.4576 3.38436 21.9627 8.10811 23.6323V96.3677C3.38436 98.0373 0 102.542 0 107.838C0 114.555 5.44519 120 12.1622 120C17.756 120 22.4678 116.224 23.8871 111.081H96.1129C97.5322 116.224 102.244 120 107.838 120C114.555 120 120 114.555 120 107.838C120 102.542 116.616 98.0373 111.892 96.3677V72.2809C116.616 70.6113 120 66.1063 120 60.8108C120 54.0938 114.555 48.6486 107.838 48.6486C102.851 48.6486 98.5644 51.6505 96.6877 55.9459H71.961C70.0842 51.6505 65.7981 48.6486 60.8108 48.6486C54.0938 48.6486 48.6486 54.0938 48.6486 60.8108C48.6486 67.5278 54.0938 72.973 60.8108 72.973C66.4046 72.973 71.1164 69.1965 72.5358 64.0541H96.1129C97.1715 67.8897 100.062 70.9654 103.784 72.2809V96.3677C100.603 97.492 98.0295 99.9018 96.6877 102.973H23.3123C21.9705 99.9018 19.397 97.492 16.2162 96.3677V23.6323C19.9381 22.3168 22.8285 19.2411 23.8871 15.4054H96.1129C97.5322 20.5479 102.244 24.3243 107.838 24.3243C114.555 24.3243 120 18.8791 120 12.1622C120 5.44519 114.555 0 107.838 0C102.851 0 98.5644 3.00185 96.6877 7.2973H23.3123C21.4356 3.00185 17.1494 0 12.1622 0ZM107.838 8.10811C105.599 8.10811 103.784 9.92317 103.784 12.1622C103.784 14.4012 105.599 16.2162 107.838 16.2162C110.077 16.2162 111.892 14.4012 111.892 12.1622C111.892 9.92317 110.077 8.10811 107.838 8.10811ZM12.1622 103.784C9.92317 103.784 8.10811 105.599 8.10811 107.838C8.10811 110.077 9.92317 111.892 12.1622 111.892C14.4012 111.892 16.2162 110.077 16.2162 107.838C16.2162 105.599 14.4012 103.784 12.1622 103.784ZM103.784 107.838C103.784 105.599 105.599 103.784 107.838 103.784C110.077 103.784 111.892 105.599 111.892 107.838C111.892 110.077 110.077 111.892 107.838 111.892C105.599 111.892 103.784 110.077 103.784 107.838ZM107.838 56.7568C105.599 56.7568 103.784 58.5718 103.784 60.8108C103.784 63.0498 105.599 64.8649 107.838 64.8649C110.077 64.8649 111.892 63.0498 111.892 60.8108C111.892 58.5718 110.077 56.7568 107.838 56.7568ZM56.7568 60.8108C56.7568 58.5718 58.5718 56.7568 60.8108 56.7568C63.0498 56.7568 64.8649 58.5718 64.8649 60.8108C64.8649 63.0498 63.0498 64.8649 60.8108 64.8649C58.5718 64.8649 56.7568 63.0498 56.7568 60.8108Z" fill="black"/>
</g>
<defs>
<clipPath id="clip0_77_186">
<rect width="120" height="120" fill="white"/>
</clipPath>
</defs>
</svg>
