<svg width="47" height="53" viewBox="0 0 47 53" fill="none" xmlns="http://www.w3.org/2000/svg">
<path d="M4.21312 47.2519L0 0H46.2937L42.075 47.2444L23.1187 52.5L4.21312 47.2519Z" fill="#E44F26"/>
<path d="M23.147 48.4838L38.4657 44.2369L42.0695 3.86438H23.147V48.4838Z" fill="#F1662A"/>
<path d="M23.147 21.3881H15.4782L14.9495 15.4537H23.147V9.65808H23.1263H8.61572L8.75447 11.2143L10.1776 27.1837H23.147V21.3881Z" fill="#EBEBEB"/>
<path d="M23.1469 36.4388L23.1207 36.4463L16.6669 34.7044L16.2544 30.0825H13.1175H10.4363L11.2482 39.18L23.1207 42.4763L23.1469 42.4688V36.4388Z" fill="#EBEBEB"/>
<path d="M23.1265 21.3882V27.1838H30.2627L29.5915 34.7007L23.1265 36.4444V42.4744L35.0083 39.1801L35.0946 38.2013L36.4558 22.9444L36.5983 21.3882H35.0365H23.1265Z" fill="white"/>
<path d="M23.1265 9.65808V13.2581V15.4406V15.4537H37.1065H37.1252L37.2415 14.1525L37.5058 11.2143L37.6446 9.65808H23.1265Z" fill="white"/>
</svg>
