<svg width="120" height="120" viewBox="0 0 120 120" fill="none" xmlns="http://www.w3.org/2000/svg">
<g clip-path="url(#clip0_77_199)">
<rect width="120" height="120" fill="white"/>
<path d="M117.922 111.683L122.431 110.475L117.495 110.092C109.021 103.929 84.5984 92.3542 54.7013 95.3616C24.8042 98.3691 6.19064 112.719 0.620988 119.518C1.65192 118.768 4.99355 116.527 10.1126 113.563C16.5114 109.859 31.45 103.013 61.8349 99.7045C86.1429 97.0575 109.355 106.587 117.922 111.683Z" fill="#FF0200"/>
<g clip-path="url(#clip1_77_199)">
<path d="M61.1452 41.2812C61.1452 41.2812 56.5749 39.0687 52.7358 37.4094C49.0796 35.75 47.9827 33.5375 50.7249 32.6156C53.2843 31.6937 59.3171 31.325 64.0702 31.5094C66.0811 31.6937 72.4796 32.0625 72.4796 32.0625C77.2327 32.2469 77.5983 33.9062 73.2108 35.3812L61.1452 41.2812Z" fill="#42ADE2"/>
<path d="M16.1734 58.6125C16.1734 58.6125 11.4203 60.4562 11.0547 62.6687C10.5063 64.5125 8.86094 89.7718 114.709 30.2187C120.925 26.7156 117.817 22.8437 109.225 21.9218C83.2656 18.9718 89.6641 21 16.1734 58.6125Z" fill="#DAE3EA"/>
<path d="M39.5735 46.4437C39.5735 46.4437 16.1735 39.4374 8.49536 36.8562C3.55942 35.1968 1.18286 40.7281 1.18286 40.7281C1.18286 40.7281 10.3235 63.2218 11.2375 62.6687L39.3907 48.1031C40.3047 47.5499 40.3047 46.8124 39.5735 46.4437" fill="#42ADE2"/>
<path d="M64.6188 68.0156C64.6188 68.0156 45.6063 69.675 32.6266 82.95C31.8954 83.6875 30.4329 85.7156 32.8095 86.8219C37.3798 88.1125 48.1657 89.2187 66.447 80.3687L64.6188 68.0156" fill="#C5D0D8"/>
<path d="M66.6296 80.1844C64.9843 80.7376 63.1562 78.5251 62.2421 75.2063C61.5109 71.8876 62.0593 68.7532 63.7046 68.2001C65.3499 67.6469 67.1781 69.8594 68.0921 73.1782C68.8234 76.4969 68.2749 79.6313 66.6296 80.1844Z" fill="#94989B"/>
<path d="M61.8765 49.0249C57.3062 51.0531 55.1124 52.1593 52.553 56.3999L33.5405 85.1624C30.9812 89.4031 32.8093 91.4312 37.5624 89.9562C42.3155 88.2968 48.8968 84.0562 52.0046 80.1843L82.1687 44.0468C85.2765 40.1749 84.1796 38.8843 79.6093 40.9124L61.8765 49.0249" fill="#42ADE2"/>
<path d="M65.1671 75.575C64.6187 73.1781 63.5218 71.3344 62.2422 70.7813C62.0593 72.0719 62.0593 73.5469 62.425 75.2062C62.9734 77.6031 64.0703 79.4469 65.35 80C65.5328 78.7094 65.5328 77.2344 65.1671 75.575Z" fill="#3E4347"/>
<path d="M100.45 22.2906C99.5358 23.7656 94.5999 28.0063 94.5999 28.0063C94.5999 28.0063 95.5139 29.6656 98.4389 28.7438C100.815 28.0063 103.192 25.7938 104.472 23.2125L100.45 22.2906Z" fill="#3E4347"/>
<path d="M39.939 54.9251C40.9486 54.9251 41.7671 54.0996 41.7671 53.0813C41.7671 52.063 40.9486 51.2375 39.939 51.2375C38.9293 51.2375 38.1108 52.063 38.1108 53.0813C38.1108 54.0996 38.9293 54.9251 39.939 54.9251Z" fill="#3E4347"/>
<path d="M46.5203 51.6063C47.5299 51.6063 48.3484 50.7808 48.3484 49.7626C48.3484 48.7443 47.5299 47.9188 46.5203 47.9188C45.5106 47.9188 44.6921 48.7443 44.6921 49.7626C44.6921 50.7808 45.5106 51.6063 46.5203 51.6063Z" fill="#3E4347"/>
<path d="M53.1016 48.1031C54.1112 48.1031 54.9297 47.2777 54.9297 46.2594C54.9297 45.2411 54.1112 44.4156 53.1016 44.4156C52.0919 44.4156 51.2734 45.2411 51.2734 46.2594C51.2734 47.2777 52.0919 48.1031 53.1016 48.1031Z" fill="#3E4347"/>
<path d="M59.8655 44.6C60.8751 44.6 61.6936 43.7745 61.6936 42.7562C61.6936 41.738 60.8751 40.9125 59.8655 40.9125C58.8558 40.9125 58.0374 41.738 58.0374 42.7562C58.0374 43.7745 58.8558 44.6 59.8655 44.6Z" fill="#3E4347"/>
<path d="M66.4468 41.0969C67.4564 41.0969 68.2749 40.2714 68.2749 39.2532C68.2749 38.2349 67.4564 37.4094 66.4468 37.4094C65.4371 37.4094 64.6187 38.2349 64.6187 39.2532C64.6187 40.2714 65.4371 41.0969 66.4468 41.0969Z" fill="#3E4347"/>
<path d="M73.0281 37.7782C74.0377 37.7782 74.8562 36.9527 74.8562 35.9344C74.8562 34.9162 74.0377 34.0907 73.0281 34.0907C72.0184 34.0907 71.2 34.9162 71.2 35.9344C71.2 36.9527 72.0184 37.7782 73.0281 37.7782Z" fill="#3E4347"/>
<path d="M79.6094 34.275C80.619 34.275 81.4375 33.4495 81.4375 32.4313C81.4375 31.413 80.619 30.5875 79.6094 30.5875C78.5997 30.5875 77.7812 31.413 77.7812 32.4313C77.7812 33.4495 78.5997 34.275 79.6094 34.275Z" fill="#3E4347"/>
</g>
</g>
<defs>
<clipPath id="clip0_77_199">
<rect width="120" height="120" fill="white"/>
</clipPath>
<clipPath id="clip1_77_199">
<rect width="117" height="118" fill="white" transform="translate(1 21)"/>
</clipPath>
</defs>
</svg>
