<svg width="188" height="188" viewBox="0 0 188 188" fill="none" xmlns="http://www.w3.org/2000/svg">
<g clip-path="url(#clip0_101_357)">
<path d="M188 0H0V188H188V0Z" fill="#F7DF1E"/>
<path d="M126.288 146.876C130.075 153.059 135.002 157.604 143.716 157.604C151.036 157.604 155.712 153.945 155.712 148.89C155.712 142.832 150.907 140.687 142.85 137.162L138.434 135.268C125.685 129.836 117.217 123.033 117.217 108.649C117.217 95.3996 127.312 85.3132 143.089 85.3132C154.321 85.3132 162.396 89.2224 168.215 99.458L154.458 108.291C151.43 102.86 148.162 100.72 143.089 100.72C137.914 100.72 134.635 104.003 134.635 108.291C134.635 113.591 137.917 115.736 145.497 119.019L149.914 120.911C164.924 127.348 173.399 133.91 173.399 148.663C173.399 164.569 160.904 173.282 144.124 173.282C127.718 173.282 117.118 165.464 111.932 155.216L126.288 146.876ZM63.8812 148.407C66.6565 153.33 69.181 157.493 75.2508 157.493C81.0549 157.493 84.7164 155.222 84.7164 146.392V86.3219H102.382V146.631C102.382 164.924 91.6575 173.249 76.0028 173.249C61.858 173.249 53.6666 165.929 49.5007 157.113L63.8812 148.407Z" fill="black"/>
</g>
<defs>
<clipPath id="clip0_101_357">
<rect width="188" height="188" fill="white"/>
</clipPath>
</defs>
</svg>
