<svg width="60" height="60" viewBox="0 0 60 60" fill="none" xmlns="http://www.w3.org/2000/svg">
<g clip-path="url(#clip0_101_332)">
<path d="M37.6042 48.7499C38.073 49.4271 38.3594 49.375 38.7238 49.2187C39.0883 49.0624 57.8385 42.7342 58.4113 42.5261C58.9841 42.3178 58.802 42.1354 58.6199 41.8488C58.4376 41.5624 52.1875 33.0728 51.8748 32.5781C51.5624 32.0833 51.4061 32.1874 50.9113 32.3437L31.0352 37.5157C31.0352 37.5157 37.1355 48.0726 37.6042 48.7499ZM59.9999 40.105V30.168C57.7637 30.7638 54.9353 31.5171 53.8187 31.814C55.5032 34.0678 58.1366 37.5949 59.9999 40.105ZM53.7995 19.5752C53.4932 19.6448 46.7104 20.8706 46.2925 20.9261C45.8748 20.9819 46.0141 21.2186 46.1812 21.4553L52.15 29.6451C52.15 29.6451 59.4482 27.8346 59.894 27.7371C59.9301 27.7291 59.9655 27.7206 59.9999 27.712V26.6275C58.6734 24.9454 55.0593 20.3655 54.7469 19.9375C54.3709 19.4221 54.1061 19.5058 53.7995 19.5752V19.5752Z" fill="#F35045"/>
<path d="M11.1225 6.71109C12.5913 6.6443 12.7253 6.97852 13.3706 7.93547L29.5823 35.0391L49.9668 30.1559C48.8374 28.5548 43.7102 21.2857 43.2145 20.592C42.6576 19.812 43.2285 19.4498 44.1339 19.2968C45.0391 19.1435 52.8386 17.8343 53.5071 17.7368C54.1757 17.6393 54.7052 17.4026 55.7913 18.7118C56.3472 19.3816 58.2316 21.7282 59.9999 23.9278V11.25C59.9999 8.15109 58.8996 5.50125 56.6992 3.3007C54.4987 1.10039 51.8489 0 48.7499 0H11.25C8.15104 0 5.5012 1.10039 3.30065 3.3007C2.03854 4.56328 1.14019 5.97352 0.602295 7.53141C4.27683 7.22953 10.0947 6.75797 11.1227 6.71109H11.1225Z" fill="#F35045"/>
<path d="M39.4427 52.3978C37.7238 52.9186 36.953 53.1771 35.8334 51.6145C34.9948 50.4443 30.4598 42.2763 28.2363 38.2498C24.0281 39.3518 16.3268 41.3618 14.1059 41.8955C11.9384 42.4162 11.0126 41.1166 10.6566 40.3158C10.407 39.7537 4.05211 26.0527 0 17.2617V48.75C0 51.8491 1.10039 54.4985 3.3007 56.6993C5.50125 58.8996 8.15109 60 11.25 60H48.75C51.8489 60 54.4988 58.8996 56.6993 56.6993C58.8996 54.4985 60 51.8491 60 48.75V45.0513C55.3969 46.7351 40.6008 52.047 39.4427 52.3978Z" fill="#F35045"/>
<path d="M14.159 38.7393C14.7684 38.5999 26.1855 35.8675 26.4292 35.8153C26.673 35.763 26.8296 35.6238 26.5685 35.1714C26.3074 34.7191 11.3496 8.90034 11.3496 8.90034C11.2115 8.66338 11.2509 8.5844 10.8756 8.60409C10.5412 8.6219 2.07768 9.37706 0.118301 9.54065C0.0604625 9.95496 0.0243973 10.372 0.0102539 10.7901C1.99939 14.8624 13.4163 38.4081 13.4803 38.5999C13.5499 38.8089 13.5499 38.8785 14.159 38.7393V38.7393Z" fill="#F35045"/>
</g>
<defs>
<clipPath id="clip0_101_332">
<rect width="60" height="60" fill="white"/>
</clipPath>
</defs>
</svg>
