<svg width="147" height="43" viewBox="0 0 147 43" fill="none" xmlns="http://www.w3.org/2000/svg">
<path d="M51.1571 35.7607C51.2314 35.9538 51.4169 36.0813 51.6238 36.0813H55.3772C55.5424 36.0813 55.6969 35.9997 55.7901 35.8632C55.8833 35.7268 55.903 35.5532 55.8429 35.3993L47.5021 14.0505C47.4271 13.8586 47.2421 13.7323 47.0361 13.7324C46.83 13.7325 46.6452 13.859 46.5704 14.051L38.2594 35.3999C38.1995 35.5537 38.2194 35.7272 38.3126 35.8635C38.4058 35.9998 38.5602 36.0813 38.7253 36.0813H42.4787C42.6876 36.0813 42.8745 35.9514 42.9473 35.7556L43.7198 33.6795H50.3569L51.1571 35.7607ZM69.2466 23.2801C68.9705 23.2801 68.7466 23.504 68.7466 23.7801V27.0714C68.7466 27.3475 68.9705 27.5714 69.2466 27.5714H72.2319V29.8732C71.0499 31.1396 69.3899 31.9086 67.5189 31.9086C65.6856 31.9086 64.0857 31.3998 62.9481 30.3413C61.8172 29.2892 61.0781 27.6335 61.0781 25.2034C61.0781 23.0535 61.8094 21.3858 62.9581 20.256C64.1095 19.1235 65.7141 18.4981 67.5189 18.4981C69.2902 18.4981 70.9218 19.2146 72.0813 20.3688C72.2764 20.5629 72.5917 20.5629 72.7868 20.3688L75.2294 17.9374C75.4247 17.743 75.4259 17.4273 75.2322 17.2314C73.2641 15.2413 70.5455 14.0289 67.5189 14.0289C61.4911 14.0289 56.5928 18.7622 56.5928 25.2034C56.5928 28.7088 57.7255 31.5106 59.6264 33.438C61.526 35.3641 64.1545 36.3778 67.0721 36.3778C69.2948 36.3778 71.0031 35.9113 72.5891 34.7111L72.6808 35.7157C72.7043 35.9731 72.9202 36.1702 73.1788 36.1702H76.2172C76.4933 36.1702 76.7172 35.9464 76.7172 35.6702V23.7801C76.7172 23.504 76.4933 23.2801 76.2172 23.2801H69.2466ZM94.6694 18.7946C94.9456 18.7946 95.1694 18.5708 95.1694 18.2946V14.8254C95.1694 14.5493 94.9456 14.3254 94.6694 14.3254H80.7581C80.482 14.3254 80.2581 14.5493 80.2581 14.8254V35.5813C80.2581 35.8574 80.482 36.0813 80.7581 36.0813H94.6694C94.9456 36.0813 95.1694 35.8574 95.1694 35.5813V32.1121C95.1694 31.8359 94.9456 31.6121 94.6694 31.6121H84.7434V27.4231H92.9119C93.1881 27.4231 93.4119 27.1993 93.4119 26.9231V23.4836C93.4119 23.2074 93.1881 22.9836 92.9119 22.9836H84.7434V18.7946H94.6694ZM109.471 31.6121H102.256V14.8254C102.256 14.5493 102.032 14.3254 101.756 14.3254H98.2706C97.9945 14.3254 97.7706 14.5493 97.7706 14.8254V35.5813C97.7706 35.8574 97.9945 36.0813 98.2706 36.0813H109.471C109.747 36.0813 109.971 35.8574 109.971 35.5813V32.1121C109.971 31.8359 109.747 31.6121 109.471 31.6121ZM123.273 35.7607C123.347 35.9538 123.532 36.0813 123.739 36.0813H127.493C127.658 36.0813 127.812 35.9997 127.906 35.8632C127.999 35.7268 128.018 35.5532 127.958 35.3993L119.618 14.0505C119.543 13.8586 119.358 13.7323 119.152 13.7324C118.945 13.7325 118.761 13.859 118.686 14.051L110.375 35.3999C110.315 35.5537 110.335 35.7272 110.428 35.8635C110.521 35.9998 110.676 36.0813 110.841 36.0813H114.594C114.803 36.0813 114.99 35.9514 115.063 35.7556L115.835 33.6795H122.472L123.273 35.7607ZM144.847 36.0813C145.029 36.0813 145.197 35.9824 145.285 35.8232C145.373 35.664 145.368 35.4695 145.271 35.3154L139.955 26.8489C140.851 26.5297 141.807 26.0285 142.594 25.2419C143.583 24.2533 144.275 22.843 144.275 20.8743C144.275 19.2587 143.807 18.0159 143.082 17.0727C142.363 16.1363 141.413 15.524 140.489 15.1229C139.564 14.7218 138.647 14.5237 137.965 14.4251C137.623 14.3756 137.337 14.3507 137.135 14.3382C137.034 14.3319 136.953 14.3288 136.897 14.3271C136.869 14.3263 136.847 14.3259 136.831 14.3257L136.813 14.3255L136.807 14.3255L136.806 14.3254L136.805 14.3254C136.805 14.3254 136.804 14.3254 136.804 14.8254V14.3254H129.864C129.588 14.3254 129.364 14.5493 129.364 14.8254V18.2946C129.364 18.3898 129.391 18.483 129.442 18.5633L132.259 22.9836H129.864C129.588 22.9836 129.364 23.2074 129.364 23.4836V35.5813C129.364 35.8574 129.588 36.0813 129.864 36.0813H133.349C133.625 36.0813 133.849 35.8574 133.849 35.5813V27.4231H135.068L140.343 35.8466C140.434 35.9926 140.594 36.0813 140.766 36.0813H144.847ZM45.21 29.6847L47.0364 24.4876L48.8627 29.6847H45.21ZM117.325 29.6847L119.152 24.4876L120.978 29.6847H117.325ZM137.505 22.918L134.91 18.7946L136.804 18.7946L136.804 18.7946L136.804 18.7946L136.808 18.7947L136.831 18.7951C136.852 18.7956 136.885 18.7967 136.928 18.799C137.013 18.8035 137.138 18.8127 137.288 18.8312C137.591 18.8685 137.986 18.9425 138.374 19.086C138.764 19.2304 139.119 19.4351 139.374 19.7176C139.618 19.9894 139.79 20.3542 139.79 20.8743C139.79 21.6822 139.39 22.1576 138.864 22.4668C138.427 22.7228 137.914 22.8538 137.505 22.918Z" fill="url(#paint0_linear_86_663)" stroke="url(#paint1_linear_86_663)" stroke-linejoin="round"/>
<path d="M51.1571 35.7607C51.2314 35.9538 51.4169 36.0813 51.6238 36.0813H55.3772C55.5424 36.0813 55.6969 35.9997 55.7901 35.8632C55.8833 35.7268 55.903 35.5532 55.8429 35.3993L47.5021 14.0505C47.4271 13.8586 47.2421 13.7323 47.0361 13.7324C46.83 13.7325 46.6452 13.859 46.5704 14.051L38.2594 35.3999C38.1995 35.5537 38.2194 35.7272 38.3126 35.8635C38.4058 35.9998 38.5602 36.0813 38.7253 36.0813H42.4787C42.6876 36.0813 42.8745 35.9514 42.9473 35.7556L43.7198 33.6795H50.3569L51.1571 35.7607ZM69.2466 23.2801C68.9705 23.2801 68.7466 23.504 68.7466 23.7801V27.0714C68.7466 27.3475 68.9705 27.5714 69.2466 27.5714H72.2319V29.8732C71.0499 31.1396 69.3899 31.9086 67.5189 31.9086C65.6856 31.9086 64.0857 31.3998 62.9481 30.3413C61.8172 29.2892 61.0781 27.6335 61.0781 25.2034C61.0781 23.0535 61.8094 21.3858 62.9581 20.256C64.1095 19.1235 65.7141 18.4981 67.5189 18.4981C69.2902 18.4981 70.9218 19.2146 72.0813 20.3688C72.2764 20.5629 72.5917 20.5629 72.7868 20.3688L75.2294 17.9374C75.4247 17.743 75.4259 17.4273 75.2322 17.2314C73.2641 15.2413 70.5455 14.0289 67.5189 14.0289C61.4911 14.0289 56.5928 18.7622 56.5928 25.2034C56.5928 28.7088 57.7255 31.5106 59.6264 33.438C61.526 35.3641 64.1545 36.3778 67.0721 36.3778C69.2948 36.3778 71.0031 35.9113 72.5891 34.7111L72.6808 35.7157C72.7043 35.9731 72.9202 36.1702 73.1788 36.1702H76.2172C76.4933 36.1702 76.7172 35.9464 76.7172 35.6702V23.7801C76.7172 23.504 76.4933 23.2801 76.2172 23.2801H69.2466ZM94.6694 18.7946C94.9456 18.7946 95.1694 18.5708 95.1694 18.2946V14.8254C95.1694 14.5493 94.9456 14.3254 94.6694 14.3254H80.7581C80.482 14.3254 80.2581 14.5493 80.2581 14.8254V35.5813C80.2581 35.8574 80.482 36.0813 80.7581 36.0813H94.6694C94.9456 36.0813 95.1694 35.8574 95.1694 35.5813V32.1121C95.1694 31.8359 94.9456 31.6121 94.6694 31.6121H84.7434V27.4231H92.9119C93.1881 27.4231 93.4119 27.1993 93.4119 26.9231V23.4836C93.4119 23.2074 93.1881 22.9836 92.9119 22.9836H84.7434V18.7946H94.6694ZM109.471 31.6121H102.256V14.8254C102.256 14.5493 102.032 14.3254 101.756 14.3254H98.2706C97.9945 14.3254 97.7706 14.5493 97.7706 14.8254V35.5813C97.7706 35.8574 97.9945 36.0813 98.2706 36.0813H109.471C109.747 36.0813 109.971 35.8574 109.971 35.5813V32.1121C109.971 31.8359 109.747 31.6121 109.471 31.6121ZM123.273 35.7607C123.347 35.9538 123.532 36.0813 123.739 36.0813H127.493C127.658 36.0813 127.812 35.9997 127.906 35.8632C127.999 35.7268 128.018 35.5532 127.958 35.3993L119.618 14.0505C119.543 13.8586 119.358 13.7323 119.152 13.7324C118.945 13.7325 118.761 13.859 118.686 14.051L110.375 35.3999C110.315 35.5537 110.335 35.7272 110.428 35.8635C110.521 35.9998 110.676 36.0813 110.841 36.0813H114.594C114.803 36.0813 114.99 35.9514 115.063 35.7556L115.835 33.6795H122.472L123.273 35.7607ZM144.847 36.0813C145.029 36.0813 145.197 35.9824 145.285 35.8232C145.373 35.664 145.368 35.4695 145.271 35.3154L139.955 26.8489C140.851 26.5297 141.807 26.0285 142.594 25.2419C143.583 24.2533 144.275 22.843 144.275 20.8743C144.275 19.2587 143.807 18.0159 143.082 17.0727C142.363 16.1363 141.413 15.524 140.489 15.1229C139.564 14.7218 138.647 14.5237 137.965 14.4251C137.623 14.3756 137.337 14.3507 137.135 14.3382C137.034 14.3319 136.953 14.3288 136.897 14.3271C136.869 14.3263 136.847 14.3259 136.831 14.3257L136.813 14.3255L136.807 14.3255L136.806 14.3254L136.805 14.3254C136.805 14.3254 136.804 14.3254 136.804 14.8254V14.3254H129.864C129.588 14.3254 129.364 14.5493 129.364 14.8254V18.2946C129.364 18.3898 129.391 18.483 129.442 18.5633L132.259 22.9836H129.864C129.588 22.9836 129.364 23.2074 129.364 23.4836V35.5813C129.364 35.8574 129.588 36.0813 129.864 36.0813H133.349C133.625 36.0813 133.849 35.8574 133.849 35.5813V27.4231H135.068L140.343 35.8466C140.434 35.9926 140.594 36.0813 140.766 36.0813H144.847ZM45.21 29.6847L47.0364 24.4876L48.8627 29.6847H45.21ZM117.325 29.6847L119.152 24.4876L120.978 29.6847H117.325ZM137.505 22.918L134.91 18.7946L136.804 18.7946L136.804 18.7946L136.804 18.7946L136.808 18.7947L136.831 18.7951C136.852 18.7956 136.885 18.7967 136.928 18.799C137.013 18.8035 137.138 18.8127 137.288 18.8312C137.591 18.8685 137.986 18.9425 138.374 19.086C138.764 19.2304 139.119 19.4351 139.374 19.7176C139.618 19.9894 139.79 20.3542 139.79 20.8743C139.79 21.6822 139.39 22.1576 138.864 22.4668C138.427 22.7228 137.914 22.8538 137.505 22.918Z" fill="url(#paint2_linear_86_663)" stroke="url(#paint3_linear_86_663)" stroke-linejoin="round"/>
<mask id="path-3-outside-1_86_663" maskUnits="userSpaceOnUse" x="37.4274" y="12.936" width="109" height="25" fill="black">
<rect fill="white" x="37.4274" y="12.936" width="109" height="25"/>
<path fill-rule="evenodd" clip-rule="evenodd" d="M51.6238 35.8779C51.5004 35.8779 51.3897 35.8021 51.3456 35.6874L50.4954 33.4762H43.5797L42.758 35.6844C42.7148 35.8007 42.6033 35.8779 42.4787 35.8779H38.7253C38.627 35.8779 38.5351 35.8297 38.4796 35.7489C38.424 35.6682 38.412 35.5655 38.4476 35.4743L46.7586 14.1254C46.803 14.0113 46.9133 13.9361 47.0362 13.936C47.1591 13.936 47.2695 14.011 47.314 14.1251L55.6548 35.4739C55.6905 35.5651 55.6786 35.668 55.6231 35.7488C55.5675 35.8296 55.4755 35.8779 55.3772 35.8779H51.6238ZM43.3724 33.1796H50.7004L51.6238 35.5814H55.3772L47.0364 14.2325L38.7253 35.5814H42.4787L43.3724 33.1796ZM47.0364 22.9796L44.5043 30.1849H49.5684L47.0364 22.9796ZM47.0364 23.8777L44.9241 29.8884H49.1486L47.0364 23.8777ZM68.9488 23.7802C68.9488 23.6165 69.0821 23.4837 69.2466 23.4837H76.2172C76.3817 23.4837 76.5151 23.6165 76.5151 23.7802V35.6703C76.5151 35.8341 76.3817 35.9669 76.2172 35.9669H73.1788C73.0247 35.9669 72.896 35.8499 72.8821 35.6972L72.7564 34.3206C71.1277 35.6599 69.3939 36.1744 67.0721 36.1744C64.2016 36.1744 61.6269 35.1778 59.7698 33.2947C57.912 31.411 56.795 28.6636 56.795 25.2035C56.795 18.875 61.6024 14.2325 67.5189 14.2325C70.4905 14.2325 73.158 15.4225 75.089 17.3751C75.2038 17.4912 75.203 17.6776 75.0874 17.7928L72.6447 20.2242C72.5283 20.34 72.3397 20.34 72.2234 20.2242C71.0267 19.033 69.3444 18.2948 67.5189 18.2948C65.6674 18.2948 64.0102 18.9368 62.8169 20.1105C61.625 21.2828 60.876 23.005 60.876 25.2035C60.876 27.6768 61.6297 29.3919 62.8109 30.4909C63.996 31.5934 65.6503 32.1122 67.5189 32.1122C69.476 32.1122 71.2115 31.295 72.434 29.9532V27.368H69.2466C69.0821 27.368 68.9488 27.2353 68.9488 27.0715V23.7802ZM72.7319 30.0663C71.451 31.5192 69.6041 32.4087 67.5189 32.4087C63.6762 32.4087 60.5781 30.2738 60.5781 25.2035C60.5781 20.6669 63.6762 17.9982 67.5189 17.9982C69.4248 17.9982 71.1818 18.7687 72.4329 20.0134C72.4333 20.0138 72.4337 20.0141 72.434 20.0145L74.8766 17.5832C74.8767 17.5832 74.8766 17.5832 74.8766 17.5832C74.8384 17.5445 74.7999 17.506 74.761 17.468C74.7291 17.4367 74.697 17.4057 74.6647 17.3748C72.8071 15.6012 70.3011 14.5291 67.5189 14.5291C61.7697 14.5291 57.0929 19.036 57.0929 25.2035C57.0929 31.9936 61.4718 35.8779 67.0721 35.8779C69.4106 35.8779 71.1096 35.3474 72.7235 33.9602C72.8159 33.8808 72.908 33.7985 73 33.7134L73.1788 35.6703H76.2172V23.7802H69.2466V27.0715H72.7319V30.0663ZM94.9673 18.2948C94.9673 18.4585 94.834 18.5913 94.6694 18.5913H84.5413V23.1872H92.9119C93.0764 23.1872 93.2098 23.32 93.2098 23.4837V26.9232C93.2098 27.087 93.0764 27.2198 92.9119 27.2198H84.5413V31.8157H94.6694C94.834 31.8157 94.9673 31.9484 94.9673 32.1122V35.5814C94.9673 35.7451 94.834 35.8779 94.6694 35.8779H80.7581C80.5936 35.8779 80.4602 35.7451 80.4602 35.5814V14.8256C80.4602 14.6618 80.5936 14.5291 80.7581 14.5291H94.6694C94.834 14.5291 94.9673 14.6618 94.9673 14.8256V18.2948ZM94.6694 32.1122V35.5814H80.7581V14.8256H94.6694V18.2948H84.2434V23.4837H92.9119V26.9232H84.2434V32.1122H94.6694ZM109.471 32.1122V35.5814H98.2706V14.8256H101.756V32.1122H109.471ZM102.054 31.8157H109.471C109.636 31.8157 109.769 31.9484 109.769 32.1122V35.5814C109.769 35.7451 109.636 35.8779 109.471 35.8779H98.2706C98.1061 35.8779 97.9727 35.7451 97.9727 35.5814V14.8256C97.9727 14.6618 98.1061 14.5291 98.2706 14.5291H101.756C101.92 14.5291 102.054 14.6618 102.054 14.8256V31.8157ZM123.739 35.8779C123.616 35.8779 123.505 35.8021 123.461 35.6874L122.611 33.4762H115.695L114.873 35.6844C114.83 35.8007 114.719 35.8779 114.594 35.8779H110.841C110.742 35.8779 110.651 35.8297 110.595 35.7489C110.539 35.6682 110.527 35.5655 110.563 35.4743L118.874 14.1254C118.918 14.0113 119.029 13.9361 119.152 13.936C119.275 13.936 119.385 14.011 119.429 14.1251L127.77 35.4739C127.806 35.5651 127.794 35.668 127.739 35.7488C127.683 35.8296 127.591 35.8779 127.493 35.8779H123.739ZM115.488 33.1796H122.816L123.739 35.5814H127.493L119.152 14.2325L110.841 35.5814H114.594L115.488 33.1796ZM119.152 22.9796L116.62 30.1849H121.684L119.152 22.9796ZM119.152 23.8777L117.04 29.8884H121.264L119.152 23.8777ZM145.108 35.7251C145.055 35.8194 144.956 35.8779 144.847 35.8779H140.766C140.663 35.8779 140.568 35.8251 140.514 35.7382L135.179 27.2198H133.647V35.5814C133.647 35.7451 133.513 35.8779 133.349 35.8779H129.864C129.699 35.8779 129.566 35.7451 129.566 35.5814V23.4837C129.566 23.32 129.699 23.1872 129.864 23.1872H132.628L129.612 18.4536C129.582 18.4061 129.566 18.351 129.566 18.2948V14.8256C129.566 14.6618 129.699 14.5291 129.864 14.5291H136.804V14.8256H129.864V18.2948L133.17 23.4837H129.864V35.5814H133.349V26.9232H135.345L140.766 35.5814H144.847L139.188 26.5674C139.285 26.5403 139.384 26.5111 139.484 26.4797C141.454 25.8589 143.775 24.374 143.775 20.8744C143.775 14.8256 136.804 14.8256 136.804 14.8256C136.804 14.5291 136.805 14.5291 136.805 14.5291L136.805 14.5291L136.807 14.5291L136.812 14.5291L136.829 14.5293C136.843 14.5295 136.864 14.5299 136.891 14.5307C136.945 14.5322 137.024 14.5353 137.122 14.5414C137.32 14.5537 137.6 14.5781 137.936 14.6267C138.607 14.7236 139.506 14.9181 140.409 15.3099C141.312 15.7017 142.23 16.2958 142.922 17.1973C143.618 18.1028 144.073 19.3012 144.073 20.8744C144.073 22.7896 143.402 24.1477 142.452 25.0977C141.622 25.9275 140.592 26.4325 139.647 26.739L145.1 35.4242C145.157 35.5156 145.16 35.6309 145.108 35.7251ZM136.804 18.2948H134.004L137.251 23.4541C138.175 23.3651 140.29 22.9203 140.29 20.8744C140.29 18.2948 136.804 18.2948 136.804 18.2948ZM137.404 23.1382C137.845 23.0802 138.451 22.9446 138.965 22.6427C139.54 22.3058 139.992 21.7705 139.992 20.8744C139.992 20.3031 139.801 19.8898 139.523 19.581C139.24 19.2659 138.852 19.0463 138.443 18.8951C138.036 18.7445 137.625 18.6679 137.312 18.6293C137.157 18.6101 137.028 18.6006 136.938 18.5959C136.894 18.5935 136.859 18.5924 136.836 18.5918C136.825 18.5915 136.816 18.5914 136.811 18.5913L136.805 18.5913L136.804 18.5913H134.542L137.404 23.1382Z"/>
</mask>
<path fill-rule="evenodd" clip-rule="evenodd" d="M51.6238 35.8779C51.5004 35.8779 51.3897 35.8021 51.3456 35.6874L50.4954 33.4762H43.5797L42.758 35.6844C42.7148 35.8007 42.6033 35.8779 42.4787 35.8779H38.7253C38.627 35.8779 38.5351 35.8297 38.4796 35.7489C38.424 35.6682 38.412 35.5655 38.4476 35.4743L46.7586 14.1254C46.803 14.0113 46.9133 13.9361 47.0362 13.936C47.1591 13.936 47.2695 14.011 47.314 14.1251L55.6548 35.4739C55.6905 35.5651 55.6786 35.668 55.6231 35.7488C55.5675 35.8296 55.4755 35.8779 55.3772 35.8779H51.6238ZM43.3724 33.1796H50.7004L51.6238 35.5814H55.3772L47.0364 14.2325L38.7253 35.5814H42.4787L43.3724 33.1796ZM47.0364 22.9796L44.5043 30.1849H49.5684L47.0364 22.9796ZM47.0364 23.8777L44.9241 29.8884H49.1486L47.0364 23.8777ZM68.9488 23.7802C68.9488 23.6165 69.0821 23.4837 69.2466 23.4837H76.2172C76.3817 23.4837 76.5151 23.6165 76.5151 23.7802V35.6703C76.5151 35.8341 76.3817 35.9669 76.2172 35.9669H73.1788C73.0247 35.9669 72.896 35.8499 72.8821 35.6972L72.7564 34.3206C71.1277 35.6599 69.3939 36.1744 67.0721 36.1744C64.2016 36.1744 61.6269 35.1778 59.7698 33.2947C57.912 31.411 56.795 28.6636 56.795 25.2035C56.795 18.875 61.6024 14.2325 67.5189 14.2325C70.4905 14.2325 73.158 15.4225 75.089 17.3751C75.2038 17.4912 75.203 17.6776 75.0874 17.7928L72.6447 20.2242C72.5283 20.34 72.3397 20.34 72.2234 20.2242C71.0267 19.033 69.3444 18.2948 67.5189 18.2948C65.6674 18.2948 64.0102 18.9368 62.8169 20.1105C61.625 21.2828 60.876 23.005 60.876 25.2035C60.876 27.6768 61.6297 29.3919 62.8109 30.4909C63.996 31.5934 65.6503 32.1122 67.5189 32.1122C69.476 32.1122 71.2115 31.295 72.434 29.9532V27.368H69.2466C69.0821 27.368 68.9488 27.2353 68.9488 27.0715V23.7802ZM72.7319 30.0663C71.451 31.5192 69.6041 32.4087 67.5189 32.4087C63.6762 32.4087 60.5781 30.2738 60.5781 25.2035C60.5781 20.6669 63.6762 17.9982 67.5189 17.9982C69.4248 17.9982 71.1818 18.7687 72.4329 20.0134C72.4333 20.0138 72.4337 20.0141 72.434 20.0145L74.8766 17.5832C74.8767 17.5832 74.8766 17.5832 74.8766 17.5832C74.8384 17.5445 74.7999 17.506 74.761 17.468C74.7291 17.4367 74.697 17.4057 74.6647 17.3748C72.8071 15.6012 70.3011 14.5291 67.5189 14.5291C61.7697 14.5291 57.0929 19.036 57.0929 25.2035C57.0929 31.9936 61.4718 35.8779 67.0721 35.8779C69.4106 35.8779 71.1096 35.3474 72.7235 33.9602C72.8159 33.8808 72.908 33.7985 73 33.7134L73.1788 35.6703H76.2172V23.7802H69.2466V27.0715H72.7319V30.0663ZM94.9673 18.2948C94.9673 18.4585 94.834 18.5913 94.6694 18.5913H84.5413V23.1872H92.9119C93.0764 23.1872 93.2098 23.32 93.2098 23.4837V26.9232C93.2098 27.087 93.0764 27.2198 92.9119 27.2198H84.5413V31.8157H94.6694C94.834 31.8157 94.9673 31.9484 94.9673 32.1122V35.5814C94.9673 35.7451 94.834 35.8779 94.6694 35.8779H80.7581C80.5936 35.8779 80.4602 35.7451 80.4602 35.5814V14.8256C80.4602 14.6618 80.5936 14.5291 80.7581 14.5291H94.6694C94.834 14.5291 94.9673 14.6618 94.9673 14.8256V18.2948ZM94.6694 32.1122V35.5814H80.7581V14.8256H94.6694V18.2948H84.2434V23.4837H92.9119V26.9232H84.2434V32.1122H94.6694ZM109.471 32.1122V35.5814H98.2706V14.8256H101.756V32.1122H109.471ZM102.054 31.8157H109.471C109.636 31.8157 109.769 31.9484 109.769 32.1122V35.5814C109.769 35.7451 109.636 35.8779 109.471 35.8779H98.2706C98.1061 35.8779 97.9727 35.7451 97.9727 35.5814V14.8256C97.9727 14.6618 98.1061 14.5291 98.2706 14.5291H101.756C101.92 14.5291 102.054 14.6618 102.054 14.8256V31.8157ZM123.739 35.8779C123.616 35.8779 123.505 35.8021 123.461 35.6874L122.611 33.4762H115.695L114.873 35.6844C114.83 35.8007 114.719 35.8779 114.594 35.8779H110.841C110.742 35.8779 110.651 35.8297 110.595 35.7489C110.539 35.6682 110.527 35.5655 110.563 35.4743L118.874 14.1254C118.918 14.0113 119.029 13.9361 119.152 13.936C119.275 13.936 119.385 14.011 119.429 14.1251L127.77 35.4739C127.806 35.5651 127.794 35.668 127.739 35.7488C127.683 35.8296 127.591 35.8779 127.493 35.8779H123.739ZM115.488 33.1796H122.816L123.739 35.5814H127.493L119.152 14.2325L110.841 35.5814H114.594L115.488 33.1796ZM119.152 22.9796L116.62 30.1849H121.684L119.152 22.9796ZM119.152 23.8777L117.04 29.8884H121.264L119.152 23.8777ZM145.108 35.7251C145.055 35.8194 144.956 35.8779 144.847 35.8779H140.766C140.663 35.8779 140.568 35.8251 140.514 35.7382L135.179 27.2198H133.647V35.5814C133.647 35.7451 133.513 35.8779 133.349 35.8779H129.864C129.699 35.8779 129.566 35.7451 129.566 35.5814V23.4837C129.566 23.32 129.699 23.1872 129.864 23.1872H132.628L129.612 18.4536C129.582 18.4061 129.566 18.351 129.566 18.2948V14.8256C129.566 14.6618 129.699 14.5291 129.864 14.5291H136.804V14.8256H129.864V18.2948L133.17 23.4837H129.864V35.5814H133.349V26.9232H135.345L140.766 35.5814H144.847L139.188 26.5674C139.285 26.5403 139.384 26.5111 139.484 26.4797C141.454 25.8589 143.775 24.374 143.775 20.8744C143.775 14.8256 136.804 14.8256 136.804 14.8256C136.804 14.5291 136.805 14.5291 136.805 14.5291L136.805 14.5291L136.807 14.5291L136.812 14.5291L136.829 14.5293C136.843 14.5295 136.864 14.5299 136.891 14.5307C136.945 14.5322 137.024 14.5353 137.122 14.5414C137.32 14.5537 137.6 14.5781 137.936 14.6267C138.607 14.7236 139.506 14.9181 140.409 15.3099C141.312 15.7017 142.23 16.2958 142.922 17.1973C143.618 18.1028 144.073 19.3012 144.073 20.8744C144.073 22.7896 143.402 24.1477 142.452 25.0977C141.622 25.9275 140.592 26.4325 139.647 26.739L145.1 35.4242C145.157 35.5156 145.16 35.6309 145.108 35.7251ZM136.804 18.2948H134.004L137.251 23.4541C138.175 23.3651 140.29 22.9203 140.29 20.8744C140.29 18.2948 136.804 18.2948 136.804 18.2948ZM137.404 23.1382C137.845 23.0802 138.451 22.9446 138.965 22.6427C139.54 22.3058 139.992 21.7705 139.992 20.8744C139.992 20.3031 139.801 19.8898 139.523 19.581C139.24 19.2659 138.852 19.0463 138.443 18.8951C138.036 18.7445 137.625 18.6679 137.312 18.6293C137.157 18.6101 137.028 18.6006 136.938 18.5959C136.894 18.5935 136.859 18.5924 136.836 18.5918C136.825 18.5915 136.816 18.5914 136.811 18.5913L136.805 18.5913L136.804 18.5913H134.542L137.404 23.1382Z" fill="url(#paint4_linear_86_663)"/>
<path d="M51.3456 35.6874L52.279 35.3285L52.279 35.3285L51.3456 35.6874ZM50.4954 33.4762L51.4288 33.1173C51.2803 32.731 50.9092 32.4762 50.4954 32.4762V33.4762ZM43.5797 33.4762V32.4762C43.1619 32.4762 42.7882 32.7359 42.6425 33.1274L43.5797 33.4762ZM42.758 35.6844L41.8208 35.3356L41.8208 35.3356L42.758 35.6844ZM38.4476 35.4743L39.3794 35.837L39.3794 35.837L38.4476 35.4743ZM46.7586 14.1254L45.8267 13.7626L45.8267 13.7626L46.7586 14.1254ZM47.0362 13.936L47.0368 14.936L47.0368 14.936L47.0362 13.936ZM47.314 14.1251L46.3826 14.489L46.3826 14.489L47.314 14.1251ZM55.6548 35.4739L56.5863 35.11L56.5863 35.11L55.6548 35.4739ZM55.6231 35.7488L56.4472 36.3152L56.4472 36.3152L55.6231 35.7488ZM43.3724 33.1796V32.1796C42.9546 32.1796 42.5808 32.4394 42.4351 32.8309L43.3724 33.1796ZM50.7004 33.1796L51.6338 32.8208C51.4853 32.4345 51.1142 32.1796 50.7004 32.1796V33.1796ZM51.6238 35.5814L50.6904 35.9403C50.839 36.3265 51.21 36.5814 51.6238 36.5814V35.5814ZM55.3772 35.5814V36.5814C55.7076 36.5814 56.0167 36.4182 56.203 36.1453C56.3893 35.8725 56.4289 35.5252 56.3086 35.2175L55.3772 35.5814ZM47.0364 14.2325L47.9678 13.8686C47.8179 13.4848 47.4478 13.2323 47.0358 13.2325C46.6237 13.2328 46.254 13.4858 46.1045 13.8698L47.0364 14.2325ZM38.7253 35.5814L37.7934 35.2186C37.6737 35.5263 37.7135 35.8733 37.8999 36.1458C38.0862 36.4184 38.3951 36.5814 38.7253 36.5814V35.5814ZM42.4787 35.5814V36.5814C42.8965 36.5814 43.2702 36.3217 43.4159 35.9301L42.4787 35.5814ZM47.0364 22.9796L47.9798 22.6481C47.8391 22.2476 47.4608 21.9796 47.0364 21.9796C46.6119 21.9796 46.2337 22.2476 46.0929 22.6481L47.0364 22.9796ZM44.5043 30.1849L43.5609 29.8533C43.4534 30.1593 43.5009 30.4984 43.6884 30.763C43.8759 31.0276 44.18 31.1849 44.5043 31.1849V30.1849ZM49.5684 30.1849V31.1849C49.8927 31.1849 50.1969 31.0276 50.3844 30.763C50.5718 30.4984 50.6194 30.1593 50.5118 29.8533L49.5684 30.1849ZM44.9241 29.8884L43.9807 29.5568C43.8732 29.8628 43.9207 30.2019 44.1082 30.4665C44.2957 30.7311 44.5998 30.8884 44.9241 30.8884V29.8884ZM47.0364 23.8777L47.9798 23.5461C47.8391 23.1457 47.4608 22.8777 47.0364 22.8777C46.6119 22.8777 46.2337 23.1457 46.0929 23.5461L47.0364 23.8777ZM49.1486 29.8884V30.8884C49.4729 30.8884 49.7771 30.7311 49.9646 30.4665C50.1521 30.2019 50.1996 29.8628 50.0921 29.5568L49.1486 29.8884ZM72.8821 35.6972L73.878 35.6062L73.878 35.6062L72.8821 35.6972ZM72.7564 34.3206L73.7522 34.2297C73.7185 33.8608 73.4837 33.5407 73.1419 33.3979C72.8001 33.2551 72.4074 33.313 72.1212 33.5482L72.7564 34.3206ZM59.7698 33.2947L60.4818 32.5925L60.4818 32.5925L59.7698 33.2947ZM75.089 17.3751L74.378 18.0783L74.378 18.0783L75.089 17.3751ZM75.0874 17.7928L74.3819 17.0841L74.3819 17.0841L75.0874 17.7928ZM72.6447 20.2242L73.3501 20.9329L73.3501 20.9329L72.6447 20.2242ZM72.2234 20.2242L71.5179 20.9329L71.5179 20.9329L72.2234 20.2242ZM62.8169 20.1105L63.5181 20.8235L63.5181 20.8235L62.8169 20.1105ZM62.8109 30.4909L63.4921 29.7587L63.4921 29.7587L62.8109 30.4909ZM72.434 29.9532L73.1732 30.6268C73.341 30.4426 73.434 30.2024 73.434 29.9532H72.434ZM72.434 27.368H73.434C73.434 26.8157 72.9863 26.368 72.434 26.368V27.368ZM72.7319 30.0663L73.482 30.7276C73.6431 30.5449 73.7319 30.3098 73.7319 30.0663H72.7319ZM72.4329 20.0134L71.7276 20.7223L71.7279 20.7226L72.4329 20.0134ZM72.434 20.0145L71.7291 20.7238C72.1193 21.1116 72.7496 21.1114 73.1395 20.7233L72.434 20.0145ZM74.761 17.468L74.0612 18.1822L74.0612 18.1823L74.761 17.468ZM74.6647 17.3748L73.9741 18.0981L73.9741 18.0981L74.6647 17.3748ZM72.7235 33.9602L72.0716 33.2018L72.0716 33.2018L72.7235 33.9602ZM73 33.7134L73.9959 33.6224C73.9612 33.243 73.714 32.9163 73.3584 32.7798C73.0027 32.6433 72.6004 32.7207 72.3208 32.9795L73 33.7134ZM73.1788 35.6703L72.1829 35.7613C72.2299 36.2762 72.6617 36.6703 73.1788 36.6703V35.6703ZM76.2172 35.6703V36.6703C76.7695 36.6703 77.2172 36.2226 77.2172 35.6703H76.2172ZM76.2172 23.7802H77.2172C77.2172 23.2279 76.7695 22.7802 76.2172 22.7802V23.7802ZM69.2466 23.7802V22.7802C68.6944 22.7802 68.2466 23.2279 68.2466 23.7802H69.2466ZM69.2466 27.0715H68.2466C68.2466 27.6238 68.6944 28.0715 69.2466 28.0715V27.0715ZM72.7319 27.0715H73.7319C73.7319 26.5192 73.2842 26.0715 72.7319 26.0715V27.0715ZM84.5413 18.5913V17.5913C83.989 17.5913 83.5413 18.039 83.5413 18.5913H84.5413ZM84.5413 23.1872H83.5413C83.5413 23.7395 83.989 24.1872 84.5413 24.1872V23.1872ZM84.5413 27.2198V26.2198C83.989 26.2198 83.5413 26.6675 83.5413 27.2198H84.5413ZM84.5413 31.8157H83.5413C83.5413 32.368 83.989 32.8157 84.5413 32.8157V31.8157ZM94.6694 32.1122H95.6694C95.6694 31.5599 95.2217 31.1122 94.6694 31.1122V32.1122ZM94.6694 35.5814V36.5814C95.2217 36.5814 95.6694 36.1337 95.6694 35.5814H94.6694ZM80.7581 35.5814H79.7581C79.7581 36.1337 80.2058 36.5814 80.7581 36.5814V35.5814ZM80.7581 14.8256V13.8256C80.2058 13.8256 79.7581 14.2733 79.7581 14.8256H80.7581ZM94.6694 14.8256H95.6694C95.6694 14.2733 95.2217 13.8256 94.6694 13.8256V14.8256ZM94.6694 18.2948V19.2948C95.2217 19.2948 95.6694 18.847 95.6694 18.2948H94.6694ZM84.2434 18.2948V17.2948C83.6911 17.2948 83.2434 17.7425 83.2434 18.2948H84.2434ZM84.2434 23.4837H83.2434C83.2434 24.036 83.6911 24.4837 84.2434 24.4837V23.4837ZM92.9119 23.4837H93.9119C93.9119 22.9314 93.4642 22.4837 92.9119 22.4837V23.4837ZM92.9119 26.9232V27.9232C93.4642 27.9232 93.9119 27.4755 93.9119 26.9232H92.9119ZM84.2434 26.9232V25.9232C83.6911 25.9232 83.2434 26.371 83.2434 26.9232H84.2434ZM84.2434 32.1122H83.2434C83.2434 32.6645 83.6911 33.1122 84.2434 33.1122V32.1122ZM109.471 32.1122H110.471C110.471 31.5599 110.023 31.1122 109.471 31.1122V32.1122ZM109.471 35.5814V36.5814C110.023 36.5814 110.471 36.1337 110.471 35.5814H109.471ZM98.2706 35.5814H97.2706C97.2706 36.1337 97.7183 36.5814 98.2706 36.5814V35.5814ZM98.2706 14.8256V13.8256C97.7183 13.8256 97.2706 14.2733 97.2706 14.8256H98.2706ZM101.756 14.8256H102.756C102.756 14.2733 102.308 13.8256 101.756 13.8256V14.8256ZM101.756 32.1122H100.756C100.756 32.6645 101.204 33.1122 101.756 33.1122V32.1122ZM102.054 31.8157H101.054C101.054 32.368 101.502 32.8157 102.054 32.8157V31.8157ZM123.461 35.6874L122.528 36.0463L122.528 36.0463L123.461 35.6874ZM122.611 33.4762L123.544 33.1173C123.396 32.731 123.025 32.4762 122.611 32.4762V33.4762ZM115.695 33.4762V32.4762C115.277 32.4762 114.904 32.7359 114.758 33.1274L115.695 33.4762ZM114.873 35.6844L113.936 35.3356L113.936 35.3356L114.873 35.6844ZM110.563 35.4743L111.495 35.8371L111.495 35.837L110.563 35.4743ZM118.874 14.1254L119.806 14.4882L119.806 14.4882L118.874 14.1254ZM119.152 13.936L119.152 14.936L119.152 14.936L119.152 13.936ZM119.429 14.1251L120.361 13.7612L120.361 13.7612L119.429 14.1251ZM127.77 35.4739L126.839 35.8378L126.839 35.8378L127.77 35.4739ZM127.739 35.7488L128.563 36.3152L128.563 36.3151L127.739 35.7488ZM115.488 33.1796V32.1796C115.07 32.1796 114.696 32.4394 114.551 32.8309L115.488 33.1796ZM122.816 33.1796L123.749 32.8208C123.601 32.4345 123.23 32.1796 122.816 32.1796V33.1796ZM123.739 35.5814L122.806 35.9403C122.954 36.3265 123.325 36.5814 123.739 36.5814V35.5814ZM127.493 35.5814V36.5814C127.823 36.5814 128.132 36.4182 128.318 36.1453C128.505 35.8725 128.544 35.5252 128.424 35.2175L127.493 35.5814ZM119.152 14.2325L120.083 13.8686C119.933 13.4848 119.563 13.2323 119.151 13.2325C118.739 13.2328 118.369 13.4858 118.22 13.8698L119.152 14.2325ZM110.841 35.5814L109.909 35.2186C109.789 35.5263 109.829 35.8733 110.015 36.1458C110.202 36.4184 110.511 36.5814 110.841 36.5814V35.5814ZM114.594 35.5814V36.5814C115.012 36.5814 115.386 36.3217 115.531 35.9301L114.594 35.5814ZM119.152 22.9796L120.095 22.6481C119.955 22.2476 119.576 21.9796 119.152 21.9796C118.727 21.9796 118.349 22.2476 118.208 22.6481L119.152 22.9796ZM116.62 30.1849L115.676 29.8533C115.569 30.1593 115.616 30.4984 115.804 30.763C115.991 31.0276 116.295 31.1849 116.62 31.1849V30.1849ZM121.684 30.1849V31.1849C122.008 31.1849 122.312 31.0276 122.5 30.763C122.687 30.4984 122.735 30.1593 122.627 29.8533L121.684 30.1849ZM117.04 29.8884L116.096 29.5568C115.989 29.8628 116.036 30.2019 116.224 30.4665C116.411 30.7311 116.715 30.8884 117.04 30.8884V29.8884ZM119.152 23.8777L120.095 23.5461C119.955 23.1457 119.576 22.8777 119.152 22.8777C118.727 22.8777 118.349 23.1457 118.208 23.5461L119.152 23.8777ZM121.264 29.8884V30.8884C121.588 30.8884 121.893 30.7311 122.08 30.4665C122.267 30.2019 122.315 29.8628 122.208 29.5568L121.264 29.8884ZM145.108 35.7251L145.982 36.2116L145.982 36.2116L145.108 35.7251ZM140.514 35.7382L139.666 36.2689L139.666 36.269L140.514 35.7382ZM135.179 27.2198L136.027 26.689C135.844 26.3971 135.524 26.2198 135.179 26.2198V27.2198ZM133.647 27.2198V26.2198C133.095 26.2198 132.647 26.6675 132.647 27.2198H133.647ZM132.628 23.1872V24.1872C132.994 24.1872 133.33 23.9882 133.505 23.6681C133.681 23.348 133.668 22.9577 133.472 22.6498L132.628 23.1872ZM129.612 18.4536L128.769 18.991L128.769 18.991L129.612 18.4536ZM136.804 14.5291H137.804C137.804 13.9768 137.357 13.5291 136.804 13.5291V14.5291ZM129.864 14.8256V13.8256C129.311 13.8256 128.864 14.2733 128.864 14.8256H129.864ZM129.864 18.2948H128.864C128.864 18.4852 128.918 18.6716 129.02 18.8322L129.864 18.2948ZM133.17 23.4837V24.4837C133.535 24.4837 133.871 24.2847 134.047 23.9647C134.223 23.6446 134.21 23.2542 134.014 22.9463L133.17 23.4837ZM129.864 23.4837V22.4837C129.311 22.4837 128.864 22.9314 128.864 23.4837H129.864ZM129.864 35.5814H128.864C128.864 36.1337 129.311 36.5814 129.864 36.5814V35.5814ZM133.349 35.5814V36.5814C133.901 36.5814 134.349 36.1337 134.349 35.5814H133.349ZM133.349 26.9232V25.9232C132.797 25.9232 132.349 26.371 132.349 26.9232H133.349ZM135.345 26.9232L136.192 26.3925C136.009 26.1006 135.689 25.9232 135.345 25.9232V26.9232ZM140.766 35.5814L139.919 36.1121C140.102 36.4041 140.422 36.5814 140.766 36.5814V35.5814ZM144.847 35.5814V36.5814C145.211 36.5814 145.546 36.3837 145.723 36.0652C145.899 35.7468 145.888 35.3578 145.694 35.0496L144.847 35.5814ZM139.188 26.5674L138.92 25.604C138.615 25.6886 138.369 25.9119 138.255 26.2064C138.141 26.5008 138.173 26.8318 138.341 27.0992L139.188 26.5674ZM139.484 26.4797L139.183 25.5259L139.183 25.5259L139.484 26.4797ZM136.805 14.5291L136.806 13.5291L136.806 13.5291L136.805 14.5291ZM136.805 14.5291L136.808 13.5291L136.807 13.5291L136.805 14.5291ZM136.807 14.5291L136.812 13.5291L136.809 13.5291L136.807 14.5291ZM136.812 14.5291L136.822 13.5291L136.817 13.5291L136.812 14.5291ZM136.829 14.5293L136.843 13.5294L136.839 13.5293L136.829 14.5293ZM136.891 14.5307L136.862 15.5302L136.862 15.5302L136.891 14.5307ZM137.122 14.5414L137.061 15.5395L137.061 15.5395L137.122 14.5414ZM137.936 14.6267L137.793 15.6164L137.793 15.6164L137.936 14.6267ZM140.409 15.3099L140.011 16.2272L140.011 16.2272L140.409 15.3099ZM142.922 17.1973L142.129 17.8065L142.129 17.8065L142.922 17.1973ZM142.452 25.0977L141.745 24.3904L141.745 24.3904L142.452 25.0977ZM139.647 26.739L139.338 25.7878C139.045 25.8829 138.812 26.108 138.707 26.3978C138.601 26.6876 138.636 27.0097 138.8 27.2708L139.647 26.739ZM145.1 35.4242L145.947 34.8925L145.947 34.8925L145.1 35.4242ZM136.804 18.2948L136.804 19.2948L136.804 19.2948L136.804 18.2948ZM134.004 18.2948V17.2948C133.64 17.2948 133.305 17.4926 133.129 17.8114C132.953 18.1301 132.964 18.5193 133.158 18.8274L134.004 18.2948ZM137.251 23.4541L136.405 23.9867C136.606 24.3067 136.971 24.4857 137.347 24.4495L137.251 23.4541ZM138.965 22.6427L138.459 21.7802L138.459 21.7802L138.965 22.6427ZM137.404 23.1382L136.558 23.6709C136.766 24.0014 137.147 24.1806 137.534 24.1297L137.404 23.1382ZM139.523 19.581L140.266 18.9117L140.266 18.9117L139.523 19.581ZM138.443 18.8951L138.79 17.9573L138.79 17.9573L138.443 18.8951ZM137.312 18.6293L137.19 19.6218L137.19 19.6218L137.312 18.6293ZM136.938 18.5959L136.886 19.5945L136.886 19.5945L136.938 18.5959ZM136.836 18.5918L136.811 19.5915L136.812 19.5915L136.836 18.5918ZM136.811 18.5913L136.823 17.5914L136.82 17.5914L136.811 18.5913ZM136.805 18.5913L136.814 17.5913L136.812 17.5913L136.805 18.5913ZM136.804 18.5913L136.811 17.5913H136.804V18.5913ZM134.542 18.5913V17.5913C134.178 17.5913 133.843 17.7891 133.667 18.1079C133.491 18.4266 133.502 18.8158 133.696 19.1239L134.542 18.5913ZM50.4122 36.0462C50.6057 36.5493 51.0888 36.8779 51.6238 36.8779V34.8779C51.912 34.8779 52.1738 35.0549 52.279 35.3285L50.4122 36.0462ZM49.562 33.835L50.4122 36.0463L52.279 35.3285L51.4288 33.1173L49.562 33.835ZM43.5797 34.4762H50.4954V32.4762H43.5797V34.4762ZM43.6953 36.0331L44.5169 33.8249L42.6425 33.1274L41.8208 35.3356L43.6953 36.0331ZM42.4787 36.8779C43.0188 36.8779 43.5055 36.5431 43.6953 36.0331L41.8208 35.3356C41.924 35.0583 42.1878 34.8779 42.4787 34.8779V36.8779ZM38.7253 36.8779H42.4787V34.8779H38.7253V36.8779ZM37.6558 36.3158C37.8986 36.6687 38.2991 36.8779 38.7253 36.8779V34.8779C38.9549 34.8779 39.1716 34.9906 39.3034 35.1821L37.6558 36.3158ZM37.5157 35.1115C37.3599 35.5117 37.4127 35.9626 37.6558 36.3158L39.3034 35.1821C39.4354 35.3739 39.4642 35.6193 39.3794 35.837L37.5157 35.1115ZM45.8267 13.7626L37.5157 35.1115L39.3794 35.837L47.6905 14.4882L45.8267 13.7626ZM47.0356 12.936C46.5028 12.9364 46.0214 13.2625 45.8267 13.7626L47.6905 14.4882C47.5846 14.7602 47.3237 14.9359 47.0368 14.936L47.0356 12.936ZM48.2454 13.7612C48.0501 13.2613 47.5683 12.9357 47.0356 12.936L47.0368 14.936C46.7499 14.9362 46.4888 14.7608 46.3826 14.489L48.2454 13.7612ZM56.5863 35.11L48.2454 13.7612L46.3826 14.489L54.7234 35.8378L56.5863 35.11ZM56.4472 36.3152C56.6903 35.9615 56.7427 35.5103 56.5863 35.11L54.7234 35.8378C54.6383 35.62 54.6669 35.3745 54.7989 35.1824L56.4472 36.3152ZM55.3772 36.8779C55.8037 36.8779 56.2044 36.6684 56.4472 36.3152L54.7989 35.1824C54.9307 34.9907 55.1474 34.8779 55.3772 34.8779V36.8779ZM51.6238 36.8779H55.3772V34.8779H51.6238V36.8779ZM43.3724 34.1796H50.7004V32.1796H43.3724V34.1796ZM49.767 33.5385L50.6904 35.9403L52.5572 35.2225L51.6338 32.8208L49.767 33.5385ZM43.4159 35.9301L44.3096 33.5284L42.4351 32.8309L41.5415 35.2327L43.4159 35.9301ZM45.8676 30.2199L47.9798 24.2092L46.0929 23.5461L43.9807 29.5568L45.8676 30.2199ZM49.1486 28.8884H44.9241V30.8884H49.1486V28.8884ZM46.0929 24.2092L48.2052 30.2199L50.0921 29.5568L47.9798 23.5461L46.0929 24.2092ZM69.2466 22.4837C68.5342 22.4837 67.9488 23.0598 67.9488 23.7802H69.9488C69.9488 24.1731 69.63 24.4837 69.2466 24.4837V22.4837ZM76.2172 22.4837H69.2466V24.4837H76.2172V22.4837ZM77.5151 23.7802C77.5151 23.0598 76.9296 22.4837 76.2172 22.4837V24.4837C75.8338 24.4837 75.5151 24.1731 75.5151 23.7802H77.5151ZM77.5151 35.6703V23.7802H75.5151V35.6703H77.5151ZM76.2172 36.9669C76.9296 36.9669 77.5151 36.3907 77.5151 35.6703H75.5151C75.5151 35.2775 75.8338 34.9669 76.2172 34.9669V36.9669ZM73.1788 36.9669H76.2172V34.9669H73.1788V36.9669ZM71.8862 35.7881C71.9476 36.4595 72.5114 36.9669 73.1788 36.9669V34.9669C73.538 34.9669 73.8445 35.2403 73.878 35.6062L71.8862 35.7881ZM71.7605 34.4116L71.8862 35.7881L73.878 35.6062L73.7522 34.2297L71.7605 34.4116ZM67.0721 37.1744C69.5735 37.1744 71.5474 36.6094 73.3915 35.093L72.1212 33.5482C70.708 34.7103 69.2143 35.1744 67.0721 35.1744V37.1744ZM59.0578 33.9969C61.1248 36.0928 63.9668 37.1744 67.0721 37.1744V35.1744C64.4363 35.1744 62.1291 34.2629 60.4818 32.5925L59.0578 33.9969ZM55.795 25.2035C55.795 28.8843 56.9879 31.8981 59.0578 33.9969L60.4818 32.5925C58.8362 30.9239 57.795 28.4429 57.795 25.2035H55.795ZM67.5189 13.2325C61.0452 13.2325 55.795 18.3277 55.795 25.2035H57.795C57.795 19.4223 62.1597 15.2325 67.5189 15.2325V13.2325ZM75.8 16.672C73.6861 14.5344 70.7646 13.2325 67.5189 13.2325V15.2325C70.2164 15.2325 72.6298 16.3106 74.378 18.0783L75.8 16.672ZM75.7928 18.5015C76.299 17.9977 76.3023 17.1798 75.8 16.672L74.378 18.0783C74.1053 17.8025 74.1071 17.3576 74.3819 17.0841L75.7928 18.5015ZM73.3501 20.9329L75.7928 18.5015L74.3819 17.0841L71.9392 19.5154L73.3501 20.9329ZM71.5179 20.9329C72.0244 21.4371 72.8437 21.4371 73.3501 20.9329L71.9392 19.5154C72.213 19.2429 72.6551 19.2429 72.9289 19.5154L71.5179 20.9329ZM67.5189 19.2948C69.0741 19.2948 70.5044 19.9241 71.5179 20.9329L72.9289 19.5154C71.549 18.142 69.6147 17.2948 67.5189 17.2948V19.2948ZM63.5181 20.8235C64.5046 19.8532 65.9006 19.2948 67.5189 19.2948V17.2948C65.4342 17.2948 63.5158 18.0205 62.1156 19.3976L63.5181 20.8235ZM61.876 25.2035C61.876 23.2421 62.5384 21.7871 63.5181 20.8235L62.1156 19.3976C60.7117 20.7785 59.876 22.7679 59.876 25.2035H61.876ZM63.4921 29.7587C62.5588 28.8904 61.876 27.4664 61.876 25.2035H59.876C59.876 27.8871 60.7006 29.8933 62.1297 31.223L63.4921 29.7587ZM67.5189 31.1122C65.8266 31.1122 64.4428 30.6433 63.4921 29.7587L62.1297 31.223C63.5491 32.5436 65.4741 33.1122 67.5189 33.1122V31.1122ZM71.6949 29.2797C70.657 30.4187 69.1876 31.1122 67.5189 31.1122V33.1122C69.7644 33.1122 71.7659 32.1712 73.1732 30.6268L71.6949 29.2797ZM71.434 27.368V29.9532H73.434V27.368H71.434ZM69.2466 28.368H72.434V26.368H69.2466V28.368ZM67.9488 27.0715C67.9488 27.7919 68.5342 28.368 69.2466 28.368V26.368C69.63 26.368 69.9488 26.6786 69.9488 27.0715H67.9488ZM67.9488 23.7802V27.0715H69.9488V23.7802H67.9488ZM71.9818 29.405C70.8857 30.6483 69.3095 31.4087 67.5189 31.4087V33.4087C69.8987 33.4087 72.0163 32.3901 73.482 30.7276L71.9818 29.405ZM67.5189 31.4087C65.7736 31.4087 64.3091 30.9248 63.2887 29.9754C62.2818 29.0386 61.5781 27.5285 61.5781 25.2035H59.5781C59.5781 27.9488 60.4234 30.0413 61.9263 31.4396C63.4156 32.8252 65.4214 33.4087 67.5189 33.4087V31.4087ZM61.5781 25.2035C61.5781 23.1722 62.2661 21.6381 63.3087 20.6126C64.3567 19.5818 65.8307 18.9982 67.5189 18.9982V16.9982C65.3644 16.9982 63.368 17.749 61.9063 19.1867C60.4392 20.6296 59.5781 22.6982 59.5781 25.2035H61.5781ZM67.5189 18.9982C69.1545 18.9982 70.6597 19.6598 71.7276 20.7223L73.1382 19.3045C71.704 17.8776 69.6951 16.9982 67.5189 16.9982V18.9982ZM71.7279 20.7226C71.728 20.7227 71.728 20.7227 71.7282 20.7229C71.7284 20.7231 71.7287 20.7234 71.7291 20.7238L73.139 19.3053C73.1389 19.3052 73.1389 19.3052 73.1387 19.3049C73.1385 19.3048 73.1382 19.3045 73.1378 19.3041L71.7279 20.7226ZM75.5992 16.8919C75.5992 16.8919 75.5992 16.8919 75.5992 16.8919C75.5992 16.8919 75.5992 16.8919 75.5992 16.8919C75.5992 16.8919 75.5992 16.8919 75.5992 16.8919C75.5992 16.8919 75.5992 16.8919 75.5992 16.8919C75.5992 16.8919 75.5992 16.8919 75.5992 16.8919C75.5992 16.8919 75.5992 16.8919 75.5992 16.8919C75.5992 16.8919 75.5992 16.8919 75.5992 16.8919C75.5992 16.8919 75.5992 16.8919 75.5992 16.8919C75.5992 16.8919 75.5992 16.8919 75.5992 16.8919C75.5992 16.8919 75.5992 16.8919 75.5992 16.8919C75.5992 16.8919 75.5992 16.8919 75.5992 16.8919C75.5992 16.8919 75.5992 16.8919 75.5992 16.8919C75.5992 16.8919 75.5992 16.8919 75.5992 16.8919C75.5992 16.8919 75.5992 16.8919 75.5992 16.8919C75.5992 16.8919 75.5992 16.8919 75.5992 16.8919C75.5992 16.8919 75.5992 16.8919 75.5992 16.8919C75.5992 16.8919 75.5992 16.8919 75.5992 16.8919C75.5992 16.8919 75.5992 16.8919 75.5992 16.8919C75.5992 16.8919 75.5992 16.8919 75.5992 16.8919C75.5679 18.3058 74.1541 18.2745 74.1541 18.2745C74.1541 18.2745 74.1541 18.2745 74.1541 18.2745C74.1541 18.2745 74.1541 18.2745 74.1541 18.2745C74.1541 18.2745 74.1541 18.2745 74.1541 18.2745C74.1541 18.2745 74.1541 18.2745 74.1541 18.2745C74.1541 18.2745 74.1541 18.2745 74.1541 18.2745C74.1541 18.2745 74.1541 18.2745 74.1541 18.2745C74.1541 18.2745 74.1541 18.2745 74.1541 18.2745C74.1541 18.2745 74.1541 18.2745 74.1541 18.2745C74.1541 18.2745 74.1541 18.2745 74.1541 18.2745C74.1541 18.2745 74.1541 18.2745 74.1541 18.2745C74.1541 18.2745 74.1541 18.2745 74.1541 18.2745C74.1541 18.2745 74.1541 18.2745 74.1541 18.2745C74.1541 18.2745 74.1541 18.2745 74.1541 18.2745C74.1541 18.2745 74.1541 18.2745 74.1541 18.2745C74.1541 18.2745 74.1541 18.2745 74.1541 18.2745C74.1541 18.2745 74.1541 18.2745 74.1541 18.2745C74.1541 18.2745 74.1541 18.2745 74.1541 18.2745C74.1541 18.2745 74.1541 18.2745 74.1541 18.2745C74.1541 18.2745 74.1541 18.2745 74.1541 18.2745C74.1541 18.2745 74.1541 18.2745 74.1541 18.2745C74.1541 18.2745 74.1541 18.2745 74.1541 18.2745C74.1541 18.2745 74.1541 18.2745 74.1541 18.2745C74.1541 18.2745 74.1541 18.2745 74.1541 18.2745C74.1541 18.2745 75.5679 18.3058 75.5992 16.8919C75.5992 16.8919 75.5992 16.8919 75.5992 16.8919C75.5992 16.8919 75.5992 16.8919 75.5992 16.8919C75.5992 16.8919 75.5992 16.8919 75.5992 16.8919C75.5992 16.8919 75.5992 16.8919 75.5992 16.8919C75.5992 16.8919 75.5992 16.8919 75.5992 16.8919C75.5992 16.8919 75.5992 16.8919 75.5992 16.8919C75.5992 16.8919 75.5992 16.8919 75.5992 16.8919C75.5992 16.8919 75.5992 16.8919 75.5992 16.8919C75.5992 16.8919 75.5992 16.8919 75.5992 16.8919L74.1541 18.2745C74.1541 18.2745 74.1541 18.2745 74.1541 18.2745C74.1541 18.2745 74.1541 18.2745 74.1541 18.2745C74.1541 18.2745 74.1541 18.2745 74.1541 18.2745C74.1541 18.2745 74.1541 18.2745 74.1541 18.2745C74.1541 18.2745 74.1541 18.2745 74.1541 18.2745C74.1541 18.2745 74.1541 18.2745 74.1541 18.2745C74.1541 18.2745 74.1541 18.2745 74.1541 18.2745C74.1541 18.2745 74.1541 18.2745 74.1541 18.2745C74.1541 18.2745 74.1541 18.2745 74.1541 18.2745C74.1541 18.2745 74.1541 18.2745 74.1541 18.2745C74.1541 18.2745 74.1541 18.2745 74.1541 18.2745C74.1541 18.2745 74.1541 18.2745 74.1541 18.2745C74.1541 18.2745 74.1541 18.2745 74.1541 18.2745C74.1541 18.2745 74.1541 18.2745 74.1541 18.2745C74.1541 18.2745 74.1541 18.2745 74.1541 18.2745C74.1541 18.2745 74.1541 18.2745 74.1541 18.2745C74.1541 18.2745 74.1541 18.2745 74.1541 18.2745C74.1541 18.2745 74.1541 18.2745 74.1541 18.2745C74.1541 18.2745 74.1541 18.2745 74.1541 18.2745C74.1853 16.8607 75.5992 16.8919 75.5992 16.8919C75.5992 16.8919 75.5992 16.8919 75.5992 16.8919C75.5992 16.8919 75.5992 16.8919 75.5992 16.8919C75.5992 16.8919 75.5992 16.8919 75.5992 16.8919C75.5992 16.8919 75.5992 16.8919 75.5992 16.8919C75.5992 16.8919 75.5992 16.8919 75.5992 16.8919C75.5992 16.8919 75.5992 16.8919 75.5992 16.8919C75.5992 16.8919 75.5992 16.8919 75.5992 16.8919C75.5992 16.8919 75.5992 16.8919 75.5992 16.8919C75.5992 16.8919 75.5992 16.8919 75.5992 16.8919C75.5992 16.8919 75.5992 16.8919 75.5992 16.8919C75.5992 16.8919 75.5992 16.8919 75.5992 16.8919C75.5992 16.8919 75.5992 16.8919 75.5992 16.8919C75.5992 16.8919 75.5992 16.8919 75.5992 16.8919C75.5992 16.8919 75.5992 16.8919 75.5992 16.8919C75.5992 16.8919 75.5992 16.8919 75.5992 16.8919C75.5992 16.8919 75.5992 16.8919 75.5992 16.8919C75.5992 16.8919 75.5992 16.8919 75.5992 16.8919C75.5992 16.8919 74.1853 16.8606 74.1541 18.2745C74.1541 18.2745 74.1541 18.2745 74.1541 18.2745C74.1541 18.2745 74.1541 18.2745 74.1541 18.2745C74.1541 18.2745 74.1541 18.2745 74.1541 18.2745C74.1541 18.2745 74.1541 18.2745 74.1541 18.2745C74.1541 18.2745 74.1541 18.2745 74.1541 18.2745C74.1541 18.2745 74.1541 18.2745 74.1541 18.2745C74.1541 18.2745 74.1541 18.2745 74.1541 18.2745C74.1541 18.2745 74.1541 18.2745 74.1541 18.2745C74.1541 18.2745 74.1541 18.2745 74.1541 18.2745L75.5992 16.8919ZM75.5876 16.88C75.5468 16.8387 75.5044 16.7964 75.4609 16.7537L74.0612 18.1823C74.0953 18.2157 74.13 18.2504 74.1656 18.2864L75.5876 16.88ZM75.4609 16.7537C75.4259 16.7194 75.3907 16.6854 75.3553 16.6516L73.9741 18.0981C74.0033 18.1259 74.0323 18.154 74.0612 18.1822L75.4609 16.7537ZM75.3553 16.6516C73.3163 14.7047 70.5647 13.5291 67.5189 13.5291V15.5291C70.0375 15.5291 72.2979 16.4976 73.9741 18.0981L75.3553 16.6516ZM67.5189 13.5291C61.2125 13.5291 56.0929 18.4886 56.0929 25.2035H58.0929C58.0929 19.5834 62.3268 15.5291 67.5189 15.5291V13.5291ZM56.0929 25.2035C56.0929 28.8193 57.2635 31.7543 59.2704 33.7892C61.2749 35.8217 64.0371 36.8779 67.0721 36.8779V34.8779C64.5067 34.8779 62.2793 33.9919 60.6944 32.3848C59.1117 30.78 58.0929 28.3778 58.0929 25.2035H56.0929ZM67.0721 36.8779C69.6 36.8779 71.5455 36.2913 73.3753 34.7186L72.0716 33.2018C70.6736 34.4035 69.2212 34.8779 67.0721 34.8779V36.8779ZM73.3753 34.7186C73.4773 34.6309 73.5786 34.5404 73.6793 34.4473L72.3208 32.9795C72.2375 33.0566 72.1545 33.1306 72.0716 33.2018L73.3753 34.7186ZM94.6694 19.5913C95.3819 19.5913 95.9673 19.0152 95.9673 18.2948H93.9673C93.9673 17.9019 94.2861 17.5913 94.6694 17.5913V19.5913ZM84.5413 19.5913H94.6694V17.5913H84.5413V19.5913ZM85.5413 23.1872V18.5913H83.5413V23.1872H85.5413ZM92.9119 22.1872H84.5413V24.1872H92.9119V22.1872ZM94.2098 23.4837C94.2098 22.7633 93.6244 22.1872 92.9119 22.1872V24.1872C92.5285 24.1872 92.2098 23.8766 92.2098 23.4837H94.2098ZM94.2098 26.9232V23.4837H92.2098V26.9232H94.2098ZM92.9119 28.2198C93.6244 28.2198 94.2098 27.6436 94.2098 26.9232H92.2098C92.2098 26.5304 92.5285 26.2198 92.9119 26.2198V28.2198ZM84.5413 28.2198H92.9119V26.2198H84.5413V28.2198ZM85.5413 31.8157V27.2198H83.5413V31.8157H85.5413ZM94.6694 30.8157H84.5413V32.8157H94.6694V30.8157ZM95.9673 32.1122C95.9673 31.3918 95.3819 30.8157 94.6694 30.8157V32.8157C94.2861 32.8157 93.9673 32.5051 93.9673 32.1122H95.9673ZM95.9673 35.5814V32.1122H93.9673V35.5814H95.9673ZM94.6694 36.8779C95.3819 36.8779 95.9673 36.3018 95.9673 35.5814H93.9673C93.9673 35.1885 94.2861 34.8779 94.6694 34.8779V36.8779ZM80.7581 36.8779H94.6694V34.8779H80.7581V36.8779ZM79.4602 35.5814C79.4602 36.3018 80.0457 36.8779 80.7581 36.8779V34.8779C81.1415 34.8779 81.4602 35.1885 81.4602 35.5814H79.4602ZM79.4602 14.8256V35.5814H81.4602V14.8256H79.4602ZM80.7581 13.5291C80.0457 13.5291 79.4602 14.1052 79.4602 14.8256H81.4602C81.4602 15.2185 81.1415 15.5291 80.7581 15.5291V13.5291ZM94.6694 13.5291H80.7581V15.5291H94.6694V13.5291ZM95.9673 14.8256C95.9673 14.1052 95.3819 13.5291 94.6694 13.5291V15.5291C94.2861 15.5291 93.9673 15.2185 93.9673 14.8256H95.9673ZM95.9673 18.2948V14.8256H93.9673V18.2948H95.9673ZM109.471 30.8157H102.054V32.8157H109.471V30.8157ZM110.769 32.1122C110.769 31.3918 110.184 30.8157 109.471 30.8157V32.8157C109.088 32.8157 108.769 32.5051 108.769 32.1122H110.769ZM110.769 35.5814V32.1122H108.769V35.5814H110.769ZM109.471 36.8779C110.184 36.8779 110.769 36.3018 110.769 35.5814H108.769C108.769 35.1885 109.088 34.8779 109.471 34.8779V36.8779ZM98.2706 36.8779H109.471V34.8779H98.2706V36.8779ZM96.9727 35.5814C96.9727 36.3018 97.5582 36.8779 98.2706 36.8779V34.8779C98.654 34.8779 98.9727 35.1885 98.9727 35.5814H96.9727ZM96.9727 14.8256V35.5814H98.9727V14.8256H96.9727ZM98.2706 13.5291C97.5582 13.5291 96.9727 14.1052 96.9727 14.8256H98.9727C98.9727 15.2185 98.654 15.5291 98.2706 15.5291V13.5291ZM101.756 13.5291H98.2706V15.5291H101.756V13.5291ZM103.054 14.8256C103.054 14.1052 102.468 13.5291 101.756 13.5291V15.5291C101.373 15.5291 101.054 15.2185 101.054 14.8256H103.054ZM103.054 31.8157V14.8256H101.054V31.8157H103.054ZM122.528 36.0463C122.721 36.5493 123.204 36.8779 123.739 36.8779V34.8779C124.027 34.8779 124.289 35.0549 124.394 35.3285L122.528 36.0463ZM121.677 33.835L122.528 36.0463L124.394 35.3285L123.544 33.1173L121.677 33.835ZM115.695 34.4762H122.611V32.4762H115.695V34.4762ZM115.811 36.0331L116.632 33.8249L114.758 33.1274L113.936 35.3356L115.811 36.0331ZM114.594 36.8779C115.134 36.8779 115.621 36.5431 115.811 36.0331L113.936 35.3356C114.039 35.0583 114.303 34.8779 114.594 34.8779V36.8779ZM110.841 36.8779H114.594V34.8779H110.841V36.8779ZM109.771 36.3158C110.014 36.6687 110.415 36.8779 110.841 36.8779V34.8779C111.07 34.8779 111.287 34.9906 111.419 35.1821L109.771 36.3158ZM109.631 35.1114C109.475 35.5117 109.528 35.9626 109.771 36.3158L111.419 35.1821C111.551 35.3739 111.58 35.6193 111.495 35.8371L109.631 35.1114ZM117.942 13.7626L109.631 35.1115L111.495 35.837L119.806 14.4882L117.942 13.7626ZM119.151 12.936C118.618 12.9364 118.137 13.2625 117.942 13.7627L119.806 14.4882C119.7 14.7602 119.439 14.9359 119.152 14.936L119.151 12.936ZM120.361 13.7612C120.166 13.2613 119.684 12.9357 119.151 12.936L119.152 14.936C118.865 14.9362 118.604 14.7608 118.498 14.489L120.361 13.7612ZM128.702 35.11L120.361 13.7612L118.498 14.489L126.839 35.8378L128.702 35.11ZM128.563 36.3151C128.806 35.9615 128.858 35.5103 128.702 35.11L126.839 35.8378C126.754 35.62 126.782 35.3745 126.914 35.1825L128.563 36.3151ZM127.493 36.8779C127.919 36.8779 128.32 36.6684 128.563 36.3152L126.914 35.1824C127.046 34.9907 127.263 34.8779 127.493 34.8779V36.8779ZM123.739 36.8779H127.493V34.8779H123.739V36.8779ZM115.488 34.1796H122.816V32.1796H115.488V34.1796ZM121.882 33.5385L122.806 35.9403L124.673 35.2225L123.749 32.8208L121.882 33.5385ZM115.531 35.9301L116.425 33.5284L114.551 32.8309L113.657 35.2327L115.531 35.9301ZM117.983 30.2199L120.095 24.2092L118.208 23.5461L116.096 29.5568L117.983 30.2199ZM121.264 28.8884H117.04V30.8884H121.264V28.8884ZM118.208 24.2092L120.321 30.2199L122.208 29.5568L120.095 23.5461L118.208 24.2092ZM144.847 36.8779C145.317 36.8779 145.752 36.6243 145.982 36.2116L144.234 35.2386C144.359 35.0145 144.594 34.8779 144.847 34.8779V36.8779ZM140.766 36.8779H144.847V34.8779H140.766V36.8779ZM139.666 36.269C139.904 36.649 140.32 36.8779 140.766 36.8779V34.8779C141.007 34.8779 141.232 35.0012 141.361 35.2075L139.666 36.269ZM134.332 27.7505L139.666 36.2689L141.361 35.2075L136.027 26.689L134.332 27.7505ZM133.647 28.2198H135.179V26.2198H133.647V28.2198ZM134.647 35.5814V27.2198H132.647V35.5814H134.647ZM133.349 36.8779C134.061 36.8779 134.647 36.3018 134.647 35.5814H132.647C132.647 35.1885 132.966 34.8779 133.349 34.8779V36.8779ZM129.864 36.8779H133.349V34.8779H129.864V36.8779ZM128.566 35.5814C128.566 36.3018 129.151 36.8779 129.864 36.8779V34.8779C130.247 34.8779 130.566 35.1885 130.566 35.5814H128.566ZM128.566 23.4837V35.5814H130.566V23.4837H128.566ZM129.864 22.1872C129.151 22.1872 128.566 22.7633 128.566 23.4837H130.566C130.566 23.8766 130.247 24.1872 129.864 24.1872V22.1872ZM132.628 22.1872H129.864V24.1872H132.628V22.1872ZM128.769 18.991L131.785 23.7246L133.472 22.6498L130.455 17.9162L128.769 18.991ZM128.566 18.2948C128.566 18.5417 128.636 18.7832 128.769 18.991L130.455 17.9162C130.527 18.029 130.566 18.1603 130.566 18.2948H128.566ZM128.566 14.8256V18.2948H130.566V14.8256H128.566ZM129.864 13.5291C129.151 13.5291 128.566 14.1052 128.566 14.8256H130.566C130.566 15.2185 130.247 15.5291 129.864 15.5291V13.5291ZM136.804 13.5291H129.864V15.5291H136.804V13.5291ZM137.804 14.8256V14.5291H135.804V14.8256H137.804ZM134.497 27.454L139.919 36.1121L141.614 35.0507L136.192 26.3925L134.497 27.454ZM139.455 27.5309C139.564 27.5008 139.673 27.4684 139.784 27.4334L139.183 25.5259C139.095 25.5538 139.007 25.5798 138.92 25.604L139.455 27.5309ZM139.784 27.4334C140.869 27.0918 142.116 26.4933 143.1 25.4386C144.104 24.3614 144.775 22.8692 144.775 20.8744H142.775C142.775 22.3792 142.285 23.3793 141.637 24.0746C140.967 24.7924 140.069 25.2467 139.183 25.5259L139.784 27.4334ZM144.775 20.8744C144.775 19.1554 144.275 17.804 143.479 16.7682C142.694 15.746 141.665 15.0885 140.688 14.6643C139.71 14.2402 138.747 14.033 138.037 13.9304C137.679 13.8787 137.379 13.8525 137.166 13.8393C137.059 13.8327 136.973 13.8292 136.912 13.8275C136.881 13.8266 136.856 13.8261 136.838 13.8259C136.829 13.8257 136.822 13.8257 136.816 13.8256C136.814 13.8256 136.811 13.8256 136.809 13.8256C136.808 13.8256 136.807 13.8256 136.806 13.8256C136.806 13.8256 136.806 13.8256 136.805 13.8256C136.805 13.8256 136.804 13.8256 136.804 14.8256C136.804 15.8256 136.804 15.8256 136.804 15.8256C136.804 15.8256 136.803 15.8256 136.803 15.8256C136.803 15.8256 136.802 15.8256 136.802 15.8256C136.802 15.8256 136.802 15.8256 136.803 15.8256C136.804 15.8256 136.806 15.8256 136.81 15.8257C136.819 15.8258 136.833 15.826 136.854 15.8266C136.895 15.8278 136.958 15.8303 137.042 15.8355C137.21 15.8459 137.454 15.867 137.75 15.9098C138.348 15.9961 139.126 16.167 139.892 16.499C140.657 16.8309 141.371 17.3076 141.893 17.9866C142.404 18.6521 142.775 19.569 142.775 20.8744H144.775ZM136.806 13.5291C136.806 13.5291 136.802 13.5291 136.799 13.5291C136.796 13.5291 136.787 13.5292 136.781 13.5293C136.765 13.5297 136.738 13.5307 136.706 13.5339C136.64 13.5405 136.543 13.5567 136.434 13.6004C136.191 13.6975 136.04 13.8659 135.956 14.001C135.883 14.1175 135.852 14.2214 135.84 14.2641C135.827 14.3149 135.82 14.3561 135.816 14.3773C135.81 14.4194 135.808 14.4527 135.807 14.4621C135.806 14.4759 135.806 14.4869 135.805 14.4923C135.805 14.5095 135.805 14.5247 135.805 14.525C135.805 14.5337 135.805 14.5464 135.805 14.5645C135.804 14.6025 135.804 14.6774 135.804 14.8256H137.804C137.804 14.6772 137.804 14.6039 137.805 14.5678C137.805 14.5588 137.805 14.5525 137.805 14.5481C137.805 14.5435 137.805 14.542 137.805 14.5423C137.805 14.5425 137.805 14.5443 137.805 14.547C137.804 14.5486 137.804 14.5566 137.804 14.567C137.804 14.5721 137.803 14.5829 137.802 14.5965C137.802 14.6057 137.8 14.6389 137.793 14.681C137.79 14.7021 137.783 14.7433 137.769 14.794C137.757 14.8367 137.726 14.9407 137.654 15.0572C137.57 15.1922 137.419 15.3607 137.176 15.4577C137.066 15.5014 136.97 15.5176 136.903 15.5242C136.871 15.5274 136.845 15.5284 136.829 15.5288C136.823 15.5289 136.813 15.529 136.81 15.529C136.807 15.5291 136.804 15.5291 136.804 15.5291L136.806 13.5291ZM136.807 13.5291L136.806 13.5291L136.803 15.5291L136.804 15.5291L136.807 13.5291ZM136.809 13.5291L136.808 13.5291L136.803 15.5291L136.804 15.5291L136.809 13.5291ZM136.817 13.5291L136.812 13.5291L136.801 15.529L136.806 15.5291L136.817 13.5291ZM136.839 13.5293L136.822 13.5291L136.801 15.529L136.818 15.5292L136.839 13.5293ZM136.92 13.5311C136.888 13.5301 136.862 13.5296 136.843 13.5294L136.815 15.5292C136.824 15.5293 136.841 15.5296 136.862 15.5302L136.92 13.5311ZM137.184 13.5434C137.074 13.5365 136.985 13.5329 136.92 13.5311L136.862 15.5302C136.906 15.5315 136.973 15.5341 137.061 15.5395L137.184 13.5434ZM138.08 13.637C137.713 13.5839 137.405 13.557 137.184 13.5434L137.061 15.5395C137.235 15.5503 137.488 15.5722 137.793 15.6164L138.08 13.637ZM140.807 14.3925C139.798 13.9546 138.806 13.7421 138.08 13.6369L137.793 15.6164C138.407 15.7052 139.214 15.8815 140.011 16.2272L140.807 14.3925ZM143.715 16.5881C142.891 15.5149 141.816 14.8305 140.807 14.3925L140.011 16.2272C140.807 16.573 141.569 17.0766 142.129 17.8065L143.715 16.5881ZM145.073 20.8744C145.073 19.0944 144.553 17.6788 143.715 16.5881L142.129 17.8065C142.683 18.5269 143.073 19.508 143.073 20.8744H145.073ZM143.159 25.8049C144.3 24.6642 145.073 23.0502 145.073 20.8744H143.073C143.073 22.529 142.504 23.6313 141.745 24.3904L143.159 25.8049ZM139.955 27.6903C140.995 27.353 142.182 26.7813 143.159 25.8049L141.745 24.3904C141.061 25.0738 140.188 25.5121 139.338 25.7878L139.955 27.6903ZM145.947 34.8925L140.493 26.2073L138.8 27.2708L144.253 35.956L145.947 34.8925ZM145.982 36.2116C146.212 35.7984 146.198 35.2929 145.947 34.8925L144.253 35.956C144.116 35.7384 144.109 35.4633 144.234 35.2387L145.982 36.2116ZM139.29 20.8744C139.29 21.4672 139.02 21.7954 138.611 22.0357C138.15 22.306 137.559 22.4198 137.155 22.4587L137.347 24.4495C137.867 24.3994 138.795 24.2463 139.623 23.7605C140.502 23.2447 141.29 22.3275 141.29 20.8744H139.29ZM136.804 18.2948C136.804 19.2948 136.804 19.2948 136.804 19.2948C136.804 19.2948 136.803 19.2948 136.803 19.2948C136.803 19.2948 136.802 19.2948 136.802 19.2948C136.802 19.2948 136.801 19.2948 136.801 19.2948C136.801 19.2947 136.801 19.2948 136.802 19.2948C136.805 19.2948 136.811 19.2949 136.819 19.2951C136.836 19.2955 136.864 19.2964 136.901 19.2984C136.977 19.3024 137.09 19.3106 137.227 19.3275C137.506 19.362 137.86 19.4292 138.2 19.5551C138.545 19.6826 138.82 19.8501 139.002 20.0523C139.165 20.2333 139.29 20.4792 139.29 20.8744H141.29C141.29 19.9798 140.979 19.2583 140.488 18.7138C140.017 18.1905 139.421 17.8743 138.894 17.6794C138.363 17.4828 137.846 17.3888 137.471 17.3426C137.282 17.3192 137.122 17.3073 137.007 17.3012C136.949 17.2981 136.902 17.2965 136.868 17.2957C136.851 17.2953 136.837 17.295 136.826 17.2949C136.821 17.2948 136.816 17.2948 136.813 17.2948C136.811 17.2948 136.809 17.2948 136.808 17.2948C136.807 17.2948 136.807 17.2948 136.806 17.2948C136.806 17.2948 136.805 17.2948 136.805 17.2948C136.805 17.2948 136.804 17.2948 136.804 18.2948ZM138.459 21.7802C138.109 21.9857 137.654 22.0968 137.274 22.1468L137.534 24.1297C138.037 24.0636 138.793 23.9036 139.472 23.5051L138.459 21.7802ZM138.992 20.8744C138.992 21.3415 138.797 21.5818 138.459 21.7802L139.472 23.5051C140.282 23.0298 140.992 22.1995 140.992 20.8744H138.992ZM138.78 20.2502C138.845 20.3222 138.894 20.3996 138.929 20.4894C138.964 20.5792 138.992 20.7023 138.992 20.8744H140.992C140.992 20.0534 140.708 19.4023 140.266 18.9117L138.78 20.2502ZM138.096 19.833C138.413 19.9504 138.641 20.0958 138.78 20.2502L140.266 18.9117C139.838 18.4361 139.29 18.1422 138.79 17.9573L138.096 19.833ZM137.19 19.6218C137.455 19.6545 137.785 19.7177 138.096 19.833L138.79 17.9573C138.288 17.7713 137.795 17.6813 137.435 17.6368L137.19 19.6218ZM136.886 19.5945C136.955 19.5982 137.061 19.6059 137.19 19.6218L137.435 17.6368C137.253 17.6144 137.1 17.6031 136.991 17.5973L136.886 19.5945ZM136.812 19.5915C136.826 19.5919 136.851 19.5927 136.886 19.5945L136.991 17.5973C136.937 17.5944 136.892 17.5929 136.861 17.5921L136.812 19.5915ZM136.799 19.5913C136.8 19.5913 136.804 19.5913 136.811 19.5915L136.861 17.5921C136.845 17.5917 136.832 17.5915 136.823 17.5914L136.799 19.5913ZM136.796 19.5912L136.802 19.5913L136.82 17.5914L136.814 17.5913L136.796 19.5912ZM136.798 19.5912L136.799 19.5913L136.812 17.5913L136.811 17.5913L136.798 19.5912ZM138.25 22.6056L135.389 18.0586L133.696 19.1239L136.558 23.6709L138.25 22.6056ZM51.6238 36.5814H55.3772V34.5814H51.6238V36.5814ZM56.3086 35.2175L47.9678 13.8686L46.1049 14.5965L54.4458 35.9453L56.3086 35.2175ZM46.1045 13.8698L37.7934 35.2186L39.6572 35.9442L47.9682 14.5953L46.1045 13.8698ZM38.7253 36.5814H42.4787V34.5814H38.7253V36.5814ZM45.4478 30.5164L47.9798 23.3112L46.0929 22.6481L43.5609 29.8533L45.4478 30.5164ZM49.5684 29.1849H44.5043V31.1849H49.5684V29.1849ZM46.0929 23.3112L48.625 30.5164L50.5118 29.8533L47.9798 22.6481L46.0929 23.3112ZM73.1395 20.7233L75.5821 18.2919L74.1712 16.8745L71.7286 19.3058L73.1395 20.7233ZM72.0042 33.8043L72.1829 35.7613L74.1746 35.5794L73.9959 33.6224L72.0042 33.8043ZM73.1788 36.6703H76.2172V34.6703H73.1788V36.6703ZM77.2172 35.6703V23.7802H75.2172V35.6703H77.2172ZM76.2172 22.7802H69.2466V24.7802H76.2172V22.7802ZM68.2466 23.7802V27.0715H70.2466V23.7802H68.2466ZM69.2466 28.0715H72.7319V26.0715H69.2466V28.0715ZM71.7319 27.0715V30.0663H73.7319V27.0715H71.7319ZM94.6694 31.1122H84.2434V33.1122H94.6694V31.1122ZM95.6694 35.5814V32.1122H93.6694V35.5814H95.6694ZM80.7581 36.5814H94.6694V34.5814H80.7581V36.5814ZM79.7581 14.8256V35.5814H81.7581V14.8256H79.7581ZM94.6694 13.8256H80.7581V15.8256H94.6694V13.8256ZM95.6694 18.2948V14.8256H93.6694V18.2948H95.6694ZM84.2434 19.2948H94.6694V17.2948H84.2434V19.2948ZM85.2434 23.4837V18.2948H83.2434V23.4837H85.2434ZM92.9119 22.4837H84.2434V24.4837H92.9119V22.4837ZM93.9119 26.9232V23.4837H91.9119V26.9232H93.9119ZM84.2434 27.9232H92.9119V25.9232H84.2434V27.9232ZM85.2434 32.1122V26.9232H83.2434V32.1122H85.2434ZM109.471 31.1122H101.756V33.1122H109.471V31.1122ZM110.471 35.5814V32.1122H108.471V35.5814H110.471ZM98.2706 36.5814H109.471V34.5814H98.2706V36.5814ZM97.2706 14.8256V35.5814H99.2706V14.8256H97.2706ZM101.756 13.8256H98.2706V15.8256H101.756V13.8256ZM102.756 32.1122V14.8256H100.756V32.1122H102.756ZM123.739 36.5814H127.493V34.5814H123.739V36.5814ZM128.424 35.2175L120.083 13.8686L118.22 14.5965L126.561 35.9453L128.424 35.2175ZM118.22 13.8698L109.909 35.2186L111.773 35.9442L120.084 14.5953L118.22 13.8698ZM110.841 36.5814H114.594V34.5814H110.841V36.5814ZM117.563 30.5164L120.095 23.3112L118.208 22.6481L115.676 29.8533L117.563 30.5164ZM121.684 29.1849H116.62V31.1849H121.684V29.1849ZM118.208 23.3112L120.74 30.5164L122.627 29.8533L120.095 22.6481L118.208 23.3112ZM136.804 13.8256H129.864V15.8256H136.804V13.8256ZM128.864 14.8256V18.2948H130.864V14.8256H128.864ZM129.02 18.8322L132.327 24.0211L134.014 22.9463L130.707 17.7574L129.02 18.8322ZM133.17 22.4837H129.864V24.4837H133.17V22.4837ZM128.864 23.4837V35.5814H130.864V23.4837H128.864ZM129.864 36.5814H133.349V34.5814H129.864V36.5814ZM134.349 35.5814V26.9232H132.349V35.5814H134.349ZM133.349 27.9232H135.345V25.9232H133.349V27.9232ZM140.766 36.5814H144.847V34.5814H140.766V36.5814ZM145.694 35.0496L140.034 26.0357L138.341 27.0992L144 36.1132L145.694 35.0496ZM134.004 19.2948H136.804V17.2948H134.004V19.2948ZM138.098 22.9214L134.851 17.7621L133.158 18.8274L136.405 23.9867L138.098 22.9214ZM134.542 19.5913H136.804V17.5913H134.542V19.5913Z" fill="url(#paint5_linear_86_663)" mask="url(#path-3-outside-1_86_663)"/>
<path d="M51.1571 35.1677C51.2314 35.3608 51.4169 35.4882 51.6238 35.4882H55.3772C55.5424 35.4882 55.6969 35.4066 55.7901 35.2702C55.8833 35.1338 55.903 34.9602 55.8429 34.8063L47.5021 13.4575C47.4271 13.2655 47.2421 13.1393 47.0361 13.1394C46.83 13.1395 46.6452 13.266 46.5704 13.458L38.2594 34.8068C38.1995 34.9607 38.2194 35.1342 38.3126 35.2705C38.4058 35.4067 38.5602 35.4882 38.7253 35.4882H42.4787C42.6876 35.4882 42.8745 35.3584 42.9473 35.1626L43.7198 33.0865H50.3569L51.1571 35.1677ZM69.2466 22.6871C68.9705 22.6871 68.7466 22.9109 68.7466 23.1871V26.4784C68.7466 26.7545 68.9705 26.9784 69.2466 26.9784H72.2319V29.2802C71.0499 30.5466 69.3899 31.3156 67.5189 31.3156C65.6856 31.3156 64.0857 30.8067 62.9481 29.7483C61.8172 28.6961 61.0781 27.0404 61.0781 24.6103C61.0781 22.4605 61.8094 20.7928 62.9581 19.663C64.1095 18.5305 65.7141 17.9051 67.5189 17.9051C69.2902 17.9051 70.9218 18.6216 72.0813 19.7758C72.2764 19.9699 72.5917 19.9699 72.7868 19.7758L75.2294 17.3444C75.4247 17.15 75.4259 16.8343 75.2322 16.6384C73.2641 14.6483 70.5455 13.4359 67.5189 13.4359C61.4911 13.4359 56.5928 18.1692 56.5928 24.6103C56.5928 28.1158 57.7255 30.9176 59.6264 32.8449C61.526 34.7711 64.1545 35.7847 67.0721 35.7847C69.2948 35.7847 71.0031 35.3183 72.5891 34.1181L72.6808 35.1227C72.7043 35.3801 72.9202 35.5772 73.1788 35.5772H76.2172C76.4933 35.5772 76.7172 35.3533 76.7172 35.0772V23.1871C76.7172 22.9109 76.4933 22.6871 76.2172 22.6871H69.2466ZM94.6694 18.2016C94.9456 18.2016 95.1694 17.9778 95.1694 17.7016V14.2324C95.1694 13.9563 94.9456 13.7324 94.6694 13.7324H80.7581C80.482 13.7324 80.2581 13.9563 80.2581 14.2324V34.9882C80.2581 35.2644 80.482 35.4882 80.7581 35.4882H94.6694C94.9456 35.4882 95.1694 35.2644 95.1694 34.9882V31.5191C95.1694 31.2429 94.9456 31.0191 94.6694 31.0191H84.7434V26.8301H92.9119C93.1881 26.8301 93.4119 26.6062 93.4119 26.3301V22.8906C93.4119 22.6144 93.1881 22.3906 92.9119 22.3906H84.7434V18.2016H94.6694ZM109.471 31.0191H102.256V14.2324C102.256 13.9563 102.032 13.7324 101.756 13.7324H98.2706C97.9945 13.7324 97.7706 13.9563 97.7706 14.2324V34.9882C97.7706 35.2644 97.9945 35.4882 98.2706 35.4882H109.471C109.747 35.4882 109.971 35.2644 109.971 34.9882V31.5191C109.971 31.2429 109.747 31.0191 109.471 31.0191ZM123.273 35.1677C123.347 35.3608 123.532 35.4882 123.739 35.4882H127.493C127.658 35.4882 127.812 35.4066 127.906 35.2702C127.999 35.1338 128.018 34.9602 127.958 34.8063L119.618 13.4575C119.543 13.2655 119.358 13.1393 119.152 13.1394C118.945 13.1395 118.761 13.266 118.686 13.458L110.375 34.8068C110.315 34.9607 110.335 35.1342 110.428 35.2705C110.521 35.4067 110.676 35.4882 110.841 35.4882H114.594C114.803 35.4882 114.99 35.3584 115.063 35.1626L115.835 33.0865H122.472L123.273 35.1677ZM144.847 35.4882C145.029 35.4882 145.197 35.3894 145.285 35.2302C145.373 35.0709 145.368 34.8764 145.271 34.7224L139.955 26.2559C140.851 25.9366 141.807 25.4355 142.594 24.6489C143.583 23.6603 144.275 22.2499 144.275 20.2813C144.275 18.6656 143.807 17.4229 143.082 16.4797C142.363 15.5433 141.413 14.931 140.489 14.5298C139.564 14.1288 138.647 13.9307 137.965 13.8321C137.623 13.7826 137.337 13.7577 137.135 13.7452C137.034 13.7389 136.953 13.7357 136.897 13.7341C136.869 13.7333 136.847 13.7329 136.831 13.7327L136.813 13.7325L136.807 13.7324L136.806 13.7324L136.805 13.7324C136.805 13.7324 136.804 13.7324 136.804 14.2324V13.7324H129.864C129.588 13.7324 129.364 13.9563 129.364 14.2324V17.7016C129.364 17.7968 129.391 17.89 129.442 17.9703L132.259 22.3906H129.864C129.588 22.3906 129.364 22.6144 129.364 22.8906V34.9882C129.364 35.2644 129.588 35.4882 129.864 35.4882H133.349C133.625 35.4882 133.849 35.2644 133.849 34.9882V26.8301H135.068L140.343 35.2536C140.434 35.3996 140.594 35.4882 140.766 35.4882H144.847ZM45.21 29.0917L47.0364 23.8946L48.8627 29.0917H45.21ZM117.325 29.0917L119.152 23.8946L120.978 29.0917H117.325ZM137.505 22.325L134.91 18.2016L136.804 18.2016L136.804 18.2016L136.804 18.2016L136.804 18.2016L136.808 18.2017L136.831 18.2021C136.852 18.2026 136.885 18.2037 136.928 18.206C137.013 18.2105 137.138 18.2196 137.288 18.2382C137.591 18.2755 137.986 18.3495 138.374 18.493C138.764 18.6374 139.119 18.8421 139.374 19.1245C139.618 19.3964 139.79 19.7612 139.79 20.2813C139.79 21.0892 139.39 21.5646 138.864 21.8737C138.427 22.1298 137.914 22.2607 137.505 22.325Z" fill="url(#paint6_linear_86_663)" stroke="url(#paint7_linear_86_663)" stroke-linejoin="round"/>
<path d="M51.6238 34.3952H55.3772L47.0364 13.0464L38.7253 34.3952H42.4787L43.3724 31.9935H50.7004L51.6238 34.3952ZM47.0364 21.7935L49.5684 28.9987H44.5043L47.0364 21.7935Z" fill="url(#paint8_linear_86_663)"/>
<path d="M69.2466 22.5941V25.8853H72.7319V28.8801C71.451 30.333 69.6041 31.2225 67.5189 31.2225C63.6762 31.2225 60.5781 29.0877 60.5781 24.0173C60.5781 19.4807 63.6762 16.8121 67.5189 16.8121C69.4254 16.8121 71.1829 17.583 72.434 18.8284L74.8767 16.397C73 14.4993 70.4084 13.3429 67.5189 13.3429C61.7697 13.3429 57.0928 17.8499 57.0928 24.0173C57.0928 30.8074 61.4718 34.6917 67.0721 34.6917C69.5445 34.6917 71.3021 34.0987 73 32.5272L73.1788 34.4842H76.2172V22.5941H69.2466Z" fill="url(#paint9_linear_86_663)"/>
<path d="M94.6695 17.1086V13.6394H80.7581V34.3952H94.6695V30.926H84.2434V25.7371H92.9119V22.2975H84.2434V17.1086H94.6695Z" fill="url(#paint10_linear_86_663)"/>
<path d="M101.756 30.926V13.6394H98.2706V34.3952H109.471V30.926H101.756Z" fill="url(#paint11_linear_86_663)"/>
<path d="M123.739 34.3952H127.493L119.152 13.0464L110.841 34.3952H114.594L115.488 31.9935H122.816L123.739 34.3952ZM119.152 21.7935L121.684 28.9987H116.62L119.152 21.7935Z" fill="url(#paint12_linear_86_663)"/>
<path d="M144.847 34.3952L139.188 25.3813C141.213 24.8179 143.775 23.365 143.775 19.6882C143.775 13.6394 136.804 13.6394 136.804 13.6394H129.864V17.1086L133.17 22.2975H129.864V34.3952H133.349V25.7371H135.345L140.766 34.3952H144.847ZM134.004 17.1086H136.804C136.804 17.1086 140.29 17.1086 140.29 19.6882C140.29 21.7342 138.175 22.1789 137.251 22.2679L134.004 17.1086Z" fill="url(#paint13_linear_86_663)"/>
<path d="M51.6238 34.3952H55.3772L47.0364 13.0464L38.7253 34.3952H42.4787L43.3724 31.9935H50.7004L51.6238 34.3952ZM47.0364 21.7935L49.5684 28.9987H44.5043L47.0364 21.7935Z" stroke="url(#paint14_linear_86_663)" stroke-linejoin="round"/>
<path d="M69.2466 22.5941V25.8853H72.7319V28.8801C71.451 30.333 69.6041 31.2225 67.5189 31.2225C63.6762 31.2225 60.5781 29.0877 60.5781 24.0173C60.5781 19.4807 63.6762 16.8121 67.5189 16.8121C69.4254 16.8121 71.1829 17.583 72.434 18.8284L74.8767 16.397C73 14.4993 70.4084 13.3429 67.5189 13.3429C61.7697 13.3429 57.0928 17.8499 57.0928 24.0173C57.0928 30.8074 61.4718 34.6917 67.0721 34.6917C69.5445 34.6917 71.3021 34.0987 73 32.5272L73.1788 34.4842H76.2172V22.5941H69.2466Z" stroke="url(#paint15_linear_86_663)" stroke-linejoin="round"/>
<path d="M94.6695 17.1086V13.6394H80.7581V34.3952H94.6695V30.926H84.2434V25.7371H92.9119V22.2975H84.2434V17.1086H94.6695Z" stroke="url(#paint16_linear_86_663)" stroke-linejoin="round"/>
<path d="M101.756 30.926V13.6394H98.2706V34.3952H109.471V30.926H101.756Z" stroke="url(#paint17_linear_86_663)" stroke-linejoin="round"/>
<path d="M123.739 34.3952H127.493L119.152 13.0464L110.841 34.3952H114.594L115.488 31.9935H122.816L123.739 34.3952ZM119.152 21.7935L121.684 28.9987H116.62L119.152 21.7935Z" stroke="url(#paint18_linear_86_663)" stroke-linejoin="round"/>
<path d="M144.847 34.3952L139.188 25.3813C141.213 24.8179 143.775 23.365 143.775 19.6882C143.775 13.6394 136.804 13.6394 136.804 13.6394H129.864V17.1086L133.17 22.2975H129.864V34.3952H133.349V25.7371H135.345L140.766 34.3952H144.847ZM134.004 17.1086H136.804C136.804 17.1086 140.29 17.1086 140.29 19.6882C140.29 21.7342 138.175 22.1789 137.251 22.2679L134.004 17.1086Z" stroke="url(#paint19_linear_86_663)" stroke-linejoin="round"/>
<path d="M4.22317 26.0477L5.03527 25.5427L4.90981 23.6865L4.22317 26.0477ZM5.99135 31.1458L6.78608 30.5906L5.98977 29.011L5.99135 31.1458ZM5.18715 29.5505L5.98977 29.011L5.40071 27.3229L5.18715 29.5505ZM4.09647 24.1731L4.90981 23.6865L5.03527 21.8303L4.09647 24.1731ZM4.59224 27.8457L5.40071 27.3229L5.03527 25.5427L4.59224 27.8457ZM34.9325 26.4846L35.4428 25.9752L35.5975 23.6865L34.9325 26.4846ZM4.22317 22.2985L5.03527 21.8303L5.40071 20.05L4.22317 22.2985ZM35.0888 24.1731L35.5975 23.6865L35.4428 21.3977L35.0888 24.1731ZM34.9325 21.8617L35.4428 21.3977L34.9922 19.2026L34.9325 21.8617ZM4.59224 20.5006L5.40071 20.05L5.98977 18.362L4.59224 20.5006ZM34.4775 19.6447L34.9922 19.2026L34.2659 17.1211L34.4775 19.6447ZM33.7439 17.5426L34.2659 17.1211L33.284 15.1734L33.7439 17.5426ZM5.18715 18.7958L5.98977 18.362L6.78608 16.7824L5.18715 18.7958ZM32.7523 15.5756L33.284 15.1734L32.0668 13.3796L32.7523 15.5756ZM31.523 13.764L32.0668 13.3796L30.6344 11.7598L31.523 13.764ZM5.99135 17.2005L6.78608 16.7824L7.77325 15.3276L5.99135 17.2005ZM30.0764 12.128L30.6344 11.7598L29.007 10.334L30.0764 12.128ZM28.4329 10.6881L29.007 10.334L27.2049 9.12241L28.4329 10.6881ZM6.98832 15.7313L7.77325 15.3276L8.93491 14.0139L6.98832 15.7313ZM26.6129 9.46449L27.2049 9.12241L25.2482 8.14507L26.6129 9.46449ZM24.6367 8.47745L25.2482 8.14507L23.1571 7.42208L24.6367 8.47745ZM8.16152 14.4045L8.93491 14.0139L10.2547 12.8576L8.16152 14.4045ZM22.5248 7.74729L23.1571 7.42208L20.9517 6.97356L22.5248 7.74729ZM20.2976 7.29431L20.9517 6.97356L18.6524 6.81958L20.2976 7.29431ZM9.49441 13.2368L10.2547 12.8576L11.7162 11.875L9.49441 13.2368ZM17.9754 7.13881L18.6524 6.81958L16.353 6.97356L17.9754 7.13881ZM15.6533 7.29431L16.353 6.97356L14.1477 7.42208L15.6533 7.29431ZM10.9705 12.2444L11.7162 11.875L13.3031 11.0824L10.9705 12.2444ZM13.426 7.74729L14.1477 7.42208L12.0566 8.14507L13.426 7.74729ZM30.0764 36.2182L30.6344 35.6132L32.0668 33.9933L30.0764 36.2182ZM27.7893 33.9417L28.3698 33.3591L27.05 34.5154L27.7893 33.9417ZM31.523 34.5823L32.0668 33.9933L33.284 32.1995L31.523 34.5823ZM32.7523 32.7707L33.284 32.1995L34.2659 30.2518L32.7523 32.7707ZM33.7439 30.8037L34.2659 30.2518L34.9922 28.1704L33.7439 30.8037ZM26.4565 35.1095L27.05 34.5154L25.5885 35.498L26.4565 35.1095ZM34.4775 28.7015L34.9922 28.1704L35.4428 25.9752L34.4775 28.7015ZM6.98832 32.615L7.77325 32.0454L6.78608 30.5906L6.98832 32.615ZM8.16152 33.9417L8.93491 33.3591L7.77325 32.0454L8.16152 33.9417ZM24.9804 36.1019L25.5885 35.498L24.0016 36.2906L24.9804 36.1019ZM9.49441 35.1095L10.2547 34.5154L8.93491 33.3591L9.49441 35.1095ZM10.9705 36.1019L11.7162 35.498L10.2547 34.5154L10.9705 36.1019ZM12.5731 36.9024L13.3031 36.2906L11.7162 35.498L12.5731 36.9024ZM23.3777 36.9024L24.0016 36.2906L22.3057 36.877L23.3777 36.9024ZM14.2859 37.4945L14.9991 36.877L13.3031 36.2906L14.2859 37.4945ZM16.0921 37.8619L16.7876 37.2407L14.9991 36.877L16.0921 37.8619ZM17.9754 37.988L18.6524 37.3656L16.7876 37.2407L17.9754 37.988ZM21.665 37.4945L22.3057 36.877L20.5172 37.2407L21.665 37.4945ZM19.8587 37.8619L20.5172 37.2407L18.6524 37.3656L19.8587 37.8619ZM9.49441 35.1095L10.9705 36.1019L10.2547 34.5154L9.49441 35.1095ZM5.99135 31.1458L6.98832 32.615L6.78608 30.5906L5.99135 31.1458ZM17.9754 37.988L19.8587 37.8619L18.6524 37.3656L17.9754 37.988ZM5.18715 29.5505L5.99135 31.1458L5.98977 29.011L5.18715 29.5505ZM4.59224 27.8457L5.18715 29.5505L5.40071 27.3229L4.59224 27.8457ZM16.0921 37.8619L17.9754 37.988L16.7876 37.2407L16.0921 37.8619ZM4.22317 26.0477L4.59224 27.8457L5.03527 25.5427L4.22317 26.0477ZM14.2859 37.4945L16.0921 37.8619L14.9991 36.877L14.2859 37.4945ZM21.665 37.4945L23.3777 36.9024L22.3057 36.877L21.665 37.4945ZM12.5731 36.9024L14.2859 37.4945L13.3031 36.2906L12.5731 36.9024ZM10.9705 36.1019L12.5731 36.9024L11.7162 35.498L10.9705 36.1019ZM19.8587 37.8619L21.665 37.4945L20.5172 37.2407L19.8587 37.8619ZM23.3777 36.9024L24.9804 36.1019L24.0016 36.2906L23.3777 36.9024ZM8.16152 33.9417L9.49441 35.1095L8.93491 33.3591L8.16152 33.9417ZM6.98832 32.615L8.16152 33.9417L7.77325 32.0454L6.98832 32.615ZM34.9325 26.4846L34.4775 28.7015L35.4428 25.9752L34.9325 26.4846ZM24.9804 36.1019L26.4565 35.1095L25.5885 35.498L24.9804 36.1019ZM34.4775 28.7015L33.7439 30.8037L34.9922 28.1704L34.4775 28.7015ZM31.523 34.5823L30.0764 36.2182L32.0668 33.9933L31.523 34.5823ZM26.4565 35.1095L27.7893 33.9417L27.05 34.5154L26.4565 35.1095ZM32.7523 32.7707L31.523 34.5823L33.284 32.1995L32.7523 32.7707ZM33.7439 30.8037L32.7523 32.7707L34.2659 30.2518L33.7439 30.8037ZM30.0764 12.128L31.523 13.764L30.6344 11.7598L30.0764 12.128ZM12.5731 11.4439L10.9705 12.2444L13.3031 11.0824L12.5731 11.4439ZM6.98832 15.7313L5.99135 17.2005L7.77325 15.3276L6.98832 15.7313ZM28.4329 10.6881L30.0764 12.128L29.007 10.334L28.4329 10.6881ZM34.9325 21.8617L35.0888 24.1731L35.4428 21.3977L34.9325 21.8617ZM34.4775 19.6447L34.9325 21.8617L34.9922 19.2026L34.4775 19.6447ZM26.6129 9.46449L28.4329 10.6881L27.2049 9.12241L26.6129 9.46449ZM8.16152 14.4045L6.98832 15.7313L8.93491 14.0139L8.16152 14.4045ZM24.6367 8.47745L26.6129 9.46449L25.2482 8.14507L24.6367 8.47745ZM4.22317 22.2985L4.09647 24.1731L5.03527 21.8303L4.22317 22.2985ZM22.5248 7.74729L24.6367 8.47745L23.1571 7.42208L22.5248 7.74729ZM9.49441 13.2368L8.16152 14.4045L10.2547 12.8576L9.49441 13.2368ZM20.2976 7.29431L22.5248 7.74729L20.9517 6.97356L20.2976 7.29431ZM4.09647 24.1731L4.22317 26.0477L4.90981 23.6865L4.09647 24.1731ZM17.9754 7.13881L20.2976 7.29431L18.6524 6.81958L17.9754 7.13881ZM10.9705 12.2444L9.49441 13.2368L11.7162 11.875L10.9705 12.2444ZM15.6533 7.29431L17.9754 7.13881L16.353 6.97356L15.6533 7.29431ZM35.0888 24.1731L34.9325 26.4846L35.5975 23.6865L35.0888 24.1731ZM5.18715 18.7958L4.59224 20.5006L5.98977 18.362L5.18715 18.7958ZM13.426 7.74729L15.6533 7.29431L14.1477 7.42208L13.426 7.74729ZM11.3141 8.47745L13.426 7.74729L12.0566 8.14507L11.3141 8.47745ZM33.7439 17.5426L34.4775 19.6447L34.2659 17.1211L33.7439 17.5426ZM32.7523 15.5756L33.7439 17.5426L33.284 15.1734L32.7523 15.5756ZM4.59224 20.5006L4.22317 22.2985L5.40071 20.05L4.59224 20.5006ZM5.99135 17.2005L5.18715 18.7958L6.78608 16.7824L5.99135 17.2005ZM31.523 13.764L32.7523 15.5756L32.0668 13.3796L31.523 13.764ZM27.1972 34.5361L27.7893 33.9417L26.4565 35.1095L27.1972 34.5361ZM21.0115 38.1245L21.665 37.4945L19.8587 37.8619L21.0115 38.1245ZM30.9683 35.1831L31.523 34.5823L32.7523 32.7707L30.9683 35.1831ZM32.2099 33.3533L32.7523 32.7707L33.7439 30.8037L32.2099 33.3533ZM19.1871 38.4955L19.8587 37.8619L17.9754 37.988L19.1871 38.4955ZM5.1807 31.7121L5.99135 31.1458L5.18715 29.5505L5.1807 31.7121ZM29.5072 36.8354L30.0764 36.2182L31.523 34.5823L29.5072 36.8354ZM4.36843 30.1008L5.18715 29.5505L4.59224 27.8457L4.36843 30.1008ZM17.2849 38.6229L17.9754 37.988L16.0921 37.8619L17.2849 38.6229ZM3.76756 28.3789L4.59224 27.8457L4.22317 26.0477L3.76756 28.3789ZM33.2115 31.3665L33.7439 30.8037L34.4775 28.7015L33.2115 31.3665ZM22.7414 37.5264L23.3777 36.9024L21.665 37.4945L22.7414 37.5264ZM15.3827 38.4955L16.0921 37.8619L14.2859 37.4945L15.3827 38.4955ZM13.5584 38.1245L14.2859 37.4945L12.5731 36.9024L13.5584 38.1245ZM11.8284 37.5264L12.5731 36.9024L10.9705 36.1019L11.8284 37.5264ZM24.3601 36.7179L24.9804 36.1019L23.3777 36.9024L24.3601 36.7179ZM33.9524 29.2433L34.4775 28.7015L34.9325 26.4846L33.9524 29.2433ZM10.2097 36.7179L10.9705 36.1019L9.49441 35.1095L10.2097 36.7179ZM8.71887 35.7155L9.49441 35.1095L8.16152 33.9417L8.71887 35.7155ZM6.18766 33.196L6.98832 32.615L5.99135 31.1458L6.18766 33.196ZM7.37262 34.5361L8.16152 33.9417L6.98832 32.615L7.37262 34.5361ZM25.851 35.7155L26.4565 35.1095L24.9804 36.1019L25.851 35.7155ZM33.9524 20.0957L34.4775 19.6447L33.7439 17.5426L33.9524 20.0957ZM21.8799 8.07902L22.5248 7.74729L20.2976 7.29431L21.8799 8.07902ZM24.013 8.8165L24.6367 8.47745L22.5248 7.74729L24.013 8.8165ZM7.37262 14.803L8.16152 14.4045L9.49441 13.2368L7.37262 14.803ZM6.18766 16.143L6.98832 15.7313L8.16152 14.4045L6.18766 16.143ZM26.0089 9.81344L26.6129 9.46449L24.6367 8.47745L26.0089 9.81344ZM3.39478 26.5629L4.22317 26.0477L4.09647 24.1731L3.39478 26.5629ZM10.2097 12.6212L10.9705 12.2444L12.5731 11.4439L10.2097 12.6212ZM12.6899 8.07902L13.426 7.74729L11.3141 8.47745L12.6899 8.07902ZM27.8472 11.0493L28.4329 10.6881L26.6129 9.46449L27.8472 11.0493ZM19.6304 7.6215L20.2976 7.29431L17.9754 7.13881L19.6304 7.6215ZM5.1807 17.627L5.99135 17.2005L6.98832 15.7313L5.1807 17.627ZM29.5072 12.5037L30.0764 12.128L28.4329 10.6881L29.5072 12.5037ZM3.26682 24.6695L4.09647 24.1731L4.22317 22.2985L3.26682 24.6695ZM34.412 27.0042L34.9325 26.4846L35.0888 24.1731L34.412 27.0042ZM30.9683 14.156L31.523 13.764L30.0764 12.128L30.9683 14.156ZM17.2849 7.46444L17.9754 7.13881L15.6533 7.29431L17.2849 7.46444ZM4.36843 19.2382L5.18715 18.7958L5.99135 17.2005L4.36843 19.2382ZM32.2099 15.9858L32.7523 15.5756L31.523 13.764L32.2099 15.9858ZM14.9395 7.6215L15.6533 7.29431L13.426 7.74729L14.9395 7.6215ZM8.71887 13.6235L9.49441 13.2368L10.9705 12.2444L8.71887 13.6235ZM33.2115 17.9725L33.7439 17.5426L32.7523 15.5756L33.2115 17.9725ZM34.5698 24.6695L35.0888 24.1731L34.9325 21.8617L34.5698 24.6695ZM3.76756 20.9602L4.59224 20.5006L5.18715 18.7958L3.76756 20.9602ZM3.39478 22.7761L4.22317 22.2985L4.59224 20.5006L3.39478 22.7761ZM34.412 22.3349L34.9325 21.8617L34.4775 19.6447L34.412 22.3349ZM5.1807 31.7121L6.18766 33.196L5.99135 31.1458L5.1807 31.7121ZM33.9524 29.2433L33.2115 31.3665L34.4775 28.7015L33.9524 29.2433ZM13.5584 38.1245L15.3827 38.4955L14.2859 37.4945L13.5584 38.1245ZM6.18766 33.196L7.37262 34.5361L6.98832 32.615L6.18766 33.196ZM22.7414 37.5264L24.3601 36.7179L23.3777 36.9024L22.7414 37.5264ZM10.2097 36.7179L11.8284 37.5264L10.9705 36.1019L10.2097 36.7179ZM19.1871 38.4955L21.0115 38.1245L19.8587 37.8619L19.1871 38.4955ZM34.412 27.0042L33.9524 29.2433L34.9325 26.4846L34.412 27.0042ZM15.3827 38.4955L17.2849 38.6229L16.0921 37.8619L15.3827 38.4955ZM32.2099 33.3533L30.9683 35.1831L32.7523 32.7707L32.2099 33.3533ZM3.39478 26.5629L3.76756 28.3789L4.22317 26.0477L3.39478 26.5629ZM11.8284 37.5264L13.5584 38.1245L12.5731 36.9024L11.8284 37.5264ZM7.37262 34.5361L8.71887 35.7155L8.16152 33.9417L7.37262 34.5361ZM21.0115 38.1245L22.7414 37.5264L21.665 37.4945L21.0115 38.1245ZM3.76756 28.3789L4.36843 30.1008L4.59224 27.8457L3.76756 28.3789ZM25.851 35.7155L27.1972 34.5361L26.4565 35.1095L25.851 35.7155ZM17.2849 38.6229L19.1871 38.4955L17.9754 37.988L17.2849 38.6229ZM24.3601 36.7179L25.851 35.7155L24.9804 36.1019L24.3601 36.7179ZM4.36843 30.1008L5.1807 31.7121L5.18715 29.5505L4.36843 30.1008ZM30.9683 35.1831L29.5072 36.8354L31.523 34.5823L30.9683 35.1831ZM33.2115 31.3665L32.2099 33.3533L33.7439 30.8037L33.2115 31.3665ZM8.71887 35.7155L10.2097 36.7179L9.49441 35.1095L8.71887 35.7155ZM3.26682 24.6695L3.39478 26.5629L4.09647 24.1731L3.26682 24.6695ZM26.0089 9.81344L27.8472 11.0493L26.6129 9.46449L26.0089 9.81344ZM33.9524 20.0957L34.412 22.3349L34.4775 19.6447L33.9524 20.0957ZM10.2097 12.6212L8.71887 13.6235L10.9705 12.2444L10.2097 12.6212ZM17.2849 7.46444L19.6304 7.6215L17.9754 7.13881L17.2849 7.46444ZM5.1807 17.627L4.36843 19.2382L5.99135 17.2005L5.1807 17.627ZM34.412 22.3349L34.5698 24.6695L34.9325 21.8617L34.412 22.3349ZM27.8472 11.0493L29.5072 12.5037L28.4329 10.6881L27.8472 11.0493ZM7.37262 14.803L6.18766 16.143L8.16152 14.4045L7.37262 14.803ZM10.5569 8.8165L12.6899 8.07902L11.3141 8.47745L10.5569 8.8165ZM34.5698 24.6695L34.412 27.0042L35.0888 24.1731L34.5698 24.6695ZM19.6304 7.6215L21.8799 8.07902L20.2976 7.29431L19.6304 7.6215ZM29.5072 12.5037L30.9683 14.156L30.0764 12.128L29.5072 12.5037ZM3.39478 22.7761L3.26682 24.6695L4.22317 22.2985L3.39478 22.7761ZM11.8284 11.8127L10.2097 12.6212L12.5731 11.4439L11.8284 11.8127ZM4.36843 19.2382L3.76756 20.9602L5.18715 18.7958L4.36843 19.2382ZM30.9683 14.156L32.2099 15.9858L31.523 13.764L30.9683 14.156ZM21.8799 8.07902L24.013 8.8165L22.5248 7.74729L21.8799 8.07902ZM12.6899 8.07902L14.9395 7.6215L13.426 7.74729L12.6899 8.07902ZM3.76756 20.9602L3.39478 22.7761L4.59224 20.5006L3.76756 20.9602ZM32.2099 15.9858L33.2115 17.9725L32.7523 15.5756L32.2099 15.9858ZM8.71887 13.6235L7.37262 14.803L9.49441 13.2368L8.71887 13.6235ZM24.013 8.8165L26.0089 9.81344L24.6367 8.47745L24.013 8.8165ZM6.18766 16.143L5.1807 17.627L6.98832 15.7313L6.18766 16.143ZM33.2115 17.9725L33.9524 20.0957L33.7439 17.5426L33.2115 17.9725ZM14.9395 7.6215L17.2849 7.46444L15.6533 7.29431L14.9395 7.6215Z" fill="url(#paint20_linear_86_663)"/>
<path d="M4.36842 30.1007L0 24.6695L8.56088 39.5255L4.36842 30.1007ZM32.2099 33.3532L33.2115 31.3665L33.9524 29.2432L32.2099 33.3532ZM31.303 24.6695L31.175 26.5628L34.5698 24.6695H31.303ZM34.5698 24.6695L30.8023 20.9601L31.175 22.7761L34.5698 24.6695ZM31.175 26.5628L30.8023 28.3788L34.5698 24.6695L31.175 26.5628ZM34.5698 24.6695L30.2014 19.2382L30.8023 20.9601L34.5698 24.6695ZM30.8023 28.3788L30.2014 30.1007L34.5698 24.6695L30.8023 28.3788ZM34.5698 24.6695L26.0089 9.81336L30.2014 19.2382L34.5698 24.6695ZM30.2014 30.1007L29.3891 31.712L34.5698 24.6695L30.2014 30.1007ZM26.0089 9.81336L29.3891 17.6269L30.2014 19.2382L26.0089 9.81336ZM29.3891 31.712L28.3822 33.1959L34.5698 24.6695L29.3891 31.712ZM26.0089 9.81336L28.3822 16.143L29.3891 17.6269L26.0089 9.81336ZM28.3822 33.1959L26.0089 39.5255L34.5698 24.6695L28.3822 33.1959ZM26.0089 9.81336L27.1972 14.8029L28.3822 16.143L26.0089 9.81336ZM28.3822 33.1959L27.1972 34.536L26.0089 39.5255L28.3822 33.1959ZM26.0089 9.81336L25.851 13.6234L27.1972 14.8029L26.0089 9.81336ZM27.1972 34.536L25.851 35.7155L26.0089 39.5255L27.1972 34.536ZM26.0089 9.81336L24.3601 12.6211L25.851 13.6234L26.0089 9.81336ZM25.851 35.7155L24.3601 36.7178L26.0089 39.5255L25.851 35.7155ZM26.0089 9.81336L22.7414 11.8126L24.3601 12.6211L26.0089 9.81336ZM24.3601 36.7178L22.7414 37.5263L26.0089 39.5255L24.3601 36.7178ZM26.0089 9.81336L21.0115 11.2145L22.7414 11.8126L26.0089 9.81336ZM22.7414 37.5263L21.0115 38.1244L26.0089 39.5255L22.7414 37.5263ZM26.0089 9.81336L19.1871 10.8435L21.0115 11.2145L26.0089 9.81336ZM21.0115 38.1244L19.1871 38.4955L26.0089 39.5255L21.0115 38.1244ZM26.0089 9.81336H8.56088L19.1871 10.8435L26.0089 9.81336ZM19.1871 38.4955L17.2849 38.6228L26.0089 39.5255L19.1871 38.4955ZM8.56088 9.81336L17.2849 10.7161L19.1871 10.8435L8.56088 9.81336ZM17.2849 38.6228L15.3827 38.4955L26.0089 39.5255L17.2849 38.6228ZM8.56088 9.81336L15.3827 10.8435L17.2849 10.7161L8.56088 9.81336ZM15.3827 38.4955L8.56088 39.5255H26.0089L15.3827 38.4955ZM8.56088 9.81336L13.5583 11.2145L15.3827 10.8435L8.56088 9.81336ZM15.3827 38.4955L13.5583 38.1244L8.56088 39.5255L15.3827 38.4955ZM8.56088 9.81336L11.8284 11.8126L13.5583 11.2145L8.56088 9.81336ZM13.5583 38.1244L11.8284 37.5263L8.56088 39.5255L13.5583 38.1244ZM8.56088 9.81336L10.2097 12.6211L11.8284 11.8126L8.56088 9.81336ZM11.8284 37.5263L10.2097 36.7178L8.56088 39.5255L11.8284 37.5263ZM8.56088 9.81336L8.71886 13.6234L10.2097 12.6211L8.56088 9.81336ZM10.2097 36.7178L8.71886 35.7155L8.56088 39.5255L10.2097 36.7178ZM8.56088 9.81336L7.37261 14.8029L8.71886 13.6234L8.56088 9.81336ZM8.71886 35.7155L7.37261 34.536L8.56088 39.5255L8.71886 35.7155ZM8.56088 9.81336L6.18765 16.143L7.37261 14.8029L8.56088 9.81336ZM7.37261 34.536L6.18765 33.1959L8.56088 39.5255L7.37261 34.536ZM8.56088 9.81336L0 24.6695L6.18765 16.143L8.56088 9.81336ZM6.18765 33.1959L5.18069 31.712L8.56088 39.5255L6.18765 33.1959ZM0 24.6695L5.18069 17.6269L6.18765 16.143L0 24.6695ZM5.18069 31.712L4.36842 30.1007L8.56088 39.5255L5.18069 31.712ZM0 24.6695L4.36842 19.2382L5.18069 17.6269L0 24.6695ZM34.5698 24.6695L31.175 22.7761L31.303 24.6695H34.5698ZM34.5698 24.6695L32.2099 15.9857L26.0089 9.81336L34.5698 24.6695ZM26.0089 9.81336L17.2849 7.46436L8.56088 9.81336H26.0089ZM8.56088 9.81336L2.3599 15.9857L0 24.6695L8.56088 9.81336ZM0 24.6695L3.76754 20.9601L4.36842 19.2382L0 24.6695ZM4.36842 30.1007L3.76754 28.3788L0 24.6695L4.36842 30.1007ZM0 24.6695L2.3599 33.3532L8.56088 39.5255L0 24.6695ZM8.56088 39.5255L17.2849 41.8745L26.0089 39.5255H8.56088ZM26.0089 39.5255L32.2099 33.3532L34.5698 24.6695L26.0089 39.5255ZM34.5698 24.6695L33.9524 20.0957L32.2099 15.9857L34.5698 24.6695ZM32.2099 15.9857L29.5072 12.5036L26.0089 9.81336L32.2099 15.9857ZM26.0089 9.81336L21.8799 8.07894L17.2849 7.46436L26.0089 9.81336ZM17.2849 7.46436L12.6899 8.07894L8.56088 9.81336L17.2849 7.46436ZM8.56088 9.81336L5.06263 12.5036L2.3599 15.9857L8.56088 9.81336ZM2.3599 15.9857L0.617433 20.0957L0 24.6695L2.3599 15.9857ZM0 24.6695L3.39477 22.7761L3.76754 20.9601L0 24.6695ZM3.76754 28.3788L3.39477 26.5628L0 24.6695L3.76754 28.3788ZM0 24.6695L0.617433 29.2432L2.3599 33.3532L0 24.6695ZM2.3599 33.3532L5.06263 36.8353L8.56088 39.5255L2.3599 33.3532ZM8.56088 39.5255L12.6899 41.26L17.2849 41.8745L8.56088 39.5255ZM17.2849 41.8745L21.8799 41.26L26.0089 39.5255L17.2849 41.8745ZM26.0089 39.5255L29.5072 36.8353L32.2099 33.3532L26.0089 39.5255ZM32.2099 33.3532L33.9524 29.2432L34.5698 24.6695L32.2099 33.3532ZM34.5698 24.6695L34.412 22.3348L33.9524 20.0957L34.5698 24.6695ZM33.9524 20.0957L33.2115 17.9725L32.2099 15.9857L33.9524 20.0957ZM32.2099 15.9857L30.9683 14.1559L29.5072 12.5036L32.2099 15.9857ZM29.5072 12.5036L27.8472 11.0493L26.0089 9.81336L29.5072 12.5036ZM26.0089 9.81336L24.013 8.81642L21.8799 8.07894L26.0089 9.81336ZM21.8799 8.07894L19.6304 7.62142L17.2849 7.46436L21.8799 8.07894ZM17.2849 7.46436L14.9395 7.62142L12.6899 8.07894L17.2849 7.46436ZM12.6899 8.07894L10.5568 8.81642L8.56088 9.81336L12.6899 8.07894ZM8.56088 9.81336L6.72262 11.0493L5.06263 12.5036L8.56088 9.81336ZM5.06263 12.5036L3.60153 14.1559L2.3599 15.9857L5.06263 12.5036ZM2.3599 15.9857L1.35833 17.9725L0.617433 20.0957L2.3599 15.9857ZM0.617433 20.0957L0.15779 22.3348L0 24.6695L0.617433 20.0957ZM0 24.6695H3.2668L3.39477 22.7761L0 24.6695ZM3.39477 26.5628L3.2668 24.6695H0L3.39477 26.5628ZM0 24.6695L0.15779 27.0041L0.617433 29.2432L0 24.6695ZM0.617433 29.2432L1.35833 31.3665L2.3599 33.3532L0.617433 29.2432ZM2.3599 33.3532L3.60153 35.183L5.06263 36.8353L2.3599 33.3532ZM5.06263 36.8353L6.72262 38.2897L8.56088 39.5255L5.06263 36.8353ZM8.56088 39.5255L10.5568 40.5225L12.6899 41.26L8.56088 39.5255ZM12.6899 41.26L14.9395 41.7175L17.2849 41.8745L12.6899 41.26ZM17.2849 41.8745L19.6304 41.7175L21.8799 41.26L17.2849 41.8745ZM21.8799 41.26L24.013 40.5225L26.0089 39.5255L21.8799 41.26ZM26.0089 39.5255L27.8472 38.2897L29.5072 36.8353L26.0089 39.5255ZM29.5072 36.8353L30.9683 35.183L32.2099 33.3532L29.5072 36.8353ZM33.9524 29.2432L34.412 27.0041L34.5698 24.6695L33.9524 29.2432Z" fill="url(#paint21_linear_86_663)"/>
<path fill-rule="evenodd" clip-rule="evenodd" d="M28.273 31.0387L26.8717 2.22485L23.8825 5.92283L25.0949 34.5139C25.8996 33.8969 27.5647 32.1548 28.273 31.0387Z" fill="url(#paint22_linear_86_663)"/>
<path fill-rule="evenodd" clip-rule="evenodd" d="M20.6203 31.3584C20.5548 31.4075 20.4775 31.436 20.3951 31.436H20.2925H14.0118C13.7771 31.436 13.5834 31.2036 13.5834 30.9196V27.8358C13.5834 27.5517 13.7763 27.3193 14.0118 27.3193H20.3951C20.5027 27.3193 20.6014 27.3678 20.6769 27.4476C20.6896 27.4551 20.7019 27.463 20.7137 27.4714L23.0133 29.1098C23.2247 29.2605 23.2246 29.508 23.0133 29.6587L20.6774 31.323C20.6594 31.3359 20.6402 31.3476 20.6203 31.3584V31.3584Z" fill="#B2230C"/>
<path fill-rule="evenodd" clip-rule="evenodd" d="M14.8341 31.4214H12.9578C12.7249 31.4214 12.5294 31.189 12.5294 30.9049V27.9072C12.5294 27.6231 12.7222 27.3944 12.9578 27.3907L16.5539 27.3338C17.1603 27.3241 15.7557 31.4214 14.8341 31.4214Z" fill="#962212"/>
<path fill-rule="evenodd" clip-rule="evenodd" d="M24.2322 12.7125H22.3559C22.1247 12.7125 21.8797 12.5158 21.9275 12.2861L22.8557 7.82045C22.9035 7.59075 23.0486 7.39705 23.2842 7.394L26.8803 7.34693C27.4868 7.33897 25.1538 12.7125 24.2322 12.7125Z" fill="#962212"/>
<path fill-rule="evenodd" clip-rule="evenodd" d="M20.3704 4.36576L25.7053 0.245929L25.7056 0.245807C26.2445 -0.287365 27.0058 0.112897 27.0138 0.8145L27.0888 7.38104L9.41871 41.8647C9.31917 42.059 9.07475 42.2201 8.87943 42.2201H3.83286C3.63791 42.2201 3.5576 42.0599 3.65807 41.8647L22.1381 5.96319L20.4293 5.41429C19.8899 5.24099 19.9924 4.65765 20.3704 4.36576V4.36576Z" fill="#FC3110"/>
<path fill-rule="evenodd" clip-rule="evenodd" d="M20.3304 4.38896L25.6653 0.269121L25.6656 0.269001C26.2045 -0.264171 26.9658 0.136088 26.9738 0.837692L27.0488 7.40423L9.3787 41.8879C9.27916 42.0822 9.03474 42.2433 8.83942 42.2433H3.79285C3.5979 42.2433 3.5176 42.0831 3.61806 41.8879L22.0981 5.98638L20.3893 5.43748C19.8499 5.26418 19.9524 4.68085 20.3304 4.38896V4.38896Z" fill="#FC3110"/>
<mask id="mask0_86_663" style="mask-type:alpha" maskUnits="userSpaceOnUse" x="3" y="0" width="25" height="43">
<path fill-rule="evenodd" clip-rule="evenodd" d="M20.3304 4.38896L25.6653 0.269121L25.6656 0.269001C26.2045 -0.264171 26.9658 0.136088 26.9738 0.837692L27.0488 7.40423L9.3787 41.8879C9.27916 42.0822 9.03474 42.2433 8.83942 42.2433H3.79285C3.5979 42.2433 3.5176 42.0831 3.61806 41.8879L22.0981 5.98638L20.3893 5.43748C19.8499 5.26418 19.9524 4.68085 20.3304 4.38896V4.38896Z" fill="#FC3110"/>
</mask>
<g mask="url(#mask0_86_663)">
<path d="M28.4103 3.77351L6.94498 45.4476L6.87329 45.4112L28.3386 3.73706L28.4103 3.77351Z" fill="#F8B670"/>
<path d="M29.6715 0.176581L4.75401 48.553L4.68231 48.5165L29.5998 0.140137L29.6715 0.176581Z" fill="#E5097F"/>
<path d="M30.9328 -3.42034L2.56312 51.6583L2.49142 51.6219L30.8611 -3.45679L30.9328 -3.42034Z" fill="#009846"/>
<path d="M32.194 -7.01726L0.372139 54.7636L0.300446 54.7272L32.1223 -7.05371L32.194 -7.01726Z" fill="#9089B0"/>
<path d="M33.4552 -10.6144L-1.81878 57.8688L-1.89047 57.8323L33.3835 -10.6509L33.4552 -10.6144Z" fill="#CB5499"/>
<path d="M34.7165 -14.2114L-4.00973 60.974L-4.08142 60.9376L34.6448 -14.2478L34.7165 -14.2114Z" fill="#F08683"/>
<path d="M35.9777 -17.8083L-6.20065 64.0794L-6.27234 64.043L35.906 -17.8447L35.9777 -17.8083Z" fill="#A8D4AF"/>
<path d="M37.2389 -21.4052L-8.39162 67.1847L-8.46332 67.1483L37.1672 -21.4417L37.2389 -21.4052Z" fill="#F08143"/>
<path d="M38.5002 -25.0021L-10.5825 70.2901L-10.6542 70.2537L38.4285 -25.0386L38.5002 -25.0021Z" fill="#A79ECD"/>
<path d="M39.7614 -28.5991L-12.7735 73.3954L-12.8452 73.359L39.6897 -28.6355L39.7614 -28.5991Z" fill="#57A7B3"/>
<path d="M41.0226 -32.1962L-14.9644 76.5005L-15.0361 76.4641L40.951 -32.2327L41.0226 -32.1962Z" fill="#CE82B5"/>
<path d="M42.2839 -35.7931L-17.1553 79.6059L-17.227 79.5694L42.2122 -35.8296L42.2839 -35.7931Z" fill="#A79ECD"/>
<path d="M43.5451 -39.3901L-19.3463 82.7112L-19.418 82.6747L43.4734 -39.4265L43.5451 -39.3901Z" fill="#F8B670"/>
<path d="M44.8064 -42.987L-21.5372 85.8165L-21.6089 85.7801L44.7347 -43.0234L44.8064 -42.987Z" fill="#A79ECD"/>
</g>
<defs>
<linearGradient id="paint0_linear_86_663" x1="133.669" y1="35.8777" x2="132.769" y2="11.4201" gradientUnits="userSpaceOnUse">
<stop stop-color="#6B4500"/>
<stop offset="0.322917" stop-color="#D5B26B"/>
<stop offset="0.546875" stop-color="#F8F9D0"/>
<stop offset="1" stop-color="#997A3D"/>
</linearGradient>
<linearGradient id="paint1_linear_86_663" x1="157.582" y1="44.7731" x2="157.251" y2="13.451" gradientUnits="userSpaceOnUse">
<stop stop-color="#6B4500"/>
<stop offset="0.322917" stop-color="#D5B26B"/>
<stop offset="0.546875" stop-color="#F8F9D0"/>
<stop offset="1" stop-color="#997A3D"/>
</linearGradient>
<linearGradient id="paint2_linear_86_663" x1="104.409" y1="15.2702" x2="99.9872" y2="33.4009" gradientUnits="userSpaceOnUse">
<stop stop-color="#202020"/>
<stop offset="1" stop-color="#616161"/>
</linearGradient>
<linearGradient id="paint3_linear_86_663" x1="133.712" y1="30.0821" x2="125.245" y2="-1.35517" gradientUnits="userSpaceOnUse">
<stop stop-color="#202020"/>
<stop offset="1" stop-color="#616161"/>
</linearGradient>
<linearGradient id="paint4_linear_86_663" x1="153.643" y1="39.3973" x2="135.756" y2="-9.48335" gradientUnits="userSpaceOnUse">
<stop stop-color="#202020"/>
<stop offset="1" stop-color="#616161"/>
</linearGradient>
<linearGradient id="paint5_linear_86_663" x1="133.947" y1="30.22" x2="125.086" y2="-1.98324" gradientUnits="userSpaceOnUse">
<stop stop-color="#202020"/>
<stop offset="1" stop-color="#616161"/>
</linearGradient>
<linearGradient id="paint6_linear_86_663" x1="113.823" y1="46.378" x2="56.9163" y2="-2.0707" gradientUnits="userSpaceOnUse">
<stop stop-color="#FF0000"/>
<stop offset="1"/>
</linearGradient>
<linearGradient id="paint7_linear_86_663" x1="113.823" y1="46.378" x2="56.9163" y2="-2.0707" gradientUnits="userSpaceOnUse">
<stop stop-color="#FF0000"/>
<stop offset="1"/>
</linearGradient>
<linearGradient id="paint8_linear_86_663" x1="97.707" y1="9.78476" x2="103.02" y2="54.2673" gradientUnits="userSpaceOnUse">
<stop stop-color="#FC3110"/>
<stop offset="0.979167"/>
</linearGradient>
<linearGradient id="paint9_linear_86_663" x1="97.707" y1="9.78476" x2="103.02" y2="54.2673" gradientUnits="userSpaceOnUse">
<stop stop-color="#FC3110"/>
<stop offset="0.979167"/>
</linearGradient>
<linearGradient id="paint10_linear_86_663" x1="97.707" y1="9.78476" x2="103.02" y2="54.2673" gradientUnits="userSpaceOnUse">
<stop stop-color="#FC3110"/>
<stop offset="0.979167"/>
</linearGradient>
<linearGradient id="paint11_linear_86_663" x1="97.707" y1="9.78476" x2="103.02" y2="54.2673" gradientUnits="userSpaceOnUse">
<stop stop-color="#FC3110"/>
<stop offset="0.979167"/>
</linearGradient>
<linearGradient id="paint12_linear_86_663" x1="97.707" y1="9.78476" x2="103.02" y2="54.2673" gradientUnits="userSpaceOnUse">
<stop stop-color="#FC3110"/>
<stop offset="0.979167"/>
</linearGradient>
<linearGradient id="paint13_linear_86_663" x1="97.707" y1="9.78476" x2="103.02" y2="54.2673" gradientUnits="userSpaceOnUse">
<stop stop-color="#FC3110"/>
<stop offset="0.979167"/>
</linearGradient>
<linearGradient id="paint14_linear_86_663" x1="97.707" y1="9.78476" x2="103.02" y2="54.2673" gradientUnits="userSpaceOnUse">
<stop stop-color="#FC3110"/>
<stop offset="0.979167"/>
</linearGradient>
<linearGradient id="paint15_linear_86_663" x1="97.707" y1="9.78476" x2="103.02" y2="54.2673" gradientUnits="userSpaceOnUse">
<stop stop-color="#FC3110"/>
<stop offset="0.979167"/>
</linearGradient>
<linearGradient id="paint16_linear_86_663" x1="97.707" y1="9.78476" x2="103.02" y2="54.2673" gradientUnits="userSpaceOnUse">
<stop stop-color="#FC3110"/>
<stop offset="0.979167"/>
</linearGradient>
<linearGradient id="paint17_linear_86_663" x1="97.707" y1="9.78476" x2="103.02" y2="54.2673" gradientUnits="userSpaceOnUse">
<stop stop-color="#FC3110"/>
<stop offset="0.979167"/>
</linearGradient>
<linearGradient id="paint18_linear_86_663" x1="97.707" y1="9.78476" x2="103.02" y2="54.2673" gradientUnits="userSpaceOnUse">
<stop stop-color="#FC3110"/>
<stop offset="0.979167"/>
</linearGradient>
<linearGradient id="paint19_linear_86_663" x1="97.707" y1="9.78476" x2="103.02" y2="54.2673" gradientUnits="userSpaceOnUse">
<stop stop-color="#FC3110"/>
<stop offset="0.979167"/>
</linearGradient>
<linearGradient id="paint20_linear_86_663" x1="32.192" y1="38.6228" x2="25.9982" y2="3.73842" gradientUnits="userSpaceOnUse">
<stop stop-color="#6B4500"/>
<stop offset="0.322917" stop-color="#D5B26B"/>
<stop offset="0.546875" stop-color="#F8F9D0"/>
<stop offset="1" stop-color="#997A3D"/>
</linearGradient>
<linearGradient id="paint21_linear_86_663" x1="30.9423" y1="32.6611" x2="5.11222" y2="13.0078" gradientUnits="userSpaceOnUse">
<stop stop-color="#110303"/>
<stop offset="1" stop-color="#616161"/>
</linearGradient>
<linearGradient id="paint22_linear_86_663" x1="26.0719" y1="2.22485" x2="26.0719" y2="34.5137" gradientUnits="userSpaceOnUse">
<stop stop-color="#FF0000"/>
<stop offset="1"/>
</linearGradient>
</defs>
</svg>
