<svg width="120" height="120" viewBox="0 0 120 120" fill="none" xmlns="http://www.w3.org/2000/svg">
<g clip-path="url(#clip0_77_66)">
<rect width="120" height="120" fill="white"/>
<path fill-rule="evenodd" clip-rule="evenodd" d="M19.8538 1.70752L11.7432 81.7233L19.8538 88.0791L22.1305 50.8459L30.2886 70.5771L36.8815 51.3676L47.3637 109.47L59.1266 118.767L40.9131 18.0237L30.1463 48.9012L19.8538 1.70752Z" fill="url(#paint0_linear_77_66)"/>
<path fill-rule="evenodd" clip-rule="evenodd" d="M79.1422 16.4111L61.5454 118.387L72.7391 105.818L81.9881 44.0633L93.2292 82.3874L100.771 73.9447L79.1422 16.4111Z" fill="url(#paint1_linear_77_66)"/>
<path d="M7 78.0712L60.4545 119.763" stroke="black" stroke-width="0.5669" stroke-miterlimit="22.9256"/>
<path d="M145.261 23.4309L60.312 119.715" stroke="black" stroke-width="0.5669" stroke-miterlimit="22.9256"/>
<path fill-rule="evenodd" clip-rule="evenodd" d="M79 16.4111L71.8853 23.0514L60.1699 91.7787L60.3122 119.715L61.9723 117.913L79.0948 16.7431L79 16.4111Z" fill="url(#paint2_linear_77_66)"/>
<path fill-rule="evenodd" clip-rule="evenodd" d="M47.9329 23.4782L60.1701 92.0632L60.4547 120L58.7946 118.15L40.8657 18.0237L47.9329 23.4782Z" fill="url(#paint3_linear_77_66)"/>
<path fill-rule="evenodd" clip-rule="evenodd" d="M19.9014 1.89722L27.2531 7.63635L34.4152 36.4743L30.0516 49.1858L19.9014 1.99208V1.89722Z" fill="url(#paint4_linear_77_66)"/>
<path fill-rule="evenodd" clip-rule="evenodd" d="M84.0752 81.0593L93.2768 82.3873L81.9883 44.0632L79.2373 62.3241L84.0752 81.0593Z" fill="url(#paint5_linear_77_66)"/>
<path fill-rule="evenodd" clip-rule="evenodd" d="M29.0551 86.7511L19.8535 87.9843L22.1302 50.8459L30.2883 70.5772L29.0551 86.7511Z" fill="url(#paint6_linear_77_66)"/>
<path fill-rule="evenodd" clip-rule="evenodd" d="M39.4902 69.2963L30.2886 70.5769L36.8815 51.1777L39.7273 67.0671L39.4902 69.2963Z" fill="url(#paint7_linear_77_66)"/>
<path d="M7 -8.3479L60.4545 33.3912" stroke="black" stroke-width="0.5669" stroke-miterlimit="22.9256"/>
<path d="M110.162 -12L60.312 33.3439" stroke="black" stroke-width="0.5669" stroke-miterlimit="22.9256"/>
</g>
<defs>
<linearGradient id="paint0_linear_77_66" x1="34.4238" y1="115.421" x2="39.3647" y2="40.9887" gradientUnits="userSpaceOnUse">
<stop stop-color="#2B3089"/>
<stop offset="1" stop-color="#5F5DA6"/>
</linearGradient>
<linearGradient id="paint1_linear_77_66" x1="81.5279" y1="111.935" x2="79.4572" y2="25.153" gradientUnits="userSpaceOnUse">
<stop stop-color="#EB5B1F"/>
<stop offset="1" stop-color="#F39322"/>
</linearGradient>
<linearGradient id="paint2_linear_77_66" x1="103.291" y1="14.9931" x2="54.6781" y2="89.1436" gradientUnits="userSpaceOnUse">
<stop stop-color="#E95314"/>
<stop offset="1" stop-color="#F39322"/>
</linearGradient>
<linearGradient id="paint3_linear_77_66" x1="59.4398" y1="118.586" x2="50.0351" y2="51.5074" gradientUnits="userSpaceOnUse">
<stop stop-color="#2B3089"/>
<stop offset="1" stop-color="#33368C"/>
</linearGradient>
<linearGradient id="paint4_linear_77_66" x1="29.7311" y1="48.5077" x2="26.9978" y2="17.2833" gradientUnits="userSpaceOnUse">
<stop stop-color="#2B3089"/>
<stop offset="1" stop-color="#33368C"/>
</linearGradient>
<linearGradient id="paint5_linear_77_66" x1="94.3503" y1="42.665" x2="84.4964" y2="72.7485" gradientUnits="userSpaceOnUse">
<stop stop-color="#E95314"/>
<stop offset="1" stop-color="#F39322"/>
</linearGradient>
<linearGradient id="paint6_linear_77_66" x1="25.7946" y1="86.8582" x2="23.516" y2="62.9657" gradientUnits="userSpaceOnUse">
<stop stop-color="#2B3089"/>
<stop offset="1" stop-color="#29338A"/>
</linearGradient>
<linearGradient id="paint7_linear_77_66" x1="35.067" y1="70.0408" x2="34.3825" y2="57.6471" gradientUnits="userSpaceOnUse">
<stop stop-color="#2B3089"/>
<stop offset="1" stop-color="#29338A"/>
</linearGradient>
<clipPath id="clip0_77_66">
<rect width="120" height="120" fill="white"/>
</clipPath>
</defs>
</svg>
