<svg width="120" height="120" viewBox="0 0 120 120" fill="none" xmlns="http://www.w3.org/2000/svg">
<rect width="120" height="120" fill="white"/>
<path d="M57 22V89H41.7021V43.7678L35.5912 89H24.7413L18.2979 44.8023V89H3V22H25.6559C26.321 26.028 27.0277 30.7733 27.776 36.2359L30.1871 53.286L34.1778 22H57Z" fill="#494546"/>
<path d="M117 22V89H101.702V43.7678L95.5912 89H84.7413L78.2979 44.8023V89H63V22H85.6559C86.321 26.028 87.0277 30.7733 87.776 36.2359L90.1871 53.286L94.1778 22H117Z" fill="#018B4A"/>
<rect x="3" y="94" width="54" height="5" fill="#018B4A"/>
<rect x="63" y="94" width="54" height="5" fill="#494546"/>
</svg>
