<svg width="120" height="120" viewBox="0 0 120 120" fill="none" xmlns="http://www.w3.org/2000/svg">
<rect width="120" height="120" fill="white"/>
<path d="M59.8679 14.7363L31.0107 86.22H36.2841C44.3407 66.1518 52.5438 46.2301 60.7468 26.3085C68.9498 46.0836 77.0064 65.8588 85.0629 85.7805H90.3363L60.7468 12.6855L59.8679 14.7363Z" fill="#161616"/>
<path d="M67.4849 71.2788H53.4226V85.3412H67.4849V71.2788Z" fill="#FFCD00"/>
<path fill-rule="evenodd" clip-rule="evenodd" d="M60.1715 117.653L63.5666 114.688C92.1169 89.7586 106.629 67.991 106.629 48.857C106.629 21.7605 85.48 2.3999 60.1715 2.3999C34.863 2.3999 13.7144 21.7605 13.7144 48.857C13.7144 67.991 28.2261 89.7586 56.7764 114.688L60.1715 117.653ZM60.4339 111.15C32.8048 86.3855 19.2262 65.4006 19.2262 48.7193C19.2262 24.6954 37.8528 7.73676 60.4339 7.73676C83.0151 7.73676 101.642 24.6954 101.642 48.7193C101.642 65.4006 88.0631 86.3855 60.4339 111.15Z" fill="black"/>
</svg>
