<svg width="120" height="120" viewBox="0 0 120 120" fill="none" xmlns="http://www.w3.org/2000/svg">
<rect width="120" height="120" fill="white"/>
<path d="M101.408 44.338C101.408 50.4053 96.4898 55.3239 90.4224 55.3239C84.3551 55.3239 79.4365 50.4053 79.4365 44.338C79.4365 38.2706 84.3551 33.3521 90.4224 33.3521C96.4898 33.3521 101.408 38.2706 101.408 44.338Z" fill="#EF7F1B"/>
<path d="M32.1125 43.4929C32.1125 46.2932 29.8424 48.5633 27.0421 48.5633C24.2418 48.5633 21.9717 46.2932 21.9717 43.4929C21.9717 40.6926 24.2418 38.4225 27.0421 38.4225C29.8424 38.4225 32.1125 40.6926 32.1125 43.4929Z" fill="#E4097F"/>
<path fill-rule="evenodd" clip-rule="evenodd" d="M15.1332 51.2844C14.6368 54.5288 11.834 57.0141 8.45071 57.0141C4.71695 57.0141 1.69014 53.9873 1.69014 50.2535C1.69014 49.7671 1.74151 49.2927 1.8391 48.8355L0.992804 48.6796C-0.51798 56.881 -0.302497 65.3073 1.62551 73.4208C2.16449 75.689 2.83401 77.9188 3.62903 80.0996C5.67788 85.7197 8.5603 91.0144 12.1904 95.8018C17.2292 102.447 23.5978 107.969 30.89 112.015C38.1822 116.061 46.2377 118.542 54.5425 119.301C62.8474 120.059 71.2191 119.078 79.1236 116.42C87.0281 113.762 94.2917 109.486 100.451 103.863C104.888 99.8127 108.682 95.1278 111.715 89.9718C112.892 87.9711 113.955 85.8995 114.896 83.7665C118.262 76.1365 120 67.8887 120 59.5493H90.0119C90.0119 63.7206 89.1423 67.8462 87.4587 71.6627C85.775 75.4792 83.3143 78.9028 80.2335 81.715C77.1526 84.5273 73.5194 86.6664 69.5656 87.996C65.6118 89.3255 61.4242 89.8162 57.2702 89.4368C53.1161 89.0574 49.0867 87.8161 45.4392 85.7923C41.7917 83.7685 38.6061 81.0066 36.0857 77.6827C33.5654 74.3589 31.7656 70.5461 30.8012 66.4878C30.2182 64.0346 29.9483 61.5243 29.9928 59.0162C28.9656 59.8765 27.6419 60.3944 26.1972 60.3944C22.9301 60.3944 20.2817 57.7459 20.2817 54.4789C20.2817 53.7126 20.4274 52.9804 20.6925 52.3085L15.1332 51.2844Z" fill="#E4097F"/>
<path d="M25.3523 67.1549C25.3523 69.9552 23.0822 72.2253 20.2818 72.2253C17.4815 72.2253 15.2114 69.9552 15.2114 67.1549C15.2114 64.3546 17.4815 62.0845 20.2818 62.0845C23.0822 62.0845 25.3523 64.3546 25.3523 67.1549Z" fill="white"/>
<path d="M6.76056 50.2536C6.76056 52.1205 5.24716 53.6339 3.38028 53.6339C1.5134 53.6339 0 52.1205 0 50.2536C0 48.3867 1.5134 46.8733 3.38028 46.8733C5.24716 46.8733 6.76056 48.3867 6.76056 50.2536Z" fill="#E4097F"/>
<path d="M16.9016 31.662C16.9016 34.4623 14.6315 36.7324 11.8312 36.7324C9.03085 36.7324 6.76074 34.4623 6.76074 31.662C6.76074 28.8617 9.03085 26.5916 11.8312 26.5916C14.6315 26.5916 16.9016 28.8617 16.9016 31.662Z" fill="#E4097F"/>
<path d="M30.4227 33.3521C30.4227 35.219 28.9093 36.7324 27.0424 36.7324C25.1755 36.7324 23.6621 35.219 23.6621 33.3521C23.6621 31.4852 25.1755 29.9718 27.0424 29.9718C28.9093 29.9718 30.4227 31.4852 30.4227 33.3521Z" fill="#E4097F"/>
<path d="M8.45051 63.7747C8.45051 65.6416 6.9371 67.155 5.07022 67.155C3.20335 67.155 1.68994 65.6416 1.68994 63.7747C1.68994 61.9078 3.20335 60.3944 5.07022 60.3944C6.9371 60.3944 8.45051 61.9078 8.45051 63.7747Z" fill="white"/>
<path d="M21.9717 52.7887C21.9717 55.1223 20.0799 57.0141 17.7463 57.0141C15.4128 57.0141 13.521 55.1223 13.521 52.7887C13.521 50.4551 15.4128 48.5634 17.7463 48.5634C20.0799 48.5634 21.9717 50.4551 21.9717 52.7887Z" fill="#E4097F"/>
<path d="M13.5213 41.8028C13.5213 43.6696 12.0079 45.183 10.141 45.183C8.27415 45.183 6.76074 43.6696 6.76074 41.8028C6.76074 39.9359 8.27415 38.4225 10.141 38.4225C12.0079 38.4225 13.5213 39.9359 13.5213 41.8028Z" fill="#E4097F"/>
<path d="M42.2537 29.9718C42.2537 31.8387 40.7403 33.3521 38.8734 33.3521C37.0066 33.3521 35.4932 31.8387 35.4932 29.9718C35.4932 28.105 37.0066 26.5916 38.8734 26.5916C40.7403 26.5916 42.2537 28.105 42.2537 29.9718Z" fill="#EF7F1B"/>
<path d="M38.8734 21.5212C38.8734 23.388 37.36 24.9014 35.4931 24.9014C33.6262 24.9014 32.1128 23.388 32.1128 21.5212C32.1128 19.6543 33.6262 18.1409 35.4931 18.1409C37.36 18.1409 38.8734 19.6543 38.8734 21.5212Z" fill="#E4097F"/>
<path d="M23.6617 18.9859C23.6617 20.3861 22.5267 21.5211 21.1265 21.5211C19.7264 21.5211 18.5913 20.3861 18.5913 18.9859C18.5913 17.5857 19.7264 16.4507 21.1265 16.4507C22.5267 16.4507 23.6617 17.5857 23.6617 18.9859Z" fill="#E4097F"/>
<path d="M13.5211 73.0704C13.5211 74.4705 12.3861 75.6056 10.9859 75.6056C9.58574 75.6056 8.45068 74.4705 8.45068 73.0704C8.45068 71.6702 9.58574 70.5352 10.9859 70.5352C12.3861 70.5352 13.5211 71.6702 13.5211 73.0704Z" fill="white"/>
<path d="M27.0421 25.7465C27.0421 27.1467 25.907 28.2817 24.5069 28.2817C23.1067 28.2817 21.9717 27.1467 21.9717 25.7465C21.9717 24.3464 23.1067 23.2113 24.5069 23.2113C25.907 23.2113 27.0421 24.3464 27.0421 25.7465Z" fill="#E4097F"/>
<path d="M30.4225 18.9859C30.4225 20.3861 29.2874 21.5211 27.8873 21.5211C26.4871 21.5211 25.3521 20.3861 25.3521 18.9859C25.3521 17.5857 26.4871 16.4507 27.8873 16.4507C29.2874 16.4507 30.4225 17.5857 30.4225 18.9859Z" fill="#E4097F"/>
<path d="M42.2535 15.6056C42.2535 17.0058 41.1185 18.1409 39.7183 18.1409C38.3182 18.1409 37.1831 17.0058 37.1831 15.6056C37.1831 14.2055 38.3182 13.0704 39.7183 13.0704C41.1185 13.0704 42.2535 14.2055 42.2535 15.6056Z" fill="#E4097F"/>
<path d="M59.1549 24.0563C59.1549 25.4565 58.0198 26.5915 56.6197 26.5915C55.2195 26.5915 54.0845 25.4565 54.0845 24.0563C54.0845 22.6562 55.2195 21.5211 56.6197 21.5211C58.0198 21.5211 59.1549 22.6562 59.1549 24.0563Z" fill="#E4097F"/>
<path d="M49.0141 31.6619C49.0141 32.5954 48.2574 33.3521 47.3239 33.3521C46.3905 33.3521 45.6338 32.5954 45.6338 31.6619C45.6338 30.7285 46.3905 29.9718 47.3239 29.9718C48.2574 29.9718 49.0141 30.7285 49.0141 31.6619Z" fill="#E4097F"/>
<path d="M47.3241 19.831C47.3241 20.7644 46.5674 21.5212 45.634 21.5212C44.7005 21.5212 43.9438 20.7644 43.9438 19.831C43.9438 18.8976 44.7005 18.1409 45.634 18.1409C46.5674 18.1409 47.3241 18.8976 47.3241 19.831Z" fill="#E4097F"/>
<path d="M40.5634 9.69014C40.5634 10.6236 39.8067 11.3803 38.8732 11.3803C37.9398 11.3803 37.1831 10.6236 37.1831 9.69014C37.1831 8.7567 37.9398 8 38.8732 8C39.8067 8 40.5634 8.7567 40.5634 9.69014Z" fill="#E4097F"/>
<path d="M33.8026 13.0704C33.8026 14.0038 33.0459 14.7605 32.1125 14.7605C31.1791 14.7605 30.4224 14.0038 30.4224 13.0704C30.4224 12.137 31.1791 11.3802 32.1125 11.3802C33.0459 11.3802 33.8026 12.137 33.8026 13.0704Z" fill="#E4097F"/>
</svg>
