<svg width="73" height="73" viewBox="0 0 73 73" fill="none" xmlns="http://www.w3.org/2000/svg">
<rect x="0.666687" y="0.5" width="72" height="72" rx="5" fill="#EFEFEF"/>
<path d="M57.8306 47.6464L57.8398 47.6413H57.8218L47.1955 41.8833L36.5516 36.1152L25.9072 41.8833L15.281 47.6413H15.2629L15.2721 47.6464L15.2629 47.6515H15.281L25.9072 53.4094L36.5516 59.1775L47.1955 53.4094L57.8218 47.6515H57.8398L57.8306 47.6464Z" fill="#E12C0F"/>
<path d="M57.8306 25.5312L57.8398 25.5265H57.8218L47.1955 19.7681L36.5516 14L25.9072 19.7681L15.281 25.5265H15.2629L15.2721 25.5312L15.2629 25.5362H15.281L25.9072 31.2946L36.5516 37.0627L47.1955 31.2946L57.8218 25.5362H57.8398L57.8306 25.5312Z" fill="#A20000"/>
<path d="M15.2809 25.0625V48.1151L36.5516 36.589L15.2809 25.0625Z" fill="#6A1507"/>
<path d="M57.8216 25.0625V48.1151L36.5515 36.589L57.8216 25.0625Z" fill="#6A1507"/>
</svg>
