<svg width="60" height="60" viewBox="0 0 60 60" fill="none" xmlns="http://www.w3.org/2000/svg">
<g clip-path="url(#clip0_101_322)">
<path d="M0.00268555 30C0.00268555 41.8704 6.90363 52.1392 16.9117 56.9922L2.60161 17.7885C0.934566 21.522 0.00268555 25.6477 0.00268555 30ZM50.2552 28.4848C50.2552 24.7774 48.92 22.2065 47.7799 20.2111C46.261 17.7395 44.8376 15.6488 44.8376 13.1753C44.8376 10.4167 46.9228 7.85157 49.8783 7.85157L50.2626 7.87773C44.9257 2.98906 37.8149 0 30.0064 0C19.7038 0 10.6202 5.1962 5.22134 13.1061C7.47544 13.1491 14.8677 13.1755 14.8677 13.1755C16.4803 13.0855 16.6717 15.4557 15.0551 15.6508C15.0551 15.6508 13.433 15.8401 11.6234 15.9359L22.5503 48.4281L29.1155 28.74L24.4386 15.9359C22.8241 15.8385 21.2938 15.6508 21.2938 15.6508C19.6754 15.5534 19.8667 13.0855 21.487 13.1755H37.3852C38.996 13.0855 39.1892 15.4557 37.5727 15.6508C37.5727 15.6508 35.9505 15.8401 34.1409 15.9359L44.9836 48.1787L47.9785 38.1873C49.492 34.2849 50.2552 31.054 50.2552 28.4848ZM30.5314 32.6253L21.5266 58.7812C24.2139 59.5726 27.053 60 30.0045 60C33.4944 60 36.8472 59.3963 39.9658 58.2973L39.7539 57.8866L30.5314 32.6253ZM56.3254 15.6038C56.4566 16.5639 56.5316 17.5879 56.5316 18.6943C56.5316 21.7358 55.9596 25.1562 54.2458 29.4375L45.0852 55.927C54.0019 50.7308 59.9971 41.0676 59.9971 30C59.999 24.7832 58.6675 19.8795 56.3254 15.6038Z" fill="#007AFF"/>
</g>
<defs>
<clipPath id="clip0_101_322">
<rect width="60" height="60" fill="white"/>
</clipPath>
</defs>
</svg>
