<svg width="121" height="120" viewBox="0 0 121 120" fill="none" xmlns="http://www.w3.org/2000/svg">
<g clip-path="url(#clip0_77_270)">
<path fill-rule="evenodd" clip-rule="evenodd" d="M60.3742 31.3295C45.4117 -5.12719 1.13199 2.55234 0.186817 44.5468C-0.336405 67.6107 20.7106 76.6 34.6688 86.0669C48.2033 95.2469 57.7445 107.651 59.1876 112.885C60.5733 107.804 71.6116 95.4123 84.4103 86.6796C98.4056 77.13 119.976 69.4454 120.175 46.3764C120.543 4.26715 75.7349 -3.15752 60.3742 31.3295Z" fill="#7E8082"/>
<path fill-rule="evenodd" clip-rule="evenodd" d="M77.556 78.7063C79.0666 85.6347 71.5069 87.1605 68.1785 86.2677C64.8502 85.3748 60.7285 83.9047 60.7285 83.9047C60.7285 83.9047 56.5866 85.4052 53.2566 86.3183C49.9265 87.2314 42.3635 85.7478 43.8791 78.8109C45.3948 71.874 47.4438 72.2284 49.8827 66.7988C52.3216 61.3691 55.314 56.8846 60.7572 56.6972C66.2004 56.5099 68.5971 60.3749 71.5997 66.7431C74.6024 73.1112 76.0539 71.7795 77.556 78.7063ZM67.7363 52.0844C71.8327 53.2507 76.3594 50.0169 77.8632 44.8589C79.367 39.701 77.2556 34.5886 73.1592 33.4223C69.0629 32.256 64.5362 35.4899 63.0324 40.6461C61.5285 45.8024 63.6417 50.9181 67.7363 52.0844ZM84.7174 50.1603C80.773 48.5687 75.9256 51.3013 73.8884 56.2719C71.8512 61.2425 73.3955 66.5591 77.3416 68.1456C81.2877 69.7322 86.1335 67.0047 88.169 62.0341C90.2045 57.0635 88.6618 51.7536 84.7174 50.1603ZM53.7342 52.1249C57.8322 50.9435 59.9437 45.8024 58.4601 40.6596C56.9765 35.5169 52.4447 32.31 48.3518 33.4999C44.2589 34.6898 42.1424 39.8242 43.6259 44.9652C45.1095 50.1063 49.6362 53.3148 53.7342 52.1249ZM44.1137 68.2418C48.0598 66.6266 49.6126 61.2999 47.5839 56.3478C45.5551 51.3958 40.7111 48.6835 36.7633 50.3004C32.8155 51.9173 31.2644 57.2424 33.2932 62.1944C35.3219 67.1465 40.1659 69.8571 44.1137 68.2418V68.2418Z" fill="white"/>
</g>
<defs>
<clipPath id="clip0_77_270">
<rect width="120" height="120" fill="white" transform="translate(0.177246)"/>
</clipPath>
</defs>
</svg>
