<svg width="121" height="120" viewBox="0 0 121 120" fill="none" xmlns="http://www.w3.org/2000/svg">
<g clip-path="url(#clip0_77_305)">
<rect width="120" height="120" transform="translate(0.709961)" fill="#7E8082"/>
<path d="M120.146 92.3522V59.6762L107.752 52.9156V69.2536L99.3014 65.8734V48.4086L85.7803 40.5212V92.3522H99.3014V76.5776H107.752V92.3522H120.146Z" fill="white"/>
<path fill-rule="evenodd" clip-rule="evenodd" d="M85.2168 39.5403L99.8647 48.0849V65.4918L107.189 68.4214V51.9665L120.71 59.3416V92.9155H107.189V77.1409H99.8647V92.9155H85.2168V39.5403ZM86.3436 41.502V91.7888H98.7379V76.0141H108.315V91.7888H119.583V60.0105L108.315 53.8646V70.0857L98.7379 66.2547V48.7321L86.3436 41.502Z" fill="#7E8082"/>
<path fill-rule="evenodd" clip-rule="evenodd" d="M39.0198 40.5212V39.4531L38.1383 40.0563L6.02563 62.0281L5.78038 62.1959V62.4931V83.9015H1.27334H0.709961V84.4649V92.9156V93.479H1.27334H43.5269H44.0902V92.9156V84.4649V83.9015H43.5269H39.0198V40.5212ZM6.90714 84.4649V62.7902L37.8931 41.5893V84.4649V85.0283H38.4564H42.9635V92.3522H1.83672V85.0283H6.34376H6.90714V84.4649ZM26.6255 57.4226V56.2826L25.7198 56.9751L16.1424 64.2991L15.9212 64.4682V64.7466V84.4649V85.0283H16.4846H26.0621H26.6255V84.4649V57.4226ZM17.048 83.9015V65.025L25.4987 58.5627V83.9015H17.048Z" fill="white"/>
<path fill-rule="evenodd" clip-rule="evenodd" d="M6.90714 62.7902V84.4649V85.0283H6.34376H1.83672V92.3522H42.9635V85.0283H38.4564H37.8931V84.4649V41.5893L6.90714 62.7902ZM26.6255 57.4226V56.2826L25.7198 56.9751L16.1424 64.2991L15.9212 64.4682V64.7466V84.4649V85.0283H16.4846H26.0621H26.6255V84.4649V57.4226Z" fill="white"/>
<path fill-rule="evenodd" clip-rule="evenodd" d="M39.0198 40.5212V39.4531L38.1383 40.0563L6.02563 62.0281L5.78038 62.1959V62.4931V83.9015H1.27334H0.709961V84.4649V92.9156V93.479H1.27334H43.5269H44.0902V92.9156V84.4649V83.9015H43.5269H39.0198V40.5212ZM6.90714 84.4649V62.7902L37.8931 41.5893V84.4649V85.0283H38.4564H42.9635V92.3522H1.83672V85.0283H6.34376H6.90714V84.4649ZM26.6255 57.4226V56.2826L25.7198 56.9751L16.1424 64.2991L15.9212 64.4682V64.7466V84.4649V85.0283H16.4846H26.0621H26.6255V84.4649V57.4226ZM17.048 83.9015V65.025L25.4987 58.5627V83.9015H17.048Z" fill="#7E8082"/>
<path fill-rule="evenodd" clip-rule="evenodd" d="M39.5833 50.662C39.5833 43.8128 42.8628 38.1838 47.3408 34.2545C51.8293 30.316 57.4759 28.1268 62.1185 28.1268C73.643 28.1268 85.2171 37.4955 85.2171 50.662V69.8169C85.2171 76.1049 82.1306 81.7371 77.6735 85.8094C73.2117 89.886 67.4272 92.3521 62.1185 92.3521C57.0779 92.3521 51.4315 90.0238 47.0416 86.1548C42.6562 82.2898 39.5833 76.9407 39.5833 70.9437V50.662ZM62.1185 27C57.1612 27 51.2585 29.3178 46.5977 33.4075C41.9264 37.5064 38.4565 43.4267 38.4565 50.662V70.9437C38.4565 77.341 41.7327 82.9778 46.2965 87.0001C50.8558 91.0184 56.7587 93.4789 62.1185 93.4789C67.7539 93.4789 73.8003 90.8745 78.4335 86.6413C83.0714 82.4038 86.3439 76.4866 86.3439 69.8169V50.662C86.3439 36.7862 74.1745 27 62.1185 27ZM68.3157 43.338V78.2676C68.3157 82.0014 65.2889 85.0282 61.5551 85.0282C57.8214 85.0282 54.7946 82.0014 54.7946 78.2676V43.338C54.7946 39.6043 57.8214 36.5775 61.5551 36.5775C65.2889 36.5775 68.3157 39.6043 68.3157 43.338ZM53.6678 43.338C53.6678 38.982 57.1991 35.4507 61.5551 35.4507C65.9112 35.4507 69.4425 38.982 69.4425 43.338V78.2676C69.4425 82.6237 65.9112 86.1549 61.5551 86.1549C57.1991 86.1549 53.6678 82.6237 53.6678 78.2676V43.338Z" fill="white"/>
<path fill-rule="evenodd" clip-rule="evenodd" d="M47.3408 34.2545C42.8628 38.1838 39.5833 43.8128 39.5833 50.662V70.9437C39.5833 76.9407 42.6562 82.2898 47.0416 86.1548C51.4315 90.0238 57.0779 92.3521 62.1185 92.3521C67.4272 92.3521 73.2117 89.886 77.6735 85.8094C82.1306 81.7371 85.2171 76.1049 85.2171 69.8169V50.662C85.2171 37.4955 73.643 28.1268 62.1185 28.1268C57.4759 28.1268 51.8293 30.316 47.3408 34.2545ZM53.6678 43.338C53.6678 38.982 57.1991 35.4507 61.5551 35.4507C65.9112 35.4507 69.4425 38.982 69.4425 43.338V78.2676C69.4425 82.6237 65.9112 86.1549 61.5551 86.1549C57.1991 86.1549 53.6678 82.6237 53.6678 78.2676V43.338Z" fill="white"/>
<path fill-rule="evenodd" clip-rule="evenodd" d="M39.5833 50.662C39.5833 43.8128 42.8628 38.1838 47.3408 34.2545C51.8293 30.316 57.4759 28.1268 62.1185 28.1268C73.643 28.1268 85.2171 37.4955 85.2171 50.662V69.8169C85.2171 76.1049 82.1306 81.7371 77.6735 85.8094C73.2117 89.886 67.4272 92.3521 62.1185 92.3521C57.0779 92.3521 51.4315 90.0238 47.0416 86.1548C42.6562 82.2898 39.5833 76.9407 39.5833 70.9437V50.662ZM62.1185 27C57.1612 27 51.2585 29.3178 46.5977 33.4075C41.9264 37.5064 38.4565 43.4267 38.4565 50.662V70.9437C38.4565 77.341 41.7327 82.9778 46.2965 87.0001C50.8558 91.0184 56.7587 93.4789 62.1185 93.4789C67.7539 93.4789 73.8003 90.8745 78.4335 86.6413C83.0714 82.4038 86.3439 76.4866 86.3439 69.8169V50.662C86.3439 36.7862 74.1745 27 62.1185 27ZM68.3157 43.338V78.2676C68.3157 82.0014 65.2889 85.0282 61.5551 85.0282C57.8214 85.0282 54.7946 82.0014 54.7946 78.2676V43.338C54.7946 39.6043 57.8214 36.5775 61.5551 36.5775C65.2889 36.5775 68.3157 39.6043 68.3157 43.338ZM53.6678 43.338C53.6678 38.982 57.1991 35.4507 61.5551 35.4507C65.9112 35.4507 69.4425 38.982 69.4425 43.338V78.2676C69.4425 82.6237 65.9112 86.1549 61.5551 86.1549C57.1991 86.1549 53.6678 82.6237 53.6678 78.2676V43.338Z" fill="#7E8082"/>
<path d="M61.5549 46.155L54.231 49.5353L61.5549 56.8593L68.8788 49.5353L61.5549 46.155Z" fill="white"/>
<path fill-rule="evenodd" clip-rule="evenodd" d="M55.2006 49.7081L61.5548 56.0623L67.9091 49.7081L61.5548 46.7753L55.2006 49.7081ZM53.9948 49.0236L61.3187 45.6433H61.7909L69.1149 49.0236L69.2771 49.9335L61.9532 57.2574H61.1565L53.8325 49.9335L53.9948 49.0236Z" fill="#7E8082"/>
</g>
<defs>
<clipPath id="clip0_77_305">
<rect width="120" height="120" fill="white" transform="translate(0.709961)"/>
</clipPath>
</defs>
</svg>
