<svg width="121" height="120" viewBox="0 0 121 120" fill="none" xmlns="http://www.w3.org/2000/svg">
<g clip-path="url(#clip0_77_281)">
<path d="M101.941 44.338C101.941 50.4053 97.022 55.3239 90.9547 55.3239C84.8873 55.3239 79.9688 50.4053 79.9688 44.338C79.9688 38.2706 84.8873 33.3521 90.9547 33.3521C97.022 33.3521 101.941 38.2706 101.941 44.338Z" fill="#EFEFEF"/>
<path d="M32.6448 43.493C32.6448 46.2933 30.3746 48.5635 27.5743 48.5635C24.774 48.5635 22.5039 46.2933 22.5039 43.493C22.5039 40.6927 24.774 38.4226 27.5743 38.4226C30.3746 38.4226 32.6448 40.6927 32.6448 43.493Z" fill="#7E8082"/>
<path fill-rule="evenodd" clip-rule="evenodd" d="M15.6654 51.2845C15.169 54.529 12.3662 57.0142 8.98293 57.0142C5.24918 57.0142 2.22237 53.9874 2.22237 50.2536C2.22237 49.7672 2.27373 49.2929 2.37133 48.8356L1.52503 48.6797C0.0142463 56.8811 0.22973 65.3074 2.15773 73.4209C2.69672 75.6891 3.36623 77.9189 4.16126 80.0997C6.21011 85.7198 9.09253 91.0145 12.7227 95.8019C17.7614 102.447 24.1301 107.969 31.4222 112.015C38.7144 116.061 46.7699 118.542 55.0747 119.301C63.3796 120.059 71.7514 119.078 79.6558 116.42C87.5603 113.762 94.8239 109.486 100.983 103.863C105.42 99.8128 109.214 95.1279 112.248 89.9719C113.424 87.9712 114.487 85.8996 115.428 83.7666C118.794 76.1367 120.532 67.8888 120.532 59.5494H90.5441C90.5441 63.7208 89.6746 67.8463 87.9909 71.6628C86.3073 75.4793 83.8465 78.9029 80.7657 81.7152C77.6849 84.5274 74.0516 86.6666 70.0978 87.9961C66.144 89.3256 61.9565 89.8163 57.8024 89.4369C53.6483 89.0575 49.619 87.8163 45.9714 85.7925C42.3239 83.7686 39.1383 81.0067 36.618 77.6828C34.0976 74.359 32.2978 70.5463 31.3334 66.4879C30.7505 64.0348 30.4805 61.5244 30.5251 59.0164C29.4978 59.8766 28.1741 60.3945 26.7294 60.3945C23.4624 60.3945 20.8139 57.746 20.8139 54.479C20.8139 53.7128 20.9596 52.9806 21.2248 52.3086L15.6654 51.2845Z" fill="#7E8082"/>
<path d="M7.29279 50.2536C7.29279 52.1205 5.77939 53.6339 3.91251 53.6339C2.04563 53.6339 0.532227 52.1205 0.532227 50.2536C0.532227 48.3867 2.04563 46.8733 3.91251 46.8733C5.77939 46.8733 7.29279 48.3867 7.29279 50.2536Z" fill="#7E8082"/>
<path d="M17.4338 31.662C17.4338 34.4623 15.1637 36.7324 12.3634 36.7324C9.56307 36.7324 7.29297 34.4623 7.29297 31.662C7.29297 28.8617 9.56307 26.5916 12.3634 26.5916C15.1637 26.5916 17.4338 28.8617 17.4338 31.662Z" fill="#7E8082"/>
<path d="M30.9549 33.3522C30.9549 35.2191 29.4415 36.7325 27.5746 36.7325C25.7077 36.7325 24.1943 35.2191 24.1943 33.3522C24.1943 31.4853 25.7077 29.9719 27.5746 29.9719C29.4415 29.9719 30.9549 31.4853 30.9549 33.3522Z" fill="#7E8082"/>
<path d="M22.5039 52.7888C22.5039 55.1224 20.6122 57.0142 18.2786 57.0142C15.945 57.0142 14.0532 55.1224 14.0532 52.7888C14.0532 50.4552 15.945 48.5635 18.2786 48.5635C20.6122 48.5635 22.5039 50.4552 22.5039 52.7888Z" fill="#7E8082"/>
<path d="M14.0535 41.8029C14.0535 43.6698 12.5401 45.1832 10.6733 45.1832C8.80637 45.1832 7.29297 43.6698 7.29297 41.8029C7.29297 39.936 8.80637 38.4226 10.6733 38.4226C12.5401 38.4226 14.0535 39.936 14.0535 41.8029Z" fill="#7E8082"/>
<path d="M42.786 29.9718C42.786 31.8387 41.2726 33.3521 39.4057 33.3521C37.5388 33.3521 36.0254 31.8387 36.0254 29.9718C36.0254 28.105 37.5388 26.5916 39.4057 26.5916C41.2726 26.5916 42.786 28.105 42.786 29.9718Z" fill="#EFEFEF"/>
<path d="M39.4056 21.5212C39.4056 23.388 37.8922 24.9014 36.0253 24.9014C34.1584 24.9014 32.645 23.388 32.645 21.5212C32.645 19.6543 34.1584 18.1409 36.0253 18.1409C37.8922 18.1409 39.4056 19.6543 39.4056 21.5212Z" fill="#7E8082"/>
<path d="M24.194 18.9859C24.194 20.3861 23.0589 21.5211 21.6587 21.5211C20.2586 21.5211 19.1235 20.3861 19.1235 18.9859C19.1235 17.5857 20.2586 16.4507 21.6587 16.4507C23.0589 16.4507 24.194 17.5857 24.194 18.9859Z" fill="#7E8082"/>
<path d="M27.5743 25.7464C27.5743 27.1466 26.4393 28.2816 25.0391 28.2816C23.639 28.2816 22.5039 27.1466 22.5039 25.7464C22.5039 24.3462 23.639 23.2112 25.0391 23.2112C26.4393 23.2112 27.5743 24.3462 27.5743 25.7464Z" fill="#7E8082"/>
<path d="M30.9547 18.9859C30.9547 20.3861 29.8196 21.5211 28.4195 21.5211C27.0193 21.5211 25.8843 20.3861 25.8843 18.9859C25.8843 17.5857 27.0193 16.4507 28.4195 16.4507C29.8196 16.4507 30.9547 17.5857 30.9547 18.9859Z" fill="#7E8082"/>
<path d="M42.7858 15.6055C42.7858 17.0057 41.6507 18.1407 40.2505 18.1407C38.8504 18.1407 37.7153 17.0057 37.7153 15.6055C37.7153 14.2054 38.8504 13.0703 40.2505 13.0703C41.6507 13.0703 42.7858 14.2054 42.7858 15.6055Z" fill="#7E8082"/>
<path d="M59.6871 24.0565C59.6871 25.4566 58.5521 26.5917 57.1519 26.5917C55.7518 26.5917 54.6167 25.4566 54.6167 24.0565C54.6167 22.6563 55.7518 21.5212 57.1519 21.5212C58.5521 21.5212 59.6871 22.6563 59.6871 24.0565Z" fill="#7E8082"/>
<path d="M49.5463 31.6621C49.5463 32.5955 48.7896 33.3522 47.8562 33.3522C46.9227 33.3522 46.166 32.5955 46.166 31.6621C46.166 30.7286 46.9227 29.9719 47.8562 29.9719C48.7896 29.9719 49.5463 30.7286 49.5463 31.6621Z" fill="#7E8082"/>
<path d="M47.8564 19.831C47.8564 20.7644 47.0997 21.5212 46.1662 21.5212C45.2328 21.5212 44.4761 20.7644 44.4761 19.831C44.4761 18.8976 45.2328 18.1409 46.1662 18.1409C47.0997 18.1409 47.8564 18.8976 47.8564 19.831Z" fill="#7E8082"/>
<path d="M41.0956 9.69014C41.0956 10.6236 40.3389 11.3803 39.4055 11.3803C38.472 11.3803 37.7153 10.6236 37.7153 9.69014C37.7153 8.7567 38.472 8 39.4055 8C40.3389 8 41.0956 8.7567 41.0956 9.69014Z" fill="#7E8082"/>
<path d="M34.3349 13.0705C34.3349 14.004 33.5782 14.7607 32.6447 14.7607C31.7113 14.7607 30.9546 14.004 30.9546 13.0705C30.9546 12.1371 31.7113 11.3804 32.6447 11.3804C33.5782 11.3804 34.3349 12.1371 34.3349 13.0705Z" fill="#7E8082"/>
</g>
<defs>
<clipPath id="clip0_77_281">
<rect width="120" height="120" fill="white" transform="translate(0.532227)"/>
</clipPath>
</defs>
</svg>
