<svg width="120" height="120" viewBox="0 0 120 120" fill="none" xmlns="http://www.w3.org/2000/svg">
<rect width="120" height="120" fill="white"/>
<g clip-path="url(#clip0_77_86)">
<path d="M120 59.2434C117.767 59.4627 116.029 59.6271 114.786 59.7367C114.734 55.9864 114.644 52.7107 114.517 49.9095C114.39 47.1083 114.219 44.7427 114.002 42.8127C114.141 42.6483 114.262 42.4882 114.374 42.3367C114.485 42.1816 114.61 42.0368 114.747 41.904L111.354 40C110.249 41.7309 109.055 43.8412 107.771 46.3308C106.487 48.8205 105.101 51.7053 103.612 54.9854C102.427 57.5818 101.316 60.106 100.28 62.5581C99.2448 65.0103 98.2596 67.4206 97.325 69.789C97.9019 68.6611 98.5496 67.461 99.2679 66.1887C99.9862 64.9165 100.772 63.5376 101.626 62.0518C102.812 61.9437 103.972 62.0518 105.434 61.9913C106.707 61.9566 107.957 61.9264 109.229 61.9307L106.512 77.0762L114.673 75.5703C114.755 72.1777 114.794 70.1136 114.794 66.0286V61.8095C115.569 61.8355 116.287 61.8571 116.958 61.8701C117.629 61.8831 118.226 61.9177 118.775 61.974L120.017 59.2434H120ZM109.736 59.9877C106.59 60.745 105.889 60.7883 101.916 61.5585C103.794 58.3044 105.581 55.3316 107.278 52.64C108.974 49.9484 110.608 47.4963 112.181 45.2836C111.315 52.4539 110.822 55.3965 109.736 59.9964V59.9877Z" fill="black"/>
<path d="M95.988 72.2209C91.1645 67.9456 87.0478 64.3943 83.6379 61.5672C80.228 58.74 77.4874 56.6225 75.4161 55.2147C75.68 54.5007 75.5286 54.6824 75.9007 53.7175C85.6948 49.7998 92.7858 46.4072 97.1737 43.5397L96.5938 40.186C94.8283 41.8708 92.2622 43.7459 88.8956 45.8115C85.5289 47.8771 81.3373 50.1402 76.3205 52.601C77.7283 48.8247 78.9832 45.7769 80.0852 43.4575L76.5931 41.0948C75.9296 42.9151 75.2675 44.8884 74.6069 47.0145C73.9462 49.1406 73.2697 51.4485 72.5774 53.9382L67.125 57.0408L71.0888 59.3559C70.4657 64.4275 69.6781 70.1741 69.029 75.4188C69.9983 71.5545 71.3181 66.6041 73.3563 60.5632C81.7685 66.6214 87.4459 73.5061 92.5868 79.0321L96.0053 72.2339L95.988 72.2209Z" fill="#0D7F39"/>
<path d="M5.14082 75.8471C7.98769 74.2888 10.6302 72.3832 13.0078 70.1741C15.0857 68.2169 16.8503 65.9518 18.2395 63.4581C19.6116 60.9458 20.5978 58.2412 21.1648 55.4353C21.7957 52.2552 22.0988 49.0188 22.0692 45.7768V44.7123C22.0692 44.3272 22.0692 43.9464 22.0259 43.5613L16.9716 41.0774C11.312 43.8735 6.74445 48.4745 3.98976 54.1545C1.61841 59.001 0.288486 65.0145 0 72.1949L5.14082 75.8298V75.8471ZM18.5208 56.0282C18.4732 59.2347 17.3654 61.5584 15.7167 64.3149C14.4488 66.4223 12.0082 68.9235 10.1908 69.3562C6.72893 69.6635 4.13256 65.3708 4.13256 62.2075C4.13256 56.4436 6.26159 51.649 10.7447 47.9275C15.3662 47.6246 18.6506 50.6623 18.5338 56.0412L18.5208 56.0282Z" fill="black"/>
<path d="M47.4618 75.8471C50.3087 74.2888 52.9512 72.3832 55.3288 70.1741C57.4158 68.2132 59.1878 65.9421 60.5821 63.4408C61.9524 60.9276 62.9384 58.2234 63.5074 55.418C64.1386 52.2437 64.4431 49.0132 64.4161 45.7768V44.7123C64.4161 44.3272 64.4161 43.9464 64.3685 43.5613L59.2839 41.0774C53.6247 43.874 49.0573 48.4749 46.3021 54.1545C43.9394 59.001 42.6109 65.0145 42.3167 72.1949L47.4618 75.8471ZM60.8418 56.0282C60.7898 59.2347 59.6864 61.5584 58.0377 64.3149C56.7655 66.4223 54.3249 68.9235 52.5074 69.3562C49.0456 69.6635 46.4492 65.3708 46.4492 62.2075C46.4492 56.4436 48.5739 51.649 53.057 47.9275C57.6828 47.6246 60.9629 50.6623 60.8461 56.0412L60.8418 56.0282Z" fill="black"/>
<path d="M38.4046 64.791C34.9629 68.8133 31.1174 72.4717 26.9287 75.7087L20.7363 71.5199C22.3687 65.9191 24.3191 60.416 26.5782 55.0373C29.1313 48.8319 31.3815 44.1743 33.3287 41.0645L39.1706 42.7478L38.4046 50.1042L32.2123 47.8799C31.1939 49.5935 29.8496 52.9313 28.1793 57.8933C26.6041 62.5812 25.3983 66.7556 24.5616 70.4164C29.9419 69.3029 34.5577 67.4277 38.409 64.791H38.4046Z" fill="#1D1D1B"/>
</g>
<defs>
<clipPath id="clip0_77_86">
<rect width="120" height="39.0191" fill="white" transform="translate(0 40)"/>
</clipPath>
</defs>
</svg>
