<svg width="121" height="120" viewBox="0 0 121 120" fill="none" xmlns="http://www.w3.org/2000/svg">
<g clip-path="url(#clip0_77_274)">
<g clip-path="url(#clip1_77_274)">
<path d="M120.355 59.2434C118.122 59.4627 116.384 59.6271 115.141 59.7367C115.089 55.9864 114.999 52.7107 114.872 49.9095C114.746 47.1083 114.574 44.7427 114.358 42.8127C114.496 42.6483 114.617 42.4882 114.73 42.3367C114.84 42.1816 114.965 42.0368 115.102 41.904L111.709 40C110.604 41.7309 109.41 43.8412 108.126 46.3308C106.842 48.8205 105.456 51.7053 103.968 54.9854C102.782 57.5818 101.671 60.106 100.636 62.5581C99.6 65.0103 98.6149 67.4206 97.6802 69.789C98.2571 68.6611 98.9048 67.461 99.6231 66.1887C100.341 64.9165 101.128 63.5376 101.981 62.0518C103.167 61.9437 104.327 62.0518 105.79 61.9913C107.062 61.9566 108.312 61.9264 109.585 61.9307L106.867 77.0762L115.028 75.5703C115.11 72.1777 115.149 70.1136 115.149 66.0286V61.8095C115.924 61.8355 116.642 61.8571 117.313 61.8701C117.984 61.8831 118.581 61.9177 119.131 61.974L120.372 59.2434H120.355ZM110.091 59.9877C106.945 60.745 106.244 60.7883 102.271 61.5585C104.149 58.3044 105.937 55.3316 107.633 52.64C109.329 49.9484 110.964 47.4963 112.536 45.2836C111.67 52.4539 111.177 55.3965 110.091 59.9964V59.9877Z" fill="black"/>
<path d="M96.343 72.2209C91.5195 67.9456 87.4028 64.3943 83.9929 61.5672C80.583 58.74 77.8424 56.6225 75.7711 55.2147C76.035 54.5007 75.8836 54.6824 76.2557 53.7175C86.0498 49.7998 93.1408 46.4072 97.5287 43.5397L96.9488 40.186C95.1833 41.8708 92.6172 43.7459 89.2506 45.8115C85.8839 47.8771 81.6922 50.1402 76.6755 52.601C78.0833 48.8247 79.3382 45.7769 80.4402 43.4575L76.9481 41.0948C76.2846 42.9151 75.6225 44.8884 74.9619 47.0145C74.3012 49.1406 73.6247 51.4485 72.9324 53.9382L67.48 57.0408L71.4438 59.3559C70.8206 64.4275 70.0331 70.1741 69.384 75.4188C70.3533 71.5545 71.6731 66.6041 73.7113 60.5632C82.1235 66.6214 87.8009 73.5061 92.9417 79.0321L96.3603 72.2339L96.343 72.2209Z" fill="#7E8082"/>
<path d="M5.4958 75.8471C8.34267 74.2888 10.9852 72.3832 13.3628 70.1741C15.4407 68.2169 17.2052 65.9518 18.5945 63.4581C19.9666 60.9458 20.9527 58.2412 21.5197 55.4353C22.1507 52.2552 22.4538 49.0188 22.4241 45.7768V44.7123C22.4241 44.3272 22.4241 43.9464 22.3809 43.5613L17.3266 41.0774C11.6669 43.8735 7.09943 48.4745 4.34474 54.1545C1.97339 59.001 0.643466 65.0145 0.35498 72.1949L5.4958 75.8298V75.8471ZM18.8758 56.0282C18.8282 59.2347 17.7204 61.5584 16.0717 64.3149C14.8038 66.4223 12.3632 68.9235 10.5457 69.3562C7.08391 69.6635 4.48754 65.3708 4.48754 62.2075C4.48754 56.4436 6.61657 51.649 11.0996 47.9275C15.7212 47.6246 19.0056 50.6623 18.8888 56.0412L18.8758 56.0282Z" fill="black"/>
<path d="M47.8165 75.8471C50.6634 74.2888 53.3059 72.3832 55.6835 70.1741C57.7706 68.2132 59.5425 65.9421 60.9369 63.4408C62.3071 60.9276 63.2931 58.2234 63.8621 55.418C64.4934 52.2437 64.7979 49.0132 64.7708 45.7768V44.7123C64.7708 44.3272 64.7708 43.9464 64.7232 43.5613L59.6387 41.0774C53.9794 43.874 49.412 48.4749 46.6568 54.1545C44.2941 59.001 42.9656 65.0145 42.6714 72.1949L47.8165 75.8471ZM61.1965 56.0282C61.1446 59.2347 60.0411 61.5584 58.3924 64.3149C57.1202 66.4223 54.6796 68.9235 52.8621 69.3562C49.4003 69.6635 46.8039 65.3708 46.8039 62.2075C46.8039 56.4436 48.9286 51.649 53.4117 47.9275C58.0376 47.6246 61.3177 50.6623 61.2008 56.0412L61.1965 56.0282Z" fill="black"/>
<path d="M38.7596 64.791C35.3179 68.8133 31.4724 72.4717 27.2837 75.7087L21.0913 71.5199C22.7237 65.9191 24.6741 60.416 26.9331 55.0373C29.4862 48.8319 31.7364 44.1743 33.6837 41.0645L39.5255 42.7478L38.7596 50.1042L32.5673 47.8799C31.5489 49.5935 30.2046 52.9313 28.5342 57.8933C26.9591 62.5812 25.7532 66.7556 24.9166 70.4164C30.2969 69.3029 34.9127 67.4277 38.7639 64.791H38.7596Z" fill="#1D1D1B"/>
</g>
</g>
<defs>
<clipPath id="clip0_77_274">
<rect width="120" height="120" fill="white" transform="translate(0.35498)"/>
</clipPath>
<clipPath id="clip1_77_274">
<rect width="120" height="39.0191" fill="white" transform="translate(0.35498 40)"/>
</clipPath>
</defs>
</svg>
