<svg width="28" height="25" viewBox="0 0 28 25" fill="none" xmlns="http://www.w3.org/2000/svg">
<path d="M25 0H2.5C1.125 0 0 1.125 0 2.5V17.5C0 18.163 0.263392 18.7989 0.732233 19.2678C1.20107 19.7366 1.83696 20 2.5 20H11.25V22.5H8.75V25H18.75V22.5H16.25V20H25C26.3875 20 27.5 18.8875 27.5 17.5V2.5C27.5 1.83696 27.2366 1.20107 26.7678 0.732233C26.2989 0.263392 25.663 0 25 0ZM25 17.5H2.5V2.5H25V17.5ZM18.55 7.75L17.2875 9.0125L14.7 6.475L15.9625 5.2C16.2125 4.9375 16.6375 4.925 16.9375 5.2L18.55 6.7625C18.8125 7.025 18.825 7.45 18.55 7.75ZM8.75 12.3875L13.9625 7.15L16.55 9.75L11.35 15H8.75V12.3875Z" fill="black"/>
</svg>
