<svg width="25" height="25" viewBox="0 0 25 25" fill="none" xmlns="http://www.w3.org/2000/svg">
<path d="M12.5 0C10.8585 0 9.23303 0.323322 7.71646 0.951506C6.19989 1.57969 4.8219 2.50043 3.66117 3.66117C1.31696 6.00537 0 9.18479 0 12.5C0 15.8152 1.31696 18.9946 3.66117 21.3388C4.8219 22.4996 6.19989 23.4203 7.71646 24.0485C9.23303 24.6767 10.8585 25 12.5 25C15.8152 25 18.9946 23.683 21.3388 21.3388C23.683 18.9946 25 15.8152 25 12.5C25 11.05 24.7375 9.6125 24.2375 8.2625L22.2375 10.2625C22.4125 11 22.5 11.75 22.5 12.5C22.5 15.1522 21.4464 17.6957 19.5711 19.5711C17.6957 21.4464 15.1522 22.5 12.5 22.5C9.84784 22.5 7.3043 21.4464 5.42893 19.5711C3.55357 17.6957 2.5 15.1522 2.5 12.5C2.5 9.84784 3.55357 7.3043 5.42893 5.42893C7.3043 3.55357 9.84784 2.5 12.5 2.5C13.25 2.5 14 2.5875 14.7375 2.7625L16.75 0.75C15.3875 0.2625 13.95 0 12.5 0ZM21.25 0L16.25 5V6.875L13.0625 10.0625C12.875 10 12.6875 10 12.5 10C11.837 10 11.2011 10.2634 10.7322 10.7322C10.2634 11.2011 10 11.837 10 12.5C10 13.163 10.2634 13.7989 10.7322 14.2678C11.2011 14.7366 11.837 15 12.5 15C13.163 15 13.7989 14.7366 14.2678 14.2678C14.7366 13.7989 15 13.163 15 12.5C15 12.3125 15 12.125 14.9375 11.9375L18.125 8.75H20L25 3.75H21.25V0ZM12.5 5C10.5109 5 8.60322 5.79018 7.1967 7.1967C5.79018 8.60322 5 10.5109 5 12.5C5 14.4891 5.79018 16.3968 7.1967 17.8033C8.60322 19.2098 10.5109 20 12.5 20C14.4891 20 16.3968 19.2098 17.8033 17.8033C19.2098 16.3968 20 14.4891 20 12.5H17.5C17.5 13.8261 16.9732 15.0979 16.0355 16.0355C15.0979 16.9732 13.8261 17.5 12.5 17.5C11.1739 17.5 9.90215 16.9732 8.96447 16.0355C8.02678 15.0979 7.5 13.8261 7.5 12.5C7.5 11.1739 8.02678 9.90215 8.96447 8.96447C9.90215 8.02678 11.1739 7.5 12.5 7.5V5Z" fill="black"/>
</svg>
