<svg width="25" height="26" viewBox="0 0 25 26" fill="none" xmlns="http://www.w3.org/2000/svg">
<path d="M12.0979 0.5C8.47188 0.5 4.20833 1.3625 0.567708 3.2375L0 3.52813V4.16979C0 8.03542 0.0739593 18.35 11.5635 25.1792L12.0979 25.5L12.6323 25.1792C24.1219 18.35 24.1948 8.03542 24.1948 4.16875V3.53542L23.6344 3.24167C20.0375 1.35937 15.724 0.5 12.0979 0.5ZM12.0979 2.59583C15.2 2.59583 18.9563 3.39063 22.0729 4.88438C22.0646 8.93437 21.6375 16.9083 12.0979 22.9365C2.55833 16.9083 2.13021 8.93437 2.12292 4.88438C5.28542 3.38542 8.99583 2.59583 12.0979 2.59583ZM17.3427 8.39271C17.0719 8.40104 16.8385 8.57292 16.7073 8.70417L11.1031 14.5167L9.00729 12.0031C8.0125 10.851 6.65104 11.7417 6.33646 11.951L11.2083 17.6073L17.8594 8.59896C17.7212 8.46463 17.5354 8.39048 17.3427 8.39271Z" fill="black"/>
</svg>
