<svg width="24" height="25" viewBox="0 0 24 25" fill="none" xmlns="http://www.w3.org/2000/svg">
<path d="M18.889 16.58C17.7911 16.5796 16.7368 17.0095 15.9522 17.7774L8.3038 13.4772C8.46097 12.8286 8.46097 12.1519 8.3038 11.5033L15.9498 7.20306C16.6641 7.89787 17.6024 8.31576 18.5967 8.38191C19.591 8.44806 20.5764 8.15815 21.3764 7.56409C22.1765 6.97003 22.739 6.1106 22.9632 5.13966C23.1874 4.16872 23.0587 3.14967 22.6002 2.26495C22.1416 1.38023 21.3832 0.687598 20.4606 0.311058C19.538 -0.0654815 18.5114 -0.101344 17.5648 0.20989C16.6182 0.521124 15.8132 1.15913 15.294 2.0097C14.7749 2.86026 14.5754 3.86785 14.7313 4.85206L6.90488 9.25454C6.29014 8.74236 5.54217 8.41597 4.74859 8.31361C3.95502 8.21125 3.14871 8.33715 2.42412 8.67658C1.69954 9.016 1.08668 9.55488 0.65735 10.2301C0.228021 10.9053 0 11.6889 0 12.489C0 13.2892 0.228021 14.0728 0.65735 14.748C1.08668 15.4232 1.69954 15.9621 2.42412 16.3015C3.14871 16.6409 3.95502 16.7668 4.74859 16.6645C5.54217 16.5621 6.29014 16.2357 6.90488 15.7235L14.7313 20.1284C14.596 20.9787 14.7246 21.85 15.0999 22.6249C15.4752 23.3998 16.079 24.041 16.8299 24.4621C17.5809 24.8832 18.4429 25.0639 19.2998 24.9799C20.1567 24.8959 20.9672 24.5512 21.6221 23.9923C22.2769 23.4334 22.7447 22.6871 22.9623 21.8541C23.1799 21.021 23.1369 20.1413 22.8391 19.3335C22.5412 18.5257 22.0028 17.8286 21.2965 17.3363C20.5902 16.8439 19.75 16.58 18.889 16.58V16.58Z" fill="black"/>
</svg>
