<svg width="27" height="25" viewBox="0 0 27 25" fill="none" xmlns="http://www.w3.org/2000/svg">
<path d="M23.6842 13.1579H18.4211C18.4211 14.6053 17.2368 15.7895 15.7895 15.7895H10.5263C9.07895 15.7895 7.89474 14.6053 7.89474 13.1579H2.63158L0 19.7368V22.3684C0 23.8158 1.18421 25 2.63158 25H23.6842C25.1316 25 26.3158 23.8158 26.3158 22.3684V19.7368L23.6842 13.1579ZM5.26316 22.3684C4.09211 22.3684 3.5 20.9474 4.32895 20.1184C5.15789 19.2895 6.57895 19.8816 6.57895 21.0526C6.57895 21.7763 5.98684 22.3684 5.26316 22.3684ZM10.5263 22.3684C9.35526 22.3684 8.76316 20.9474 9.59211 20.1184C10.4211 19.2895 11.8421 19.8816 11.8421 21.0526C11.8421 21.7763 11.25 22.3684 10.5263 22.3684ZM15.7895 22.3684C14.6184 22.3684 14.0263 20.9474 14.8553 20.1184C15.6842 19.2895 17.1053 19.8816 17.1053 21.0526C17.1053 21.7763 16.5132 22.3684 15.7895 22.3684ZM21.0526 22.3684C19.8816 22.3684 19.2895 20.9474 20.1184 20.1184C20.9474 19.2895 22.3684 19.8816 22.3684 21.0526C22.3684 21.7763 21.7763 22.3684 21.0526 22.3684ZM21.0526 9.21053V0H5.26316V9.21053H1.31579V11.8421H25V9.21053H21.0526ZM7.89474 2.63158H18.4211V3.94737H7.89474V2.63158ZM7.89474 5.26316H15.7895V6.57895H7.89474" fill="black"/>
</svg>
