<svg width="25" height="25" viewBox="0 0 25 25" fill="none" xmlns="http://www.w3.org/2000/svg">
<path d="M2.82625 16.473C6.3275 19.9734 11.8446 20.2176 15.6321 17.2147L16.4212 18.003L15.7658 18.658L21.1175 24.0093C20.9183 24.3243 20.8321 24.5668 20.9317 24.6655L21.2246 24.958C21.7008 25.4351 25.4346 21.7001 24.9583 21.2238L24.6654 20.9318C24.5666 20.8326 24.3246 20.918 24.0104 21.1172L18.6579 15.7659L18.0029 16.4209L17.2142 15.6322C20.2167 11.8443 19.9729 6.32677 16.4729 2.82594C12.7046 -0.941978 6.59458 -0.941978 2.82625 2.82594C-0.942499 6.5951 -0.941666 12.7047 2.82625 16.473V16.473ZM3.96333 3.96385C7.10333 0.823437 12.1962 0.823437 15.3354 3.96385C18.4758 7.10343 18.4758 12.1963 15.3354 15.3359C12.1954 18.4768 7.10416 18.4759 3.96333 15.3359C0.824166 12.1955 0.823333 7.10427 3.96333 3.96385Z" fill="black"/>
<path d="M2.78458 9.12598C3.13071 10.0454 3.66893 10.8805 4.36333 11.5756C7.07707 14.2897 11.4783 14.2897 14.1933 11.5743C15.3408 10.4303 16.0505 8.91993 16.1987 7.3064C17.1387 9.78515 16.6154 12.6922 14.6196 14.6881C11.905 17.4026 7.50374 17.4026 4.78916 14.6881C3.26666 13.1668 2.59958 11.1143 2.78458 9.12598Z" fill="black"/>
</svg>
