<svg width="25" height="25" viewBox="0 0 25 25" fill="none" xmlns="http://www.w3.org/2000/svg">
<path d="M0.363762 22.861L12.3026 10.9221L10.5615 9.15616L9.66611 10.0391C9.55106 10.1544 9.4144 10.2459 9.26395 10.3083C9.11351 10.3707 8.95223 10.4028 8.78935 10.4028C8.62648 10.4028 8.4652 10.3707 8.31475 10.3083C8.16431 10.2459 8.02765 10.1544 7.9126 10.0391L7.02962 9.15616C6.91433 9.0411 6.82286 8.90444 6.76046 8.754C6.69805 8.60355 6.66593 8.44227 6.66593 8.2794C6.66593 8.11652 6.69805 7.95524 6.76046 7.8048C6.82286 7.65435 6.91433 7.51769 7.02962 7.40264L14.0686 0.363692C14.1836 0.248403 14.3203 0.156937 14.4707 0.0945302C14.6212 0.0321231 14.7824 0 14.9453 0C15.1082 0 15.2695 0.0321231 15.4199 0.0945302C15.5704 0.156937 15.707 0.248403 15.8221 0.363692L16.7051 1.24667C17.1901 1.73169 17.1901 2.51517 16.7051 3.00019L15.8221 3.85829L17.588 5.63668C17.7031 5.52139 17.8397 5.42993 17.9902 5.36752C18.1406 5.30511 18.3019 5.27299 18.4648 5.27299C18.6277 5.27299 18.7889 5.30511 18.9394 5.36752C19.0898 5.42993 19.2265 5.52139 19.3416 5.63668C19.8266 6.1217 19.8266 6.91762 19.3416 7.40264L21.0951 9.15616L21.9781 8.27318C22.4631 7.78816 23.259 7.78816 23.744 8.27318L24.6145 9.15616C25.0996 9.64117 25.0996 10.4371 24.6145 10.9221L17.588 17.9486C17.103 18.4336 16.3071 18.4336 15.8221 17.9486L14.9515 17.0781C14.8335 16.9633 14.7396 16.8261 14.6755 16.6744C14.6114 16.5227 14.5784 16.3598 14.5784 16.1951C14.5784 16.0304 14.6114 15.8675 14.6755 15.7158C14.7396 15.5641 14.8335 15.4269 14.9515 15.3121L15.8221 14.4291L14.0686 12.6756L2.11728 24.6269C2.00223 24.7422 1.86557 24.8337 1.71512 24.8961C1.56467 24.9585 1.4034 24.9906 1.24052 24.9906C1.07764 24.9906 0.916368 24.9585 0.765921 24.8961C0.615475 24.8337 0.478815 24.7422 0.363762 24.6269C-0.121254 24.1419 -0.121254 23.346 0.363762 22.861V22.861ZM22.376 21.2691C23.0357 21.2691 23.6683 21.5312 24.1348 21.9976C24.6012 22.4641 24.8633 23.0967 24.8633 23.7564V25H12.427V23.7564C12.427 23.0967 12.689 22.4641 13.1555 21.9976C13.6219 21.5312 14.2546 21.2691 14.9142 21.2691H22.376Z" fill="black"/>
</svg>
