<svg width="7" height="12" viewBox="0 0 7 12" fill="none" xmlns="http://www.w3.org/2000/svg">
<path d="M4.74145 6.08225L1.08444 2.42525C1.01136 2.3587 0.952366 2.27815 0.910963 2.18839C0.869559 2.09863 0.846585 2.00147 0.843401 1.90267C0.840216 1.80387 0.856886 1.70543 0.892424 1.61319C0.927961 1.52095 0.981643 1.43677 1.05029 1.36565C1.11894 1.29452 1.20116 1.23789 1.29209 1.19911C1.38302 1.16033 1.4808 1.14018 1.57965 1.13987C1.6785 1.13955 1.77641 1.15907 1.86759 1.19727C1.95876 1.23547 2.04134 1.29157 2.11044 1.36225L2.12844 1.38025L6.30845 5.55925C6.447 5.69784 6.52484 5.88578 6.52484 6.08175C6.52484 6.27772 6.447 6.46567 6.30845 6.60425L2.12945 10.7833C2.06201 10.8531 1.98149 10.9089 1.89248 10.9476C1.80347 10.9862 1.70771 11.007 1.61067 11.0087C1.51364 11.0104 1.41722 10.9929 1.32693 10.9573C1.23664 10.9217 1.15424 10.8687 1.08445 10.8013C1.01465 10.7338 0.958816 10.6533 0.920137 10.5643C0.881458 10.4753 0.86069 10.3795 0.859019 10.2825C0.857347 10.1854 0.874805 10.089 0.910395 9.99874C0.945986 9.90845 0.999012 9.82605 1.06645 9.75625L1.08445 9.73825L4.74145 6.08225Z" fill="currentColor" stroke="currentColor" stroke-width="0.5"/>
</svg>
