<svg width="50" height="46" viewBox="0 0 50 46" fill="none" xmlns="http://www.w3.org/2000/svg">
<path fill-rule="evenodd" clip-rule="evenodd" d="M40.1034 0.675837C39.8663 0.785796 39.5285 1.01338 39.3526 1.18167C39.1769 1.34987 38.941 1.65992 38.8285 1.87064C38.6695 2.16833 38.6233 2.42456 38.6213 3.02004C38.6194 3.58708 38.6665 3.88257 38.8026 4.15661C38.9036 4.36024 39.13 4.66637 39.3054 4.83677C39.4809 5.00716 39.6245 5.16904 39.6245 5.19643C39.6245 5.22383 39.2296 5.93061 38.7469 6.76719C38.2643 7.60366 37.3453 9.32259 36.7047 10.5869C36.0642 11.8513 35.3569 13.3571 35.1331 13.9333C34.9093 14.5095 34.6374 15.3121 34.5291 15.7171L34.3321 16.4533L33.8005 16.5082C33.3793 16.5517 33.2092 16.6228 32.9813 16.8506C32.7106 17.1214 32.6948 17.1783 32.7122 17.8239C32.7223 18.201 32.7976 18.839 32.8795 19.2416C32.9613 19.6443 33.1728 20.3107 33.3494 20.7226C33.526 21.1345 33.8141 21.7101 33.9894 22.0017C34.1649 22.2934 34.5615 22.8091 34.8707 23.1477C35.1798 23.4864 35.6755 23.9499 35.9722 24.1776C36.2688 24.4055 36.7568 24.73 37.0567 24.8989C37.3565 25.0678 37.9685 25.3306 38.4167 25.483C38.8648 25.6355 39.6108 25.8107 40.0745 25.8724C40.5411 25.9345 41.262 25.9582 41.689 25.9254C42.1133 25.8928 42.803 25.7789 43.2215 25.6722C43.6401 25.5655 44.296 25.3297 44.6792 25.1482C45.0623 24.9667 45.611 24.662 45.8987 24.4711C46.1862 24.2802 46.7213 23.8243 47.0875 23.458C47.4539 23.0917 47.9417 22.5027 48.1716 22.1491C48.4016 21.7955 48.7129 21.227 48.8636 20.8858C49.0141 20.5445 49.2166 19.9626 49.3135 19.5927C49.4104 19.2228 49.5145 18.5537 49.5448 18.1059C49.5929 17.3955 49.5751 17.2529 49.4063 16.9863C49.2783 16.7843 49.0895 16.6467 48.8486 16.5798C48.6483 16.5242 48.3678 16.4785 48.2251 16.4782C47.9856 16.4776 47.9504 16.4245 47.7647 15.7832C47.6542 15.4012 47.3883 14.6362 47.1738 14.083C46.9595 13.5299 46.5195 12.517 46.1963 11.8321C45.873 11.1473 45.2023 9.83264 44.7059 8.91072C44.2094 7.98881 43.5352 6.77561 43.2076 6.2148L42.6119 5.19519L42.9349 4.88207C43.1126 4.70985 43.3529 4.37135 43.4688 4.12979C43.6186 3.81773 43.68 3.51026 43.6811 3.06793C43.6822 2.64419 43.6199 2.3055 43.4865 2.00761C43.3785 1.76691 43.1305 1.41471 42.9352 1.22516C42.74 1.0355 42.4216 0.803229 42.2278 0.708978C42.0231 0.609459 41.5945 0.524691 41.2049 0.506779C40.6801 0.482642 40.4407 0.519327 40.1034 0.675837ZM41.5401 2.58902C41.6455 2.69438 41.7317 2.89571 41.7317 3.03642C41.7317 3.17713 41.6604 3.37109 41.5732 3.46745C41.486 3.5638 41.3028 3.64196 41.1661 3.6412C41.0294 3.64033 40.8701 3.60806 40.8122 3.56936C40.7542 3.53066 40.6572 3.4048 40.5967 3.28977C40.5361 3.17464 40.4865 3.03259 40.4865 2.97407C40.4865 2.91554 40.5924 2.7619 40.7217 2.6326C40.851 2.50329 41.0449 2.39745 41.1527 2.39745C41.2605 2.39745 41.4348 2.48365 41.5401 2.58902ZM24.546 2.89629C24.2339 2.93652 23.7598 3.08211 23.4923 3.21975C23.2249 3.35749 22.819 3.64905 22.5903 3.86772C22.3615 4.0863 22.0496 4.48074 21.8968 4.74414C21.7441 5.00755 21.57 5.47095 21.5099 5.77381C21.4499 6.07668 21.3905 6.32457 21.378 6.32457C21.3655 6.32457 19.0592 6.81785 16.253 7.42081L11.1507 8.51696L10.7088 8.14714C10.4657 7.94369 10.0381 7.70328 9.75843 7.61276C9.41256 7.50089 9.08738 7.46506 8.74102 7.50089C8.46105 7.52972 8.06288 7.63968 7.85627 7.74504C7.64957 7.8505 7.30494 8.12721 7.09039 8.35997C6.87583 8.59272 6.6425 8.95191 6.57191 9.15823C6.50122 9.36454 6.44864 9.79193 6.45486 10.108C6.46119 10.4241 6.53657 10.8473 6.62248 11.0483C6.7084 11.2495 6.94508 11.5945 7.14843 11.8151L7.51806 12.2161L6.85256 13.3614C6.48647 13.9913 5.81771 15.1911 5.36629 16.0276C4.91495 16.8641 4.27598 18.1158 3.94649 18.809C3.6169 19.5023 3.19516 20.4574 3.00915 20.9315C2.82323 21.4057 2.60379 22.0091 2.52152 22.2725C2.43924 22.5359 2.32554 22.9346 2.26884 23.1585L2.16578 23.5656H1.65659C1.25248 23.5656 1.09655 23.6128 0.900382 23.7946C0.764466 23.9207 0.623567 24.1819 0.587265 24.3752C0.550963 24.5686 0.571558 25.1191 0.633051 25.5986C0.694544 26.078 0.832088 26.7327 0.938695 27.0534C1.04521 27.374 1.28141 27.9405 1.46349 28.3122C1.64558 28.684 2.07287 29.3402 2.41309 29.7703C2.75322 30.2006 3.34803 30.804 3.73471 31.1113C4.12148 31.4187 4.80116 31.8489 5.24512 32.0676C5.68908 32.2862 6.3972 32.5622 6.81865 32.6809C7.44297 32.8568 7.83338 32.8975 8.92589 32.9006C9.92721 32.9035 10.4488 32.8591 10.9852 32.7251C11.3803 32.6265 12.0559 32.3829 12.4864 32.184C12.9171 31.9851 13.4774 31.6805 13.7316 31.5072C13.9859 31.3339 14.49 30.9093 14.8518 30.5636C15.2136 30.218 15.7245 29.6181 15.987 29.2306C16.2496 28.8432 16.5725 28.2828 16.7046 27.9854C16.8368 27.6881 17.0479 27.0406 17.1738 26.5466C17.319 25.9767 17.4027 25.3746 17.4027 24.8997C17.4027 24.2479 17.373 24.1164 17.1732 23.8842C16.9856 23.666 16.843 23.6083 16.3906 23.5675C15.8759 23.5211 15.8314 23.4977 15.7515 23.2303C15.7044 23.0723 15.5332 22.5335 15.3713 22.0331C15.2094 21.5326 14.845 20.5843 14.5615 19.9258C14.2781 19.2673 13.5347 17.7587 12.9096 16.5734C12.2845 15.3881 11.4881 13.9362 11.1397 13.347C10.7914 12.7579 10.5063 12.2299 10.5063 12.1737C10.5063 12.1176 10.5474 12.0716 10.5977 12.0716C10.648 12.0716 10.8419 11.8714 11.0287 11.6268C11.2156 11.3821 11.4124 11.0183 11.4664 10.8183C11.5204 10.6178 11.6384 10.4325 11.7297 10.405C11.8207 10.3776 13.2098 10.0752 14.8166 9.73283C16.4233 9.3905 18.6332 8.91465 19.7276 8.67529C20.8218 8.43602 21.734 8.24024 21.7548 8.24024C21.7755 8.24024 21.947 8.45077 22.1359 8.70805L22.4792 9.17585V22.8158V36.4557L21.1266 36.4662C20.2474 36.4729 19.6957 36.5184 19.5505 36.5961C19.4276 36.6619 19.2604 36.856 19.179 37.0276C19.0681 37.2614 19.031 37.6657 19.031 38.642V39.9446L17.5703 39.9467C16.3312 39.9485 16.0787 39.9739 15.9053 40.1143C15.793 40.2054 15.6529 40.374 15.594 40.489C15.5256 40.623 15.4871 41.4043 15.4871 42.6618C15.4871 43.7419 15.5275 44.7319 15.577 44.862C15.6264 44.9921 15.7639 45.1888 15.8823 45.2992L16.0979 45.5L25.1074 45.4979C33.4991 45.4959 34.1309 45.4844 34.3212 45.3303C34.4336 45.2392 34.5737 45.0706 34.6325 44.9556C34.7014 44.821 34.7395 44.0243 34.7395 42.7223C34.7395 41.4203 34.7014 40.6236 34.6325 40.489C34.5737 40.374 34.4336 40.2054 34.3212 40.1143C34.1479 39.9739 33.8954 39.9485 32.6562 39.9467L31.1955 39.9446V38.6658C31.1955 37.9624 31.1492 37.2541 31.0926 37.0916C31.036 36.9292 30.8912 36.7319 30.7709 36.6531C30.6085 36.5465 30.1922 36.5019 29.15 36.4791L27.7476 36.4485L27.7474 22.8222L27.7473 9.19587L28.1295 8.63602C28.3683 8.28621 28.5739 7.82847 28.6777 7.41583C28.769 7.05272 28.846 6.74726 28.8487 6.73711C28.8515 6.72696 29.7794 6.51767 30.9107 6.27189C32.042 6.0262 33.0848 5.76472 33.2281 5.69077C33.3714 5.61683 33.533 5.47344 33.5872 5.372C33.6416 5.27066 33.6859 5.03073 33.6859 4.83887C33.6859 4.58093 33.6129 4.41695 33.4059 4.20996C33.2014 4.00556 33.0341 3.92998 32.7854 3.92998C32.5981 3.92998 31.557 4.12395 30.4719 4.36101C29.3868 4.59807 28.4621 4.79203 28.417 4.79203C28.3718 4.79203 28.3098 4.71273 28.279 4.61589C28.2483 4.51896 27.9975 4.21513 27.7219 3.94081C27.4461 3.66648 27.005 3.3368 26.7416 3.20835C26.4782 3.07981 26.0041 2.94064 25.688 2.89897C25.3719 2.85731 24.858 2.85616 24.546 2.89629ZM35.841 3.2527C35.683 3.29082 35.459 3.37291 35.3431 3.43517C35.2273 3.49743 35.0656 3.64378 34.9839 3.76045C34.9022 3.87711 34.8353 4.11054 34.8353 4.27921C34.8353 4.46637 34.9285 4.69644 35.0745 4.87C35.206 5.02632 35.4264 5.18254 35.5642 5.21712C35.702 5.2517 36.0506 5.23111 36.3387 5.17124C36.6623 5.1041 36.9676 4.96502 37.1374 4.80755C37.2884 4.66733 37.4193 4.48792 37.4281 4.4089C37.4369 4.32988 37.4391 4.14339 37.4328 3.99445C37.4261 3.83391 37.3075 3.60978 37.1415 3.44369C36.9237 3.22588 36.7801 3.16592 36.4949 3.17349C36.2933 3.17895 35.9991 3.21458 35.841 3.2527ZM26.0983 5.10218C26.304 5.23829 26.5539 5.5151 26.6537 5.7174C26.7622 5.93751 26.8329 6.27735 26.8296 6.56403C26.8267 6.82743 26.7518 7.18078 26.6633 7.34926C26.5748 7.51774 26.344 7.77636 26.1505 7.92396C25.8409 8.16016 25.7164 8.19235 25.1133 8.19235C24.5101 8.19235 24.3857 8.16016 24.076 7.92396C23.8826 7.77636 23.6535 7.51889 23.5671 7.35175C23.4807 7.18461 23.4068 6.82935 23.403 6.56211C23.3977 6.199 23.4609 5.96548 23.6534 5.63704C23.8256 5.34317 24.0464 5.12881 24.3205 4.98954C24.6288 4.83274 24.8531 4.79031 25.2273 4.81799C25.5545 4.84223 25.8522 4.93925 26.0983 5.10218ZM41.9559 7.97837C42.35 8.67557 42.9373 9.74164 43.2612 10.3475C43.5849 10.9533 44.1699 12.1273 44.561 12.9563C44.9521 13.7853 45.4237 14.8994 45.6091 15.432C45.7945 15.9646 45.9462 16.4178 45.9462 16.439C45.9462 16.4603 43.7911 16.4776 41.157 16.4776C38.4953 16.4776 36.3678 16.4405 36.3678 16.3941C36.3678 16.3481 36.4717 15.9925 36.5986 15.6039C36.7255 15.2152 37.0074 14.4925 37.2251 13.998C37.4428 13.5033 37.9681 12.4042 38.3925 11.5555C38.8169 10.7067 39.5953 9.24721 40.1221 8.31217C40.6489 7.37723 41.1158 6.63433 41.1597 6.66154C41.2037 6.68864 41.5619 7.28125 41.9559 7.97837ZM9.44187 9.61607C9.49206 9.67651 9.56074 9.83618 9.59455 9.97095C9.63669 10.1388 9.59953 10.2857 9.47674 10.4373C9.36888 10.5707 9.1936 10.6588 9.03661 10.6588C8.89322 10.6588 8.69112 10.582 8.58748 10.4883C8.48385 10.3945 8.39975 10.2059 8.40051 10.0692C8.40138 9.93254 8.4349 9.76894 8.47513 9.70573C8.51526 9.64251 8.65309 9.5519 8.78135 9.50448C8.9096 9.45707 9.09015 9.43801 9.18258 9.46215C9.27501 9.48638 9.39168 9.55563 9.44187 9.61607ZM25.7359 23.3282V36.4526L25.1133 36.4506L24.4907 36.4485V23.3261V10.2038H25.1133H25.7359V23.3282ZM9.84081 15.0409C10.2753 15.8047 11.0101 17.1625 11.4737 18.058C11.9374 18.9536 12.5113 20.1257 12.7492 20.6627C12.9871 21.1997 13.3326 22.0725 13.517 22.6023L13.8523 23.5656H9.01659H4.18097L4.2439 23.3022C4.27847 23.1574 4.45625 22.6293 4.63891 22.1288C4.82147 21.6284 5.38994 20.3568 5.9021 19.3032C6.41425 18.2496 7.27726 16.5902 7.81987 15.6156C8.36249 14.641 8.85022 13.7887 8.90376 13.7215C8.9573 13.6544 9.01228 13.6113 9.02598 13.6258C9.03968 13.6402 9.40633 14.277 9.84081 15.0409ZM47.5167 18.7525C47.4827 18.8973 47.3713 19.2745 47.2689 19.5906C47.1665 19.9067 46.9126 20.4539 46.7048 20.8065C46.497 21.1593 46.0552 21.7238 45.7229 22.0609C45.3906 22.3982 44.8632 22.823 44.5507 23.005C44.2383 23.187 43.7456 23.4296 43.4558 23.5441C43.1661 23.6586 42.735 23.7955 42.498 23.8482C42.2609 23.9009 41.6351 23.9451 41.1072 23.9464C40.4251 23.9481 39.9406 23.8914 39.4325 23.7506C39.0393 23.6416 38.4248 23.3986 38.0668 23.2105C37.709 23.0225 37.1218 22.596 36.7619 22.2629C36.4021 21.9298 35.9244 21.3758 35.7002 21.0317C35.4761 20.6878 35.1688 20.0503 35.0174 19.6153C34.866 19.1802 34.7415 18.7489 34.7408 18.6567C34.7396 18.4987 35.1086 18.4891 41.1588 18.4891H47.5781L47.5167 18.7525ZM15.3913 25.6149C15.3913 25.6883 15.3002 26.0439 15.1888 26.4051C15.0774 26.7662 14.8838 27.2644 14.7585 27.5121C14.6332 27.7598 14.3291 28.2098 14.0828 28.5123C13.8364 28.8148 13.5236 29.1643 13.3876 29.2891C13.2516 29.4139 12.8354 29.7203 12.4627 29.97C12.09 30.2197 11.498 30.5183 11.1469 30.6335C10.7959 30.7488 10.1983 30.8912 9.81887 30.95C9.3117 31.0287 8.90903 31.0289 8.2986 30.9506C7.842 30.8921 7.2241 30.7601 6.92554 30.6574C6.62699 30.5547 6.11627 30.3286 5.79051 30.155C5.45948 29.9787 4.8753 29.5225 4.46621 29.121C4.02762 28.6907 3.594 28.1492 3.38443 27.7705C3.1921 27.4227 2.95542 26.9055 2.85858 26.6211C2.76165 26.3366 2.65504 25.9638 2.62171 25.7926L2.56108 25.4813H8.97617C14.3992 25.4813 15.3913 25.5019 15.3913 25.6149ZM29.1841 39.1783V39.9446H25.1133H21.0425V39.1783V38.412H25.1133H29.1841V39.1783ZM32.8239 42.7223V43.5843L25.1372 43.5839L17.4506 43.5835L17.4189 42.7219L17.3871 41.8602H25.1055H32.8239V42.7223Z" fill="currentColor"/>
</svg>
