<svg width="46" height="46" viewBox="0 0 46 46" fill="none" xmlns="http://www.w3.org/2000/svg">
<path fill-rule="evenodd" clip-rule="evenodd" d="M7.11063 4.46958C3.88641 6.64919 1.17391 8.52302 1.08295 8.63365C0.932609 8.81641 0.91748 9.12673 0.91748 12.0322V15.2297L1.1774 15.4341C1.41558 15.6214 1.51287 15.6341 2.33566 15.5848C2.82979 15.5551 4.15503 15.5043 5.28077 15.4715L7.32753 15.4123L7.39608 15.7297C7.43381 15.9042 7.54311 16.2021 7.63899 16.3915C7.73477 16.5809 7.98741 16.885 8.20025 17.0672C8.41308 17.2493 8.7738 17.4454 9.00176 17.5028C9.22982 17.5602 9.56766 17.6072 9.75269 17.6072H10.089L10.0914 18.5291C10.0927 19.0362 10.0419 23.5463 9.97858 28.5516L9.86341 37.6522L8.10881 37.6528C7.14382 37.653 6.19168 37.6984 5.99293 37.7536C5.79428 37.8088 5.4642 38.0052 5.2594 38.1902C4.99475 38.4293 4.84517 38.6708 4.74211 39.0257C4.62278 39.4359 4.60188 40.0324 4.62467 42.3783C4.65077 45.0765 4.6623 45.2391 4.83581 45.3659C4.99286 45.4807 7.90581 45.5 25.0409 45.5H45.0625L45.2097 45.2898C45.3369 45.1082 45.3569 44.5697 45.3569 41.3186C45.3569 37.6837 45.3505 37.5513 45.1678 37.3685C44.9832 37.184 44.8526 37.1794 39.731 37.1794H34.4834V33.0083V28.8371L34.7434 29.0083C34.8864 29.1023 35.1189 29.2372 35.26 29.3079C35.4638 29.4101 35.5609 29.4131 35.7327 29.3226C35.8517 29.26 35.9803 29.1619 36.0185 29.1047C36.0567 29.0475 36.0885 28.8903 36.0894 28.7553C36.0901 28.6204 36.0163 28.4445 35.9253 28.3646C35.8343 28.2847 33.8045 27.0017 31.4147 25.5134C28.6518 23.7928 26.9809 22.8075 26.826 22.8075C26.66 22.8075 25.2274 23.7499 22.3306 25.7647C18.3645 28.5231 18.0767 28.742 18.0494 29.0212C18.0295 29.2257 18.0819 29.3821 18.2149 29.5152C18.3219 29.6222 18.4847 29.7098 18.5763 29.7098C18.668 29.7098 18.9658 29.5598 19.2381 29.3763L19.7333 29.043V33.3475V37.6522H18.229H16.7247L16.6727 36.8721C16.6441 36.4432 16.5756 32.3053 16.5204 27.677C16.4652 23.0487 16.421 18.8896 16.422 18.4345L16.424 17.6072L17.2513 17.603C17.7064 17.6008 18.2383 17.5419 18.4334 17.4723C18.6286 17.4027 18.9374 17.2318 19.1198 17.0927C19.3022 16.9536 19.5457 16.6615 19.6611 16.4434C19.7945 16.1912 19.8888 15.8064 19.9202 15.3852L19.9697 14.7234L28.9994 14.2896C33.9657 14.0512 38.0581 13.881 38.0936 13.9114C38.129 13.942 38.3312 14.854 38.5427 15.9383C38.7542 17.0225 38.9273 17.9721 38.9273 18.0484C38.9273 18.1247 38.8267 18.3226 38.7039 18.4881C38.581 18.6537 38.214 19.2489 37.8884 19.8109C37.5628 20.3728 37.2963 20.9295 37.2963 21.0478C37.2963 21.1661 37.6258 21.8244 38.0285 22.5107C38.4312 23.1969 38.8379 23.7998 38.9324 23.8503C39.0267 23.9008 39.2825 23.9422 39.5006 23.9422H39.8973L39.8365 24.4005C39.7861 24.7804 39.8094 24.9017 39.9729 25.1096C40.0839 25.2507 40.2651 25.3604 40.387 25.3604C40.5063 25.3604 40.7159 25.4487 40.8529 25.5565C41.0193 25.6873 41.102 25.843 41.102 26.0255C41.102 26.1847 41.0157 26.3791 40.8951 26.4914C40.7753 26.603 40.5594 26.6842 40.3823 26.6842C40.1941 26.6842 39.9685 26.5933 39.7955 26.4478C39.641 26.3178 39.4251 26.2114 39.3156 26.2114C39.2061 26.2114 39.0314 26.2965 38.9273 26.4005C38.8233 26.5045 38.7382 26.6948 38.7382 26.8234C38.7382 26.963 38.8648 27.1818 39.0528 27.367L39.3675 27.677L37.5873 29.5066L35.8071 31.3363V33.8797C35.8071 36.297 35.8165 36.4324 35.9962 36.6121C36.1799 36.7957 36.3114 36.8012 40.522 36.8012C44.766 36.8012 44.864 36.7971 45.1077 36.6052L45.3569 36.4093V33.9029V31.3965L43.5091 29.4705L41.6614 27.5445L41.9444 27.1538C42.105 26.9322 42.2551 26.5783 42.2915 26.336C42.3289 26.0862 42.3095 25.7552 42.2445 25.5386C42.1835 25.3349 42.0015 25.0178 41.8401 24.834C41.6788 24.6502 41.4268 24.4378 41.2804 24.3621C41.1083 24.2731 41.0331 24.1744 41.0681 24.0832C41.1057 23.9852 41.2611 23.9422 41.5772 23.9422C41.8273 23.9422 42.1011 23.9157 42.1855 23.8833C42.2699 23.8509 42.6776 23.2523 43.0915 22.5531C43.5054 21.8539 43.844 21.1764 43.844 21.0476C43.844 20.9189 43.5199 20.2612 43.1238 19.5862C42.7278 18.9112 42.3264 18.3048 42.232 18.2386C42.0677 18.1235 42.0743 18.0512 42.3844 16.5627C42.5626 15.7071 42.7745 14.7022 42.8554 14.3296L43.0023 13.6522L43.7885 13.5867C44.2209 13.5507 44.6167 13.4939 44.668 13.4604C44.7193 13.427 44.8102 13.3067 44.8699 13.1931C44.9308 13.0775 44.9781 12.5779 44.9772 12.0585C44.9765 11.5098 44.9277 11.0338 44.858 10.894C44.7729 10.7231 44.57 10.601 44.1267 10.4534C43.7892 10.3411 41.0879 9.46116 38.1237 8.49796C35.1595 7.53486 28.4022 5.33974 23.1075 3.62003C17.8128 1.90032 13.3665 0.49632 13.2268 0.500007C13.0551 0.504546 11.0728 1.79111 7.11063 4.46958ZM23.8782 5.13409C28.853 6.75027 34.4434 8.56651 36.3015 9.17023C38.1594 9.77394 39.6696 10.2778 39.6575 10.2899C39.6454 10.302 37.253 10.1897 34.3411 10.0403C31.4292 9.8909 27.2596 9.68109 25.0755 9.57397C22.8913 9.46693 20.8384 9.35508 20.5134 9.32539C19.9246 9.27178 19.9224 9.27045 19.9203 8.97176C19.9192 8.80696 19.8402 8.50184 19.7448 8.29383C19.6493 8.08581 19.4487 7.79431 19.2989 7.64605C19.1492 7.49789 18.8693 7.2963 18.6771 7.19825C18.4848 7.10011 18.0337 6.99251 17.6748 6.95923L17.0223 6.89852L15.7776 4.54569C15.0931 3.25166 14.533 2.16762 14.533 2.1367C14.533 2.10578 14.6005 2.10635 14.683 2.13802C14.7656 2.1697 18.9033 3.51792 23.8782 5.13409ZM14.488 4.67296L15.6493 6.87555L14.4237 6.90193C13.7496 6.91649 12.6746 6.91649 12.0349 6.90193L10.8718 6.87555L12.0582 4.63183C12.7108 3.39783 13.263 2.40665 13.2856 2.42924C13.3083 2.45184 13.8493 3.46156 14.488 4.67296ZM10.5273 4.95123L9.47443 6.95072L9.03202 7.06229C8.78864 7.12365 8.43852 7.28902 8.25405 7.42972C8.06948 7.5705 7.80719 7.87572 7.67104 8.10794L7.4236 8.53021L6.27432 8.52018C5.64224 8.5147 4.74957 8.48274 4.29062 8.44927L3.4562 8.38838L7.50094 5.67001C9.72565 4.17496 11.5534 2.95164 11.5629 2.95164C11.5723 2.95164 11.1063 3.8514 10.5273 4.95123ZM18.1753 8.30111C18.3544 8.38611 18.5537 8.58542 18.6387 8.76451C18.7653 9.03143 18.7878 9.55874 18.7878 12.2587C18.7878 14.793 18.7605 15.5039 18.6534 15.7602C18.5787 15.939 18.3919 16.1476 18.2326 16.2299C17.9848 16.3581 17.3586 16.378 13.5827 16.378H9.21914L8.89766 16.0565L8.57618 15.7351V12.3155C8.57618 10.0799 8.61098 8.83088 8.67679 8.70806C8.7321 8.60462 8.91288 8.43745 9.07863 8.33637C9.36503 8.16174 9.58827 8.15266 13.6204 8.15238C17.2868 8.15209 17.9035 8.17223 18.1753 8.30111ZM10.0486 9.52962C9.96695 9.61122 9.87675 9.77158 9.848 9.88589C9.81935 10.0003 9.80867 11.1659 9.82427 12.4763C9.8497 14.6139 9.86994 14.8762 10.0214 15.0274C10.1757 15.1817 10.4704 15.1984 13.4791 15.2232C16.7022 15.2497 16.7731 15.2462 17.0215 15.0509L17.275 14.8515V12.2728C17.275 9.89468 17.2615 9.68194 17.102 9.53766C16.948 9.39819 16.5625 9.38117 13.5631 9.38117C10.6305 9.38117 10.178 9.40027 10.0486 9.52962ZM5.81395 9.72487L6.38873 9.785L5.89866 10.232C5.62919 10.4778 5.27992 10.787 5.12249 10.919L4.83628 11.1589L4.00933 10.4119L3.18238 9.66483H4.21082C4.77633 9.66483 5.49776 9.69187 5.81395 9.72487ZM3.22247 11.3242L3.95099 11.9908L3.16697 12.7012C2.73581 13.0919 2.3299 13.4433 2.26485 13.4821C2.17218 13.5374 2.14666 13.213 2.14666 11.9815C2.14666 10.4754 2.15384 10.4157 2.32025 10.534C2.41575 10.602 2.82176 10.9576 3.22247 11.3242ZM16.0458 12.265V14.0142H13.5402H11.0345V12.3281C11.0345 11.4006 11.0629 10.6135 11.0976 10.5789C11.1322 10.5442 12.2597 10.5158 13.6032 10.5158H16.0458V12.265ZM21.2807 11.9409C21.8459 12.7224 22.2926 13.3766 22.2735 13.3945C22.2545 13.4125 21.7284 13.4423 21.1043 13.4607L19.9697 13.4942L19.9437 12.005C19.9197 10.6312 19.9306 10.516 20.0855 10.5179C20.1921 10.5192 20.6281 11.0383 21.2807 11.9409ZM7.34701 11.9814C7.34701 12.7354 7.31505 13.3503 7.2761 13.3477C7.23714 13.3453 6.87576 13.0356 6.47326 12.6597L5.74133 11.9762L6.51127 11.2932C6.93476 10.9176 7.29605 10.6103 7.31411 10.6103C7.33217 10.6103 7.34701 11.2273 7.34701 11.9814ZM24.8254 10.7883L25.1426 10.8495L24.3189 11.8734C23.8659 12.4365 23.4641 12.8614 23.426 12.8176C23.388 12.7737 23.1672 12.4825 22.9352 12.1705C22.7034 11.8584 22.3518 11.379 22.1541 11.1049L21.7947 10.6068L23.1515 10.667C23.8977 10.7001 24.651 10.7547 24.8254 10.7883ZM30.1224 11.045C30.142 11.0617 29.8583 11.415 29.4921 11.83L28.8262 12.5844L28.0504 11.7355L27.2745 10.8866L28.6807 10.9505C29.454 10.9856 30.1027 11.0282 30.1224 11.045ZM37.9346 11.4146C40.5867 11.5457 42.9801 11.6766 43.2531 11.7057C43.7451 11.7581 43.7495 11.7614 43.7495 12.0827C43.7495 12.385 43.7288 12.4069 43.4422 12.4083C43.2731 12.4092 41.4542 12.4939 39.4001 12.5965C37.346 12.6992 35.4248 12.7835 35.1307 12.7841C34.6085 12.785 34.5746 12.7684 33.6652 12.0635C33.1532 11.6667 32.6937 11.305 32.6444 11.2598C32.5916 11.2116 32.6697 11.1774 32.8335 11.177C32.9869 11.1766 35.2824 11.2836 37.9346 11.4146ZM27.4231 12.842L27.6689 13.1352L26.7504 13.196C26.2452 13.2294 25.6085 13.257 25.3355 13.2573C25.0625 13.2576 24.8391 13.2318 24.8391 13.2C24.8391 13.1683 25.14 12.7649 25.5078 12.3038L26.1765 11.4653L26.6769 12.007C26.9522 12.3049 27.2879 12.6807 27.4231 12.842ZM31.9853 12.2863C32.5497 12.7207 32.6552 12.8399 32.5198 12.89C32.427 12.9243 31.8522 12.9682 31.2425 12.9876C30.6329 13.007 30.1342 13.0012 30.1344 12.9748C30.1347 12.9484 30.3721 12.661 30.662 12.3359C30.952 12.0109 31.2101 11.745 31.2356 11.745C31.2612 11.745 31.5985 11.9885 31.9853 12.2863ZM5.90405 13.7719C6.18743 14.0364 6.27054 14.168 6.18771 14.2205C6.12332 14.2615 5.43233 14.2938 4.65228 14.2923L3.234 14.2896L4.03769 13.5427L4.84138 12.7956L5.17232 13.0966C5.35433 13.2622 5.68365 13.5659 5.90405 13.7719ZM41.7257 13.896C41.6977 13.9871 41.501 14.9125 41.2887 15.9525C41.0764 16.9926 40.88 17.9204 40.8524 18.0144C40.8151 18.1416 40.7257 18.1778 40.5031 18.1563L40.2038 18.1272L39.811 16.1889C39.5951 15.1228 39.4142 14.1578 39.4092 14.0445C39.4029 13.902 39.4658 13.8256 39.6128 13.7973C39.7299 13.7747 40.2646 13.7505 40.8011 13.7434C41.6898 13.7317 41.7721 13.7453 41.7257 13.896ZM14.2493 17.632C14.2493 17.6456 13.5898 18.3152 12.7837 19.12L11.3182 20.5833V19.0952V17.6072H12.7837C13.5898 17.6072 14.2493 17.6183 14.2493 17.632ZM15.2654 23.3665L15.2421 24.5401L13.962 23.4138C13.2579 22.7943 12.5178 22.1452 12.3173 21.9711L11.9529 21.6549L13.5502 20.055L15.1475 18.4553L15.2181 20.3241C15.2569 21.352 15.2782 22.721 15.2654 23.3665ZM42.0734 20.1747L42.5834 21.0401L42.1027 21.8748L41.6221 22.7094L40.5812 22.7112L39.5402 22.713L39.0538 21.8857L38.5672 21.0583L38.859 20.5383C39.0195 20.2523 39.25 19.8588 39.3712 19.6637L39.5916 19.3091H40.5775H41.5634L42.0734 20.1747ZM12.8172 24.0042C13.6308 24.7145 14.3553 25.3491 14.4271 25.4145C14.5355 25.5135 14.2802 25.8462 12.9142 27.3851C12.0104 28.4033 11.2332 29.2366 11.1871 29.2368C11.1411 29.237 11.1304 29.0396 11.1635 28.7984C11.1966 28.5571 11.2236 27.0892 11.2236 25.5363C11.2236 23.9835 11.2494 22.713 11.2807 22.713C11.3121 22.713 12.0036 23.294 12.8172 24.0042ZM29.3619 25.6441C30.6663 26.4502 31.7354 27.1415 31.7374 27.1806C31.7396 27.2196 29.6282 27.2515 27.0453 27.2515C24.4625 27.2515 22.3758 27.2249 22.4083 27.1925C22.4407 27.1601 23.4371 26.4581 24.6223 25.6328C25.8076 24.8073 26.8253 24.1424 26.8838 24.1553C26.9423 24.1681 28.0575 24.838 29.3619 25.6441ZM15.3739 30.6396C15.3794 31.957 15.351 33.0208 15.3108 33.0034C15.2706 32.9861 14.4637 32.44 13.5177 31.79C12.5717 31.1399 11.7961 30.5733 11.7943 30.5308C11.7925 30.4884 12.5675 29.5794 13.5165 28.5108L15.2421 26.568L15.303 27.4062C15.3365 27.8671 15.3684 29.3222 15.3739 30.6396ZM33.3015 36.3757V44.3181L32.1905 44.3448L31.0795 44.3713V39.4946V34.6179L30.8474 34.3859L30.6154 34.1538H27.2672C24.0232 34.1538 23.9114 34.1598 23.67 34.3498L23.4208 34.5457V39.4596V44.3733L22.6881 44.3457L21.9553 44.3181L21.908 41.6234C21.8619 38.9956 21.8551 38.9198 21.6373 38.5693C21.5144 38.3715 21.3123 38.1433 21.1882 38.062L20.9625 37.9141V33.1985V28.483L24.39 28.4563C26.2752 28.4416 29.0514 28.4305 30.5595 28.4315L33.3015 28.4334V36.3757ZM24.2883 29.0777C24.0923 29.2862 24.0827 29.3795 24.0827 31.0632C24.0827 32.704 24.0962 32.8436 24.2718 33.0191C24.4517 33.1991 24.5869 33.2083 27.0611 33.2083C29.5352 33.2083 29.6704 33.1991 29.8504 33.0191C30.026 32.8435 30.0395 32.704 30.0395 31.05C30.0395 29.3117 30.0344 29.2653 29.8207 29.0644C29.6071 28.8639 29.5399 28.8589 27.0478 28.8589C24.5004 28.8589 24.4933 28.8594 24.2883 29.0777ZM39.9674 29.8989V30.939H38.9053H37.8432L38.8801 29.8989C39.4503 29.3269 39.9283 28.8589 39.9422 28.8589C39.9561 28.8589 39.9674 29.3269 39.9674 29.8989ZM42.82 30.4899L43.1998 30.939H42.1982H41.1966V29.878V28.8171L41.8184 29.4289C42.1604 29.7654 42.6111 30.2428 42.82 30.4899ZM28.8103 31.0336V31.9791H27.0611H25.3119V31.0336V30.088H27.0611H28.8103V31.0336ZM14.0129 33.5863C14.4289 33.877 14.7498 34.1556 14.7258 34.2053C14.702 34.2549 13.8802 34.9489 12.8997 35.7472C11.9192 36.5456 11.1009 37.1828 11.0813 37.1632C11.0618 37.1436 11.0711 35.8855 11.1022 34.3674L11.1587 31.6071L12.2075 32.3323C12.7845 32.7312 13.5969 33.2955 14.0129 33.5863ZM44.1277 33.8701V35.5721H40.582H37.0363V33.8701V32.1682H40.582H44.1277V33.8701ZM15.4785 36.4703V37.6522H13.994C12.9838 37.6522 12.5404 37.6214 12.6061 37.5557C12.6592 37.5025 13.2953 36.9732 14.0196 36.3793C14.744 35.7855 15.3686 35.2972 15.4076 35.2941C15.4465 35.2909 15.4785 35.8203 15.4785 36.4703ZM26.8247 39.8742V44.3654H25.7374H24.65V39.8742V35.3829H25.7374H26.8247V39.8742ZM29.8504 39.8742V44.3654H28.9521H28.0539V39.8742V35.3829H28.9521H29.8504V39.8742ZM44.1277 41.3406V44.3671L39.3292 44.3426L34.5307 44.3181L34.5056 41.4352C34.4918 39.8497 34.5012 38.4988 34.5263 38.4332C34.5623 38.3396 35.5939 38.3141 39.3499 38.3141H44.1277V41.3406ZM20.5029 39.0621L20.7261 39.2427V41.7804V44.3181L13.2801 44.3423L5.83418 44.3665V41.8731C5.83418 39.4937 5.84316 39.3682 6.03019 39.1305L6.2261 38.8814H13.2529C20.0293 38.8814 20.2877 38.8878 20.5029 39.0621ZM7.38653 39.9185C7.27837 39.9623 7.07621 40.133 6.93741 40.2979C6.68798 40.5945 6.68515 40.6141 6.68515 42.054C6.68515 43.5016 6.68647 43.5109 6.92086 43.6645C7.06723 43.7603 7.24537 43.7966 7.39088 43.7601C7.51976 43.7277 7.66593 43.6252 7.71567 43.5322C7.7654 43.4392 7.83632 42.848 7.8731 42.2184L7.94004 41.0737L9.25942 41.0412C10.5248 41.0101 10.5863 40.9993 10.7652 40.7784C10.8933 40.6201 10.9334 40.4721 10.8934 40.3056C10.8613 40.1723 10.7654 40.0101 10.6803 39.9451C10.571 39.8616 10.0939 39.8287 9.05452 39.8328C8.24535 39.8362 7.49479 39.8747 7.38653 39.9185Z" fill="currentColor"/>
</svg>
