<svg width="46" height="46" viewBox="0 0 46 46" fill="none" xmlns="http://www.w3.org/2000/svg">
<path d="M0.644535 0.562782C0.574513 0.59779 0.451975 0.689693 0.3732 0.768471C0.0799837 1.07919 0.0974892 0.663437 0.0974892 6.83412C0.0974892 12.8254 0.0974892 12.821 0.320684 13.6306C0.670794 14.9216 1.69924 16.1952 2.92025 16.8472C3.09093 16.9392 3.25285 17.0442 3.28349 17.0792C3.32287 17.1361 3.336 19.8013 3.336 30.0901C3.336 41.3593 3.34476 43.0748 3.40165 43.3768C3.5767 44.2958 4.29005 45.0967 5.19596 45.3855C5.61609 45.5212 6.26379 45.5387 6.67955 45.4249C7.09093 45.3155 7.52856 45.0617 7.84804 44.7466C8.16314 44.4359 8.32506 44.1864 8.49574 43.7444L8.60953 43.4556L8.62266 30.2739L8.63141 17.0879L8.90712 16.9523C10.5483 16.1251 11.6861 14.4665 11.8699 12.6241C11.9006 12.3177 11.9137 10.3133 11.9049 6.67219L11.8918 1.17985L11.7868 0.969784C11.4717 0.330833 10.5001 0.348339 10.2025 1.0048C10.1238 1.1711 10.1194 1.41617 10.1194 6.00261V10.8297H9.35351H8.58765L8.57889 6.00261L8.56576 1.17985L8.46948 1.0048C8.29881 0.680943 8.00996 0.501511 7.66861 0.501511C7.32725 0.501511 7.03841 0.680943 6.86773 1.0048L6.77145 1.17985L6.75832 6.00261L6.74957 10.8297H5.98371H5.21784L5.20909 5.95447L5.19596 1.07919L5.06467 0.891006C4.81084 0.532146 4.32506 0.396477 3.95307 0.584663C3.73425 0.698448 3.52856 0.939148 3.47167 1.14484C3.44104 1.25863 3.42353 2.88226 3.42353 6.06825V10.8297H2.65767H1.8918V6.02011V1.21048L1.76926 0.978535C1.67298 0.790352 1.60296 0.720329 1.41478 0.62405C1.15657 0.48838 0.863354 0.466499 0.644535 0.562782ZM10.0318 12.7597C10.0318 12.9085 9.8174 13.5037 9.65548 13.8013C9.22222 14.5934 8.51762 15.1974 7.67298 15.5037C7.27473 15.6437 7.0778 15.7925 6.95964 16.0332L6.85898 16.2346L6.8371 29.67C6.81522 42.0639 6.81084 43.1142 6.74082 43.2368C6.40384 43.8494 5.55482 43.8363 5.24848 43.2192L5.1522 43.0179L5.13031 29.5825C5.10843 16.8735 5.10406 16.1383 5.02966 16.007C4.91587 15.7969 4.71456 15.6569 4.26379 15.4687C3.66861 15.2236 3.40602 15.0529 2.98152 14.6372C2.47386 14.1339 2.07123 13.4118 1.99683 12.8648L1.9662 12.6678H6.00121H10.0318V12.7597Z" fill="currentColor"/>
<path d="M43.7036 0.658752C42.7189 1.24956 41.2353 2.61061 40.2944 3.78348C38.7364 5.73096 37.7211 7.83599 37.2178 10.173C36.8065 12.0723 36.8065 12.0548 36.824 19.4946C36.8415 25.6347 36.8415 25.6916 36.9334 26.0636C37.2047 27.1533 37.476 27.5734 38.7933 28.9213L39.7693 29.9235L39.7911 36.6019C39.813 42.8076 39.8218 43.2977 39.8918 43.5428C40.15 44.4312 40.7846 45.092 41.6598 45.3852C41.9356 45.4771 42.0756 45.499 42.4345 45.499C43.2266 45.4946 43.7999 45.2583 44.3426 44.7069C44.7014 44.348 44.894 44.0154 45.0296 43.5165C45.104 43.2496 45.1084 42.2124 45.1084 22.2299C45.1084 10.6763 45.0953 1.17079 45.0734 1.10077C45.0296 0.938839 44.7452 0.632492 44.5745 0.558094C44.4957 0.527458 44.3294 0.501202 44.1981 0.501202C44.01 0.501202 43.9181 0.531837 43.7036 0.658752ZM43.3272 23.2014C43.3141 42.1248 43.3097 42.9826 43.2353 43.1489C43.1303 43.3809 42.999 43.5165 42.7889 43.6128C42.5658 43.7178 42.3557 43.7178 42.1325 43.6128C41.9224 43.5165 41.7911 43.3809 41.6861 43.1489C41.6117 42.9826 41.6073 42.5975 41.5854 36.1248C41.5636 29.5253 41.5592 29.2714 41.4804 29.1227C41.4366 29.0395 40.9027 28.4662 40.2988 27.8535C39.1609 26.6981 38.999 26.4925 38.8065 25.9585C38.6008 25.3984 38.6008 25.3458 38.6226 18.8776C38.6358 15.5209 38.6664 12.5493 38.6883 12.2736C38.8065 10.8995 39.3579 8.95634 40.0318 7.56904C40.697 6.19923 41.7474 4.7419 42.7933 3.74409C43.1609 3.39398 43.2703 3.31083 43.301 3.35897C43.3185 3.39836 43.3316 12.3261 43.3272 23.2014Z" fill="currentColor"/>
<path d="M21.6293 6.21733C19.7431 6.34862 18.0844 6.71186 16.4433 7.35957C15.5067 7.73156 14.8809 8.04228 14.7234 8.22171C14.2245 8.79064 14.6183 9.69217 15.3667 9.69217C15.6118 9.69217 15.8787 9.60027 16.6621 9.24578C19.5724 7.91974 23.1304 7.63528 26.2901 8.47116C27.3229 8.7425 27.5549 8.82127 28.2157 9.08823C30.0275 9.83221 31.3842 10.725 33.0954 12.2961C33.3973 12.5718 33.7037 12.83 33.7825 12.865C33.9925 12.9657 34.312 12.9482 34.5746 12.8169C34.859 12.6769 34.9772 12.4887 35.0078 12.1429C35.0516 11.6878 34.9816 11.5828 34.1763 10.8344C33.2048 9.93725 32.8153 9.61777 32.1676 9.18451C29.6337 7.49523 27.2398 6.59808 24.4652 6.30048C23.8569 6.23484 22.1107 6.18232 21.6293 6.21733Z" fill="currentColor"/>
<path d="M21.5636 10.5492C21.4936 10.558 21.2441 10.5886 21.0165 10.6149C18.8546 10.8556 16.5526 11.8315 14.7583 13.2626C14.255 13.6652 13.2704 14.6543 12.8677 15.1619C11.5198 16.8687 10.662 18.7724 10.2988 20.8643C10.0143 22.488 10.08 24.3654 10.4695 25.9584C11.5198 30.2648 14.7583 33.6915 18.9771 34.965C20.8634 35.5339 23.1566 35.639 25.0997 35.2495C30.15 34.2341 34.0537 30.2123 34.9071 25.1444C35.2529 23.105 35.0909 20.9256 34.452 19.0131C33.7518 16.9169 32.4564 14.9781 30.7977 13.5514C28.8196 11.849 26.4301 10.8249 23.8218 10.5667C23.406 10.5274 21.8743 10.5142 21.5636 10.5492ZM24.1456 12.4267C27.2178 12.9125 29.8174 14.5711 31.5286 17.1313C32.1763 18.1072 32.7977 19.5777 33.0472 20.7243C33.2879 21.8534 33.3491 23.267 33.2047 24.3742C32.7408 27.9234 30.522 31.0044 27.2966 32.5843C26.2638 33.0875 25.3623 33.372 24.1806 33.5733C23.5898 33.6696 21.7343 33.6871 21.1478 33.5952C19.1653 33.2888 17.3885 32.5142 15.8743 31.2888C15.3798 30.8862 14.5089 29.9978 14.1588 29.5383C13.1741 28.2385 12.4651 26.7112 12.1631 25.2495C11.975 24.3611 11.9356 23.9453 11.9356 22.9519C11.9399 21.8928 12.0056 21.337 12.2419 20.3917C12.999 17.3895 15.1041 14.7943 17.8874 13.4333C19.1785 12.7987 20.1325 12.5317 21.7605 12.3435C22.1019 12.3042 23.7299 12.3611 24.1456 12.4267Z" fill="currentColor"/>
<path d="M22.2638 14.9651C22.0318 15.0482 21.778 15.3239 21.7124 15.5603C21.673 15.7047 21.673 15.8097 21.708 15.9848C21.7955 16.4005 22.0537 16.6369 22.4739 16.6806C23.3491 16.7725 23.8437 15.7703 23.2222 15.1751C22.9465 14.9082 22.6226 14.8382 22.2638 14.9651Z" fill="currentColor"/>
<path d="M19.5548 15.517C19.3359 15.5695 18.697 15.889 18.29 16.1515C16.4344 17.3507 15.1478 19.1844 14.7145 21.2544C14.592 21.8408 14.4826 22.808 14.5088 23.0487C14.5613 23.4645 14.8152 23.7664 15.2134 23.8758C15.5898 23.9765 16.0799 23.7139 16.22 23.3332C16.255 23.2325 16.3075 22.9262 16.3381 22.6548C16.4782 21.2063 16.8983 20.1209 17.7079 19.0837C18.2287 18.4141 18.9858 17.8014 19.7692 17.4032C20.4607 17.0575 20.6664 16.8211 20.6664 16.3879C20.6664 15.9984 20.3819 15.6133 20.023 15.517C19.8305 15.4645 19.7911 15.4645 19.5548 15.517Z" fill="currentColor"/>
<path d="M34.7321 32.0506C34.6096 32.1075 34.3295 32.3745 33.8087 32.9391C32.9466 33.8668 32.5002 34.2957 31.9138 34.764C29.6205 36.5933 26.6271 37.7618 23.7168 37.9675C20.684 38.1819 17.4586 37.4161 14.9291 35.88C14.4345 35.5824 14.2507 35.5124 13.9531 35.5124C13.4542 35.5124 13.0341 36.02 13.1172 36.5189C13.1741 36.8471 13.3536 37.0528 13.8437 37.3504C18.2639 40.0288 23.6468 40.5496 28.4345 38.764C30.4258 38.0244 32.0188 37.0922 33.568 35.7618C34.5264 34.9391 35.765 33.578 35.9181 33.1798C36.0844 32.7377 35.9138 32.2913 35.498 32.0813C35.2223 31.9456 34.986 31.9369 34.7321 32.0506Z" fill="currentColor"/>
<path d="M10.9728 33.4469C10.2682 33.7839 10.3163 34.7905 11.0472 35.0925C11.3885 35.2369 11.7912 35.1493 12.0537 34.8693C12.2113 34.703 12.2638 34.5498 12.2638 34.2566C12.2638 33.9502 12.1281 33.7008 11.8699 33.5213C11.6292 33.355 11.2354 33.3244 10.9728 33.4469Z" fill="currentColor"/>
</svg>
