<svg width="21" height="25" viewBox="0 0 21 25" fill="none" xmlns="http://www.w3.org/2000/svg">
<path d="M12.5 1H3.3C2.69 1 2.10499 1.24232 1.67365 1.67365C1.24232 2.10499 1 2.69 1 3.3V21.7C1 22.31 1.24232 22.895 1.67365 23.3263C2.10499 23.7577 2.69 24 3.3 24H17.1C17.71 24 18.295 23.7577 18.7263 23.3263C19.1577 22.895 19.4 22.31 19.4 21.7V7.9L12.5 1Z" stroke="currentColor" stroke-width="2" stroke-linecap="round" stroke-linejoin="round"/>
<path d="M12.5 1V7.9H19.4" stroke="currentColor" stroke-width="2" stroke-linecap="round" stroke-linejoin="round"/>
<path d="M14.8 13.6499H5.60001" stroke="currentColor" stroke-width="2" stroke-linecap="round" stroke-linejoin="round"/>
<path d="M14.8 18.25H5.60001" stroke="currentColor" stroke-width="2" stroke-linecap="round" stroke-linejoin="round"/>
<path d="M7.90001 9.05005H6.75001H5.60001" stroke="currentColor" stroke-width="2" stroke-linecap="round" stroke-linejoin="round"/>
</svg>
