<svg width="18" height="15" viewBox="0 0 18 15" fill="none" xmlns="http://www.w3.org/2000/svg">
<path d="M17.5954 14.2716H1.07133C0.995725 14.2716 0.93335 14.2092 0.93335 14.1336V0.866379C0.93335 0.790772 0.995725 0.728394 1.07133 0.728394H17.5954C17.671 0.728394 17.7333 0.790772 17.7333 0.866379V14.1336C17.7333 14.2092 17.671 14.2716 17.5954 14.2716ZM1.20932 13.9956H17.4574V1.00437H1.20932V13.9956Z" fill="white" stroke="white" stroke-width="0.224"/>
<path d="M17.5954 4.2139H1.07133C0.995725 4.2139 0.93335 4.15153 0.93335 4.07592V0.866379C0.93335 0.790772 0.995725 0.728394 1.07133 0.728394H17.5954C17.671 0.728394 17.7333 0.790772 17.7333 0.866379V4.07592C17.7333 4.15153 17.671 4.2139 17.5954 4.2139ZM1.20932 3.93794H17.4574V1.00437H1.20932V3.93794Z" fill="white" stroke="white" stroke-width="0.224"/>
<path d="M10.7869 3.22913H9.51481C9.43921 3.22913 9.37683 3.16675 9.37683 3.09114V1.84928C9.37683 1.77368 9.43921 1.7113 9.51481 1.7113H10.7869C10.8625 1.7113 10.9249 1.77368 10.9249 1.84928V3.09114C10.9249 3.16675 10.8625 3.22913 10.7869 3.22913ZM9.6528 2.95316H10.6489V1.98727H9.6528V2.95316Z" fill="white" stroke="white" stroke-width="0.224"/>
<path d="M13.3274 3.22913H12.0572C11.9816 3.22913 11.9192 3.16675 11.9192 3.09114V1.84928C11.9192 1.77368 11.9816 1.7113 12.0572 1.7113H13.3274C13.403 1.7113 13.4654 1.77368 13.4654 1.84928V3.09114C13.4654 3.16675 13.403 3.22913 13.3274 3.22913ZM12.1952 2.95316H13.1913V1.98727H12.1952V2.95316Z" fill="white" stroke="white" stroke-width="0.224"/>
<path d="M15.8697 3.22913H14.5976C14.522 3.22913 14.4596 3.16675 14.4596 3.09114V1.84928C14.4596 1.77368 14.522 1.7113 14.5976 1.7113H15.8697C15.9453 1.7113 16.0077 1.77368 16.0077 1.84928V3.09114C16.0077 3.16675 15.9453 3.22913 15.8697 3.22913ZM14.7356 2.95316H15.7317V1.98727H14.7356V2.95316Z" fill="white" stroke="white" stroke-width="0.224"/>
<path d="M5.39993 9.30233C5.35457 9.30233 5.31109 9.27964 5.28463 9.23995C5.24305 9.17568 5.26006 9.09062 5.32432 9.04904L7.25988 7.77694C7.32414 7.73536 7.4092 7.75237 7.45079 7.81663C7.49237 7.8809 7.47536 7.96596 7.41109 8.00754L5.47554 9.27964C5.45286 9.29477 5.4264 9.30233 5.39993 9.30233Z" fill="white" stroke="white" stroke-width="0.224"/>
<path d="M7.33548 10.5744C7.30902 10.5744 7.28256 10.5669 7.25988 10.5517L5.32432 9.27964C5.26006 9.23806 5.24305 9.15299 5.28463 9.08873C5.32622 9.02446 5.41127 9.00745 5.47554 9.04904L7.41109 10.3211C7.47536 10.3627 7.49237 10.4478 7.45079 10.512C7.42432 10.5517 7.38085 10.5744 7.33548 10.5744Z" fill="white" stroke="white" stroke-width="0.224"/>
<path d="M13.2668 9.30233C13.2404 9.30233 13.2139 9.29477 13.1912 9.27964L11.2538 8.00754C11.1895 7.96596 11.1725 7.8809 11.2141 7.81663C11.2557 7.75237 11.3407 7.73536 11.405 7.77694L13.3424 9.04904C13.4067 9.09062 13.4237 9.17568 13.3821 9.23995C13.3557 9.27964 13.3122 9.30233 13.2668 9.30233Z" fill="white" stroke="white" stroke-width="0.224"/>
<path d="M11.3313 10.5744C11.286 10.5744 11.2425 10.5517 11.216 10.512C11.1744 10.4478 11.1915 10.3627 11.2557 10.3211L13.1932 9.04904C13.2574 9.00745 13.3425 9.02446 13.3841 9.08873C13.4257 9.15299 13.4086 9.23806 13.3444 9.27964L11.4069 10.5517C11.3843 10.5669 11.3578 10.5744 11.3313 10.5744Z" fill="white" stroke="white" stroke-width="0.224"/>
<path d="M8.21438 11.9844C8.19737 11.9844 8.17846 11.9806 8.16145 11.9731C8.09152 11.9428 8.05749 11.8635 8.08774 11.7935L10.3257 6.43293C10.356 6.363 10.4353 6.32898 10.5053 6.35922C10.5752 6.38946 10.6092 6.46885 10.579 6.53879L8.33913 11.8994C8.31645 11.9523 8.26541 11.9844 8.21249 11.9844H8.21438Z" fill="white" stroke="white" stroke-width="0.224"/>
</svg>
