<svg width="18" height="15" viewBox="0 0 18 15" fill="none" xmlns="http://www.w3.org/2000/svg">
<path d="M13.3168 13.1617H3.19634C3.12073 13.1617 3.05835 13.0993 3.05835 13.0237V0.360886C3.05835 0.285275 3.12073 0.2229 3.19634 0.2229H10.7423C10.7782 0.2229 10.8141 0.238015 10.8405 0.262588L13.4151 2.83901C13.4415 2.86548 13.4548 2.8995 13.4548 2.93542V6.663C13.4548 6.68758 13.4491 6.71027 13.4359 6.73106L12.5531 8.26217L12.3433 10.2167L13.2355 9.56456C13.2771 9.53431 13.3319 9.52864 13.3792 9.55322C13.4245 9.5759 13.4548 9.62504 13.4548 9.67608V13.0218C13.4548 13.0974 13.3924 13.1598 13.3168 13.1598V13.1617ZM3.33433 12.8857H13.1788V9.94827L12.2526 10.625C12.2091 10.6571 12.1505 10.6609 12.1032 10.6325C12.056 10.6061 12.0295 10.5532 12.0352 10.4983L12.1845 9.12223L12.2828 8.20546C12.2847 8.18656 12.2904 8.16766 12.2998 8.15065L13.1788 6.6271V2.99401L10.6855 0.496979H3.33433V12.8857Z" fill="white" stroke="white" stroke-width="0.224"/>
<path d="M11.2847 4.78598H4.66875C4.59314 4.78598 4.53076 4.72361 4.53076 4.64799C4.53076 4.57238 4.59314 4.51001 4.66875 4.51001H11.2847C11.3603 4.51001 11.4226 4.57238 11.4226 4.64799C11.4226 4.72361 11.3603 4.78598 11.2847 4.78598Z" fill="white" stroke="white" stroke-width="0.224"/>
<path d="M11.2847 6.82944H4.66875C4.59314 6.82944 4.53076 6.76706 4.53076 6.69145C4.53076 6.61584 4.59314 6.55347 4.66875 6.55347H11.2847C11.3603 6.55347 11.4226 6.61584 11.4226 6.69145C11.4226 6.76706 11.3603 6.82944 11.2847 6.82944Z" fill="white" stroke="white" stroke-width="0.224"/>
<path d="M11.2847 8.87277H4.66875C4.59314 8.87277 4.53076 8.8104 4.53076 8.73479C4.53076 8.65918 4.59314 8.5968 4.66875 8.5968H11.2847C11.3603 8.5968 11.4226 8.65918 11.4226 8.73479C11.4226 8.8104 11.3603 8.87277 11.2847 8.87277Z" fill="white" stroke="white" stroke-width="0.224"/>
<path d="M11.2847 10.9181H4.66875C4.59314 10.9181 4.53076 10.8557 4.53076 10.7801C4.53076 10.7045 4.59314 10.6421 4.66875 10.6421H11.2847C11.3603 10.6421 11.4226 10.7045 11.4226 10.7801C11.4226 10.8557 11.3603 10.9181 11.2847 10.9181Z" fill="white" stroke="white" stroke-width="0.224"/>
<path d="M13.3168 3.11881H10.7422C10.6666 3.11881 10.6042 3.05643 10.6042 2.98082V0.359036C10.6042 0.304218 10.6383 0.253185 10.6893 0.232392C10.7403 0.211599 10.8008 0.222935 10.8386 0.262631L13.4132 2.83905C13.4396 2.86552 13.4529 2.89954 13.4529 2.93546V2.98082C13.4529 3.05643 13.3905 3.11881 13.3149 3.11881H13.3168ZM10.8802 2.84284H13.0294L10.8802 0.691723V2.84284Z" fill="white" stroke="white" stroke-width="0.224"/>
<path d="M11.1939 14.7779H1.07158C0.995974 14.7779 0.933594 14.7155 0.933594 14.6399V1.9771C0.933594 1.90149 0.995974 1.83911 1.07158 1.83911H3.19434C3.26995 1.83911 3.33233 1.90149 3.33233 1.9771V12.8839H11.192C11.2676 12.8839 11.33 12.9463 11.33 13.0219V14.6399C11.33 14.7155 11.2676 14.7779 11.192 14.7779H11.1939ZM1.20957 14.502H11.0559V13.1599H3.19623C3.12062 13.1599 3.05824 13.0975 3.05824 13.0219V2.11508H1.20957V14.502Z" fill="white" stroke="white" stroke-width="0.224"/>
<path d="M8.41909 3.20005H4.6707C4.59509 3.20005 4.53271 3.13767 4.53271 3.06206C4.53271 2.98645 4.59509 2.92407 4.6707 2.92407H8.41909C8.4947 2.92407 8.55708 2.98645 8.55708 3.06206C8.55708 3.13767 8.4947 3.20005 8.41909 3.20005Z" fill="white" stroke="white" stroke-width="0.224"/>
<path d="M8.41909 1.61607H4.6707C4.59509 1.61607 4.53271 1.55368 4.53271 1.47807C4.53271 1.40246 4.59509 1.34009 4.6707 1.34009H8.41909C8.4947 1.34009 8.55708 1.40246 8.55708 1.47807C8.55708 1.55368 8.4947 1.61607 8.41909 1.61607Z" fill="white" stroke="white" stroke-width="0.224"/>
<path d="M12.1713 10.6515C12.1486 10.6515 12.124 10.6458 12.1032 10.6326C12.056 10.6061 12.0295 10.5532 12.0352 10.4984L12.2828 8.20359C12.2847 8.18469 12.2904 8.16579 12.2998 8.14878L15.863 1.97141C15.8819 1.93928 15.9121 1.91659 15.9461 1.90714C15.982 1.89769 16.018 1.90336 16.0501 1.92037L17.6644 2.85416C17.7305 2.89197 17.7532 2.97703 17.7154 3.0413L14.1523 9.21677C14.1428 9.23378 14.1296 9.24891 14.1145 9.25836L12.2526 10.6193C12.228 10.6364 12.1996 10.6458 12.1713 10.6458V10.6515ZM12.5512 8.26219L12.3414 10.2167L13.9273 9.05799L17.4073 3.02617L16.0312 2.23038L12.5512 8.26219Z" fill="white" stroke="white" stroke-width="0.224"/>
<path d="M17.1086 3.96002C17.084 3.96002 17.0613 3.95435 17.0405 3.94112L15.4263 3.00923C15.3601 2.97142 15.3374 2.88636 15.3752 2.8202L15.8629 1.97336C15.8818 1.94122 15.912 1.91854 15.9461 1.90909C15.982 1.89964 16.0179 1.90531 16.05 1.92233L17.6643 2.85612C17.7305 2.89392 17.7532 2.97898 17.7154 3.04514L17.2277 3.89008C17.2088 3.92222 17.1785 3.9449 17.1445 3.95436C17.1332 3.95814 17.1218 3.95813 17.1086 3.95813V3.96002ZM15.6814 2.8391L17.0575 3.6349L17.4072 3.02812L16.0311 2.23233L15.6814 2.8391Z" fill="white" stroke="white" stroke-width="0.224"/>
<path d="M12.1713 10.6515C12.1486 10.6515 12.124 10.6458 12.1032 10.6326C12.056 10.6061 12.0295 10.5532 12.0352 10.4984L12.2828 8.20358C12.2885 8.15822 12.3149 8.11663 12.3565 8.09584C12.3981 8.07505 12.4473 8.07505 12.487 8.09962L14.1012 9.03341C14.1409 9.05609 14.1674 9.09956 14.1693 9.14493C14.1712 9.19219 14.1504 9.23566 14.1126 9.26402L12.2507 10.625C12.2261 10.642 12.1977 10.6515 12.1694 10.6515H12.1713ZM12.5323 8.44554L12.3414 10.2186L13.7818 9.16573L12.5323 8.44365V8.44554Z" fill="white" stroke="white" stroke-width="0.224"/>
<path d="M12.1713 10.6515C12.1486 10.6515 12.124 10.6458 12.1032 10.6325C12.056 10.6061 12.0295 10.5532 12.0352 10.4983L12.1845 9.12223C12.1902 9.07875 12.2148 9.03906 12.2526 9.01826C12.2904 8.99558 12.3376 8.9937 12.3773 9.01071C12.5493 9.08443 12.7213 9.17327 12.8915 9.27156C13.0578 9.36797 13.2204 9.47382 13.3735 9.58723C13.4094 9.6137 13.4283 9.65529 13.4283 9.69876C13.4283 9.74224 13.4075 9.78382 13.3716 9.81028L12.2545 10.6269C12.2299 10.6439 12.2015 10.6533 12.1732 10.6533L12.1713 10.6515ZM12.4359 9.3415L12.3414 10.2186L13.0521 9.69876C12.9557 9.63261 12.8537 9.57023 12.7497 9.50974C12.6457 9.44925 12.5399 9.39254 12.434 9.3415H12.4359Z" fill="white" stroke="white" stroke-width="0.224"/>
</svg>
