<svg width="66" height="43" viewBox="0 0 66 43" fill="none" xmlns="http://www.w3.org/2000/svg">
<path d="M65.626 0.364258L55.0547 42.3643H0.625977L11.8074 0.364258H65.626Z" fill="#A20000"/>
<path fill-rule="evenodd" clip-rule="evenodd" d="M40.7325 7.59031C41.1062 7.74509 41.3499 8.10973 41.3499 8.51419V10.1L42.6428 8.80708C43.0333 8.41656 43.6664 8.41656 44.057 8.80708C44.4475 9.19761 44.4475 9.83077 44.057 10.2213L42.7641 11.5142H44.3499C44.7543 11.5142 45.119 11.7578 45.2737 12.1315C45.4285 12.5052 45.343 12.9353 45.057 13.2213L41.057 17.2213C40.8694 17.4088 40.6151 17.5142 40.3499 17.5142H36.7641L33.2821 20.9961C33.3263 21.1614 33.3499 21.335 33.3499 21.5142C33.3499 22.6188 32.4544 23.5142 31.3499 23.5142C30.2453 23.5142 29.3499 22.6188 29.3499 21.5142C29.3499 20.4096 30.2453 19.5142 31.3499 19.5142C31.529 19.5142 31.7027 19.5377 31.8679 19.5819L35.3499 16.1V12.5142C35.3499 12.249 35.4552 11.9946 35.6428 11.8071L39.6428 7.80708C39.9288 7.52108 40.3589 7.43553 40.7325 7.59031ZM37.3499 14.1L39.3499 12.1V10.9284L37.3499 12.9284V14.1ZM38.7641 15.5142H39.9357L41.9357 13.5142H40.7641L38.7641 15.5142Z" fill="white"/>
<path d="M26.6551 12.6847C28.5198 11.6933 30.6504 11.3176 32.7416 11.6115C33.2885 11.6884 33.7942 11.3073 33.871 10.7604C33.9479 10.2135 33.5669 9.70784 33.0199 9.63097C30.5105 9.27829 27.9537 9.72911 25.7162 10.9188C23.4787 12.1085 21.6752 13.9761 20.5643 16.2537C19.4534 18.5314 19.0921 21.1023 19.5322 23.598C19.9722 26.0936 21.191 28.3859 23.014 30.1463C24.8369 31.9066 27.1703 33.0447 29.6798 33.3974C32.1893 33.7501 34.746 33.2993 36.9835 32.1096C39.221 30.9198 41.0245 29.0523 42.1354 26.7746C43.2463 24.497 43.6076 21.9261 43.1676 19.4304C43.0717 18.8865 42.553 18.5234 42.0091 18.6193C41.4652 18.7152 41.102 19.2338 41.1979 19.7777C41.5647 21.8574 41.2636 23.9998 40.3378 25.8979C39.4121 27.796 37.9092 29.3522 36.0446 30.3437C34.18 31.3351 32.0494 31.7108 29.9581 31.4169C27.8669 31.123 25.9224 30.1746 24.4033 28.7076C22.8842 27.2406 21.8685 25.3304 21.5018 23.2507C21.1351 21.171 21.4362 19.0285 22.3619 17.1305C23.2877 15.2324 24.7905 13.6761 26.6551 12.6847Z" fill="white"/>
<path d="M29.0025 17.0995C29.9348 16.6037 31.0001 16.4159 32.0457 16.5628C32.5926 16.6397 33.0983 16.2587 33.1752 15.7118C33.252 15.1648 32.871 14.6592 32.3241 14.5823C30.8602 14.3766 29.3688 14.6396 28.0636 15.3336C26.7583 16.0276 25.7063 17.1169 25.0583 18.4456C24.4103 19.7742 24.1995 21.2739 24.4562 22.7297C24.7129 24.1855 25.4239 25.5227 26.4873 26.5496C27.5506 27.5765 28.9118 28.2403 30.3757 28.4461C31.8395 28.6518 33.3309 28.3888 34.6362 27.6948C35.9414 27.0008 36.9934 25.9114 37.6414 24.5828C38.2894 23.2541 38.5002 21.7545 38.2435 20.2987C38.1476 19.7548 37.629 19.3916 37.0851 19.4875C36.5412 19.5834 36.178 20.1021 36.2739 20.646C36.4573 21.6858 36.3067 22.757 35.8438 23.706C35.381 24.6551 34.6295 25.4332 33.6972 25.9289C32.7649 26.4246 31.6996 26.6125 30.654 26.4655C29.6084 26.3186 28.6361 25.8444 27.8766 25.1109C27.117 24.3774 26.6092 23.4223 26.4258 22.3824C26.2425 21.3426 26.393 20.2714 26.8559 19.3223C27.3188 18.3733 28.0702 17.5952 29.0025 17.0995Z" fill="white"/>
</svg>
