<svg width="16" height="19" viewBox="0 0 16 19" fill="none" xmlns="http://www.w3.org/2000/svg">
<path d="M6.41031 13.912H4.79206C4.71653 13.912 4.65421 13.8497 4.65421 13.7742V12.8942C4.32187 12.8074 4.00276 12.6752 3.70441 12.4996L3.08317 13.1208C3.05673 13.1473 3.02274 13.1605 2.98687 13.1605C2.95099 13.1605 2.91511 13.1454 2.88868 13.1208L1.74438 11.9765C1.68962 11.9218 1.68962 11.8349 1.74438 11.782L2.36562 11.1589C2.19001 10.8605 2.05783 10.5433 1.97286 10.2091H1.09292C1.01739 10.2091 0.955078 10.1468 0.955078 10.0712V8.45111C0.955078 8.37557 1.01739 8.31326 1.09292 8.31326H1.97286C2.05972 7.97903 2.1919 7.65992 2.36562 7.36157L1.74438 6.74033C1.68962 6.68746 1.68962 6.59871 1.74438 6.54584L2.88868 5.40154C2.91511 5.3751 2.9491 5.36188 2.98687 5.36188C3.02274 5.36188 3.05862 5.37699 3.08317 5.40154L3.70441 6.02278C4.00276 5.84717 4.32187 5.71499 4.65421 5.62813V4.74819C4.65421 4.67266 4.71653 4.61035 4.79206 4.61035H6.41031C6.48584 4.61035 6.54815 4.67266 6.54815 4.74819V5.62813C6.88049 5.71499 7.19961 5.84717 7.49796 6.02278L8.1192 5.40154C8.14564 5.3751 8.17962 5.36188 8.21739 5.36188C8.25515 5.36188 8.28915 5.37699 8.31558 5.40154L9.45988 6.54584C9.51464 6.59871 9.51464 6.68746 9.45988 6.74033L8.83863 7.36157C9.01424 7.65992 9.14642 7.97903 9.23328 8.31326H10.1113C10.1869 8.31326 10.2492 8.37557 10.2492 8.45111V10.0712C10.2492 10.1468 10.1869 10.2091 10.1113 10.2091H9.23328C9.14642 10.5433 9.01424 10.8624 8.83863 11.1589L9.46177 11.782C9.51464 11.8368 9.51464 11.9236 9.46177 11.9765L8.31747 13.1208C8.29104 13.1473 8.25704 13.1605 8.21928 13.1605C8.1834 13.1605 8.14753 13.1454 8.12109 13.1208L7.49985 12.4977C7.2015 12.6733 6.88427 12.8055 6.55004 12.8923V13.7723C6.55004 13.8478 6.48773 13.9101 6.4122 13.9101L6.41031 13.912ZM4.9299 13.6363H6.27436V12.7866C6.27436 12.7224 6.31779 12.6676 6.38199 12.6525C6.75964 12.5657 7.11653 12.4165 7.44697 12.2107C7.50173 12.1767 7.5716 12.1842 7.61692 12.2295L8.21739 12.83L9.1672 11.8802L8.56672 11.2779C8.5214 11.2325 8.51385 11.1627 8.54784 11.1079C8.75366 10.7794 8.90284 10.4206 8.9897 10.041C9.00481 9.97872 9.05956 9.9334 9.12376 9.9334H9.97349V8.58895H9.12376C9.05956 8.58895 9.00292 8.54363 8.9897 8.48132C8.90284 8.10366 8.75555 7.74489 8.54784 7.41444C8.51385 7.35968 8.5214 7.28981 8.56672 7.24449L9.1672 6.64402L8.21739 5.69422L7.61692 6.29469C7.5716 6.34001 7.49985 6.34756 7.44697 6.31358C7.11653 6.10775 6.75964 5.95858 6.38199 5.87172C6.31968 5.85661 6.27436 5.80185 6.27436 5.73765V4.88793H4.93179V5.73765C4.93179 5.80185 4.88836 5.85661 4.82416 5.87172C4.44651 5.95858 4.08962 6.10775 3.75917 6.31358C3.70441 6.34756 3.63455 6.34001 3.58923 6.29469L2.98876 5.69422L2.03895 6.64402L2.63942 7.24449C2.68474 7.28981 2.6923 7.36157 2.65831 7.41444C2.45249 7.743 2.30331 8.10178 2.21645 8.48132C2.20134 8.54363 2.14658 8.58895 2.08238 8.58895H1.23266V9.9334H2.08238C2.14658 9.9334 2.20134 9.97872 2.21645 10.041C2.30331 10.4187 2.4506 10.7775 2.65831 11.106C2.6923 11.1608 2.68474 11.2306 2.63942 11.276L2.03706 11.8783L2.98687 12.8281L3.58734 12.2277C3.63266 12.1823 3.70441 12.1748 3.75728 12.2088C4.08773 12.4165 4.4465 12.5657 4.82227 12.6506C4.88458 12.6657 4.9299 12.7205 4.9299 12.7847V13.6344V13.6363Z" fill="white" stroke="white" stroke-width="0.224"/>
<path d="M5.60024 11.9463C4.12172 11.9463 2.92078 10.7435 2.92078 9.26307C2.92078 7.78266 4.12361 6.57983 5.60024 6.57983C7.07687 6.57983 8.27971 7.78266 8.27971 9.26307C8.27971 10.7435 7.07687 11.9463 5.60024 11.9463ZM5.60024 6.85552C4.27467 6.85552 3.19458 7.93562 3.19458 9.26307C3.19458 10.5905 4.27278 11.6706 5.60024 11.6706C6.9277 11.6706 8.00402 10.5905 8.00402 9.26307C8.00402 7.93562 6.92581 6.85552 5.60024 6.85552Z" fill="white" stroke="white" stroke-width="0.224"/>
<path d="M12.7229 7.24449H11.7693C11.6938 7.24449 11.6315 7.18218 11.6315 7.10665V6.6308C11.4596 6.58171 11.2935 6.51373 11.1367 6.42687L10.8006 6.76298C10.7742 6.78942 10.7402 6.80264 10.7024 6.80264C10.6666 6.80264 10.6307 6.78753 10.6061 6.76298L9.93202 6.08698C9.87914 6.03411 9.87914 5.94536 9.93202 5.89249L10.2681 5.55637C10.1813 5.40153 10.1114 5.23537 10.0642 5.06164H9.59024C9.51471 5.06164 9.45239 4.99933 9.45239 4.9238V3.96834C9.45239 3.8928 9.51471 3.83049 9.59024 3.83049H10.0642C10.1133 3.65677 10.1813 3.49249 10.2681 3.33576L9.93202 2.99965C9.87914 2.94678 9.87914 2.85803 9.93202 2.80516L10.6061 2.12915C10.6326 2.10271 10.6666 2.0895 10.7043 2.0895C10.7421 2.0895 10.7761 2.1046 10.8025 2.12915L11.1386 2.46526C11.2953 2.37651 11.4596 2.30854 11.6334 2.25944V1.7836C11.6334 1.70807 11.6957 1.64575 11.7712 1.64575H12.7248C12.8003 1.64575 12.8626 1.70807 12.8626 1.7836V2.25944C13.0345 2.30854 13.2006 2.37651 13.3573 2.46526L13.6935 2.12915C13.7199 2.10271 13.7539 2.0895 13.7917 2.0895C13.8275 2.0895 13.8634 2.1046 13.888 2.12915L14.564 2.80516C14.6168 2.85803 14.6168 2.94678 14.564 2.99965L14.2278 3.33576C14.3147 3.49249 14.3846 3.65866 14.4337 3.83049H14.9076C14.9832 3.83049 15.0455 3.8928 15.0455 3.96834V4.9238C15.0455 4.99933 14.9832 5.06164 14.9076 5.06164H14.4337C14.3846 5.23537 14.3166 5.40153 14.2278 5.55637L14.564 5.89249C14.6168 5.94536 14.6168 6.03411 14.564 6.08698L13.888 6.76298C13.8615 6.78942 13.8275 6.80264 13.7917 6.80264C13.7558 6.80264 13.7199 6.78753 13.6935 6.76298L13.3573 6.42687C13.2006 6.51373 13.0345 6.58359 12.8626 6.6308V7.10665C12.8626 7.18218 12.8003 7.24449 12.7248 7.24449H12.7229ZM11.9072 6.9688H12.585V6.52317C12.585 6.45897 12.6285 6.40232 12.6927 6.3891C12.9079 6.34001 13.1138 6.25504 13.3045 6.13607C13.3592 6.10209 13.4291 6.10964 13.4744 6.15496L13.7879 6.46841L14.2675 5.98879L13.9522 5.67345C13.9068 5.62813 13.8993 5.55637 13.9333 5.5035C14.0503 5.31656 14.1372 5.11074 14.1863 4.8917C14.2014 4.82939 14.2562 4.78596 14.3204 4.78596H14.7641V4.10618H14.3204C14.2562 4.10618 14.2014 4.06275 14.1863 4.00043C14.1353 3.78328 14.0503 3.57746 13.9314 3.38863C13.8974 3.33387 13.905 3.26401 13.9503 3.21869L14.2637 2.90524L13.7841 2.42372L13.4706 2.73907C13.4253 2.78438 13.3536 2.79194 13.2988 2.75795C13.11 2.63899 12.9042 2.55402 12.687 2.50492C12.6247 2.48982 12.5794 2.43505 12.5794 2.37085V1.92711H11.9015V2.37085C11.9015 2.43505 11.8562 2.48982 11.7939 2.50492C11.5767 2.55402 11.3709 2.64088 11.1821 2.75795C11.1273 2.79194 11.0574 2.78438 11.0121 2.73907L10.6987 2.42372L10.219 2.90524L10.5325 3.21869C10.5778 3.26401 10.5854 3.33576 10.5514 3.38863C10.4343 3.57746 10.3493 3.78328 10.2983 4.00043C10.2832 4.06275 10.2285 4.10618 10.1643 4.10618H9.72053V4.78596H10.1643C10.2285 4.78596 10.2832 4.82939 10.2983 4.8917C10.3493 5.11074 10.4343 5.31656 10.5514 5.5035C10.5854 5.55826 10.5778 5.62813 10.5325 5.67345L10.219 5.98879L10.6987 6.46841L11.014 6.15496C11.0593 6.10964 11.1292 6.10209 11.1839 6.13607C11.3728 6.25504 11.5786 6.34001 11.7957 6.3891C11.8581 6.40421 11.9034 6.45897 11.9034 6.52317V6.9688H11.9072Z" fill="white" stroke="white" stroke-width="0.224"/>
<path d="M12.2451 5.71497C11.5465 5.71497 10.9762 5.1466 10.9762 4.44605C10.9762 3.7455 11.5446 3.17712 12.2451 3.17712C12.9457 3.17712 13.514 3.74738 13.514 4.44605C13.514 5.14471 12.9438 5.71497 12.2451 5.71497ZM12.2451 3.45092C11.6975 3.45092 11.2519 3.89656 11.2519 4.44605C11.2519 4.99554 11.6975 5.43928 12.2451 5.43928C12.7927 5.43928 13.2384 4.99365 13.2384 4.44605C13.2384 3.89845 12.7927 3.45092 12.2451 3.45092Z" fill="white" stroke="white" stroke-width="0.224"/>
<path d="M12.7229 16.8785H11.7693C11.6938 16.8785 11.6315 16.8161 11.6315 16.7406V16.2648C11.4596 16.2157 11.2935 16.1477 11.1367 16.0608L10.8006 16.3969C10.7742 16.4234 10.7402 16.4366 10.7024 16.4366C10.6666 16.4366 10.6307 16.4215 10.6061 16.3969L9.93202 15.7209C9.87914 15.6681 9.87914 15.5812 9.93202 15.5265L10.2681 15.1885C10.1813 15.0336 10.1114 14.8674 10.0642 14.6937H9.59024C9.51471 14.6937 9.45239 14.6314 9.45239 14.5559V13.6004C9.45239 13.5249 9.51471 13.4626 9.59024 13.4626H10.0642C10.1133 13.2888 10.1813 13.1246 10.2681 12.9678L9.93202 12.6317C9.87914 12.577 9.87914 12.4901 9.93202 12.4372L10.6061 11.7612C10.6326 11.7348 10.6666 11.7216 10.7024 11.7216C10.7383 11.7216 10.7742 11.7367 10.8006 11.7612L11.1367 12.0973C11.2935 12.0086 11.4577 11.9406 11.6315 11.8915V11.4157C11.6315 11.3401 11.6938 11.2778 11.7693 11.2778H12.7229C12.7984 11.2778 12.8607 11.3401 12.8607 11.4157V11.8915C13.0326 11.9406 13.1987 12.0086 13.3555 12.0973L13.6916 11.7612C13.718 11.7348 13.752 11.7216 13.7898 11.7216C13.8256 11.7216 13.8615 11.7367 13.8861 11.7612L14.5621 12.4372C14.6149 12.4901 14.6149 12.5789 14.5621 12.6317L14.226 12.9678C14.3147 13.1246 14.3827 13.2907 14.4318 13.4626H14.9057C14.9813 13.4626 15.0436 13.5249 15.0436 13.6004V14.5559C15.0436 14.6314 14.9813 14.6937 14.9057 14.6937H14.4318C14.3827 14.8674 14.3147 15.0336 14.226 15.1885L14.5621 15.5246C14.6149 15.5793 14.6149 15.6662 14.5621 15.7191L13.8861 16.3951C13.8596 16.4215 13.8256 16.4347 13.7898 16.4347C13.7539 16.4347 13.718 16.4196 13.6916 16.3951L13.3555 16.059C13.1987 16.1458 13.0326 16.2157 12.8607 16.2629V16.7387C12.8607 16.8143 12.7984 16.8766 12.7229 16.8766V16.8785ZM11.9072 16.6028H12.585V16.159C12.585 16.0948 12.6285 16.0382 12.6927 16.025C12.9098 15.9759 13.1156 15.8909 13.3045 15.7719C13.3592 15.7379 13.4291 15.7455 13.4744 15.7908L13.7879 16.1043L14.2675 15.6246L13.9522 15.3093C13.9068 15.264 13.8993 15.1922 13.9333 15.1375C14.0503 14.9524 14.1372 14.7466 14.1863 14.5276C14.2014 14.4652 14.2562 14.4199 14.3204 14.4199H14.7641V13.7401H14.3204C14.2562 13.7401 14.2014 13.6948 14.1863 13.6325C14.1372 13.4154 14.0503 13.2095 13.9333 13.0207C13.8993 12.966 13.9068 12.8961 13.9522 12.8508L14.2675 12.5354L13.7879 12.0558L13.4744 12.3711C13.4291 12.4165 13.3573 12.424 13.3045 12.39C13.1156 12.2711 12.9098 12.1861 12.6927 12.1351C12.6304 12.12 12.585 12.0652 12.585 12.001V11.5573H11.9072V12.001C11.9072 12.0652 11.8618 12.12 11.7995 12.1351C11.5824 12.1842 11.3765 12.2711 11.1877 12.3881C11.133 12.4221 11.0631 12.4146 11.0178 12.3693L10.7043 12.0539L10.2247 12.5335L10.5382 12.8489C10.5835 12.8942 10.591 12.9641 10.557 13.0188C10.44 13.2077 10.3531 13.4135 10.304 13.6306C10.2889 13.6929 10.2341 13.7383 10.1699 13.7383H9.7262V14.418H10.1699C10.2341 14.418 10.2889 14.4615 10.304 14.5257C10.355 14.7447 10.44 14.9505 10.557 15.1375C10.591 15.1922 10.5835 15.2621 10.5382 15.3074L10.2247 15.6228L10.7043 16.1024L11.0178 15.787C11.0631 15.7417 11.1348 15.7342 11.1877 15.7682C11.3765 15.8871 11.5824 15.9721 11.7995 16.0212C11.8618 16.0344 11.9072 16.091 11.9072 16.1552V16.599V16.6028Z" fill="white" stroke="white" stroke-width="0.224"/>
<path d="M12.2451 15.349C11.5465 15.349 10.9762 14.7787 10.9762 14.0801C10.9762 13.3814 11.5446 12.8112 12.2451 12.8112C12.9457 12.8112 13.514 13.3814 13.514 14.0801C13.514 14.7787 12.9438 15.349 12.2451 15.349ZM12.2451 13.085C11.6975 13.085 11.2519 13.5306 11.2519 14.0801C11.2519 14.6296 11.6975 15.0733 12.2451 15.0733C12.7927 15.0733 13.2384 14.6277 13.2384 14.0801C13.2384 13.5325 12.7927 13.085 12.2451 13.085Z" fill="white" stroke="white" stroke-width="0.224"/>
<path d="M7.10333 3.94749C7.04291 3.94749 6.99004 3.90784 6.97116 3.85119L6.69169 2.93727L5.77965 2.65591C5.72112 2.63892 5.68335 2.58416 5.68335 2.52373C5.68335 2.46331 5.72301 2.41044 5.77965 2.39156L6.69169 2.11209L6.97116 1.19816C6.98815 1.13963 7.04291 1.09998 7.10333 1.09998C7.16376 1.09998 7.21663 1.13963 7.23551 1.19627L7.51686 2.1102L8.42891 2.38967C8.48744 2.40666 8.5252 2.46142 8.5252 2.52185C8.5252 2.58227 8.48555 2.63514 8.42891 2.65402L7.51686 2.93538L7.23551 3.84931C7.21852 3.90784 7.16376 3.9456 7.10333 3.9456V3.94749ZM6.2876 2.52373L6.84086 2.69368C6.88429 2.7069 6.91828 2.74089 6.9315 2.78432L7.10145 3.33947L7.27139 2.78432C7.28461 2.74089 7.31859 2.7069 7.36202 2.69368L7.91529 2.52373L7.36202 2.35379C7.31859 2.34057 7.28461 2.30659 7.27139 2.26315L7.10145 1.708L6.9315 2.26315C6.91828 2.30659 6.88429 2.34057 6.84086 2.35379L6.2876 2.52373Z" fill="white" stroke="white" stroke-width="0.224"/>
<path d="M7.38464 17.9C7.32422 17.9 7.27134 17.8603 7.25246 17.8037L6.97111 16.8897L6.05907 16.6103C6.00053 16.5933 5.96277 16.5385 5.96277 16.4781C5.96277 16.4177 6.00242 16.3648 6.05907 16.3459L6.97111 16.0646L7.25246 15.1506C7.26945 15.0921 7.32422 15.0543 7.38464 15.0543C7.44507 15.0543 7.49793 15.094 7.51682 15.1506L7.79628 16.0646L8.70832 16.3459C8.76686 16.3629 8.80462 16.4177 8.80462 16.4781C8.80462 16.5385 8.76497 16.5914 8.70643 16.6103L7.79439 16.8897L7.51493 17.8037C7.49794 17.8622 7.44318 17.9 7.38275 17.9H7.38464ZM6.5689 16.4781L7.12217 16.648C7.1656 16.6612 7.19959 16.6952 7.21281 16.7387L7.38275 17.2938L7.55269 16.7387C7.56591 16.6952 7.5999 16.6612 7.64333 16.648L8.1966 16.4781L7.64144 16.3081C7.59801 16.2949 7.56402 16.2609 7.5508 16.2175L7.38086 15.6623L7.21092 16.2175C7.1977 16.2609 7.16371 16.2949 7.12028 16.3081L6.56701 16.4781H6.5689Z" fill="white" stroke="white" stroke-width="0.224"/>
<path d="M12.989 10.8907C12.9286 10.8907 12.8757 10.851 12.8568 10.7944L12.5755 9.88045L11.6634 9.59909C11.6049 9.58209 11.5671 9.52734 11.5671 9.46691C11.5671 9.40649 11.6068 9.35361 11.6634 9.33473L12.5755 9.05338L12.8568 8.13945C12.8738 8.08092 12.9286 8.04126 12.989 8.04126C13.0494 8.04126 13.1023 8.08092 13.1212 8.13945L13.4007 9.05338L14.3127 9.33473C14.3712 9.35173 14.409 9.40649 14.4109 9.46691C14.4109 9.52734 14.3712 9.58021 14.3146 9.59909L13.4025 9.88045L13.1231 10.7944C13.1061 10.8529 13.0513 10.8926 12.9909 10.8926L12.989 10.8907ZM12.1733 9.46691L12.7284 9.63875C12.7719 9.65196 12.8058 9.68595 12.8191 9.72938L12.989 10.2826L13.159 9.72938C13.1722 9.68595 13.2062 9.65196 13.2496 9.63875L13.8047 9.46691L13.2496 9.29697C13.2062 9.28375 13.1722 9.24976 13.159 9.20633L12.989 8.65118L12.8191 9.20633C12.8058 9.24976 12.7719 9.28375 12.7284 9.29697L12.1733 9.46691Z" fill="white" stroke="white" stroke-width="0.224"/>
</svg>
