<svg width="66" height="43" viewBox="0 0 66 43" fill="none" xmlns="http://www.w3.org/2000/svg">
<path d="M65.7521 0.364258L55.1808 42.3643H0.752075L11.9335 0.364258H65.7521Z" fill="#A20000"/>
<path d="M33.0822 22.9961C33.1263 23.1613 33.1499 23.335 33.1499 23.5142C33.1499 24.6187 32.2545 25.5142 31.1499 25.5142C30.0453 25.5142 29.1499 24.6187 29.1499 23.5142C29.1499 22.4096 30.0453 21.5142 31.1499 21.5142C31.3291 21.5142 31.5027 21.5377 31.6679 21.5819L33.4428 19.8071C33.8333 19.4165 34.4665 19.4165 34.857 19.8071C35.2475 20.1976 35.2475 20.8307 34.857 21.2213L33.0822 22.9961Z" fill="white"/>
<path d="M31.1499 13.5142C31.7022 13.5142 32.1499 13.9619 32.1499 14.5142V15.5142C32.1499 16.0664 31.7022 16.5142 31.1499 16.5142C30.5976 16.5142 30.1499 16.0664 30.1499 15.5142V14.5142C30.1499 13.9619 30.5976 13.5142 31.1499 13.5142Z" fill="white"/>
<path d="M40.1499 24.5142C40.7022 24.5142 41.1499 24.0664 41.1499 23.5142C41.1499 22.9619 40.7022 22.5142 40.1499 22.5142H39.1499C38.5976 22.5142 38.1499 22.9619 38.1499 23.5142C38.1499 24.0664 38.5976 24.5142 39.1499 24.5142H40.1499Z" fill="white"/>
<path d="M21.1499 23.5142C21.1499 22.9619 21.5976 22.5142 22.1499 22.5142H23.1499C23.7022 22.5142 24.1499 22.9619 24.1499 23.5142C24.1499 24.0664 23.7022 24.5142 23.1499 24.5142H22.1499C21.5976 24.5142 21.1499 24.0664 21.1499 23.5142Z" fill="white"/>
<path d="M37.357 18.7213L38.0641 18.0142C38.4546 17.6236 38.4546 16.9905 38.0641 16.5999C37.6736 16.2094 37.0404 16.2094 36.6499 16.5999L35.9428 17.3071C35.5523 17.6976 35.5523 18.3307 35.9428 18.7213C36.3333 19.1118 36.9665 19.1118 37.357 18.7213Z" fill="white"/>
<path d="M26.0641 18.7213C26.4546 18.3307 26.4546 17.6976 26.0641 17.3071L25.357 16.5999C24.9665 16.2094 24.3333 16.2094 23.9428 16.5999C23.5523 16.9905 23.5523 17.6236 23.9428 18.0142L24.6499 18.7213C25.0404 19.1118 25.6736 19.1118 26.0641 18.7213Z" fill="white"/>
<path fill-rule="evenodd" clip-rule="evenodd" d="M31.1499 10.5142C23.9702 10.5142 18.1499 16.3345 18.1499 23.5142C18.1499 25.1992 18.471 26.8117 19.0563 28.2921C19.3622 29.0657 20.1097 29.5142 20.8793 29.5142H41.4205C42.1901 29.5142 42.9376 29.0657 43.2435 28.2921C43.8288 26.8117 44.1499 25.1992 44.1499 23.5142C44.1499 16.3345 38.3296 10.5142 31.1499 10.5142ZM20.1499 23.5142C20.1499 17.439 25.0748 12.5142 31.1499 12.5142C37.225 12.5142 42.1499 17.439 42.1499 23.5142C42.1499 24.9272 41.884 26.2757 41.4003 27.5142H20.8995C20.4158 26.2757 20.1499 24.9272 20.1499 23.5142Z" fill="white"/>
</svg>
