<svg width="66" height="43" viewBox="0 0 66 43" fill="none" xmlns="http://www.w3.org/2000/svg">
<path d="M65.1301 0.364258L54.5588 42.3643H0.130127L11.3115 0.364258H65.1301Z" fill="#A20000"/>
<path fill-rule="evenodd" clip-rule="evenodd" d="M41.55 7.51416C39.8932 7.51416 38.55 8.85731 38.55 10.5142C38.55 10.9544 38.6449 11.3724 38.8152 11.7491L33.5072 16.2404C32.9818 15.7878 32.2979 15.5142 31.55 15.5142C30.5515 15.5142 29.6669 16.002 29.1216 16.7523L24.5325 14.8402C24.5441 14.7331 24.55 14.6243 24.55 14.5142C24.55 12.8573 23.2069 11.5142 21.55 11.5142C19.8932 11.5142 18.55 12.8573 18.55 14.5142C18.55 16.171 19.8932 17.5142 21.55 17.5142C22.374 17.5142 23.1203 17.182 23.6625 16.6443L28.5547 18.6828C28.6422 20.2612 29.9498 21.5142 31.55 21.5142C33.2069 21.5142 34.55 20.171 34.55 18.5142C34.55 18.3435 34.5358 18.1761 34.5084 18.0132L40.2024 13.1952C40.6076 13.3992 41.0654 13.5142 41.55 13.5142C43.2069 13.5142 44.55 12.171 44.55 10.5142C44.55 8.85731 43.2069 7.51416 41.55 7.51416ZM40.55 10.5142C40.55 9.96188 40.9978 9.51416 41.55 9.51416C42.1023 9.51416 42.55 9.96188 42.55 10.5142C42.55 11.0664 42.1023 11.5142 41.55 11.5142C40.9978 11.5142 40.55 11.0664 40.55 10.5142ZM20.55 14.5142C20.55 13.9619 20.9978 13.5142 21.55 13.5142C22.1023 13.5142 22.55 13.9619 22.55 14.5142C22.55 15.0664 22.1023 15.5142 21.55 15.5142C20.9978 15.5142 20.55 15.0664 20.55 14.5142ZM31.55 17.5142C30.9978 17.5142 30.55 17.9619 30.55 18.5142C30.55 19.0664 30.9978 19.5142 31.55 19.5142C32.1023 19.5142 32.55 19.0664 32.55 18.5142C32.55 17.9619 32.1023 17.5142 31.55 17.5142Z" fill="white"/>
<path fill-rule="evenodd" clip-rule="evenodd" d="M18.55 22.5142C18.55 20.8573 19.8932 19.5142 21.55 19.5142C23.2069 19.5142 24.55 20.8573 24.55 22.5142V32.5142C24.55 33.0664 24.1023 33.5142 23.55 33.5142H19.55C18.9978 33.5142 18.55 33.0664 18.55 32.5142V22.5142ZM21.55 21.5142C20.9978 21.5142 20.55 21.9619 20.55 22.5142V31.5142H22.55V22.5142C22.55 21.9619 22.1023 21.5142 21.55 21.5142Z" fill="white"/>
<path fill-rule="evenodd" clip-rule="evenodd" d="M31.55 23.5142C29.8932 23.5142 28.55 24.8573 28.55 26.5142V32.5142C28.55 33.0664 28.9978 33.5142 29.55 33.5142H33.55C34.1023 33.5142 34.55 33.0664 34.55 32.5142V26.5142C34.55 24.8573 33.2069 23.5142 31.55 23.5142ZM30.55 26.5142C30.55 25.9619 30.9978 25.5142 31.55 25.5142C32.1023 25.5142 32.55 25.9619 32.55 26.5142V31.5142H30.55V26.5142Z" fill="white"/>
<path fill-rule="evenodd" clip-rule="evenodd" d="M38.55 18.5142C38.55 16.8573 39.8932 15.5142 41.55 15.5142C43.2069 15.5142 44.55 16.8573 44.55 18.5142V32.5142C44.55 33.0664 44.1023 33.5142 43.55 33.5142H39.55C38.9978 33.5142 38.55 33.0664 38.55 32.5142V18.5142ZM41.55 17.5142C40.9978 17.5142 40.55 17.9619 40.55 18.5142V31.5142H42.55V18.5142C42.55 17.9619 42.1023 17.5142 41.55 17.5142Z" fill="white"/>
</svg>
