<svg width="66" height="43" viewBox="0 0 66 43" fill="none" xmlns="http://www.w3.org/2000/svg">
<path d="M65.0042 0.364258L54.4328 42.3643H0.00415039L11.1856 0.364258H65.0042Z" fill="#A20000"/>
<path d="M23.75 11.5142C23.75 12.0664 23.3023 12.5142 22.75 12.5142H21.75C21.1977 12.5142 20.75 12.0664 20.75 11.5142C20.75 10.9619 21.1977 10.5142 21.75 10.5142H22.75C23.3023 10.5142 23.75 10.9619 23.75 11.5142Z" fill="white"/>
<path d="M26.75 12.5142C27.3023 12.5142 27.75 12.0664 27.75 11.5142C27.75 10.9619 27.3023 10.5142 26.75 10.5142H25.75C25.1977 10.5142 24.75 10.9619 24.75 11.5142C24.75 12.0664 25.1977 12.5142 25.75 12.5142H26.75Z" fill="white"/>
<path fill-rule="evenodd" clip-rule="evenodd" d="M22.75 21.5142C22.75 20.9619 23.1977 20.5142 23.75 20.5142H25.75C25.75 18.3051 27.5408 16.5142 29.7499 16.5142C31.9591 16.5142 33.7499 18.305 33.7499 20.5141L35.75 20.5142C36.3023 20.5142 36.75 20.9619 36.75 21.5142V28.5142C36.75 29.0664 36.3023 29.5142 35.75 29.5142H23.75C23.1977 29.5142 22.75 29.0664 22.75 28.5142V21.5142ZM31.7499 22.5142C31.7499 23.0664 32.1976 23.5142 32.7499 23.5142C33.3022 23.5142 33.7499 23.0664 33.7499 22.5142L34.75 22.5142V27.5142H24.75V22.5142H25.75C25.75 23.0664 26.1977 23.5142 26.75 23.5142C27.3023 23.5142 27.75 23.0664 27.75 22.5142H31.7499ZM31.7499 20.5142C31.7499 19.4096 30.8545 18.5142 29.7499 18.5142C28.6454 18.5142 27.75 19.4096 27.75 20.5141L31.7499 20.5142Z" fill="white"/>
<path fill-rule="evenodd" clip-rule="evenodd" d="M20.75 7.51416C18.5409 7.51416 16.75 9.30502 16.75 11.5142V32.5142C16.75 33.0664 17.1977 33.5142 17.75 33.5142H41.75C42.3023 33.5142 42.75 33.0664 42.75 32.5142V11.5142C42.75 9.30502 40.9591 7.51416 38.75 7.51416H20.75ZM18.75 15.5142H37.75C38.3023 15.5142 38.75 15.0664 38.75 14.5142C38.75 13.9619 38.3023 13.5142 37.75 13.5142H18.75V11.5142C18.75 10.4096 19.6454 9.51416 20.75 9.51416H38.75C39.8546 9.51416 40.75 10.4096 40.75 11.5142V31.5142H18.75V15.5142Z" fill="white"/>
</svg>
