<svg width="18" height="17" viewBox="0 0 18 17" fill="none" xmlns="http://www.w3.org/2000/svg">
<path d="M3.70514 15.9815H1.53898C1.46338 15.9815 1.401 15.9191 1.401 15.8435V12.0102C1.401 11.9346 1.46338 11.8722 1.53898 11.8722H3.70514C3.78075 11.8722 3.84313 11.9346 3.84313 12.0102V15.8435C3.84313 15.9191 3.78075 15.9815 3.70514 15.9815ZM1.67697 15.7055H3.56716V12.1482H1.67697V15.7055Z" fill="white" stroke="white" stroke-width="0.224"/>
<path d="M7.73505 15.9814H5.56889C5.49328 15.9814 5.43091 15.919 5.43091 15.8434V6.5645C5.43091 6.48889 5.49328 6.42651 5.56889 6.42651H7.73505C7.81066 6.42651 7.87303 6.48889 7.87303 6.5645V15.8434C7.87303 15.919 7.81066 15.9814 7.73505 15.9814ZM5.70688 15.7055H7.59706V6.70248H5.70688V15.7055Z" fill="white" stroke="white" stroke-width="0.224"/>
<path d="M11.7668 15.9814H9.60063C9.52502 15.9814 9.46265 15.919 9.46265 15.8434V7.674C9.46265 7.59839 9.52502 7.53601 9.60063 7.53601H11.7668C11.8424 7.53601 11.9048 7.59839 11.9048 7.674V15.8434C11.9048 15.919 11.8424 15.9814 11.7668 15.9814ZM9.73861 15.7054H11.6288V7.81198H9.73861V15.7054Z" fill="white" stroke="white" stroke-width="0.224"/>
<path d="M15.7967 15.9814H13.6305C13.5549 15.9814 13.4926 15.919 13.4926 15.8434V5.10148C13.4926 5.02587 13.5549 4.9635 13.6305 4.9635H15.7967C15.8723 4.9635 15.9347 5.02587 15.9347 5.10148V15.8434C15.9347 15.919 15.8723 15.9814 15.7967 15.9814ZM13.7685 15.7054H15.6587V5.23947H13.7685V15.7054Z" fill="white" stroke="white" stroke-width="0.224"/>
<path d="M11.4341 5.10721C11.3906 5.10721 11.3472 5.08642 11.3207 5.04861C11.2772 4.98624 11.2923 4.90118 11.3547 4.85582L15.2731 2.09425C15.3355 2.05077 15.4205 2.0659 15.4659 2.12638C15.5094 2.18876 15.4942 2.27382 15.4319 2.31918L11.5135 5.08075C11.4889 5.09776 11.4625 5.10532 11.4341 5.10532V5.10721Z" fill="white" stroke="white" stroke-width="0.224"/>
<path d="M10.2887 5.20164C10.2679 5.20164 10.249 5.19786 10.2282 5.18841L6.92792 3.60065C6.85987 3.56852 6.82963 3.48535 6.86365 3.4173C6.89579 3.34925 6.97896 3.31901 7.047 3.35303L10.3454 4.9408C10.4134 4.97482 10.4437 5.0561 10.4096 5.12415C10.3851 5.17329 10.3359 5.20164 10.2849 5.20164H10.2887Z" fill="white" stroke="white" stroke-width="0.224"/>
<path d="M1.96045 6.84239C1.92076 6.84239 1.87917 6.82537 1.85271 6.78946C1.80546 6.72897 1.81491 6.64392 1.87539 6.59477L5.78241 3.49297C5.8429 3.44572 5.92796 3.45517 5.97521 3.51565C6.02247 3.57614 6.01302 3.6612 5.95253 3.71034L2.04551 6.81214C2.02094 6.83293 1.98881 6.84239 1.96045 6.84239Z" fill="white" stroke="white" stroke-width="0.224"/>
<path d="M1.43877 7.92356C0.994571 7.92356 0.633545 7.56253 0.633545 7.11833C0.633545 6.67414 0.994571 6.31311 1.43877 6.31311C1.88296 6.31311 2.2421 6.67414 2.2421 7.11833C2.2421 7.56253 1.88107 7.92356 1.43877 7.92356ZM1.43877 6.58908C1.14768 6.58908 0.909513 6.82724 0.909513 7.11833C0.909513 7.40942 1.14768 7.64758 1.43877 7.64758C1.72985 7.64758 1.96802 7.41131 1.96802 7.11833C1.96802 6.82535 1.73174 6.58908 1.43877 6.58908Z" fill="white" stroke="white" stroke-width="0.224"/>
<path d="M6.38915 3.99008C5.94495 3.99008 5.58582 3.62906 5.58582 3.18486C5.58582 2.74067 5.94684 2.37964 6.38915 2.37964C6.83145 2.37964 7.19248 2.74067 7.19248 3.18486C7.19248 3.62906 6.83145 3.99008 6.38915 3.99008ZM6.38915 2.6556C6.09806 2.6556 5.85989 2.89188 5.85989 3.18486C5.85989 3.47784 6.09617 3.71411 6.38915 3.71411C6.68212 3.71411 6.9184 3.47595 6.9184 3.18486C6.9184 2.89377 6.68212 2.6556 6.38915 2.6556Z" fill="white" stroke="white" stroke-width="0.224"/>
<path d="M10.8898 6.15994C10.4456 6.15994 10.0864 5.79892 10.0864 5.35472C10.0864 4.91053 10.4475 4.55139 10.8898 4.55139C11.3321 4.55139 11.6931 4.91242 11.6931 5.35472C11.6931 5.79703 11.3321 6.15994 10.8898 6.15994ZM10.8898 4.82547C10.5987 4.82547 10.3605 5.06175 10.3605 5.35284C10.3605 5.64392 10.5968 5.88209 10.8898 5.88209C11.1827 5.88209 11.419 5.64392 11.419 5.35284C11.419 5.06175 11.1827 4.82547 10.8898 4.82547Z" fill="white" stroke="white" stroke-width="0.224"/>
<path d="M15.8968 2.62912C15.4526 2.62912 15.0916 2.26809 15.0916 1.82389C15.0916 1.3797 15.4526 1.01868 15.8968 1.01868C16.341 1.01868 16.7001 1.3797 16.7001 1.82389C16.7001 2.26809 16.3391 2.62912 15.8968 2.62912ZM15.8968 1.29464C15.6057 1.29464 15.3675 1.5328 15.3675 1.82389C15.3675 2.11498 15.6057 2.35315 15.8968 2.35315C16.1879 2.35315 16.426 2.11498 16.426 1.82389C16.426 1.5328 16.1898 1.29464 15.8968 1.29464Z" fill="white" stroke="white" stroke-width="0.224"/>
<path d="M16.9289 15.9814H0.40483C0.329222 15.9814 0.266846 15.919 0.266846 15.8434C0.266846 15.7678 0.329222 15.7054 0.40483 15.7054H16.9289C17.0045 15.7054 17.0668 15.7678 17.0668 15.8434C17.0668 15.919 17.0045 15.9814 16.9289 15.9814Z" fill="white" stroke="white" stroke-width="0.224"/>
</svg>
