<svg width="18" height="19" viewBox="0 0 18 19" fill="none" xmlns="http://www.w3.org/2000/svg">
<path d="M8.70864 16.1887C5.18408 16.1887 2.31494 13.3177 2.31494 9.78932C2.31494 6.26098 5.18219 3.38995 8.70864 3.38995C12.2351 3.38995 15.1023 6.26098 15.1023 9.78932C15.1023 13.3177 12.2351 16.1887 8.70864 16.1887ZM8.70864 3.66573C5.33519 3.66573 2.59071 6.41209 2.59071 9.78932C2.59071 13.1666 5.33519 15.9129 8.70864 15.9129C12.0821 15.9129 14.8266 13.1666 14.8266 9.78932C14.8266 6.41209 12.0821 3.66573 8.70864 3.66573Z" fill="white" stroke="white" stroke-width="0.224"/>
<path d="M8.70865 12.1447C7.41103 12.1447 6.35706 11.0889 6.35706 9.79123C6.35706 8.4936 7.41291 7.43774 8.70865 7.43774C10.0044 7.43774 11.0603 8.4936 11.0603 9.79123C11.0603 11.0889 10.0044 12.1447 8.70865 12.1447ZM8.70865 7.71162C7.56402 7.71162 6.63094 8.64471 6.63094 9.79123C6.63094 10.9378 7.56213 11.8708 8.70865 11.8708C9.85518 11.8708 10.7864 10.9378 10.7864 9.79123C10.7864 8.64471 9.85518 7.71162 8.70865 7.71162Z" fill="white" stroke="white" stroke-width="0.224"/>
<path d="M8.70863 14.7117C5.99815 14.7117 3.79199 12.5036 3.79199 9.79126C3.79199 7.07889 5.99815 4.86896 8.70863 4.86896C11.4191 4.86896 13.6253 7.077 13.6253 9.79126C13.6253 12.5055 11.4191 14.7117 8.70863 14.7117ZM8.70863 5.14473C6.14926 5.14473 4.06776 7.23 4.06776 9.79126C4.06776 12.3525 6.14926 14.4359 8.70863 14.4359C11.268 14.4359 13.3495 12.3525 13.3495 9.79126C13.3495 7.23 11.268 5.14473 8.70863 5.14473Z" fill="white" stroke="white" stroke-width="0.224"/>
<path d="M8.70869 9.0735C8.63313 9.0735 8.5708 9.01117 8.5708 8.93562V1.81849C8.5708 1.74294 8.63313 1.6806 8.70869 1.6806C8.78424 1.6806 8.84657 1.74294 8.84657 1.81849V8.93562C8.84657 9.01117 8.78424 9.0735 8.70869 9.0735Z" fill="white" stroke="white" stroke-width="0.224"/>
<path d="M16.6739 9.92909H9.56245C9.48689 9.92909 9.42456 9.86676 9.42456 9.79121C9.42456 9.71565 9.48689 9.65332 9.56245 9.65332H16.672C16.7476 9.65332 16.8099 9.71565 16.8099 9.79121C16.8099 9.86676 16.7476 9.92909 16.672 9.92909H16.6739Z" fill="white" stroke="white" stroke-width="0.224"/>
<path d="M8.70869 17.9C8.63313 17.9 8.5708 17.8376 8.5708 17.7621V10.645C8.5708 10.5694 8.63313 10.5071 8.70869 10.5071C8.78424 10.5071 8.84657 10.5694 8.84657 10.645V17.7621C8.84657 17.8376 8.78424 17.9 8.70869 17.9Z" fill="white" stroke="white" stroke-width="0.224"/>
<path d="M7.85305 9.92909H0.743476C0.667922 9.92909 0.605591 9.86676 0.605591 9.79121C0.605591 9.71565 0.667922 9.65332 0.743476 9.65332H7.85305C7.9286 9.65332 7.99093 9.71565 7.99093 9.79121C7.99093 9.86676 7.9286 9.92909 7.85305 9.92909Z" fill="white" stroke="white" stroke-width="0.224"/>
<path d="M8.70869 9.92915C8.6728 9.92915 8.6388 9.91592 8.61047 9.88948C8.55758 9.83659 8.55758 9.74781 8.61047 9.69493L15.431 2.86679C15.4839 2.81391 15.5727 2.81202 15.6256 2.86679C15.6785 2.92157 15.6785 3.00846 15.6256 3.06134L8.80502 9.88948C8.77857 9.91592 8.74268 9.92915 8.7068 9.92915H8.70869Z" fill="white" stroke="white" stroke-width="0.224"/>
<path d="M15.5293 3.10096C15.5293 3.10096 15.518 3.10096 15.5123 3.10096C15.4708 3.09529 15.433 3.07074 15.4103 3.03485L15.0288 2.38509C15.0023 2.33976 15.0042 2.28121 15.0344 2.23777L15.7824 1.15924C15.8051 1.12713 15.841 1.10635 15.8787 1.10068C15.9184 1.09691 15.9581 1.10824 15.9864 1.13469L16.706 1.77689C16.7344 1.80144 16.7514 1.83733 16.7514 1.87511C16.7514 1.91288 16.7382 1.95066 16.7117 1.97711L15.6256 3.06319C15.5992 3.08963 15.5652 3.10285 15.5274 3.10285L15.5293 3.10096ZM15.3121 2.31898L15.5576 2.73831L16.4152 1.88077L15.9203 1.43879L15.3121 2.31709V2.31898Z" fill="white" stroke="white" stroke-width="0.224"/>
<path d="M16.1771 3.48062C16.1526 3.48062 16.128 3.47495 16.1072 3.46173L15.4594 3.08208C15.4235 3.0613 15.397 3.02352 15.3933 2.98008C15.3876 2.93852 15.4027 2.89508 15.4329 2.86485L16.519 1.77877C16.5455 1.75233 16.5832 1.73722 16.621 1.73911C16.6588 1.73911 16.6947 1.75611 16.7192 1.78444L17.3595 2.50409C17.386 2.53431 17.3973 2.57209 17.3935 2.61175C17.3879 2.65142 17.3671 2.68542 17.335 2.70808L16.2565 3.45606C16.2338 3.47306 16.2055 3.48062 16.179 3.48062H16.1771ZM15.7521 2.93286L16.1715 3.1784L17.0498 2.5702L16.6097 2.07532L15.7521 2.93286Z" fill="white" stroke="white" stroke-width="0.224"/>
</svg>
