<svg width="66" height="43" viewBox="0 0 66 43" fill="none" xmlns="http://www.w3.org/2000/svg">
<path d="M65.8782 0.364258L55.3069 42.3643H0.878174L12.0596 0.364258H65.8782Z" fill="#A20000"/>
<path fill-rule="evenodd" clip-rule="evenodd" d="M29.95 9.51416C29.95 8.40959 30.8454 7.51416 31.95 7.51416C33.0545 7.51416 33.95 8.40959 33.95 9.51416C33.95 10.2544 33.5478 10.9008 32.95 11.2466V13.585C34.1358 13.7547 35.2258 14.2215 36.1421 14.9077L38.0176 13.0319C37.9735 12.8668 37.95 12.6932 37.95 12.5142C37.95 11.4096 38.8454 10.5142 39.95 10.5142C41.0545 10.5142 41.95 11.4096 41.95 12.5142C41.95 13.6187 41.0545 14.5142 39.95 14.5142C39.7707 14.5142 39.5969 14.4906 39.4316 14.4463L37.5563 16.3219C38.2425 17.2382 38.7094 18.3282 38.8791 19.5142H41.2175C41.5633 18.9164 42.2097 18.5142 42.95 18.5142C44.0545 18.5142 44.95 19.4096 44.95 20.5142C44.95 21.6187 44.0545 22.5142 42.95 22.5142C42.2097 22.5142 41.5633 22.112 41.2175 21.5142H38.8791C38.7094 22.7001 38.2425 23.7902 37.5563 24.7064L39.4316 26.582C39.5969 26.5378 39.7707 26.5142 39.95 26.5142C41.0545 26.5142 41.95 27.4096 41.95 28.5142C41.95 29.6187 41.0545 30.5142 39.95 30.5142C38.8454 30.5142 37.95 29.6187 37.95 28.5142C37.95 28.3351 37.9735 28.1616 38.0176 27.9965L36.142 26.1206C35.2258 26.8068 34.1358 27.2736 32.95 27.4433V29.7817C33.5478 30.1275 33.95 30.7739 33.95 31.5142C33.95 32.6187 33.0545 33.5142 31.95 33.5142C30.8454 33.5142 29.95 32.6187 29.95 31.5142C29.95 30.7739 30.3521 30.1275 30.95 29.7817V27.4433C29.764 27.2736 28.674 26.8068 27.7577 26.1205L25.8821 27.9958C25.9264 28.1611 25.95 28.3349 25.95 28.5142C25.95 29.6187 25.0545 30.5142 23.95 30.5142C22.8454 30.5142 21.95 29.6187 21.95 28.5142C21.95 27.4096 22.8454 26.5142 23.95 26.5142C24.129 26.5142 24.3026 26.5377 24.4677 26.5818L26.3435 24.7063C25.6573 23.79 25.1905 22.7 25.0208 21.5142H22.6824C22.3366 22.112 21.6902 22.5142 20.95 22.5142C19.8454 22.5142 18.95 21.6187 18.95 20.5142C18.95 19.4096 19.8454 18.5142 20.95 18.5142C21.6902 18.5142 22.3366 18.9164 22.6824 19.5142H25.0208C25.1905 18.3283 25.6573 17.2383 26.3435 16.3221L24.4676 14.4465C24.3025 14.4906 24.129 14.5142 23.95 14.5142C22.8454 14.5142 21.95 13.6187 21.95 12.5142C21.95 11.4096 22.8454 10.5142 23.95 10.5142C25.0545 10.5142 25.95 11.4096 25.95 12.5142C25.95 12.6934 25.9264 12.8672 25.8821 13.0326L27.7577 14.9078C28.674 14.2216 29.764 13.7547 30.95 13.585V11.2466C30.3521 10.9008 29.95 10.2544 29.95 9.51416ZM31.95 15.5142C29.1885 15.5142 26.95 17.7527 26.95 20.5142C26.95 23.2756 29.1885 25.5142 31.95 25.5142C34.7114 25.5142 36.95 23.2756 36.95 20.5142C36.95 17.7527 34.7114 15.5142 31.95 15.5142Z" fill="white"/>
</svg>
