<svg width="33" height="33" viewBox="0 0 33 33" fill="none" xmlns="http://www.w3.org/2000/svg">
<g clip-path="url(#clip0_92_335)">
<path fill-rule="evenodd" clip-rule="evenodd" d="M10.0264 12.8973C10.3128 12.8514 10.604 12.837 10.8931 12.8621C11.2563 12.8951 11.6371 13.0359 11.8504 13.3479C12.1112 13.7351 12.1464 14.2279 12.1032 14.6802C12.0589 15.1666 11.804 15.6498 11.3693 15.8935C10.964 16.1223 10.4808 16.093 10.0333 16.0615C10.0301 15.0066 10.0237 13.9522 10.0264 12.8973Z" fill="#00A4EA"/>
<path fill-rule="evenodd" clip-rule="evenodd" d="M6.56827 13.0675C7.02747 12.7987 7.59173 12.8237 8.1 12.8952C8.09787 13.9507 8.1032 15.0067 8.09787 16.0621C7.63387 16.0952 7.12773 16.1283 6.716 15.8696C6.2168 15.5757 5.99013 14.9709 6.00347 14.4125C5.99547 13.9187 6.1192 13.3464 6.56827 13.0675V13.0675Z" fill="#00A4EA"/>
<path fill-rule="evenodd" clip-rule="evenodd" d="M7.32613 12.0433C6.50427 12.062 5.6392 12.1228 4.9064 12.5318C4.4296 12.7921 4.08933 13.2764 4.0088 13.8145C3.9192 14.4151 3.97307 15.0785 4.3352 15.5868C4.67813 16.0897 5.2712 16.3527 5.8504 16.4711C5.10213 16.7457 4.59813 17.4326 4.27333 18.1318C4.07867 18.518 4.04027 18.9772 3.76507 19.3228C3.62213 19.5116 3.3912 19.6022 3.1672 19.6524C3.16507 19.8593 3.16773 20.0668 3.16667 20.2737C3.52347 20.6801 4.1192 20.6764 4.61413 20.6311C5.14587 20.5905 5.67867 20.3217 5.94747 19.8481C6.28667 19.2486 6.37467 18.5537 6.60453 17.9121C6.70427 17.6369 6.79707 17.3468 6.99707 17.1254C7.09573 17.0198 7.22373 16.9164 7.37733 16.9297C7.61947 16.9297 7.86213 16.926 8.10373 16.9372C8.09467 17.6593 8.10213 18.3814 8.10053 19.1036C8.0984 19.2662 8.0792 19.4476 7.95653 19.5681C7.77413 19.7526 7.5 19.782 7.25467 19.8017C7.26853 20.071 7.33573 20.367 7.53787 20.5585C8.55493 20.5718 9.57307 20.5585 10.5907 20.5649C10.7571 20.3436 10.8605 20.0785 10.8664 19.8001C10.6456 19.7825 10.3997 19.7745 10.2248 19.6193C10.0781 19.4689 10.0307 19.2508 10.0392 19.0465C10.0467 18.3409 10.0296 17.6353 10.0333 16.9297C10.3005 16.9366 10.5688 16.9185 10.836 16.9372C11.0477 17.0001 11.1939 17.1873 11.2952 17.375C11.6632 18.0934 11.7389 18.9164 12.0685 19.6497C12.1907 19.9292 12.3885 20.1777 12.6456 20.3441C13.0397 20.6102 13.5336 20.6598 13.9971 20.6486C14.3443 20.6406 14.7165 20.5521 14.9523 20.2785C14.9523 20.0689 14.9539 19.8593 14.9523 19.6502C14.7139 19.6092 14.4776 19.4982 14.3363 19.295C14.06 18.9142 14.0163 18.4273 13.7965 18.0177C13.4643 17.3644 12.9763 16.7164 12.2568 16.4716C12.6621 16.3969 13.0573 16.2438 13.3901 15.9985C13.7533 15.7318 13.9976 15.3196 14.0872 14.8807C14.1933 14.3772 14.1768 13.8348 13.972 13.3574C13.7651 12.8956 13.3421 12.5607 12.8787 12.3788C12.1752 12.1009 11.4088 12.0486 10.66 12.0401C9.54853 12.0284 8.43707 12.0529 7.3256 12.0433H7.32613Z" fill="#00A4EA"/>
<path fill-rule="evenodd" clip-rule="evenodd" d="M14.8744 12.7116C15.0707 12.7228 15.2856 12.7266 15.452 12.8466C15.5917 12.9463 15.6291 13.1292 15.6328 13.2908C15.636 14.6588 15.6285 16.0274 15.6365 17.3954C15.6467 18.2295 15.876 19.1047 16.4712 19.7164C17.0168 20.2892 17.8013 20.5751 18.5789 20.6322C19.3421 20.6914 20.1539 20.6215 20.8232 20.2188C21.3363 19.9175 21.7101 19.4146 21.9128 18.8604C22.1341 18.2764 22.1901 17.6455 22.1869 17.0252C22.1859 15.7975 22.1869 14.5698 22.1859 13.3426C22.1859 13.1826 22.2077 13.0039 22.3363 12.893C22.5336 12.7271 22.8077 12.7218 23.052 12.7122C23.0504 12.4343 22.9597 12.1639 22.7912 11.9431C21.8968 11.942 21.0029 11.9474 20.1085 11.9404C19.9069 12.1436 19.8413 12.4354 19.8339 12.7127C20.0717 12.7212 20.3325 12.7282 20.5309 12.8764C20.6701 12.9874 20.7011 13.1756 20.7 13.3431C20.7 14.8188 20.7 16.294 20.7005 17.7692C20.6973 18.2002 20.6051 18.6476 20.3469 19.0018C20.1517 19.2743 19.8248 19.4258 19.4973 19.4599C19.0467 19.5202 18.5405 19.4316 18.2179 19.0887C17.8632 18.6855 17.7363 18.134 17.7336 17.6087C17.7325 16.1868 17.7347 14.7644 17.7325 13.3426C17.7283 13.174 17.7608 12.9879 17.8861 12.8658C18.0541 12.7266 18.2851 12.7266 18.4915 12.7106C18.4803 12.4316 18.4035 12.1474 18.2051 11.942C17.1885 11.9452 16.172 11.9436 15.1549 11.9431C14.9688 12.1559 14.884 12.4322 14.8744 12.7116V12.7116Z" fill="#00A4EA"/>
<path fill-rule="evenodd" clip-rule="evenodd" d="M24.2275 12.7532C23.7245 13.3714 23.6648 14.2492 23.892 14.9906C24.0717 15.5858 24.5181 16.0551 25.0072 16.4178C25.7581 16.9991 26.7032 17.2652 27.4344 17.8764C27.6397 18.0514 27.8056 18.2887 27.8344 18.5634C27.9149 19.0135 27.6349 19.541 27.1672 19.6332C26.6248 19.7511 26.0365 19.574 25.6296 19.2018C25.1187 18.7575 24.8509 18.1026 24.7267 17.4503H23.5123C23.5133 18.0594 23.588 18.6663 23.6941 19.2652C23.7811 19.7356 23.8792 20.2098 24.0813 20.646C24.3992 20.5138 24.7101 20.365 25.028 20.2322C25.8451 20.5868 26.7624 20.7388 27.6461 20.5943C28.3501 20.4759 29.0355 20.1084 29.4392 19.5074C29.8067 18.9746 29.9016 18.2898 29.7811 17.6626C29.6605 17.0524 29.2445 16.5458 28.7688 16.1671C28.1512 15.7207 27.4504 15.413 26.7811 15.0551C26.4808 14.893 26.1832 14.7026 25.9853 14.4178C25.7869 14.1511 25.756 13.7954 25.82 13.478C25.8829 13.1751 26.1027 12.8898 26.4141 12.8183C26.8515 12.7164 27.3523 12.7874 27.6952 13.0956C28.1507 13.453 28.3283 14.0311 28.484 14.5639C28.8205 14.5634 29.1576 14.5634 29.4941 14.5639C29.4872 13.9255 29.4835 13.285 29.4067 12.6498C29.3725 12.3554 29.2872 12.069 29.1635 11.8002C28.8125 11.8903 28.4685 12.0071 28.1219 12.1132C27.6125 11.861 27.0312 11.8087 26.4712 11.7959C25.6408 11.7948 24.756 12.0828 24.2275 12.7532V12.7532Z" fill="#00A4EA"/>
<path fill-rule="evenodd" clip-rule="evenodd" d="M2.98907 0.223633H29.9912C30.6472 0.270033 31.2883 0.552699 31.7427 1.03217C32.1976 1.48603 32.4605 2.11377 32.5 2.75323V29.6908C32.4621 30.3564 32.1752 31.0082 31.6899 31.4679C31.2253 31.9314 30.5805 32.1986 29.9272 32.2236H3.00667C2.3512 32.1767 1.71067 31.8935 1.2568 31.4146C0.801333 30.9602 0.5384 30.3319 0.5 29.6924V2.75697C0.536267 2.14097 0.7816 1.53563 1.20613 1.0855C1.66053 0.5799 2.31493 0.278033 2.98907 0.223633ZM7.32613 12.0434C6.50427 12.062 5.6392 12.1228 4.9064 12.5319C4.4296 12.7922 4.08933 13.2764 4.0088 13.8146C3.9192 14.4151 3.97307 15.0786 4.3352 15.5868C4.67813 16.0898 5.2712 16.3527 5.8504 16.4711C5.10213 16.7458 4.59813 17.4327 4.27333 18.1319C4.07867 18.518 4.04027 18.9772 3.76507 19.3228C3.62213 19.5116 3.3912 19.6023 3.1672 19.6524C3.16507 19.8594 3.16773 20.0668 3.16667 20.2738C3.52347 20.6802 4.1192 20.6764 4.61413 20.6311C5.14587 20.5906 5.67867 20.3218 5.94747 19.8482C6.28667 19.2487 6.37467 18.5538 6.60453 17.9122C6.70427 17.637 6.79707 17.3468 6.99707 17.1255C7.09573 17.0199 7.22373 16.9164 7.37733 16.9298C7.61947 16.9298 7.86213 16.926 8.10373 16.9372C8.09467 17.6594 8.10213 18.3815 8.10053 19.1036C8.0984 19.2663 8.0792 19.4476 7.95653 19.5682C7.77413 19.7527 7.5 19.782 7.25467 19.8018C7.26853 20.0711 7.33573 20.3671 7.53787 20.5586C8.55493 20.5719 9.57307 20.5586 10.5907 20.565C10.7571 20.3436 10.8605 20.0786 10.8664 19.8002C10.6456 19.7826 10.3997 19.7746 10.2248 19.6194C10.0781 19.469 10.0307 19.2508 10.0392 19.0466C10.0467 18.341 10.0296 17.6354 10.0333 16.9298C10.3005 16.9367 10.5688 16.9186 10.836 16.9372C11.0477 17.0002 11.1939 17.1874 11.2952 17.3751C11.6632 18.0935 11.7389 18.9164 12.0685 19.6498C12.1907 19.9292 12.3885 20.1778 12.6456 20.3442C13.0397 20.6103 13.5336 20.6599 13.9971 20.6487C14.3443 20.6407 14.7165 20.5522 14.9523 20.2786C14.9523 20.069 14.9539 19.8594 14.9523 19.6503C14.7139 19.6092 14.4776 19.4983 14.3363 19.2951C14.06 18.9143 14.0163 18.4274 13.7965 18.0178C13.4643 17.3644 12.9763 16.7164 12.2568 16.4716C12.6621 16.397 13.0573 16.2439 13.3901 15.9986C13.7533 15.7319 13.9976 15.3196 14.0872 14.8807C14.1933 14.3772 14.1768 13.8348 13.972 13.3575C13.7651 12.8956 13.3421 12.5607 12.8787 12.3788C12.1752 12.101 11.4088 12.0487 10.66 12.0402C9.54853 12.0284 8.43707 12.053 7.3256 12.0434H7.32613ZM14.8744 12.7116C15.0707 12.7228 15.2856 12.7266 15.452 12.8466C15.5917 12.9463 15.6291 13.1292 15.6328 13.2908C15.636 14.6588 15.6285 16.0274 15.6365 17.3954C15.6467 18.2295 15.876 19.1047 16.4712 19.7164C17.0168 20.2892 17.8013 20.5751 18.5789 20.6322C19.3421 20.6914 20.1539 20.6215 20.8232 20.2188C21.3363 19.9175 21.7101 19.4146 21.9128 18.8604C22.1341 18.2764 22.1901 17.6455 22.1869 17.0252C22.1859 15.7975 22.1869 14.5698 22.1859 13.3426C22.1859 13.1826 22.2077 13.0039 22.3363 12.893C22.5336 12.7271 22.8077 12.7218 23.052 12.7122C23.0504 12.4343 22.9597 12.1639 22.7912 11.9431C21.8968 11.942 21.0029 11.9474 20.1085 11.9404C19.9069 12.1436 19.8413 12.4354 19.8339 12.7127C20.0717 12.7212 20.3325 12.7282 20.5309 12.8764C20.6701 12.9874 20.7011 13.1756 20.7 13.3431C20.7 14.8188 20.7 16.294 20.7005 17.7692C20.6973 18.2002 20.6051 18.6476 20.3469 19.0018C20.1517 19.2743 19.8248 19.4258 19.4973 19.4599C19.0467 19.5202 18.5405 19.4316 18.2179 19.0887C17.8632 18.6855 17.7363 18.134 17.7336 17.6087C17.7325 16.1868 17.7347 14.7644 17.7325 13.3426C17.7283 13.174 17.7608 12.9879 17.8861 12.8658C18.0541 12.7266 18.2851 12.7266 18.4915 12.7106C18.4803 12.4316 18.4035 12.1474 18.2051 11.942C17.1885 11.9452 16.172 11.9436 15.1549 11.9431C14.9688 12.1559 14.884 12.4322 14.8744 12.7116V12.7116ZM24.2275 12.7532C23.7245 13.3714 23.6648 14.2492 23.892 14.9906C24.0717 15.5858 24.5181 16.0551 25.0072 16.4178C25.7581 16.9991 26.7032 17.2652 27.4344 17.8764C27.6397 18.0514 27.8056 18.2887 27.8344 18.5634C27.9149 19.0135 27.6349 19.541 27.1672 19.6332C26.6248 19.7511 26.0365 19.574 25.6296 19.2018C25.1187 18.7575 24.8509 18.1026 24.7267 17.4503H23.5123C23.5133 18.0594 23.588 18.6663 23.6941 19.2652C23.7811 19.7356 23.8792 20.2098 24.0813 20.646C24.3992 20.5138 24.7101 20.365 25.028 20.2322C25.8451 20.5868 26.7624 20.7388 27.6461 20.5943C28.3501 20.4759 29.0355 20.1084 29.4392 19.5074C29.8067 18.9746 29.9016 18.2898 29.7811 17.6626C29.6605 17.0524 29.2445 16.5458 28.7688 16.1671C28.1512 15.7207 27.4504 15.413 26.7811 15.0551C26.4808 14.893 26.1832 14.7026 25.9853 14.4178C25.7869 14.1511 25.756 13.7954 25.82 13.478C25.8829 13.1751 26.1027 12.8898 26.4141 12.8183C26.8515 12.7164 27.3523 12.7874 27.6952 13.0956C28.1507 13.453 28.3283 14.0311 28.484 14.5639C28.8205 14.5634 29.1576 14.5634 29.4941 14.5639C29.4872 13.9255 29.4835 13.285 29.4067 12.6498C29.3725 12.3554 29.2872 12.069 29.1635 11.8002C28.8125 11.8903 28.4685 12.0071 28.1219 12.1132C27.6125 11.861 27.0312 11.8087 26.4712 11.7959C25.6408 11.7948 24.756 12.0828 24.2275 12.7532V12.7532Z" fill="#00A4EA"/>
<path fill-rule="evenodd" clip-rule="evenodd" d="M24.2275 12.7532C24.756 12.0828 25.6408 11.7948 26.4712 11.7959C27.0312 11.8087 27.6125 11.861 28.1219 12.1132C28.4685 12.0071 28.8125 11.8903 29.1635 11.8002C29.2872 12.069 29.3725 12.3554 29.4067 12.6498C29.4835 13.285 29.4872 13.9255 29.4941 14.5639C29.1576 14.5634 28.8205 14.5634 28.484 14.5639C28.3283 14.0311 28.1507 13.453 27.6952 13.0956C27.3523 12.7874 26.8515 12.7164 26.4141 12.8183C26.1027 12.8898 25.8829 13.1751 25.82 13.478C25.756 13.7954 25.7869 14.1511 25.9853 14.4178C26.1832 14.7026 26.4808 14.893 26.7811 15.0551C27.4504 15.413 28.1512 15.7207 28.7688 16.1671C29.2445 16.5458 29.6605 17.0524 29.7811 17.6626C29.9016 18.2898 29.8067 18.9746 29.4392 19.5074C29.0355 20.1084 28.3501 20.4759 27.6461 20.5943C26.7624 20.7388 25.8451 20.5868 25.028 20.2322C24.7101 20.365 24.3992 20.5138 24.0813 20.646C23.8792 20.2098 23.7811 19.7356 23.6941 19.2652C23.588 18.6663 23.5133 18.0594 23.5123 17.4503H24.7267C24.8509 18.1026 25.1187 18.7575 25.6296 19.2018C26.0365 19.574 26.6248 19.7511 27.1672 19.6332C27.6349 19.541 27.9149 19.0135 27.8344 18.5634C27.8056 18.2887 27.6397 18.0514 27.4344 17.8764C26.7032 17.2652 25.7581 16.9991 25.0072 16.4178C24.5181 16.0551 24.0717 15.5858 23.892 14.9906C23.6648 14.2492 23.7245 13.3714 24.2275 12.7532V12.7532ZM14.8744 12.7116C14.884 12.4322 14.9688 12.1559 15.1549 11.9431C16.172 11.9431 17.1885 11.9452 18.2051 11.942C18.4035 12.1474 18.4803 12.4316 18.4915 12.7106C18.2851 12.7266 18.0541 12.7266 17.8861 12.8658C17.7608 12.9879 17.7283 13.174 17.7325 13.3426C17.7347 14.7644 17.7325 16.1868 17.7336 17.6087C17.7363 18.134 17.8632 18.6855 18.2179 19.0887C18.5405 19.4316 19.0467 19.5202 19.4973 19.4599C19.8248 19.4258 20.1517 19.2743 20.3469 19.0018C20.6051 18.6476 20.6973 18.2002 20.7005 17.7692C20.6995 16.294 20.7 14.8188 20.7 13.3431C20.7011 13.1756 20.6701 12.9874 20.5309 12.8764C20.3325 12.7282 20.0717 12.7212 19.8339 12.7127C19.8413 12.4354 19.9069 12.1436 20.1085 11.9404C21.0029 11.9474 21.8968 11.942 22.7912 11.9431C22.9597 12.1639 23.0504 12.4343 23.052 12.7122C22.8077 12.7218 22.5336 12.7271 22.3363 12.893C22.2077 13.0039 22.1859 13.1826 22.1859 13.3426C22.1869 14.5698 22.1859 15.7975 22.1869 17.0252C22.1901 17.6455 22.1341 18.2764 21.9128 18.8604C21.7101 19.4146 21.3363 19.9175 20.8232 20.2188C20.1539 20.6215 19.3421 20.6914 18.5789 20.6322C17.8013 20.5751 17.0168 20.2892 16.4712 19.7164C15.876 19.1047 15.6467 18.2295 15.6365 17.3954C15.6285 16.0274 15.6365 14.6588 15.6328 13.2908C15.6291 13.1292 15.5917 12.9463 15.452 12.8466C15.2856 12.7266 15.0707 12.7228 14.8744 12.7116V12.7116ZM10.6605 12.0402C10.8317 12.2791 10.8808 12.5746 10.8931 12.862C11.2563 12.8951 11.6371 13.0359 11.8504 13.3479C12.1112 13.7351 12.1464 14.2279 12.1032 14.6802C12.0589 15.1666 11.804 15.6498 11.3693 15.8935C10.964 16.1223 10.4808 16.093 10.0333 16.0615V16.9298C10.3005 16.9367 10.5688 16.9186 10.836 16.9372C11.0477 17.0002 11.1939 17.1874 11.2952 17.3751C11.6632 18.0935 11.7389 18.9164 12.0685 19.6498C12.1907 19.9292 12.3885 20.1778 12.6456 20.3442C13.0397 20.6103 13.5336 20.6599 13.9971 20.6487C14.3443 20.6407 14.7165 20.5522 14.9523 20.2786C14.9523 20.069 14.9539 19.8594 14.9523 19.6503C14.7139 19.6092 14.4776 19.4983 14.3363 19.2951C14.06 18.9143 14.0163 18.4274 13.7965 18.0178C13.4643 17.3644 12.9763 16.7164 12.2568 16.4716C12.6621 16.397 13.0573 16.2439 13.3901 15.9986C13.7533 15.7319 13.9976 15.3196 14.0872 14.8807C14.1933 14.3772 14.1768 13.8348 13.972 13.3575C13.7651 12.8956 13.3421 12.5607 12.8787 12.3788C12.1752 12.101 11.4088 12.0487 10.66 12.0402H10.6605Z" fill="white"/>
<path fill-rule="evenodd" clip-rule="evenodd" d="M7.32613 12.0433C8.4376 12.0529 9.54907 12.0284 10.6605 12.0401C10.8317 12.279 10.8808 12.5745 10.8931 12.862C10.604 12.8369 10.3128 12.8513 10.0264 12.8972C10.0237 13.9521 10.0301 15.0065 10.0333 16.0614V16.9297C10.0296 17.6353 10.0467 18.3409 10.0392 19.0465C10.0307 19.2508 10.0781 19.4689 10.2248 19.6193C10.3997 19.7745 10.6456 19.7825 10.8664 19.8001C10.8605 20.0785 10.7571 20.3436 10.5907 20.5649C9.57307 20.5585 8.55493 20.5718 7.53787 20.5585C7.33573 20.367 7.26853 20.071 7.25467 19.8017C7.5 19.782 7.77413 19.7526 7.95653 19.5681C8.0792 19.4476 8.0984 19.2662 8.10053 19.1036C8.10213 18.3814 8.09467 17.6593 8.10373 16.9372C7.86213 16.926 7.61947 16.9292 7.37733 16.9297C7.22373 16.9164 7.09573 17.0198 6.99707 17.1254C6.79707 17.3468 6.70427 17.6369 6.60453 17.9121C6.37467 18.5537 6.28667 19.2486 5.94747 19.8481C5.67867 20.3217 5.14587 20.5905 4.61413 20.6311C4.1192 20.6764 3.52347 20.6801 3.16667 20.2737C3.16773 20.0668 3.16507 19.8593 3.1672 19.6524C3.3912 19.6022 3.62213 19.5116 3.76507 19.3228C4.04027 18.9772 4.07867 18.518 4.27333 18.1318C4.59813 17.4326 5.10213 16.7457 5.8504 16.4711C5.2712 16.3527 4.67813 16.0897 4.3352 15.5868C3.97307 15.0785 3.9192 14.4151 4.0088 13.8145C4.08933 13.2764 4.4296 12.7921 4.9064 12.5318C5.6392 12.1228 6.50427 12.062 7.32613 12.0433V12.0433ZM6.56827 13.0673C6.1192 13.3463 5.99547 13.9185 6.00347 14.4124C5.99013 14.9708 6.2168 15.5756 6.716 15.8694C7.12773 16.1281 7.63387 16.095 8.09787 16.062C8.1032 15.0065 8.09787 13.9505 8.1 12.895C7.59173 12.8236 7.02747 12.7985 6.56827 13.0673V13.0673Z" fill="#003861"/>
</g>
<defs>
<clipPath id="clip0_92_335">
<rect width="32" height="32" fill="white" transform="translate(0.5 0.223633)"/>
</clipPath>
</defs>
</svg>
