<svg width="66" height="43" viewBox="0 0 66 43" fill="none" xmlns="http://www.w3.org/2000/svg">
<path d="M65.5 0.364258L54.9287 42.3643H0.5L11.6814 0.364258H65.5Z" fill="#A20000"/>
<path fill-rule="evenodd" clip-rule="evenodd" d="M29.55 8.51416C24.0272 8.51416 19.55 12.9913 19.55 18.5142C19.55 24.037 24.0272 28.5142 29.55 28.5142C31.9513 28.5142 34.1549 27.6678 35.8788 26.2571L41.8429 32.2213C42.2335 32.6118 42.8666 32.6118 43.2572 32.2213C43.6477 31.8307 43.6477 31.1976 43.2572 30.8071L37.293 24.8429C38.7037 23.119 39.55 20.9154 39.55 18.5142C39.55 12.9913 35.0729 8.51416 29.55 8.51416ZM21.55 18.5142C21.55 14.0959 25.1318 10.5142 29.55 10.5142C33.9683 10.5142 37.55 14.0959 37.55 18.5142C37.55 22.9324 33.9683 26.5142 29.55 26.5142C25.1318 26.5142 21.55 22.9324 21.55 18.5142Z" fill="white"/>
</svg>
