<svg width="88" height="72" viewBox="0 0 88 72" fill="none" xmlns="http://www.w3.org/2000/svg">
<path d="M76 0H12C5.373 0 0 5.373 0 12V60C0 66.627 5.373 72 12 72H76C82.627 72 88 66.627 88 60V12C88 5.373 82.627 0 76 0ZM76 8C76.462 8 76.906 8.078 77.318 8.223L44 34.878L10.682 8.223C11.094 8.078 11.538 8 12 8H76ZM76 64H12C9.791 64 8 62.209 8 60V16.322L41.501 43.123C42.231 43.708 43.115 44 44 44C44.885 44 45.769 43.708 46.499 43.123L80 16.322V60C80 62.209 78.209 64 76 64Z" fill="currentColor"/>
</svg>
