<svg width="16" height="18" viewBox="0 0 16 18" fill="none" xmlns="http://www.w3.org/2000/svg">
<path d="M14.5909 7.54545C14.5909 12.6364 8.04545 17 8.04545 17C8.04545 17 1.5 12.6364 1.5 7.54545C1.5 5.80949 2.18961 4.14463 3.41712 2.91712C4.64463 1.68961 6.30949 1 8.04545 1C9.78142 1 11.4463 1.68961 12.6738 2.91712C13.9013 4.14463 14.5909 5.80949 14.5909 7.54545Z" stroke="currentColor" stroke-width="1.2" stroke-linecap="round" stroke-linejoin="round"/>
<path d="M8.04534 9.72727C9.25033 9.72727 10.2272 8.75044 10.2272 7.54545C10.2272 6.34047 9.25033 5.36363 8.04534 5.36363C6.84036 5.36363 5.86353 6.34047 5.86353 7.54545C5.86353 8.75044 6.84036 9.72727 8.04534 9.72727Z" stroke="currentColor" stroke-width="1.2" stroke-linecap="round" stroke-linejoin="round"/>
</svg>
