<svg width="33" height="33" viewBox="0 0 33 33" fill="none" xmlns="http://www.w3.org/2000/svg">
<rect x="0.5" y="0.223633" width="32" height="32" rx="16" fill="#EE8208"/>
<path d="M16.4998 8.78366C17.7569 8.78366 18.7794 9.80619 18.7794 11.0633C18.7794 12.3193 17.7566 13.3418 16.4998 13.3418C15.2435 13.3418 14.2207 12.3193 14.2207 11.0633C14.2205 9.80593 15.2438 8.78366 16.4998 8.78366ZM16.4998 16.567C19.5363 16.567 22.0057 14.0985 22.0057 11.0633C22.0057 8.02651 19.5366 5.55688 16.4998 5.55688C13.4636 5.55688 10.994 8.02678 10.994 11.0633C10.994 14.0985 13.4636 16.567 16.4998 16.567ZM18.7273 21.058C19.8599 20.8001 20.9408 20.3525 21.9243 19.7342C22.2863 19.5065 22.543 19.1442 22.638 18.7271C22.7329 18.31 22.6583 17.8723 22.4305 17.5102C22.3179 17.3308 22.1709 17.1753 21.9981 17.0527C21.8253 16.9301 21.6301 16.8427 21.4235 16.7956C21.2169 16.7485 21.0031 16.7426 20.7942 16.7782C20.5853 16.8139 20.3855 16.8903 20.2062 17.0032C17.9506 18.4213 15.0475 18.4202 12.7937 17.0032C12.6144 16.8903 12.4146 16.8138 12.2058 16.7782C11.9969 16.7425 11.7831 16.7484 11.5765 16.7955C11.37 16.8426 11.1747 16.93 11.0019 17.0526C10.8292 17.1753 10.6823 17.3308 10.5697 17.5102C10.3418 17.8722 10.2671 18.3098 10.3618 18.7269C10.4566 19.144 10.7132 19.5063 11.0751 19.7342C12.0585 20.3523 13.1392 20.7998 14.2716 21.058L11.1937 24.1364C10.8913 24.439 10.7214 24.8493 10.7214 25.2772C10.7215 25.705 10.8915 26.1153 11.1941 26.4177C11.4967 26.7202 11.907 26.8901 12.3349 26.89C12.7627 26.8899 13.173 26.7199 13.4754 26.4173L16.4993 23.393L19.525 26.4176C19.6746 26.5674 19.8523 26.6863 20.0478 26.7674C20.2434 26.8485 20.4531 26.8902 20.6648 26.8902C20.8765 26.8902 21.0862 26.8485 21.2818 26.7674C21.4773 26.6863 21.655 26.5674 21.8046 26.4176C21.9547 26.268 22.0737 26.0903 22.1549 25.8946C22.2362 25.6989 22.278 25.4891 22.278 25.2773C22.278 25.0654 22.2362 24.8556 22.1549 24.6599C22.0737 24.4643 21.9547 24.2865 21.8046 24.1369L18.7273 21.058Z" fill="white"/>
</svg>
