<svg width="26" height="26" viewBox="0 0 26 26" fill="none" xmlns="http://www.w3.org/2000/svg">
<path d="M0.253634 24.5288L1.44583 25.7463C1.61493 25.8985 1.81786 25.9746 2.05461 25.9746C2.29136 25.9746 2.49428 25.8985 2.66339 25.7463L6.49363 21.8907C7.50827 22.4657 8.59054 22.7532 9.74046 22.7532C11.533 22.7532 13.0634 22.119 14.3317 20.8507C15.6 19.5824 16.2341 18.052 16.2341 16.2595C16.2341 14.467 15.6 12.9366 14.3317 11.6683C13.0634 10.4 11.533 9.76585 9.74046 9.76585C7.94794 9.76585 6.41754 10.4 5.14924 11.6683C3.88095 12.9366 3.2468 14.467 3.2468 16.2595C3.2468 17.4094 3.53428 18.4833 4.10924 19.481L0.253634 23.3366C0.0845281 23.5057 -2.47955e-05 23.7044 -2.47955e-05 23.9327C-2.47955e-05 24.161 0.0845281 24.3597 0.253634 24.5288V24.5288ZM9.72778 11.3893C11.0722 11.3893 12.2221 11.8628 13.1775 12.8098C14.133 13.7567 14.6107 14.9024 14.6107 16.2468C14.6107 17.5912 14.133 18.7411 13.1775 19.6966C12.2221 20.652 11.0722 21.1298 9.72778 21.1298C8.38339 21.1298 7.2377 20.652 6.29071 19.6966C5.34372 18.7411 4.87022 17.5912 4.87022 16.2468C4.87022 14.9024 5.34372 13.7567 6.29071 12.8098C7.2377 11.8628 8.38339 11.3893 9.72778 11.3893ZM8.11705 8.29463V8.14244C8.11705 7.68585 7.9564 7.30114 7.6351 6.98829C7.3138 6.67545 6.93331 6.51902 6.49363 6.51902H3.2468C2.79022 6.51902 2.40128 6.67545 2.07998 6.98829C1.75867 7.30114 1.59802 7.68585 1.59802 8.14244V16.2595H1.62339C1.62339 14.3148 2.2364 12.5941 3.46241 11.0976C4.68843 9.60098 6.23998 8.66667 8.11705 8.29463ZM16.2341 11.3893V4.89561C16.2341 4.43902 16.0735 4.05431 15.7522 3.74146C15.4309 3.42862 15.0504 3.2722 14.6107 3.2722H11.3639C10.9073 3.2722 10.5226 3.42862 10.2097 3.74146C9.89689 4.05431 9.74046 4.43902 9.74046 4.89561V8.14244C11.0426 8.14244 12.2601 8.43415 13.3931 9.01756C14.5262 9.60098 15.4731 10.3915 16.2341 11.3893ZM16.2341 21.1044C15.4731 22.119 14.5262 22.918 13.3931 23.5015C12.2601 24.0849 11.0426 24.3766 9.74046 24.3766H8.11705C8.11705 24.8163 8.27347 25.1967 8.58632 25.518C8.89916 25.8393 9.28388 26 9.74046 26H24.3512C24.7909 26 25.1714 25.8393 25.4927 25.518C25.814 25.1967 25.9746 24.812 25.9746 24.3639C25.9746 23.9158 25.8182 23.5353 25.5053 23.2224C25.1925 22.9096 24.8078 22.7532 24.3512 22.7532V1.62341C24.3512 1.18374 24.1905 0.803252 23.8692 0.481951C23.5479 0.16065 23.1675 0 22.7278 0H19.481C19.0244 0 18.6397 0.16065 18.3268 0.481951C18.014 0.803252 17.8575 1.18374 17.8575 1.62341V22.7532H16.2341V21.1044Z" fill="currentColor"/>
</svg>
