<svg width="29" height="28" viewBox="0 0 29 28" fill="none" xmlns="http://www.w3.org/2000/svg">
<rect x="0.5" width="28" height="28" rx="14" fill="white"/>
<path d="M17.279 15.2323V16.7723C17.097 16.9543 16.803 17.1083 16.397 17.2483C16.005 17.3743 15.627 17.4443 15.249 17.4443C14.255 17.4443 13.443 17.1363 12.841 16.5063C12.239 15.8763 11.931 15.0363 11.931 14.0003C11.931 12.9223 12.239 12.0823 12.841 11.4803C13.443 10.8643 14.241 10.5563 15.207 10.5563C16.061 10.5563 16.929 10.8503 17.419 11.3123L18.147 9.94029C17.307 9.28229 16.257 8.94629 14.997 8.94629C13.527 8.94629 12.351 9.43629 11.455 10.4023C10.559 11.3683 10.111 12.5583 10.111 14.0003C10.111 15.5403 10.559 16.7723 11.469 17.6823C12.379 18.5923 13.639 19.0543 15.221 19.0543C15.851 19.0543 16.523 18.9283 17.209 18.6903C17.909 18.4383 18.469 18.1023 18.889 17.6823V13.6223H14.913V15.2323H17.279Z" fill="#A20000"/>
</svg>
