<svg width="29" height="28" viewBox="0 0 29 28" fill="none" xmlns="http://www.w3.org/2000/svg">
<rect x="0.5" width="28" height="28" rx="14" fill="white"/>
<path d="M18.126 18.9211V9.1211C17.944 9.1211 17.538 9.1211 16.922 9.1071C16.32 9.0931 15.9 9.0791 15.69 9.0791C14.346 9.0791 13.338 9.4011 12.666 10.0451C11.994 10.6751 11.658 11.4871 11.658 12.4671C11.658 13.7411 12.372 14.6791 13.38 15.1831L10.874 18.9211H12.806L15.004 15.5331H16.418V18.9211H18.126ZM14.85 13.9231C14.08 13.7691 13.478 13.1951 13.478 12.3551C13.478 11.3611 14.22 10.6891 15.34 10.6891C15.578 10.6891 15.942 10.7031 16.418 10.7311V13.9231H14.85Z" fill="#A20000"/>
</svg>
