<svg width="14" height="14" viewBox="0 0 14 14" fill="none" xmlns="http://www.w3.org/2000/svg">
<path fill-rule="evenodd" clip-rule="evenodd" d="M0.579346 7.00001C0.579346 10.5438 3.43253 13.4167 6.9521 13.4167C10.4717 13.4167 13.3249 10.5438 13.3249 7.00001C13.3249 3.45618 10.4717 0.583344 6.9521 0.583344C3.43253 0.583344 0.579346 3.45618 0.579346 7.00001ZM12.1662 7.00001C12.1662 9.8995 9.83176 12.25 6.9521 12.25C4.07245 12.25 1.73803 9.8995 1.73803 7.00001C1.73803 4.10051 4.07245 1.75001 6.9521 1.75001C9.83176 1.75001 12.1662 4.10051 12.1662 7.00001ZM6.95229 10.499C7.27236 10.499 7.53182 10.2379 7.53182 9.91571C7.53182 9.59355 7.27236 9.33238 6.95229 9.33238C6.63223 9.33238 6.37276 9.59355 6.37276 9.91571C6.37276 10.2379 6.63223 10.499 6.95229 10.499ZM7.54674 6.20374C6.82689 6.56614 6.51208 6.93595 6.51208 7.79953H7.52014C7.52014 7.39437 7.58335 7.32011 7.99756 7.11158C8.71741 6.74917 9.03222 6.37937 9.03222 5.51578C9.03222 4.40975 8.16748 3.73953 7.01611 3.73953C5.90264 3.73953 5 4.64839 5 5.76953H6.00805C6.00805 5.20896 6.45938 4.75453 7.01611 4.75453C7.65983 4.75453 8.02416 5.03691 8.02416 5.51578C8.02416 5.92095 7.96095 5.99521 7.54674 6.20374Z" fill="black"/>
</svg>
