<svg width="30" height="26" viewBox="0 0 30 26" fill="none" xmlns="http://www.w3.org/2000/svg">
<path d="M29.664 19.754C29.664 16.106 27.072 13.898 23.904 13.898C22.944 13.898 22.272 14.186 21.984 14.378C22.08 10.442 24.96 6.02596 29.184 5.06596V0.553955C23.808 1.12995 16.416 6.02596 16.416 17.354C16.416 22.826 19.68 25.514 23.424 25.514C26.976 25.514 29.664 22.922 29.664 19.754ZM13.248 19.754C13.248 16.106 10.656 13.898 7.488 13.898C6.528 13.898 5.856 14.186 5.568 14.378C5.664 10.442 8.544 6.02596 12.768 5.06596V0.553955C7.392 1.12995 0 6.02596 0 17.354C0 22.826 3.264 25.514 7.008 25.514C10.56 25.514 13.248 22.922 13.248 19.754Z" fill="#A20000"/>
</svg>
