<svg width="25" height="23" viewBox="0 0 25 23" fill="none" xmlns="http://www.w3.org/2000/svg">
<path d="M24.5968 17.1163L23.1183 16.4477C23.1183 16.4477 20.9677 15.5116 19.6237 14.843C19.4892 14.843 19.3548 14.7093 19.2204 14.7093C18.8172 14.7093 18.5484 14.843 18.2796 14.9767C18.2796 14.9767 18.1452 15.1105 16.2634 17.25C16.129 17.5174 15.8602 17.6512 15.5914 17.6512H15.457C15.3226 17.6512 15.0538 17.5174 14.9194 17.3837L14.2473 17.1163C12.7688 16.4477 11.4247 15.6454 10.3495 14.5756C10.0806 14.3081 9.67742 14.0407 9.4086 13.7733C8.46774 12.8372 7.52688 11.7674 6.85484 10.564L6.72043 10.2965C6.58602 10.1628 6.58602 10.0291 6.45161 9.76163C6.45161 9.49419 6.45161 9.22674 6.58602 9.09302C6.58602 9.09302 7.12366 8.42442 7.52688 8.02326C7.7957 7.75582 7.93011 7.35465 8.19893 7.08721C8.46774 6.68605 8.60215 6.15116 8.46774 5.75C8.33333 5.0814 6.72043 1.47093 6.3172 0.668605C6.04839 0.267442 5.77957 0.133721 5.37634 0L4.97312 0C4.7043 0 4.30108 0 3.89785 0C3.62903 0 3.36021 0.133721 3.0914 0.133721L2.95699 0.267442C2.68817 0.401163 2.41936 0.668605 2.15054 0.802326C1.88172 1.06977 1.74731 1.33721 1.47849 1.60465C0.537635 2.80814 0 4.27907 0 5.75C0 6.81977 0.268817 7.88953 0.672043 8.82558L0.806452 9.22675C2.01613 11.7674 3.62903 14.0407 5.77957 16.0465L6.3172 16.5814C6.72043 16.9826 7.12366 17.25 7.39247 17.6512C10.2151 20.0581 13.4409 21.7965 17.0699 22.7326C17.4731 22.8663 18.0108 22.8663 18.414 23C18.8172 23 19.3548 23 19.7581 23C20.4301 23 21.2366 22.7326 21.7742 22.4651C22.1774 22.1977 22.4462 22.1977 22.7151 21.9302L22.9839 21.6628C23.2527 21.3953 23.5215 21.2616 23.7903 20.9942C24.0591 20.7267 24.328 20.4593 24.4624 20.1919C24.7312 19.657 24.8656 18.9884 25 18.3198C25 18.0523 25 17.6512 25 17.3837C25 17.3837 24.8656 17.25 24.5968 17.1163Z" fill="currentColor"/>
</svg>
