<svg width="33" height="33" viewBox="0 0 33 33" fill="none" xmlns="http://www.w3.org/2000/svg">
<g clip-path="url(#clip0_92_334)">
<rect x="0.5" y="0.223633" width="32" height="32" rx="16" fill="#419FD9"/>
<path fill-rule="evenodd" clip-rule="evenodd" d="M20.057 24.1468C21.1753 24.636 21.5947 23.6109 21.5947 23.6109L24.5536 8.74628C24.5303 7.74443 23.179 8.3502 23.179 8.3502L6.61359 14.8505C6.61359 14.8505 5.82143 15.1301 5.89133 15.6194C5.96123 16.1087 6.59029 16.3417 6.59029 16.3417L10.7608 17.7396C10.7608 17.7396 12.0189 21.8635 12.2752 22.6556C12.5082 23.4245 12.7179 23.4478 12.7179 23.4478C12.9509 23.541 13.1605 23.3779 13.1605 23.3779L15.8632 20.9315L20.057 24.1468ZM20.7793 11.3787C20.7793 11.3787 21.3617 11.0292 21.3384 11.3787C21.3384 11.3787 21.4316 11.4253 21.1287 11.7515C20.8491 12.0311 14.2556 17.949 13.3702 18.7411C13.3004 18.7877 13.2538 18.8576 13.2538 18.9508L12.9975 21.1409C12.9509 21.3739 12.648 21.3972 12.5781 21.1875L11.4831 17.5995C11.4365 17.4597 11.4831 17.2966 11.6228 17.2034L20.7793 11.3787Z" fill="white"/>
</g>
<defs>
<clipPath id="clip0_92_334">
<rect width="32" height="32" fill="white" transform="translate(0.5 0.223633)"/>
</clipPath>
</defs>
</svg>
