<svg width="13" height="13" viewBox="0 0 13 13" fill="none" xmlns="http://www.w3.org/2000/svg">
<path fill-rule="evenodd" clip-rule="evenodd" d="M0.129395 6.43669C0.129395 9.98051 2.98257 12.8534 6.50215 12.8534C10.0217 12.8534 12.8749 9.98051 12.8749 6.43669C12.8749 2.89286 10.0217 0.0200195 6.50215 0.0200195C2.98257 0.0200195 0.129395 2.89286 0.129395 6.43669ZM11.7162 6.43669C11.7162 9.33618 9.3818 11.6867 6.50215 11.6867C3.6225 11.6867 1.28808 9.33618 1.28808 6.43669C1.28808 3.53719 3.6225 1.18669 6.50215 1.18669C9.3818 1.18669 11.7162 3.53719 11.7162 6.43669ZM6.50234 9.93572C6.82241 9.93572 7.08187 9.67455 7.08187 9.35239C7.08187 9.03022 6.82241 8.76905 6.50234 8.76905C6.18227 8.76905 5.92281 9.03022 5.92281 9.35239C5.92281 9.67455 6.18227 9.93572 6.50234 9.93572ZM7.08358 2.93572H5.92452V7.60239H7.08358V2.93572Z" fill="black"/>
</svg>
