<svg width="33" height="33" viewBox="0 0 33 33" fill="none" xmlns="http://www.w3.org/2000/svg">
<rect x="0.5" y="0.223633" width="32" height="32" rx="16" fill="#5181B8"/>
<path fill-rule="evenodd" clip-rule="evenodd" d="M26.6772 11.2468C26.8256 10.7523 26.6772 10.3889 25.9714 10.3889H23.6375C23.044 10.3889 22.7706 10.7028 22.6222 11.0491C22.6222 11.0491 21.4353 13.9419 19.7539 15.821C19.21 16.365 18.9627 16.5379 18.666 16.5379C18.5176 16.5379 18.3029 16.365 18.3029 15.8705V11.2468C18.3029 10.6533 18.1307 10.3889 17.6361 10.3889H13.9686C13.5978 10.3889 13.3748 10.6643 13.3748 10.9254C13.3748 11.488 14.2153 11.6177 14.302 13.2001V16.637C14.302 17.3906 14.1659 17.5272 13.8692 17.5272C13.078 17.5272 11.1536 14.6212 10.012 11.2963C9.78825 10.65 9.56387 10.3889 8.96739 10.3889H6.63351C5.96669 10.3889 5.83333 10.7028 5.83333 11.0491C5.83333 11.6672 6.62468 14.7333 9.51752 18.7882C11.4463 21.5572 14.1633 23.0585 16.6359 23.0585C18.1195 23.0585 18.3029 22.7251 18.3029 22.1508V20.0578C18.3029 19.391 18.4434 19.258 18.9131 19.258C19.2595 19.258 19.8528 19.431 21.2376 20.7662C22.82 22.3484 23.0807 23.0585 23.9709 23.0585H26.3048C26.9716 23.0585 27.305 22.7251 27.1126 22.0671C26.9022 21.4113 26.1467 20.4601 25.1442 19.3322C24.6002 18.6892 23.7842 17.9969 23.5371 17.6508C23.1909 17.2057 23.2897 17.008 23.5371 16.6125C23.5371 16.6125 26.3805 12.6069 26.6772 11.247V11.2468Z" fill="white"/>
</svg>
