<svg width="33" height="33" viewBox="0 0 33 33" fill="none" xmlns="http://www.w3.org/2000/svg">
<g clip-path="url(#clip0_92_333)">
<rect x="0.5" y="0.223633" width="32" height="32" rx="16" fill="#0DC143"/>
<path d="M23.6671 9.03121C21.9518 7.26544 19.5806 6.30688 17.159 6.30688C12.0131 6.30688 7.87613 10.4943 7.92658 15.5898C7.92658 17.2042 8.38064 18.7681 9.1374 20.1808L7.82568 24.9736L12.7194 23.7123C14.0815 24.469 15.5951 24.8222 17.1086 24.8222C22.2041 24.8222 26.341 20.6348 26.341 15.5393C26.341 13.0672 25.3824 10.7465 23.6671 9.03121ZM17.159 23.2582C15.7969 23.2582 14.4347 22.9051 13.2743 22.1988L12.9716 22.0474L10.0455 22.8042L10.8023 19.9285L10.6005 19.6258C8.38064 16.0438 9.4401 11.3015 13.0725 9.08166C16.705 6.86184 21.3969 7.9213 23.6167 11.5537C25.8365 15.1862 24.777 19.8781 21.1446 22.0979C19.9842 22.8546 18.5716 23.2582 17.159 23.2582ZM21.5987 17.6582L21.0437 17.406C21.0437 17.406 20.2365 17.0528 19.732 16.8006C19.6815 16.8006 19.6311 16.7501 19.5806 16.7501C19.4293 16.7501 19.3284 16.8006 19.2275 16.851C19.2275 16.851 19.177 16.9015 18.4707 17.7087C18.4203 17.8096 18.3194 17.86 18.2185 17.86H18.168C18.1176 17.86 18.0167 17.8096 17.9662 17.7591L17.714 17.6582C17.159 17.406 16.6545 17.1033 16.2509 16.6997C16.15 16.5988 15.9987 16.4979 15.8978 16.397C15.5446 16.0438 15.1914 15.6402 14.9392 15.1862L14.8887 15.0853C14.8383 15.0348 14.8383 14.9844 14.7878 14.8835C14.7878 14.7826 14.7878 14.6817 14.8383 14.6312C14.8383 14.6312 15.0401 14.379 15.1914 14.2276C15.2924 14.1267 15.3428 13.9754 15.4437 13.8745C15.5446 13.7231 15.5951 13.5213 15.5446 13.3699C15.4942 13.1177 14.8887 11.7555 14.7374 11.4528C14.6365 11.3015 14.5356 11.251 14.3842 11.2006H14.2329C14.132 11.2006 13.9806 11.2006 13.8293 11.2006C13.7284 11.2006 13.6275 11.251 13.5266 11.251L13.4761 11.3015C13.3752 11.3519 13.2743 11.4528 13.1734 11.5033C13.0725 11.6042 13.0221 11.7051 12.9212 11.806C12.568 12.26 12.3662 12.815 12.3662 13.3699C12.3662 13.7736 12.4671 14.1772 12.6185 14.5303L12.6689 14.6817C13.123 15.6402 13.7284 16.4979 14.5356 17.2546L14.7374 17.4564C14.8887 17.6078 15.0401 17.7087 15.141 17.86C16.2005 18.7681 17.4113 19.424 18.7734 19.7772C18.9248 19.8276 19.1266 19.8276 19.2779 19.8781C19.4293 19.8781 19.6311 19.8781 19.7824 19.8781C20.0347 19.8781 20.3374 19.7772 20.5392 19.6763C20.6905 19.5754 20.7914 19.5754 20.8923 19.4745L20.9933 19.3736C21.0942 19.2727 21.1951 19.2222 21.296 19.1213C21.3969 19.0204 21.4978 18.9195 21.5482 18.8186C21.6491 18.6168 21.6996 18.3645 21.75 18.1123C21.75 18.0114 21.75 17.86 21.75 17.7591C21.75 17.7591 21.6996 17.7087 21.5987 17.6582Z" fill="white"/>
</g>
<defs>
<clipPath id="clip0_92_333">
<rect width="32" height="32" fill="white" transform="translate(0.5 0.223633)"/>
</clipPath>
</defs>
</svg>
