<svg width="24" height="24" viewBox="0 0 24 24" fill="none" xmlns="http://www.w3.org/2000/svg">
<path d="M20.3018 3.73874C18.1577 1.53153 15.1937 0.333336 12.1667 0.333336C5.73423 0.333336 0.563063 5.56757 0.626126 11.9369C0.626126 13.955 1.19369 15.9099 2.13964 17.6757L0.5 23.6667L6.61712 22.0901C8.31982 23.036 10.2117 23.4775 12.1036 23.4775C18.473 23.4775 23.6441 18.2432 23.6441 11.8739C23.6441 8.78378 22.4459 5.88288 20.3018 3.73874ZM12.1667 21.5225C10.464 21.5225 8.76126 21.0811 7.31081 20.1982L6.93243 20.009L3.27477 20.955L4.22072 17.3604L3.96847 16.982C1.19369 12.5045 2.51802 6.57658 7.05856 3.8018C11.5991 1.02703 17.464 2.35135 20.2387 6.89189C23.0135 11.4324 21.6892 17.2973 17.1486 20.0721C15.6982 21.018 13.9324 21.5225 12.1667 21.5225ZM17.7162 14.5225L17.0225 14.2072C17.0225 14.2072 16.0135 13.7658 15.3829 13.4504C15.3198 13.4504 15.2568 13.3874 15.1937 13.3874C15.0045 13.3874 14.8784 13.4504 14.7522 13.5135C14.7522 13.5135 14.6892 13.5766 13.8063 14.5856C13.7432 14.7117 13.6171 14.7748 13.491 14.7748H13.4279C13.3649 14.7748 13.2387 14.7117 13.1757 14.6486L12.8604 14.5225C12.1667 14.2072 11.536 13.8288 11.0315 13.3243C10.9054 13.1982 10.7162 13.0721 10.5901 12.9459C10.1486 12.5045 9.70721 12 9.39189 11.4324L9.32883 11.3063C9.26576 11.2432 9.26576 11.1802 9.2027 11.0541C9.2027 10.9279 9.2027 10.8018 9.26576 10.7387C9.26576 10.7387 9.51802 10.4234 9.70721 10.2342C9.83333 10.1081 9.89639 9.91892 10.0225 9.79279C10.1486 9.6036 10.2117 9.35135 10.1486 9.16216C10.0856 8.84685 9.32883 7.14414 9.13964 6.76577C9.01351 6.57658 8.88739 6.51351 8.6982 6.45045H8.50901C8.38288 6.45045 8.19369 6.45045 8.0045 6.45045C7.87838 6.45045 7.75225 6.51351 7.62612 6.51351L7.56306 6.57658C7.43694 6.63964 7.31081 6.76577 7.18468 6.82883C7.05856 6.95496 6.99549 7.08108 6.86937 7.20721C6.42793 7.77477 6.17567 8.46847 6.17567 9.16216C6.17567 9.66667 6.3018 10.1712 6.49099 10.6126L6.55405 10.8018C7.12162 12 7.87838 13.0721 8.88739 14.018L9.13964 14.2703C9.32883 14.4595 9.51802 14.5856 9.64414 14.7748C10.9685 15.9099 12.482 16.7297 14.1847 17.1712C14.3739 17.2342 14.6261 17.2342 14.8153 17.2973C15.0045 17.2973 15.2568 17.2973 15.4459 17.2973C15.7613 17.2973 16.1396 17.1712 16.3919 17.045C16.5811 16.9189 16.7072 16.9189 16.8333 16.7928L16.9595 16.6667C17.0856 16.5405 17.2117 16.4775 17.3378 16.3513C17.464 16.2252 17.5901 16.0991 17.6532 15.973C17.7793 15.7207 17.8423 15.4054 17.9054 15.0901C17.9054 14.964 17.9054 14.7748 17.9054 14.6486C17.9054 14.6486 17.8423 14.5856 17.7162 14.5225Z" fill="currentColor"/>
</svg>
