<svg width="33" height="33" viewBox="0 0 33 33" fill="none" xmlns="http://www.w3.org/2000/svg">
<rect x="0.5" y="0.223633" width="32" height="32" rx="16" fill="#FF0000"/>
<path fill-rule="evenodd" clip-rule="evenodd" d="M24.3253 9.65026C25.182 9.8809 25.8574 10.5563 26.0881 11.413C26.5164 12.9781 26.4999 16.24 26.4999 16.24C26.4999 16.24 26.4999 19.4855 26.0881 21.0505C25.8574 21.9072 25.182 22.5827 24.3253 22.8133C22.7602 23.2252 16.5 23.2252 16.5 23.2252C16.5 23.2252 10.2562 23.2252 8.67462 22.7968C7.81795 22.5662 7.1425 21.8907 6.91186 21.0341C6.5 19.4855 6.5 16.2235 6.5 16.2235C6.5 16.2235 6.5 12.9781 6.91186 11.413C7.1425 10.5563 7.83443 9.86443 8.67462 9.63378C10.2397 9.22192 16.5 9.22192 16.5 9.22192C16.5 9.22192 22.7602 9.22192 24.3253 9.65026ZM19.7125 16.2235L14.5066 19.2219V13.2252L19.7125 16.2235Z" fill="white"/>
</svg>
